<svg width="220" height="240" viewBox="0 0 220 240" fill="none" xmlns="http://www.w3.org/2000/svg">
<rect width="220" height="240" rx="6" fill="white"/>
<path d="M58.6321 64V56.7273H61.5014C62.053 56.7273 62.523 56.8326 62.9112 57.0433C63.2995 57.2517 63.5954 57.5417 63.799 57.9134C64.005 58.2827 64.108 58.7088 64.108 59.1918C64.108 59.6747 64.0038 60.1009 63.7955 60.4702C63.5871 60.8395 63.2853 61.1271 62.8899 61.3331C62.4969 61.5391 62.0211 61.642 61.4624 61.642H59.6335V60.4098H61.2138C61.5097 60.4098 61.7536 60.3589 61.9453 60.2571C62.1394 60.1529 62.2839 60.0097 62.3786 59.8274C62.4756 59.6428 62.5241 59.4309 62.5241 59.1918C62.5241 58.9503 62.4756 58.7396 62.3786 58.5597C62.2839 58.3774 62.1394 58.2365 61.9453 58.1371C61.7512 58.0353 61.505 57.9844 61.2067 57.9844H60.1697V64H58.6321ZM66.8872 64.103C66.5392 64.103 66.2291 64.0426 65.9568 63.9219C65.6846 63.7988 65.4691 63.6177 65.3105 63.3786C65.1543 63.1371 65.0761 62.8364 65.0761 62.4766C65.0761 62.1735 65.1318 61.919 65.243 61.7131C65.3543 61.5071 65.5058 61.3414 65.6976 61.2159C65.8893 61.0904 66.1071 60.9957 66.351 60.9318C66.5972 60.8679 66.8553 60.8229 67.1251 60.7969C67.4424 60.7637 67.6981 60.733 67.8922 60.7045C68.0863 60.6738 68.2272 60.6288 68.3148 60.5696C68.4024 60.5104 68.4462 60.4228 68.4462 60.3068V60.2855C68.4462 60.0606 68.3751 59.8866 68.2331 59.7635C68.0934 59.6404 67.8946 59.5788 67.6365 59.5788C67.3643 59.5788 67.1476 59.6392 66.9866 59.7599C66.8257 59.8783 66.7191 60.0275 66.667 60.2074L65.2679 60.0938C65.3389 59.7623 65.4786 59.4759 65.6869 59.2344C65.8953 58.9905 66.164 58.8035 66.493 58.6733C66.8245 58.5407 67.208 58.4744 67.6436 58.4744C67.9466 58.4744 68.2366 58.5099 68.5136 58.581C68.793 58.652 69.0404 58.7621 69.2558 58.9112C69.4736 59.0604 69.6453 59.2521 69.7707 59.4865C69.8962 59.7185 69.9589 59.9967 69.9589 60.321V64H68.5243V63.2436H68.4817C68.3941 63.4141 68.2769 63.5644 68.1301 63.6946C67.9833 63.8224 67.807 63.9231 67.601 63.9964C67.395 64.0675 67.1571 64.103 66.8872 64.103ZM67.3205 63.0589C67.543 63.0589 67.7395 63.0152 67.9099 62.9276C68.0804 62.8376 68.2142 62.7169 68.3112 62.5653C68.4083 62.4138 68.4568 62.2422 68.4568 62.0504V61.4716C68.4095 61.5024 68.3444 61.5308 68.2615 61.5568C68.181 61.5805 68.0899 61.603 67.9881 61.6243C67.8863 61.6432 67.7845 61.661 67.6827 61.6776C67.5809 61.6918 67.4885 61.7048 67.4057 61.7166C67.2281 61.7427 67.0731 61.7841 66.9405 61.8409C66.8079 61.8977 66.7049 61.9747 66.6315 62.0717C66.5581 62.1664 66.5214 62.2848 66.5214 62.4268C66.5214 62.6328 66.596 62.7902 66.7452 62.8991C66.8967 63.0057 67.0884 63.0589 67.3205 63.0589ZM73.99 66.1591C73.4999 66.1591 73.0797 66.0916 72.7293 65.9567C72.3813 65.8241 72.1043 65.643 71.8984 65.4134C71.6924 65.1837 71.5586 64.9257 71.4971 64.6392L72.8962 64.451C72.9388 64.5599 73.0063 64.6617 73.0987 64.7564C73.191 64.8511 73.3129 64.9268 73.4644 64.9837C73.6183 65.0429 73.8053 65.0724 74.0255 65.0724C74.3546 65.0724 74.6256 64.992 74.8387 64.831C75.0541 64.6723 75.1619 64.406 75.1619 64.032V63.0341H75.0979C75.0317 63.1856 74.9322 63.3288 74.7996 63.4638C74.6671 63.5987 74.4966 63.7088 74.2883 63.794C74.0799 63.8793 73.8314 63.9219 73.5425 63.9219C73.133 63.9219 72.7601 63.8272 72.4239 63.6378C72.0901 63.446 71.8238 63.1536 71.6249 62.7607C71.4284 62.3653 71.3302 61.8658 71.3302 61.2621C71.3302 60.6442 71.4308 60.1281 71.632 59.7138C71.8333 59.2995 72.1008 58.9893 72.4346 58.7834C72.7708 58.5774 73.1389 58.4744 73.539 58.4744C73.8444 58.4744 74.1001 58.5265 74.306 58.6307C74.512 58.7325 74.6777 58.8603 74.8032 59.0142C74.931 59.1657 75.0293 59.3149 75.0979 59.4616H75.1548V58.5455H76.6569V64.0533C76.6569 64.5173 76.5433 64.9055 76.316 65.218C76.0887 65.5305 75.7738 65.7649 75.3714 65.9212C74.9713 66.0798 74.5108 66.1591 73.99 66.1591ZM74.0219 62.7855C74.2658 62.7855 74.4718 62.7251 74.6398 62.6044C74.8103 62.4813 74.9405 62.3061 75.0305 62.0788C75.1228 61.8492 75.169 61.5746 75.169 61.255C75.169 60.9354 75.124 60.6584 75.034 60.424C74.9441 60.1873 74.8138 60.0038 74.6434 59.8736C74.4729 59.7434 74.2658 59.6783 74.0219 59.6783C73.7734 59.6783 73.5638 59.7457 73.3934 59.8807C73.2229 60.0133 73.0939 60.1979 73.0063 60.4347C72.9187 60.6714 72.8749 60.9448 72.8749 61.255C72.8749 61.5698 72.9187 61.8421 73.0063 62.0717C73.0963 62.299 73.2253 62.4754 73.3934 62.6009C73.5638 62.724 73.7734 62.7855 74.0219 62.7855ZM80.7465 64.1065C80.1854 64.1065 79.7025 63.9929 79.2977 63.7656C78.8952 63.536 78.5851 63.2116 78.3673 62.7926C78.1495 62.3712 78.0406 61.8729 78.0406 61.2976C78.0406 60.7365 78.1495 60.2441 78.3673 59.8203C78.5851 59.3965 78.8916 59.0663 79.287 58.8295C79.6847 58.5928 80.1511 58.4744 80.6862 58.4744C81.046 58.4744 81.381 58.5324 81.6911 58.6484C82.0036 58.7621 82.2759 58.9337 82.5079 59.1634C82.7423 59.393 82.9246 59.6818 83.0548 60.0298C83.185 60.3755 83.2501 60.7803 83.2501 61.2443V61.6598H78.6442V60.7223H81.8261C81.8261 60.5045 81.7787 60.3116 81.684 60.1435C81.5893 59.9754 81.4579 59.844 81.2898 59.7493C81.1241 59.6522 80.9312 59.6037 80.711 59.6037C80.4814 59.6037 80.2778 59.657 80.1002 59.7635C79.925 59.8677 79.7877 60.0085 79.6883 60.1861C79.5889 60.3613 79.538 60.5566 79.5356 60.772V61.6634C79.5356 61.9332 79.5853 62.1664 79.6847 62.3629C79.7865 62.5594 79.9298 62.7109 80.1144 62.8175C80.2991 62.924 80.5181 62.9773 80.7714 62.9773C80.9395 62.9773 81.0933 62.9536 81.233 62.9062C81.3727 62.8589 81.4923 62.7879 81.5917 62.6932C81.6911 62.5985 81.7669 62.4825 81.819 62.3452L83.2181 62.4375C83.1471 62.7737 83.0015 63.0672 82.7813 63.3182C82.5635 63.5668 82.2818 63.7609 81.9362 63.9006C81.5929 64.0379 81.1963 64.1065 80.7465 64.1065ZM88.4277 64L86.9434 58.5455H88.4739L89.3191 62.2102H89.3688L90.2495 58.5455H91.7516L92.6465 62.1889H92.6926L93.5236 58.5455H95.0506L93.5698 64H91.9682L91.0307 60.5696H90.9632L90.0257 64H88.4277ZM97.813 64.103C97.465 64.103 97.1549 64.0426 96.8826 63.9219C96.6103 63.7988 96.3949 63.6177 96.2363 63.3786C96.08 63.1371 96.0019 62.8364 96.0019 62.4766C96.0019 62.1735 96.0576 61.919 96.1688 61.7131C96.2801 61.5071 96.4316 61.3414 96.6234 61.2159C96.8151 61.0904 97.0329 60.9957 97.2768 60.9318C97.523 60.8679 97.781 60.8229 98.0509 60.7969C98.3682 60.7637 98.6238 60.733 98.818 60.7045C99.0121 60.6738 99.153 60.6288 99.2406 60.5696C99.3282 60.5104 99.3719 60.4228 99.3719 60.3068V60.2855C99.3719 60.0606 99.3009 59.8866 99.1589 59.7635C99.0192 59.6404 98.8203 59.5788 98.5623 59.5788C98.29 59.5788 98.0734 59.6392 97.9124 59.7599C97.7514 59.8783 97.6449 60.0275 97.5928 60.2074L96.1937 60.0938C96.2647 59.7623 96.4044 59.4759 96.6127 59.2344C96.821 58.9905 97.0898 58.8035 97.4188 58.6733C97.7503 58.5407 98.1338 58.4744 98.5694 58.4744C98.8724 58.4744 99.1624 58.5099 99.4394 58.581C99.7188 58.652 99.9662 58.7621 100.182 58.9112C100.399 59.0604 100.571 59.2521 100.697 59.4865C100.822 59.7185 100.885 59.9967 100.885 60.321V64H99.4501V63.2436H99.4075C99.3199 63.4141 99.2027 63.5644 99.0559 63.6946C98.9091 63.8224 98.7327 63.9231 98.5268 63.9964C98.3208 64.0675 98.0829 64.103 97.813 64.103ZM98.2462 63.0589C98.4688 63.0589 98.6653 63.0152 98.8357 62.9276C99.0062 62.8376 99.1399 62.7169 99.237 62.5653C99.3341 62.4138 99.3826 62.2422 99.3826 62.0504V61.4716C99.3353 61.5024 99.2701 61.5308 99.1873 61.5568C99.1068 61.5805 99.0157 61.603 98.9139 61.6243C98.8121 61.6432 98.7103 61.661 98.6085 61.6776C98.5067 61.6918 98.4143 61.7048 98.3315 61.7166C98.1539 61.7427 97.9988 61.7841 97.8663 61.8409C97.7337 61.8977 97.6307 61.9747 97.5573 62.0717C97.4839 62.1664 97.4472 62.2848 97.4472 62.4268C97.4472 62.6328 97.5218 62.7902 97.671 62.8991C97.8225 63.0057 98.0142 63.0589 98.2462 63.0589ZM106.997 60.1009L105.612 60.1861C105.588 60.0677 105.537 59.9612 105.459 59.8665C105.381 59.7694 105.278 59.6925 105.15 59.6357C105.025 59.5765 104.874 59.5469 104.699 59.5469C104.465 59.5469 104.267 59.5966 104.106 59.696C103.945 59.7931 103.865 59.9233 103.865 60.0866C103.865 60.2169 103.917 60.3269 104.021 60.4169C104.125 60.5069 104.304 60.5791 104.557 60.6335L105.544 60.8324C106.075 60.9413 106.47 61.1165 106.73 61.358C106.991 61.5994 107.121 61.9167 107.121 62.3097C107.121 62.6671 107.016 62.9808 106.805 63.2507C106.597 63.5206 106.31 63.7313 105.946 63.8828C105.583 64.032 105.166 64.1065 104.692 64.1065C103.97 64.1065 103.395 63.9562 102.966 63.6555C102.54 63.3525 102.29 62.9406 102.217 62.4197L103.705 62.3416C103.75 62.5618 103.859 62.7299 104.032 62.8459C104.204 62.9595 104.426 63.0163 104.696 63.0163C104.961 63.0163 105.174 62.9654 105.335 62.8636C105.498 62.7595 105.581 62.6257 105.583 62.4624C105.581 62.325 105.523 62.2126 105.409 62.125C105.296 62.035 105.121 61.9664 104.884 61.919L103.939 61.7308C103.407 61.6243 103.01 61.4396 102.75 61.1768C102.492 60.9141 102.362 60.5791 102.362 60.1719C102.362 59.8215 102.457 59.5196 102.647 59.2663C102.838 59.013 103.107 58.8177 103.453 58.6804C103.801 58.5431 104.208 58.4744 104.674 58.4744C105.363 58.4744 105.905 58.62 106.301 58.9112C106.698 59.2024 106.93 59.599 106.997 60.1009ZM112.701 60.8466V64H111.188V58.5455H112.63V59.5078H112.694C112.814 59.1906 113.017 58.9396 113.301 58.755C113.585 58.5679 113.93 58.4744 114.334 58.4744C114.713 58.4744 115.043 58.5573 115.325 58.723C115.607 58.8887 115.826 59.1255 115.982 59.4332C116.138 59.7386 116.216 60.1032 116.216 60.527V64H114.704V60.7969C114.706 60.4631 114.621 60.2027 114.448 60.0156C114.275 59.8262 114.037 59.7315 113.734 59.7315C113.531 59.7315 113.351 59.7753 113.194 59.8629C113.041 59.9505 112.92 60.0784 112.832 60.2464C112.747 60.4122 112.703 60.6122 112.701 60.8466ZM120.273 64.1065C119.722 64.1065 119.245 63.9893 118.842 63.755C118.442 63.5182 118.133 63.1892 117.915 62.7678C117.698 62.344 117.589 61.8527 117.589 61.294C117.589 60.7306 117.698 60.2382 117.915 59.8168C118.133 59.393 118.442 59.0639 118.842 58.8295C119.245 58.5928 119.722 58.4744 120.273 58.4744C120.825 58.4744 121.301 58.5928 121.701 58.8295C122.103 59.0639 122.413 59.393 122.631 59.8168C122.849 60.2382 122.958 60.7306 122.958 61.294C122.958 61.8527 122.849 62.344 122.631 62.7678C122.413 63.1892 122.103 63.5182 121.701 63.755C121.301 63.9893 120.825 64.1065 120.273 64.1065ZM120.28 62.9347C120.531 62.9347 120.741 62.8636 120.909 62.7216C121.077 62.5772 121.204 62.3807 121.289 62.1321C121.376 61.8835 121.42 61.6006 121.42 61.2834C121.42 60.9661 121.376 60.6832 121.289 60.4347C121.204 60.1861 121.077 59.9896 120.909 59.8452C120.741 59.7008 120.531 59.6286 120.28 59.6286C120.027 59.6286 119.814 59.7008 119.641 59.8452C119.471 59.9896 119.342 60.1861 119.254 60.4347C119.169 60.6832 119.126 60.9661 119.126 61.2834C119.126 61.6006 119.169 61.8835 119.254 62.1321C119.342 62.3807 119.471 62.5772 119.641 62.7216C119.814 62.8636 120.027 62.9347 120.28 62.9347ZM127.243 58.5455V59.6818H123.958V58.5455H127.243ZM124.704 57.2386H126.217V62.3239C126.217 62.4635 126.238 62.5724 126.281 62.6506C126.323 62.7263 126.382 62.7796 126.458 62.8104C126.536 62.8411 126.626 62.8565 126.728 62.8565C126.799 62.8565 126.87 62.8506 126.941 62.8388C127.012 62.8246 127.066 62.8139 127.104 62.8068L127.342 63.9325C127.267 63.9562 127.16 63.9834 127.023 64.0142C126.885 64.0473 126.718 64.0675 126.522 64.0746C126.157 64.0888 125.838 64.0402 125.563 63.929C125.291 63.8177 125.079 63.6449 124.928 63.4105C124.776 63.1761 124.701 62.8802 124.704 62.5227V57.2386ZM134.276 58.5455V59.6818H130.91V58.5455H134.276ZM131.68 64V58.1513C131.68 57.7559 131.757 57.428 131.911 57.1676C132.067 56.9072 132.28 56.7119 132.55 56.5817C132.82 56.4515 133.127 56.3864 133.47 56.3864C133.702 56.3864 133.914 56.4041 134.106 56.4396C134.3 56.4751 134.444 56.5071 134.539 56.5355L134.269 57.6719C134.21 57.6529 134.136 57.6352 134.049 57.6186C133.963 57.602 133.876 57.5938 133.786 57.5938C133.563 57.5938 133.408 57.6458 133.321 57.75C133.233 57.8518 133.189 57.995 133.189 58.1797V64H131.68ZM137.869 64.1065C137.318 64.1065 136.841 63.9893 136.438 63.755C136.038 63.5182 135.729 63.1892 135.511 62.7678C135.294 62.344 135.185 61.8527 135.185 61.294C135.185 60.7306 135.294 60.2382 135.511 59.8168C135.729 59.393 136.038 59.0639 136.438 58.8295C136.841 58.5928 137.318 58.4744 137.869 58.4744C138.421 58.4744 138.897 58.5928 139.297 58.8295C139.699 59.0639 140.01 59.393 140.227 59.8168C140.445 60.2382 140.554 60.7306 140.554 61.294C140.554 61.8527 140.445 62.344 140.227 62.7678C140.01 63.1892 139.699 63.5182 139.297 63.755C138.897 63.9893 138.421 64.1065 137.869 64.1065ZM137.876 62.9347C138.127 62.9347 138.337 62.8636 138.505 62.7216C138.673 62.5772 138.8 62.3807 138.885 62.1321C138.973 61.8835 139.016 61.6006 139.016 61.2834C139.016 60.9661 138.973 60.6832 138.885 60.4347C138.8 60.1861 138.673 59.9896 138.505 59.8452C138.337 59.7008 138.127 59.6286 137.876 59.6286C137.623 59.6286 137.41 59.7008 137.237 59.8452C137.067 59.9896 136.938 60.1861 136.85 60.4347C136.765 60.6832 136.722 60.9661 136.722 61.2834C136.722 61.6006 136.765 61.8835 136.85 62.1321C136.938 62.3807 137.067 62.5772 137.237 62.7216C137.41 62.8636 137.623 62.9347 137.876 62.9347ZM145.436 61.6776V58.5455H146.948V64H145.496V63.0092H145.439C145.316 63.3288 145.111 63.5857 144.825 63.7798C144.541 63.974 144.194 64.071 143.784 64.071C143.42 64.071 143.099 63.9882 142.822 63.8224C142.545 63.6567 142.328 63.4212 142.172 63.1158C142.018 62.8104 141.94 62.4446 141.938 62.0185V58.5455H143.45V61.7486C143.453 62.0705 143.539 62.325 143.71 62.5121C143.88 62.6991 144.109 62.7926 144.395 62.7926C144.577 62.7926 144.748 62.7512 144.906 62.6683C145.065 62.5831 145.193 62.4576 145.29 62.2919C145.389 62.1262 145.438 61.9214 145.436 61.6776ZM150.071 60.8466V64H148.558V58.5455H150V59.5078H150.064C150.185 59.1906 150.387 58.9396 150.671 58.755C150.955 58.5679 151.3 58.4744 151.705 58.4744C152.083 58.4744 152.414 58.5573 152.695 58.723C152.977 58.8887 153.196 59.1255 153.352 59.4332C153.509 59.7386 153.587 60.1032 153.587 60.527V64H152.074V60.7969C152.076 60.4631 151.991 60.2027 151.818 60.0156C151.646 59.8262 151.408 59.7315 151.105 59.7315C150.901 59.7315 150.721 59.7753 150.565 59.8629C150.411 59.9505 150.29 60.0784 150.203 60.2464C150.117 60.4122 150.074 60.6122 150.071 60.8466ZM157.189 64.0888C156.775 64.0888 156.399 63.9822 156.063 63.7692C155.73 63.5537 155.464 63.2377 155.268 62.821C155.074 62.402 154.977 61.8883 154.977 61.2798C154.977 60.6548 155.077 60.1352 155.279 59.7209C155.48 59.3042 155.747 58.9929 156.081 58.7869C156.417 58.5786 156.785 58.4744 157.185 58.4744C157.491 58.4744 157.745 58.5265 157.949 58.6307C158.155 58.7325 158.321 58.8603 158.446 59.0142C158.574 59.1657 158.671 59.3149 158.737 59.4616H158.783V56.7273H160.293V64H158.801V63.1264H158.737C158.666 63.2779 158.566 63.4283 158.435 63.5774C158.308 63.7242 158.141 63.8461 157.935 63.9432C157.731 64.0402 157.483 64.0888 157.189 64.0888ZM157.668 62.8849C157.912 62.8849 158.118 62.8187 158.286 62.6861C158.457 62.5511 158.587 62.3629 158.677 62.1214C158.769 61.88 158.815 61.5971 158.815 61.2727C158.815 60.9484 158.77 60.6667 158.681 60.4276C158.591 60.1884 158.46 60.0038 158.29 59.8736C158.119 59.7434 157.912 59.6783 157.668 59.6783C157.42 59.6783 157.21 59.7457 157.04 59.8807C156.869 60.0156 156.74 60.2027 156.653 60.4418C156.565 60.6809 156.521 60.9579 156.521 61.2727C156.521 61.59 156.565 61.8705 156.653 62.1143C156.743 62.3558 156.872 62.5452 157.04 62.6825C157.21 62.8175 157.42 62.8849 157.668 62.8849Z" fill="#8899AA"/>
<path d="M38.3558 136.051V127.575L59.6094 94.0909H66.9176V105.824H62.5923L49.1939 127.028V127.425H79.3963V136.051H38.3558ZM62.7912 145V133.466L62.9901 129.712V94.0909H73.0824V145H62.7912ZM109.329 146.119C105.053 146.102 101.374 145.05 98.2918 142.962C95.226 140.874 92.8645 137.849 91.2073 133.888C89.5667 129.928 88.7547 125.163 88.7712 119.595C88.7712 114.044 89.5915 109.312 91.2322 105.401C92.8894 101.49 95.2509 98.5156 98.3167 96.4773C101.399 94.4223 105.07 93.3949 109.329 93.3949C113.588 93.3949 117.25 94.4223 120.316 96.4773C123.398 98.5322 125.768 101.515 127.425 105.426C129.083 109.321 129.903 114.044 129.886 119.595C129.886 125.18 129.058 129.953 127.4 133.913C125.76 137.874 123.407 140.898 120.341 142.987C117.275 145.075 113.604 146.119 109.329 146.119ZM109.329 137.195C112.245 137.195 114.574 135.728 116.314 132.795C118.054 129.862 118.916 125.462 118.899 119.595C118.899 115.734 118.501 112.519 117.706 109.95C116.927 107.382 115.817 105.451 114.375 104.158C112.95 102.866 111.268 102.219 109.329 102.219C106.429 102.219 104.109 103.67 102.369 106.57C100.628 109.47 99.7502 113.812 99.7336 119.595C99.7336 123.506 100.123 126.771 100.902 129.389C101.697 131.991 102.816 133.946 104.258 135.256C105.7 136.548 107.39 137.195 109.329 137.195ZM139.591 136.051V127.575L160.844 94.0909H168.152V105.824H163.827L150.429 127.028V127.425H180.631V136.051H139.591ZM164.026 145V133.466L164.225 129.712V94.0909H174.317V145H164.026Z" fill="#E6E8EE"/>
</svg>
