<svg width="220" height="240" viewBox="0 0 220 240" fill="none" xmlns="http://www.w3.org/2000/svg">
<rect width="220" height="240" rx="6" fill="white"/>
<path d="M30.6321 27V19.7273H33.544C34.0791 19.7273 34.5253 19.8066 34.8828 19.9652C35.2403 20.1238 35.509 20.344 35.6889 20.6257C35.8688 20.9051 35.9588 21.227 35.9588 21.5916C35.9588 21.8757 35.902 22.1255 35.7884 22.3409C35.6747 22.554 35.5185 22.7292 35.3196 22.8665C35.1231 23.0014 34.8982 23.0973 34.6449 23.1541V23.2251C34.9219 23.237 35.1811 23.3151 35.4226 23.4595C35.6664 23.6039 35.8641 23.8063 36.0156 24.0668C36.1671 24.3248 36.2429 24.6326 36.2429 24.9901C36.2429 25.3759 36.147 25.7204 35.9553 26.0234C35.7659 26.3241 35.4853 26.562 35.1136 26.7372C34.742 26.9124 34.2839 27 33.7393 27H30.6321ZM32.1697 25.7429H33.4233C33.8518 25.7429 34.1643 25.6612 34.3608 25.4979C34.5573 25.3321 34.6555 25.112 34.6555 24.8374C34.6555 24.6361 34.607 24.4586 34.5099 24.3047C34.4129 24.1508 34.2744 24.0301 34.0945 23.9425C33.9169 23.8549 33.705 23.8111 33.4588 23.8111H32.1697V25.7429ZM32.1697 22.7706H33.3097C33.5204 22.7706 33.7074 22.7339 33.8707 22.6605C34.0365 22.5848 34.1667 22.4782 34.2614 22.3409C34.3584 22.2036 34.407 22.0391 34.407 21.8473C34.407 21.5845 34.3134 21.3726 34.1264 21.2116C33.9418 21.0507 33.679 20.9702 33.3381 20.9702H32.1697V22.7706ZM39.1278 19.7273V27H37.615V19.7273H39.1278ZM43.2041 27.1065C42.6525 27.1065 42.1755 26.9893 41.773 26.755C41.3729 26.5182 41.064 26.1892 40.8462 25.7678C40.6284 25.344 40.5195 24.8527 40.5195 24.294C40.5195 23.7306 40.6284 23.2382 40.8462 22.8168C41.064 22.393 41.3729 22.0639 41.773 21.8295C42.1755 21.5928 42.6525 21.4744 43.2041 21.4744C43.7557 21.4744 44.2316 21.5928 44.6317 21.8295C45.0341 22.0639 45.3443 22.393 45.5621 22.8168C45.7799 23.2382 45.8888 23.7306 45.8888 24.294C45.8888 24.8527 45.7799 25.344 45.5621 25.7678C45.3443 26.1892 45.0341 26.5182 44.6317 26.755C44.2316 26.9893 43.7557 27.1065 43.2041 27.1065ZM43.2112 25.9347C43.4622 25.9347 43.6717 25.8636 43.8398 25.7216C44.0079 25.5772 44.1345 25.3807 44.2197 25.1321C44.3073 24.8835 44.3511 24.6006 44.3511 24.2834C44.3511 23.9661 44.3073 23.6832 44.2197 23.4347C44.1345 23.1861 44.0079 22.9896 43.8398 22.8452C43.6717 22.7008 43.4622 22.6286 43.2112 22.6286C42.9579 22.6286 42.7448 22.7008 42.572 22.8452C42.4016 22.9896 42.2725 23.1861 42.1849 23.4347C42.0997 23.6832 42.0571 23.9661 42.0571 24.2834C42.0571 24.6006 42.0997 24.8835 42.1849 25.1321C42.2725 25.3807 42.4016 25.5772 42.572 25.7216C42.7448 25.8636 42.9579 25.9347 43.2112 25.9347ZM49.7298 29.1591C49.2398 29.1591 48.8196 29.0916 48.4692 28.9567C48.1212 28.8241 47.8442 28.643 47.6382 28.4134C47.4322 28.1837 47.2985 27.9257 47.2369 27.6392L48.6361 27.451C48.6787 27.5599 48.7462 27.6617 48.8385 27.7564C48.9308 27.8511 49.0527 27.9268 49.2043 27.9837C49.3581 28.0429 49.5452 28.0724 49.7653 28.0724C50.0944 28.0724 50.3655 27.992 50.5786 27.831C50.794 27.6723 50.9017 27.406 50.9017 27.032V26.0341H50.8378C50.7715 26.1856 50.6721 26.3288 50.5395 26.4638C50.4069 26.5987 50.2365 26.7088 50.0281 26.794C49.8198 26.8793 49.5712 26.9219 49.2824 26.9219C48.8728 26.9219 48.5 26.8272 48.1638 26.6378C47.83 26.446 47.5636 26.1536 47.3648 25.7607C47.1683 25.3653 47.07 24.8658 47.07 24.2621C47.07 23.6442 47.1706 23.1281 47.3719 22.7138C47.5731 22.2995 47.8406 21.9893 48.1744 21.7834C48.5106 21.5774 48.8787 21.4744 49.2788 21.4744C49.5842 21.4744 49.8399 21.5265 50.0459 21.6307C50.2518 21.7325 50.4176 21.8603 50.543 22.0142C50.6709 22.1657 50.7691 22.3149 50.8378 22.4616H50.8946V21.5455H52.3967V27.0533C52.3967 27.5173 52.2831 27.9055 52.0558 28.218C51.8286 28.5305 51.5137 28.7649 51.1112 28.9212C50.7111 29.0798 50.2507 29.1591 49.7298 29.1591ZM49.7618 25.7855C50.0056 25.7855 50.2116 25.7251 50.3797 25.6044C50.5501 25.4813 50.6804 25.3061 50.7703 25.0788C50.8626 24.8492 50.9088 24.5746 50.9088 24.255C50.9088 23.9354 50.8638 23.6584 50.7739 23.424C50.6839 23.1873 50.5537 23.0038 50.3832 22.8736C50.2128 22.7434 50.0056 22.6783 49.7618 22.6783C49.5132 22.6783 49.3037 22.7457 49.1332 22.8807C48.9628 23.0133 48.8338 23.1979 48.7462 23.4347C48.6586 23.6714 48.6148 23.9448 48.6148 24.255C48.6148 24.5698 48.6586 24.8421 48.7462 25.0717C48.8361 25.299 48.9652 25.4754 49.1332 25.6009C49.3037 25.724 49.5132 25.7855 49.7618 25.7855ZM56.4664 20.995V19.7273H62.4395V20.995H60.2129V27H58.693V20.995H56.4664ZM63.7947 27V21.5455H65.3075V27H63.7947ZM64.5547 20.8423C64.3297 20.8423 64.1368 20.7678 63.9758 20.6186C63.8172 20.4671 63.7379 20.286 63.7379 20.0753C63.7379 19.867 63.8172 19.6882 63.9758 19.5391C64.1368 19.3875 64.3297 19.3118 64.5547 19.3118C64.7796 19.3118 64.9713 19.3875 65.1299 19.5391C65.2909 19.6882 65.3714 19.867 65.3714 20.0753C65.3714 20.286 65.2909 20.4671 65.1299 20.6186C64.9713 20.7678 64.7796 20.8423 64.5547 20.8423ZM69.8206 21.5455V22.6818H66.5358V21.5455H69.8206ZM67.2815 20.2386H68.7943V25.3239C68.7943 25.4635 68.8156 25.5724 68.8582 25.6506C68.9009 25.7263 68.96 25.7796 69.0358 25.8104C69.1139 25.8411 69.2039 25.8565 69.3057 25.8565C69.3767 25.8565 69.4477 25.8506 69.5187 25.8388C69.5898 25.8246 69.6442 25.8139 69.6821 25.8068L69.92 26.9325C69.8443 26.9562 69.7377 26.9834 69.6004 27.0142C69.4631 27.0473 69.2962 27.0675 69.0997 27.0746C68.7351 27.0888 68.4155 27.0402 68.1409 26.929C67.8687 26.8177 67.6568 26.6449 67.5053 26.4105C67.3537 26.1761 67.2792 25.8802 67.2815 25.5227V20.2386ZM72.836 19.7273V27H71.3232V19.7273H72.836ZM76.9336 27.1065C76.3725 27.1065 75.8896 26.9929 75.4848 26.7656C75.0823 26.536 74.7722 26.2116 74.5544 25.7926C74.3366 25.3712 74.2277 24.8729 74.2277 24.2976C74.2277 23.7365 74.3366 23.2441 74.5544 22.8203C74.7722 22.3965 75.0788 22.0663 75.4741 21.8295C75.8718 21.5928 76.3382 21.4744 76.8733 21.4744C77.2331 21.4744 77.5681 21.5324 77.8782 21.6484C78.1907 21.7621 78.463 21.9337 78.695 22.1634C78.9294 22.393 79.1117 22.6818 79.2419 23.0298C79.3721 23.3755 79.4372 23.7803 79.4372 24.2443V24.6598H74.8314V23.7223H78.0132C78.0132 23.5045 77.9658 23.3116 77.8711 23.1435C77.7764 22.9754 77.645 22.844 77.477 22.7493C77.3112 22.6522 77.1183 22.6037 76.8981 22.6037C76.6685 22.6037 76.4649 22.657 76.2873 22.7635C76.1121 22.8677 75.9748 23.0085 75.8754 23.1861C75.776 23.3613 75.7251 23.5566 75.7227 23.772V24.6634C75.7227 24.9332 75.7724 25.1664 75.8718 25.3629C75.9736 25.5594 76.1169 25.7109 76.3015 25.8175C76.4862 25.924 76.7052 25.9773 76.9585 25.9773C77.1266 25.9773 77.2805 25.9536 77.4201 25.9062C77.5598 25.8589 77.6794 25.7879 77.7788 25.6932C77.8782 25.5985 77.954 25.4825 78.0061 25.3452L79.4052 25.4375C79.3342 25.7737 79.1886 26.0672 78.9684 26.3182C78.7506 26.5668 78.4689 26.7609 78.1233 26.9006C77.78 27.0379 77.3834 27.1065 76.9336 27.1065Z" fill="#8899AA"/>
<g clip-path="url(#clip0_566_3183)">
<rect x="30" y="41" width="50" height="32" rx="2" fill="#E6E8EE"/>
<circle cx="37.9375" cy="52.5438" r="2" fill="white"/>
<path d="M41.8897 57.5493L30.9723 67.4058C30.5522 67.785 30.3125 68.3244 30.3125 68.8903V70.4386C30.3125 71.5431 31.2079 72.4386 32.3125 72.4386H77.6875C78.7921 72.4386 79.6875 71.5431 79.6875 70.4386V61.1574C79.6875 60.7389 79.5562 60.331 79.3122 59.991L73.2404 51.5335C72.4745 50.4667 70.9058 50.415 70.0714 51.429L57.7479 66.4042C57.0292 67.2775 55.73 67.3816 54.8814 66.634L44.5521 57.5332C43.7895 56.8613 42.6441 56.8682 41.8897 57.5493Z" fill="white"/>
<rect x="30" y="78" width="38" height="4" rx="2" fill="#E6E8EE"/>
<rect x="30" y="85" width="49" height="4" rx="2" fill="#F3F5F7"/>
<rect x="30" y="92" width="43" height="4" rx="2" fill="#F3F5F7"/>
</g>
<g clip-path="url(#clip1_566_3183)">
<rect x="30" y="117" width="50" height="32" rx="2" fill="#E6E8EE"/>
<circle cx="37.9375" cy="128.544" r="2" fill="white"/>
<path d="M41.8897 133.549L30.9723 143.406C30.5522 143.785 30.3125 144.324 30.3125 144.89V146.439C30.3125 147.543 31.2079 148.439 32.3125 148.439H77.6875C78.7921 148.439 79.6875 147.543 79.6875 146.439V137.157C79.6875 136.739 79.5562 136.331 79.3122 135.991L73.2404 127.533C72.4745 126.467 70.9058 126.415 70.0714 127.429L57.7479 142.404C57.0292 143.278 55.73 143.382 54.8814 142.634L44.5521 133.533C43.7895 132.861 42.6441 132.868 41.8897 133.549Z" fill="white"/>
<rect x="30" y="154" width="38" height="4" rx="2" fill="#E6E8EE"/>
<rect x="30" y="161" width="49" height="4" rx="2" fill="#F3F5F7"/>
<rect x="30" y="168" width="43" height="4" rx="2" fill="#F3F5F7"/>
</g>
<g clip-path="url(#clip2_566_3183)">
<rect x="88" y="117" width="50" height="32" rx="2" fill="#E6E8EE"/>
<circle cx="95.9375" cy="128.544" r="2" fill="white"/>
<path d="M99.8897 133.549L88.9723 143.406C88.5522 143.785 88.3125 144.324 88.3125 144.89V146.439C88.3125 147.543 89.2079 148.439 90.3125 148.439H135.688C136.792 148.439 137.688 147.543 137.688 146.439V137.157C137.688 136.739 137.556 136.331 137.312 135.991L131.24 127.533C130.475 126.467 128.906 126.415 128.071 127.429L115.748 142.404C115.029 143.278 113.73 143.382 112.881 142.634L102.552 133.533C101.789 132.861 100.644 132.868 99.8897 133.549Z" fill="white"/>
<rect x="88" y="154" width="38" height="4" rx="2" fill="#E6E8EE"/>
<rect x="88" y="161" width="49" height="4" rx="2" fill="#F3F5F7"/>
<rect x="88" y="168" width="43" height="4" rx="2" fill="#F3F5F7"/>
</g>
<g clip-path="url(#clip3_566_3183)">
<rect x="146" y="117" width="50" height="32" rx="2" fill="#E6E8EE"/>
<circle cx="153.938" cy="128.544" r="2" fill="white"/>
<path d="M157.89 133.549L146.972 143.406C146.552 143.785 146.312 144.324 146.312 144.89V146.439C146.312 147.543 147.208 148.439 148.312 148.439H193.688C194.792 148.439 195.688 147.543 195.688 146.439V137.157C195.688 136.739 195.556 136.331 195.312 135.991L189.24 127.533C188.475 126.467 186.906 126.415 186.071 127.429L173.748 142.404C173.029 143.278 171.73 143.382 170.881 142.634L160.552 133.533C159.789 132.861 158.644 132.868 157.89 133.549Z" fill="white"/>
<rect x="146" y="154" width="38" height="4" rx="2" fill="#E6E8EE"/>
<rect x="146" y="161" width="49" height="4" rx="2" fill="#F3F5F7"/>
<rect x="146" y="168" width="43" height="4" rx="2" fill="#F3F5F7"/>
</g>
<g clip-path="url(#clip4_566_3183)">
<rect x="88" y="41" width="50" height="32" rx="2" fill="#E6E8EE"/>
<circle cx="95.9375" cy="52.5438" r="2" fill="white"/>
<path d="M99.8897 57.5493L88.9723 67.4058C88.5522 67.785 88.3125 68.3244 88.3125 68.8903V70.4386C88.3125 71.5431 89.2079 72.4386 90.3125 72.4386H135.688C136.792 72.4386 137.688 71.5431 137.688 70.4386V61.1574C137.688 60.7389 137.556 60.331 137.312 59.991L131.24 51.5335C130.475 50.4667 128.906 50.415 128.071 51.429L115.748 66.4042C115.029 67.2775 113.73 67.3816 112.881 66.634L102.552 57.5332C101.789 56.8613 100.644 56.8682 99.8897 57.5493Z" fill="white"/>
<rect x="88" y="78" width="38" height="4" rx="2" fill="#E6E8EE"/>
<rect x="88" y="85" width="49" height="4" rx="2" fill="#F3F5F7"/>
<rect x="88" y="92" width="43" height="4" rx="2" fill="#F3F5F7"/>
</g>
<g clip-path="url(#clip5_566_3183)">
<rect x="146" y="41" width="50" height="32" rx="2" fill="#E6E8EE"/>
<circle cx="153.938" cy="52.5438" r="2" fill="white"/>
<path d="M157.89 57.5493L146.972 67.4058C146.552 67.785 146.312 68.3244 146.312 68.8903V70.4386C146.312 71.5431 147.208 72.4386 148.312 72.4386H193.688C194.792 72.4386 195.688 71.5431 195.688 70.4386V61.1574C195.688 60.7389 195.556 60.331 195.312 59.991L189.24 51.5335C188.475 50.4667 186.906 50.415 186.071 51.429L173.748 66.4042C173.029 67.2775 171.73 67.3816 170.881 66.634L160.552 57.5332C159.789 56.8613 158.644 56.8682 157.89 57.5493Z" fill="white"/>
<rect x="146" y="78" width="38" height="4" rx="2" fill="#E6E8EE"/>
<rect x="146" y="85" width="49" height="4" rx="2" fill="#F3F5F7"/>
<rect x="146" y="92" width="43" height="4" rx="2" fill="#F3F5F7"/>
</g>
<rect x="97" y="206" width="6" height="6" rx="3" fill="#F3F5F7"/>
<rect x="117" y="206" width="6" height="6" rx="3" fill="#F3F5F7"/>
<rect x="127" y="206" width="6" height="6" rx="3" fill="#F3F5F7"/>
<rect x="87" y="206" width="6" height="6" rx="3" fill="#F3F5F7"/>
<rect x="107" y="206" width="6" height="6" rx="3" fill="#E6E8EE"/>
<defs>
<clipPath id="clip0_566_3183">
<rect x="30" y="41" width="50" height="55" rx="2" fill="white"/>
</clipPath>
<clipPath id="clip1_566_3183">
<rect x="30" y="117" width="50" height="55" rx="2" fill="white"/>
</clipPath>
<clipPath id="clip2_566_3183">
<rect x="88" y="117" width="50" height="55" rx="2" fill="white"/>
</clipPath>
<clipPath id="clip3_566_3183">
<rect x="146" y="117" width="50" height="55" rx="2" fill="white"/>
</clipPath>
<clipPath id="clip4_566_3183">
<rect x="88" y="41" width="50" height="55" rx="2" fill="white"/>
</clipPath>
<clipPath id="clip5_566_3183">
<rect x="146" y="41" width="50" height="55" rx="2" fill="white"/>
</clipPath>
</defs>
</svg>
