<svg width="220" height="240" viewBox="0 0 220 240" fill="none" xmlns="http://www.w3.org/2000/svg">
<rect width="220" height="240" rx="6" fill="#24213F"/>
<path d="M30.6321 27V19.7273H33.5014C34.053 19.7273 34.523 19.8326 34.9112 20.0433C35.2995 20.2517 35.5954 20.5417 35.799 20.9134C36.005 21.2827 36.108 21.7088 36.108 22.1918C36.108 22.6747 36.0038 23.1009 35.7955 23.4702C35.5871 23.8395 35.2853 24.1271 34.8899 24.3331C34.4969 24.5391 34.0211 24.642 33.4624 24.642H31.6335V23.4098H33.2138C33.5097 23.4098 33.7536 23.3589 33.9453 23.2571C34.1394 23.1529 34.2839 23.0097 34.3786 22.8274C34.4756 22.6428 34.5241 22.4309 34.5241 22.1918C34.5241 21.9503 34.4756 21.7396 34.3786 21.5597C34.2839 21.3774 34.1394 21.2365 33.9453 21.1371C33.7512 21.0353 33.505 20.9844 33.2067 20.9844H32.1697V27H30.6321ZM39.8549 27.1065C39.3033 27.1065 38.8263 26.9893 38.4238 26.755C38.0237 26.5182 37.7147 26.1892 37.4969 25.7678C37.2791 25.344 37.1702 24.8527 37.1702 24.294C37.1702 23.7306 37.2791 23.2382 37.4969 22.8168C37.7147 22.393 38.0237 22.0639 38.4238 21.8295C38.8263 21.5928 39.3033 21.4744 39.8549 21.4744C40.4065 21.4744 40.8824 21.5928 41.2825 21.8295C41.6849 22.0639 41.9951 22.393 42.2129 22.8168C42.4307 23.2382 42.5396 23.7306 42.5396 24.294C42.5396 24.8527 42.4307 25.344 42.2129 25.7678C41.9951 26.1892 41.6849 26.5182 41.2825 26.755C40.8824 26.9893 40.4065 27.1065 39.8549 27.1065ZM39.862 25.9347C40.1129 25.9347 40.3225 25.8636 40.4906 25.7216C40.6586 25.5772 40.7853 25.3807 40.8705 25.1321C40.9581 24.8835 41.0019 24.6006 41.0019 24.2834C41.0019 23.9661 40.9581 23.6832 40.8705 23.4347C40.7853 23.1861 40.6586 22.9896 40.4906 22.8452C40.3225 22.7008 40.1129 22.6286 39.862 22.6286C39.6087 22.6286 39.3956 22.7008 39.2228 22.8452C39.0523 22.9896 38.9233 23.1861 38.8357 23.4347C38.7505 23.6832 38.7079 23.9661 38.7079 24.2834C38.7079 24.6006 38.7505 24.8835 38.8357 25.1321C38.9233 25.3807 39.0523 25.5772 39.2228 25.7216C39.3956 25.8636 39.6087 25.9347 39.862 25.9347ZM48.4616 23.1009L47.0766 23.1861C47.053 23.0677 47.0021 22.9612 46.9239 22.8665C46.8458 22.7694 46.7428 22.6925 46.615 22.6357C46.4895 22.5765 46.3392 22.5469 46.164 22.5469C45.9296 22.5469 45.7319 22.5966 45.571 22.696C45.41 22.7931 45.3295 22.9233 45.3295 23.0866C45.3295 23.2169 45.3816 23.3269 45.4857 23.4169C45.5899 23.5069 45.7686 23.5791 46.0219 23.6335L47.0092 23.8324C47.5395 23.9413 47.9348 24.1165 48.1952 24.358C48.4557 24.5994 48.5859 24.9167 48.5859 25.3097C48.5859 25.6671 48.4805 25.9808 48.2698 26.2507C48.0615 26.5206 47.775 26.7313 47.4104 26.8828C47.0482 27.032 46.6304 27.1065 46.1569 27.1065C45.4348 27.1065 44.8595 26.9562 44.431 26.6555C44.0049 26.3525 43.7551 25.9406 43.6817 25.4197L45.1697 25.3416C45.2147 25.5618 45.3236 25.7299 45.4964 25.8459C45.6692 25.9595 45.8906 26.0163 46.1604 26.0163C46.4256 26.0163 46.6387 25.9654 46.7996 25.8636C46.963 25.7595 47.0459 25.6257 47.0482 25.4624C47.0459 25.325 46.9879 25.2126 46.8742 25.125C46.7606 25.035 46.5854 24.9664 46.3487 24.919L45.404 24.7308C44.8714 24.6243 44.4748 24.4396 44.2144 24.1768C43.9564 23.9141 43.8273 23.5791 43.8273 23.1719C43.8273 22.8215 43.922 22.5196 44.1114 22.2663C44.3032 22.013 44.5719 21.8177 44.9175 21.6804C45.2656 21.5431 45.6728 21.4744 46.1391 21.4744C46.8281 21.4744 47.3702 21.62 47.7656 21.9112C48.1633 22.2024 48.3953 22.599 48.4616 23.1009ZM52.8397 21.5455V22.6818H49.5549V21.5455H52.8397ZM50.3007 20.2386H51.8135V25.3239C51.8135 25.4635 51.8348 25.5724 51.8774 25.6506C51.92 25.7263 51.9792 25.7796 52.0549 25.8104C52.1331 25.8411 52.223 25.8565 52.3248 25.8565C52.3958 25.8565 52.4669 25.8506 52.5379 25.8388C52.6089 25.8246 52.6634 25.8139 52.7012 25.8068L52.9392 26.9325C52.8634 26.9562 52.7569 26.9834 52.6196 27.0142C52.4823 27.0473 52.3154 27.0675 52.1189 27.0746C51.7543 27.0888 51.4347 27.0402 51.1601 26.929C50.8878 26.8177 50.6759 26.6449 50.5244 26.4105C50.3729 26.1761 50.2983 25.8802 50.3007 25.5227V20.2386ZM56.6911 20.995V19.7273H62.6641V20.995H60.4375V27H58.9176V20.995H56.6911ZM64.0193 27V21.5455H65.5321V27H64.0193ZM64.7793 20.8423C64.5544 20.8423 64.3614 20.7678 64.2004 20.6186C64.0418 20.4671 63.9625 20.286 63.9625 20.0753C63.9625 19.867 64.0418 19.6882 64.2004 19.5391C64.3614 19.3875 64.5544 19.3118 64.7793 19.3118C65.0042 19.3118 65.1959 19.3875 65.3545 19.5391C65.5155 19.6882 65.596 19.867 65.596 20.0753C65.596 20.286 65.5155 20.4671 65.3545 20.6186C65.1959 20.7678 65.0042 20.8423 64.7793 20.8423ZM70.0452 21.5455V22.6818H66.7604V21.5455H70.0452ZM67.5061 20.2386H69.0189V25.3239C69.0189 25.4635 69.0402 25.5724 69.0828 25.6506C69.1255 25.7263 69.1846 25.7796 69.2604 25.8104C69.3385 25.8411 69.4285 25.8565 69.5303 25.8565C69.6013 25.8565 69.6723 25.8506 69.7434 25.8388C69.8144 25.8246 69.8688 25.8139 69.9067 25.8068L70.1446 26.9325C70.0689 26.9562 69.9623 26.9834 69.825 27.0142C69.6877 27.0473 69.5208 27.0675 69.3243 27.0746C68.9597 27.0888 68.6401 27.0402 68.3655 26.929C68.0933 26.8177 67.8814 26.6449 67.7299 26.4105C67.5783 26.1761 67.5038 25.8802 67.5061 25.5227V20.2386ZM73.0606 19.7273V27H71.5478V19.7273H73.0606ZM77.1582 27.1065C76.5972 27.1065 76.1142 26.9929 75.7094 26.7656C75.3069 26.536 74.9968 26.2116 74.779 25.7926C74.5612 25.3712 74.4523 24.8729 74.4523 24.2976C74.4523 23.7365 74.5612 23.2441 74.779 22.8203C74.9968 22.3965 75.3034 22.0663 75.6987 21.8295C76.0964 21.5928 76.5628 21.4744 77.0979 21.4744C77.4577 21.4744 77.7927 21.5324 78.1028 21.6484C78.4153 21.7621 78.6876 21.9337 78.9196 22.1634C79.154 22.393 79.3363 22.6818 79.4665 23.0298C79.5967 23.3755 79.6618 23.7803 79.6618 24.2443V24.6598H75.056V23.7223H78.2378C78.2378 23.5045 78.1904 23.3116 78.0957 23.1435C78.001 22.9754 77.8696 22.844 77.7016 22.7493C77.5358 22.6522 77.3429 22.6037 77.1227 22.6037C76.8931 22.6037 76.6895 22.657 76.5119 22.7635C76.3367 22.8677 76.1994 23.0085 76.1 23.1861C76.0006 23.3613 75.9497 23.5566 75.9473 23.772V24.6634C75.9473 24.9332 75.997 25.1664 76.0964 25.3629C76.1982 25.5594 76.3415 25.7109 76.5261 25.8175C76.7108 25.924 76.9298 25.9773 77.1831 25.9773C77.3512 25.9773 77.5051 25.9536 77.6447 25.9062C77.7844 25.8589 77.904 25.7879 78.0034 25.6932C78.1028 25.5985 78.1786 25.4825 78.2307 25.3452L79.6298 25.4375C79.5588 25.7737 79.4132 26.0672 79.193 26.3182C78.9752 26.5668 78.6935 26.7609 78.3479 26.9006C78.0046 27.0379 77.608 27.1065 77.1582 27.1065Z" fill="#BBBAC3"/>
<path d="M60.1307 54H59.1989L61.2926 48.1818H62.3068L64.4006 54H63.4688L61.8239 49.2386H61.7784L60.1307 54ZM60.2869 51.7216H63.3097V52.4602H60.2869V51.7216ZM68.2568 52.1903V49.6364H69.1091V54H68.2738V53.2443H68.2284C68.128 53.4773 67.967 53.6714 67.7454 53.8267C67.5257 53.9801 67.2521 54.0568 66.9244 54.0568C66.6441 54.0568 66.396 53.9953 66.1801 53.8722C65.9661 53.7472 65.7975 53.5625 65.6744 53.3182C65.5532 53.0739 65.4926 52.7718 65.4926 52.4119V49.6364H66.342V52.3097C66.342 52.607 66.4244 52.8437 66.5892 53.0199C66.7539 53.196 66.968 53.2841 67.2312 53.2841C67.3903 53.2841 67.5485 53.2443 67.7057 53.1648C67.8647 53.0852 67.9964 52.965 68.1005 52.804C68.2066 52.643 68.2587 52.4384 68.2568 52.1903ZM72.6073 49.6364V50.3182H70.2238V49.6364H72.6073ZM70.863 48.5909H71.7124V52.7188C71.7124 52.8835 71.7371 53.0076 71.7863 53.0909C71.8355 53.1723 71.899 53.2282 71.9766 53.2585C72.0562 53.2869 72.1424 53.3011 72.2352 53.3011C72.3034 53.3011 72.363 53.2964 72.4141 53.2869C72.4653 53.2775 72.5051 53.2699 72.5335 53.2642L72.6869 53.9659C72.6376 53.9848 72.5676 54.0038 72.4766 54.0227C72.3857 54.0436 72.2721 54.0549 72.1357 54.0568C71.9123 54.0606 71.7039 54.0208 71.5107 53.9375C71.3176 53.8542 71.1613 53.7254 71.042 53.5511C70.9227 53.3769 70.863 53.1581 70.863 52.8949V48.5909ZM74.8101 51.4091V54H73.9607V48.1818H74.7988V50.3466H74.8528C74.955 50.1117 75.1113 49.9252 75.3215 49.7869C75.5317 49.6487 75.8064 49.5795 76.1454 49.5795C76.4446 49.5795 76.706 49.6411 76.9295 49.7642C77.1548 49.8873 77.3291 50.071 77.4522 50.3153C77.5772 50.5578 77.6397 50.8608 77.6397 51.2244V54H76.7903V51.3267C76.7903 51.0066 76.7079 50.7585 76.5431 50.5824C76.3783 50.4044 76.1492 50.3153 75.8556 50.3153C75.6548 50.3153 75.4749 50.358 75.3158 50.4432C75.1586 50.5284 75.0346 50.6534 74.9437 50.8182C74.8546 50.9811 74.8101 51.178 74.8101 51.4091ZM80.9313 54.0881C80.5222 54.0881 80.1652 53.9943 79.8603 53.8068C79.5553 53.6193 79.3186 53.357 79.15 53.0199C78.9815 52.6828 78.8972 52.2888 78.8972 51.8381C78.8972 51.3854 78.9815 50.9896 79.15 50.6506C79.3186 50.3116 79.5553 50.0483 79.8603 49.8608C80.1652 49.6733 80.5222 49.5795 80.9313 49.5795C81.3404 49.5795 81.6974 49.6733 82.0023 49.8608C82.3072 50.0483 82.544 50.3116 82.7125 50.6506C82.8811 50.9896 82.9654 51.3854 82.9654 51.8381C82.9654 52.2888 82.8811 52.6828 82.7125 53.0199C82.544 53.357 82.3072 53.6193 82.0023 53.8068C81.6974 53.9943 81.3404 54.0881 80.9313 54.0881ZM80.9341 53.375C81.1993 53.375 81.419 53.3049 81.5932 53.1648C81.7675 53.0246 81.8962 52.8381 81.9796 52.6051C82.0648 52.3722 82.1074 52.1155 82.1074 51.8352C82.1074 51.5568 82.0648 51.3011 81.9796 51.0682C81.8962 50.8333 81.7675 50.6449 81.5932 50.5028C81.419 50.3608 81.1993 50.2898 80.9341 50.2898C80.6671 50.2898 80.4455 50.3608 80.2693 50.5028C80.0951 50.6449 79.9654 50.8333 79.8801 51.0682C79.7968 51.3011 79.7551 51.5568 79.7551 51.8352C79.7551 52.1155 79.7968 52.3722 79.8801 52.6051C79.9654 52.8381 80.0951 53.0246 80.2693 53.1648C80.4455 53.3049 80.6671 53.375 80.9341 53.375ZM84.2335 54V49.6364H85.0545V50.3295H85.1C85.1795 50.0947 85.3197 49.91 85.5205 49.7756C85.7231 49.6392 85.9523 49.571 86.208 49.571C86.261 49.571 86.3235 49.5729 86.3955 49.5767C86.4693 49.5805 86.5271 49.5852 86.5688 49.5909V50.4034C86.5347 50.3939 86.4741 50.3835 86.3869 50.3722C86.2998 50.3589 86.2127 50.3523 86.1256 50.3523C85.9248 50.3523 85.7458 50.3949 85.5886 50.4801C85.4333 50.5634 85.3102 50.6799 85.2193 50.8295C85.1284 50.9773 85.083 51.1458 85.083 51.3352V54H84.2335Z" fill="#BBBAC3"/>
<rect x="30" y="76" width="160" height="57" rx="2" fill="#504D65"/>
<circle cx="55" cy="99" r="6" fill="#9A99A7"/>
<path d="M71.3967 103.795L32.1019 123.543C31.4264 123.882 31 124.574 31 125.33V130C31 131.105 31.8954 132 33 132H187C188.105 132 189 131.105 189 130V111.739C189 111.121 188.714 110.537 188.225 110.159L164.662 91.8881C163.978 91.3583 163.032 91.3276 162.316 91.8121L115.547 123.447C114.953 123.849 114.19 123.902 113.546 123.586L73.1754 103.787C72.6137 103.511 71.9556 103.514 71.3967 103.795Z" fill="#9A99A7"/>
<g clip-path="url(#clip0_1170_2432)">
<rect x="30" y="41" width="20" height="20" rx="10" fill="#6C6A7E"/>
<path d="M34.1051 50.5254L30.6241 53.8251C30.2257 54.2028 30 54.7276 30 55.2766V59.9451C30 61.0709 30.9288 61.9748 32.0541 61.9444L48.0541 61.511C49.1372 61.4817 50 60.5952 50 59.5118V54.3041C50 52.4597 47.7157 51.5984 46.4979 52.9836L43.9861 55.8409C43.1546 56.7866 41.6665 56.7379 40.8987 55.7398L37.0662 50.7575C36.3432 49.8175 34.9657 49.7096 34.1051 50.5254Z" fill="#9A99A7"/>
<circle cx="43" cy="50" r="2" fill="#9A99A7"/>
</g>
<rect x="178" y="48" width="14" height="4" rx="2" fill="#504D65"/>
<rect x="160" y="48" width="14" height="4" rx="2" fill="#504D65"/>
<rect x="142" y="48" width="14" height="4" rx="2" fill="#504D65"/>
<rect x="31" y="165" width="69" height="4" rx="2" fill="#504D65"/>
<rect x="31" y="149" width="85" height="6" rx="3" fill="#6C6A7E"/>
<rect x="31" y="175" width="147" height="4" rx="2" fill="#504D65"/>
<rect x="31" y="185" width="140" height="4" rx="2" fill="#504D65"/>
<rect x="31" y="195" width="100" height="4" rx="2" fill="#504D65"/>
<rect x="31" y="205" width="123" height="4" rx="2" fill="#504D65"/>
<rect x="31" y="215" width="118" height="4" rx="2" fill="#504D65"/>
<defs>
<clipPath id="clip0_1170_2432">
<rect x="30" y="41" width="20" height="20" rx="10" fill="white"/>
</clipPath>
</defs>
</svg>
