<svg width="220" height="240" viewBox="0 0 220 240" fill="none" xmlns="http://www.w3.org/2000/svg">
<rect width="220" height="240" rx="6" fill="#24213F"/>
<path d="M33.2777 58.0994C32.7474 58.0994 32.2751 58.0083 31.8608 57.826C31.4489 57.6413 31.1233 57.388 30.8842 57.0661C30.6475 56.7417 30.5256 56.3677 30.5185 55.9439H32.0668C32.0762 56.1214 32.1342 56.2777 32.2408 56.4126C32.3497 56.5452 32.4941 56.6482 32.674 56.7216C32.8539 56.795 33.0563 56.8317 33.2812 56.8317C33.5156 56.8317 33.7228 56.7902 33.9027 56.7074C34.0826 56.6245 34.2235 56.5097 34.3253 56.3629C34.4271 56.2161 34.478 56.0469 34.478 55.8551C34.478 55.661 34.4235 55.4893 34.3146 55.3402C34.2081 55.1887 34.0542 55.0703 33.853 54.9851C33.6541 54.8999 33.4174 54.8572 33.1428 54.8572H32.4645V53.728H33.1428C33.3748 53.728 33.5795 53.6877 33.7571 53.6072C33.937 53.5268 34.0767 53.4155 34.1761 53.2734C34.2756 53.129 34.3253 52.9609 34.3253 52.7692C34.3253 52.5869 34.2815 52.4271 34.1939 52.2898C34.1087 52.1501 33.9879 52.0412 33.8317 51.9631C33.6778 51.8849 33.4979 51.8459 33.2919 51.8459C33.0836 51.8459 32.893 51.8838 32.7202 51.9595C32.5473 52.0329 32.4089 52.1383 32.3047 52.2756C32.2005 52.4129 32.1449 52.5739 32.1378 52.7585H30.6641C30.6712 52.3395 30.7907 51.9702 31.0227 51.6506C31.2547 51.331 31.5672 51.0812 31.9602 50.9013C32.3556 50.719 32.8018 50.6278 33.299 50.6278C33.8009 50.6278 34.2401 50.719 34.6165 50.9013C34.9929 51.0836 35.2853 51.3298 35.4936 51.6399C35.7043 51.9477 35.8085 52.2933 35.8061 52.6768C35.8085 53.084 35.6818 53.4238 35.4261 53.696C35.1728 53.9683 34.8426 54.1411 34.4354 54.2145V54.2713C34.9704 54.34 35.3776 54.5258 35.657 54.8288C35.9387 55.1295 36.0784 55.5059 36.076 55.9581C36.0784 56.3724 35.9588 56.7405 35.7173 57.0625C35.4782 57.3845 35.148 57.6378 34.7266 57.8224C34.3052 58.0071 33.8222 58.0994 33.2777 58.0994ZM40.3384 58V50.7273H43.2077C43.7569 50.7273 44.2257 50.8255 44.6139 51.022C45.0045 51.2161 45.3017 51.492 45.5053 51.8494C45.7112 52.2045 45.8142 52.6224 45.8142 53.103C45.8142 53.5859 45.71 54.0014 45.5017 54.3494C45.2934 54.6951 44.9915 54.9602 44.5962 55.1449C44.2032 55.3295 43.7273 55.4219 43.1686 55.4219H41.2474V54.1861H42.92C43.2136 54.1861 43.4574 54.1458 43.6516 54.0653C43.8457 53.9848 43.9901 53.8641 44.0848 53.7031C44.1819 53.5421 44.2304 53.3421 44.2304 53.103C44.2304 52.8615 44.1819 52.6579 44.0848 52.4922C43.9901 52.3265 43.8445 52.201 43.648 52.1158C43.4539 52.0282 43.2089 51.9844 42.9129 51.9844H41.876V58H40.3384ZM44.2659 54.6903L46.0734 58H44.376L42.6075 54.6903H44.2659ZM49.6703 58.1065C49.1093 58.1065 48.6263 57.9929 48.2215 57.7656C47.819 57.536 47.5089 57.2116 47.2911 56.7926C47.0733 56.3712 46.9644 55.8729 46.9644 55.2976C46.9644 54.7365 47.0733 54.2441 47.2911 53.8203C47.5089 53.3965 47.8155 53.0663 48.2108 52.8295C48.6086 52.5928 49.0749 52.4744 49.61 52.4744C49.9698 52.4744 50.3048 52.5324 50.615 52.6484C50.9275 52.7621 51.1997 52.9337 51.4317 53.1634C51.6661 53.393 51.8484 53.6818 51.9786 54.0298C52.1088 54.3755 52.1739 54.7803 52.1739 55.2443V55.6598H47.5681V54.7223H50.7499C50.7499 54.5045 50.7025 54.3116 50.6078 54.1435C50.5132 53.9754 50.3818 53.844 50.2137 53.7493C50.048 53.6522 49.855 53.6037 49.6348 53.6037C49.4052 53.6037 49.2016 53.657 49.024 53.7635C48.8489 53.8677 48.7115 54.0085 48.6121 54.1861C48.5127 54.3613 48.4618 54.5566 48.4594 54.772V55.6634C48.4594 55.9332 48.5091 56.1664 48.6086 56.3629C48.7104 56.5594 48.8536 56.7109 49.0382 56.8175C49.2229 56.924 49.4419 56.9773 49.6952 56.9773C49.8633 56.9773 50.0172 56.9536 50.1569 56.9062C50.2965 56.8589 50.4161 56.7879 50.5155 56.6932C50.615 56.5985 50.6907 56.4825 50.7428 56.3452L52.1419 56.4375C52.0709 56.7737 51.9253 57.0672 51.7052 57.3182C51.4873 57.5668 51.2056 57.7609 50.86 57.9006C50.5167 58.0379 50.1202 58.1065 49.6703 58.1065ZM58.0995 54.1009L56.7145 54.1861C56.6909 54.0677 56.64 53.9612 56.5618 53.8665C56.4837 53.7694 56.3807 53.6925 56.2529 53.6357C56.1274 53.5765 55.9771 53.5469 55.8019 53.5469C55.5675 53.5469 55.3698 53.5966 55.2088 53.696C55.0479 53.7931 54.9674 53.9233 54.9674 54.0866C54.9674 54.2169 55.0194 54.3269 55.1236 54.4169C55.2278 54.5069 55.4065 54.5791 55.6598 54.6335L56.6471 54.8324C57.1774 54.9413 57.5727 55.1165 57.8331 55.358C58.0935 55.5994 58.2238 55.9167 58.2238 56.3097C58.2238 56.6671 58.1184 56.9808 57.9077 57.2507C57.6994 57.5206 57.4129 57.7313 57.0483 57.8828C56.6861 58.032 56.2683 58.1065 55.7948 58.1065C55.0727 58.1065 54.4974 57.9562 54.0689 57.6555C53.6428 57.3525 53.393 56.9406 53.3196 56.4197L54.8076 56.3416C54.8525 56.5618 54.9614 56.7299 55.1343 56.8459C55.3071 56.9595 55.5284 57.0163 55.7983 57.0163C56.0635 57.0163 56.2766 56.9654 56.4375 56.8636C56.6009 56.7595 56.6837 56.6257 56.6861 56.4624C56.6837 56.325 56.6257 56.2126 56.5121 56.125C56.3985 56.035 56.2233 55.9664 55.9865 55.919L55.0419 55.7308C54.5093 55.6243 54.1127 55.4396 53.8523 55.1768C53.5943 54.9141 53.4652 54.5791 53.4652 54.1719C53.4652 53.8215 53.5599 53.5196 53.7493 53.2663C53.9411 53.013 54.2098 52.8177 54.5554 52.6804C54.9034 52.5431 55.3106 52.4744 55.777 52.4744C56.4659 52.4744 57.0081 52.62 57.4034 52.9112C57.8012 53.2024 58.0332 53.599 58.0995 54.1009ZM63.0742 55.6776V52.5455H64.587V58H63.1346V57.0092H63.0778C62.9547 57.3288 62.7499 57.5857 62.4634 57.7798C62.1793 57.974 61.8325 58.071 61.4229 58.071C61.0584 58.071 60.7376 57.9882 60.4606 57.8224C60.1836 57.6567 59.967 57.4212 59.8107 57.1158C59.6568 56.8104 59.5787 56.4446 59.5763 56.0185V52.5455H61.0891V55.7486C61.0915 56.0705 61.1779 56.325 61.3484 56.5121C61.5188 56.6991 61.7473 56.7926 62.0337 56.7926C62.216 56.7926 62.3865 56.7512 62.5451 56.6683C62.7037 56.5831 62.8316 56.4576 62.9286 56.2919C63.0281 56.1262 63.0766 55.9214 63.0742 55.6776ZM67.7098 50.7273V58H66.1971V50.7273H67.7098ZM72.2229 52.5455V53.6818H68.9381V52.5455H72.2229ZM69.6839 51.2386H71.1967V56.3239C71.1967 56.4635 71.218 56.5724 71.2606 56.6506C71.3032 56.7263 71.3624 56.7796 71.4381 56.8104C71.5163 56.8411 71.6062 56.8565 71.708 56.8565C71.779 56.8565 71.8501 56.8506 71.9211 56.8388C71.9921 56.8246 72.0466 56.8139 72.0844 56.8068L72.3224 57.9325C72.2466 57.9562 72.1401 57.9834 72.0028 58.0142C71.8655 58.0473 71.6986 58.0675 71.5021 58.0746C71.1375 58.0888 70.8179 58.0402 70.5433 57.929C70.271 57.8177 70.0591 57.6449 69.9076 57.4105C69.7561 57.1761 69.6815 56.8802 69.6839 56.5227V51.2386ZM78.0784 54.1009L76.6934 54.1861C76.6698 54.0677 76.6189 53.9612 76.5407 53.8665C76.4626 53.7694 76.3596 53.6925 76.2318 53.6357C76.1063 53.5765 75.956 53.5469 75.7808 53.5469C75.5464 53.5469 75.3487 53.5966 75.1877 53.696C75.0268 53.7931 74.9463 53.9233 74.9463 54.0866C74.9463 54.2169 74.9984 54.3269 75.1025 54.4169C75.2067 54.5069 75.3854 54.5791 75.6387 54.6335L76.626 54.8324C77.1563 54.9413 77.5516 55.1165 77.812 55.358C78.0725 55.5994 78.2027 55.9167 78.2027 56.3097C78.2027 56.6671 78.0973 56.9808 77.8866 57.2507C77.6783 57.5206 77.3918 57.7313 77.0272 57.8828C76.665 58.032 76.2472 58.1065 75.7737 58.1065C75.0516 58.1065 74.4763 57.9562 74.0478 57.6555C73.6217 57.3525 73.3719 56.9406 73.2985 56.4197L74.7865 56.3416C74.8315 56.5618 74.9404 56.7299 75.1132 56.8459C75.286 56.9595 75.5074 57.0163 75.7772 57.0163C76.0424 57.0163 76.2555 56.9654 76.4164 56.8636C76.5798 56.7595 76.6627 56.6257 76.665 56.4624C76.6627 56.325 76.6047 56.2126 76.491 56.125C76.3774 56.035 76.2022 55.9664 75.9654 55.919L75.0208 55.7308C74.4882 55.6243 74.0916 55.4396 73.8312 55.1768C73.5732 54.9141 73.4441 54.5791 73.4441 54.1719C73.4441 53.8215 73.5388 53.5196 73.7282 53.2663C73.92 53.013 74.1887 52.8177 74.5343 52.6804C74.8824 52.5431 75.2895 52.4744 75.7559 52.4744C76.4449 52.4744 76.987 52.62 77.3824 52.9112C77.7801 53.2024 78.0121 53.599 78.0784 54.1009Z" fill="#BBBAC3"/>
<rect width="220" height="34" fill="#1A172D"/>
<rect x="69" y="11" width="88" height="12" rx="6" fill="#9A99A7"/>
<rect x="145" y="11" width="12" height="12" rx="6" fill="#504D65"/>
<rect x="97" y="206" width="6" height="6" rx="3" fill="#504D65"/>
<rect x="117" y="206" width="6" height="6" rx="3" fill="#504D65"/>
<rect x="127" y="206" width="6" height="6" rx="3" fill="#504D65"/>
<rect x="87" y="206" width="6" height="6" rx="3" fill="#504D65"/>
<rect x="107" y="206" width="6" height="6" rx="3" fill="#9A99A7"/>
<g clip-path="url(#clip0_1170_2840)">
<rect x="30" y="71" width="50" height="32" rx="2" fill="#504D65"/>
<circle cx="37.9375" cy="82.5438" r="2" fill="#9A99A7"/>
<path d="M41.8897 87.5493L30.9723 97.4058C30.5522 97.785 30.3125 98.3244 30.3125 98.8903V100.439C30.3125 101.543 31.2079 102.439 32.3125 102.439H77.6875C78.7921 102.439 79.6875 101.543 79.6875 100.439V91.1574C79.6875 90.7389 79.5562 90.331 79.3122 89.991L73.2404 81.5335C72.4745 80.4667 70.9058 80.415 70.0714 81.429L57.7479 96.4042C57.0292 97.2775 55.73 97.3816 54.8814 96.634L44.5521 87.5332C43.7895 86.8613 42.6441 86.8682 41.8897 87.5493Z" fill="#9A99A7"/>
<rect x="30" y="108" width="38" height="4" rx="2" fill="#504D65"/>
<rect x="30" y="115" width="49" height="4" rx="2" fill="#504D65"/>
<rect x="30" y="122" width="43" height="4" rx="2" fill="#504D65"/>
</g>
<g clip-path="url(#clip1_1170_2840)">
<rect x="146" y="71" width="50" height="32" rx="2" fill="#504D65"/>
<circle cx="153.938" cy="82.5438" r="2" fill="#9A99A7"/>
<path d="M157.89 87.5493L146.972 97.4058C146.552 97.785 146.312 98.3244 146.312 98.8903V100.439C146.312 101.543 147.208 102.439 148.312 102.439H193.688C194.792 102.439 195.688 101.543 195.688 100.439V91.1574C195.688 90.7389 195.556 90.331 195.312 89.991L189.24 81.5335C188.475 80.4667 186.906 80.415 186.071 81.429L173.748 96.4042C173.029 97.2775 171.73 97.3816 170.881 96.634L160.552 87.5332C159.789 86.8613 158.644 86.8682 157.89 87.5493Z" fill="#9A99A7"/>
<rect x="146" y="108" width="38" height="4" rx="2" fill="#504D65"/>
<rect x="146" y="115" width="49" height="4" rx="2" fill="#504D65"/>
<rect x="146" y="122" width="43" height="4" rx="2" fill="#504D65"/>
</g>
<g clip-path="url(#clip2_1170_2840)">
<rect x="88" y="71" width="50" height="32" rx="2" fill="#504D65"/>
<circle cx="95.9375" cy="82.5438" r="2" fill="#9A99A7"/>
<path d="M99.8897 87.5493L88.9723 97.4058C88.5522 97.785 88.3125 98.3244 88.3125 98.8903V100.439C88.3125 101.543 89.2079 102.439 90.3125 102.439H135.688C136.792 102.439 137.688 101.543 137.688 100.439V91.1574C137.688 90.7389 137.556 90.331 137.312 89.991L131.24 81.5335C130.475 80.4667 128.906 80.415 128.071 81.429L115.748 96.4042C115.029 97.2775 113.73 97.3816 112.881 96.634L102.552 87.5332C101.789 86.8613 100.644 86.8682 99.8897 87.5493Z" fill="#9A99A7"/>
<rect x="88" y="108" width="38" height="4" rx="2" fill="#504D65"/>
<rect x="88" y="115" width="49" height="4" rx="2" fill="#504D65"/>
<rect x="88" y="122" width="43" height="4" rx="2" fill="#504D65"/>
</g>
<defs>
<clipPath id="clip0_1170_2840">
<rect x="30" y="71" width="50" height="55" rx="2" fill="white"/>
</clipPath>
<clipPath id="clip1_1170_2840">
<rect x="146" y="71" width="50" height="55" rx="2" fill="white"/>
</clipPath>
<clipPath id="clip2_1170_2840">
<rect x="88" y="71" width="50" height="55" rx="2" fill="white"/>
</clipPath>
</defs>
</svg>
