<svg width="220" height="240" viewBox="0 0 220 240" fill="none" xmlns="http://www.w3.org/2000/svg">
<rect width="220" height="240" rx="6" fill="white"/>
<path d="M61.6321 147V139.727H64.5014C65.0507 139.727 65.5194 139.826 65.9077 140.022C66.2983 140.216 66.5954 140.492 66.799 140.849C67.005 141.205 67.108 141.622 67.108 142.103C67.108 142.586 67.0038 143.001 66.7955 143.349C66.5871 143.695 66.2853 143.96 65.8899 144.145C65.4969 144.33 65.0211 144.422 64.4624 144.422H62.5412V143.186H64.2138C64.5073 143.186 64.7512 143.146 64.9453 143.065C65.1394 142.985 65.2839 142.864 65.3786 142.703C65.4756 142.542 65.5241 142.342 65.5241 142.103C65.5241 141.862 65.4756 141.658 65.3786 141.492C65.2839 141.326 65.1383 141.201 64.9418 141.116C64.7476 141.028 64.5026 140.984 64.2067 140.984H63.1697V147H61.6321ZM65.5597 143.69L67.3672 147H65.6697L63.9013 143.69H65.5597ZM70.9641 147.107C70.403 147.107 69.9201 146.993 69.5152 146.766C69.1128 146.536 68.8026 146.212 68.5848 145.793C68.367 145.371 68.2581 144.873 68.2581 144.298C68.2581 143.737 68.367 143.244 68.5848 142.82C68.8026 142.397 69.1092 142.066 69.5046 141.83C69.9023 141.593 70.3687 141.474 70.9037 141.474C71.2636 141.474 71.5986 141.532 71.9087 141.648C72.2212 141.762 72.4935 141.934 72.7255 142.163C72.9598 142.393 73.1421 142.682 73.2723 143.03C73.4025 143.375 73.4676 143.78 73.4676 144.244V144.66H68.8618V143.722H72.0436C72.0436 143.504 71.9963 143.312 71.9016 143.143C71.8069 142.975 71.6755 142.844 71.5074 142.749C71.3417 142.652 71.1488 142.604 70.9286 142.604C70.6989 142.604 70.4953 142.657 70.3178 142.763C70.1426 142.868 70.0053 143.009 69.9059 143.186C69.8064 143.361 69.7555 143.557 69.7532 143.772V144.663C69.7532 144.933 69.8029 145.166 69.9023 145.363C70.0041 145.559 70.1473 145.711 70.332 145.817C70.5167 145.924 70.7356 145.977 70.989 145.977C71.157 145.977 71.3109 145.954 71.4506 145.906C71.5903 145.859 71.7098 145.788 71.8093 145.693C71.9087 145.598 71.9845 145.482 72.0365 145.345L73.4357 145.438C73.3647 145.774 73.2191 146.067 72.9989 146.318C72.7811 146.567 72.4994 146.761 72.1537 146.901C71.8105 147.038 71.4139 147.107 70.9641 147.107ZM77.3194 147.107C76.7606 147.107 76.2801 146.988 75.8776 146.751C75.4775 146.512 75.1697 146.181 74.9543 145.757C74.7412 145.333 74.6347 144.846 74.6347 144.294C74.6347 143.735 74.7424 143.245 74.9578 142.824C75.1757 142.4 75.4846 142.07 75.8847 141.833C76.2848 141.594 76.7606 141.474 77.3123 141.474C77.7881 141.474 78.2048 141.561 78.5623 141.734C78.9197 141.906 79.2026 142.149 79.411 142.462C79.6193 142.774 79.7341 143.141 79.7554 143.562H78.3279C78.2876 143.29 78.1811 143.071 78.0083 142.906C77.8378 142.737 77.6141 142.653 77.3371 142.653C77.1027 142.653 76.898 142.717 76.7228 142.845C76.5499 142.971 76.415 143.154 76.3179 143.396C76.2209 143.637 76.1723 143.929 76.1723 144.273C76.1723 144.621 76.2197 144.917 76.3144 145.161C76.4114 145.404 76.5476 145.59 76.7228 145.718C76.898 145.846 77.1027 145.91 77.3371 145.91C77.5099 145.91 77.665 145.874 77.8023 145.803C77.942 145.732 78.0568 145.629 78.1468 145.494C78.2391 145.357 78.2995 145.192 78.3279 145.001H79.7554C79.7318 145.417 79.6181 145.784 79.4145 146.102C79.2133 146.416 78.9351 146.663 78.58 146.84C78.2249 147.018 77.8047 147.107 77.3194 147.107ZM83.5885 147.107C83.0369 147.107 82.5598 146.989 82.1574 146.755C81.7573 146.518 81.4483 146.189 81.2305 145.768C81.0127 145.344 80.9038 144.853 80.9038 144.294C80.9038 143.731 81.0127 143.238 81.2305 142.817C81.4483 142.393 81.7573 142.064 82.1574 141.83C82.5598 141.593 83.0369 141.474 83.5885 141.474C84.1401 141.474 84.616 141.593 85.0161 141.83C85.4185 142.064 85.7286 142.393 85.9464 142.817C86.1643 143.238 86.2732 143.731 86.2732 144.294C86.2732 144.853 86.1643 145.344 85.9464 145.768C85.7286 146.189 85.4185 146.518 85.0161 146.755C84.616 146.989 84.1401 147.107 83.5885 147.107ZM83.5956 145.935C83.8465 145.935 84.0561 145.864 84.2241 145.722C84.3922 145.577 84.5189 145.381 84.6041 145.132C84.6917 144.884 84.7355 144.601 84.7355 144.283C84.7355 143.966 84.6917 143.683 84.6041 143.435C84.5189 143.186 84.3922 142.99 84.2241 142.845C84.0561 142.701 83.8465 142.629 83.5956 142.629C83.3423 142.629 83.1292 142.701 82.9564 142.845C82.7859 142.99 82.6569 143.186 82.5693 143.435C82.4841 143.683 82.4415 143.966 82.4415 144.283C82.4415 144.601 82.4841 144.884 82.5693 145.132C82.6569 145.381 82.7859 145.577 82.9564 145.722C83.1292 145.864 83.3423 145.935 83.5956 145.935ZM87.6568 147V141.545H89.1234V142.497H89.1803C89.2797 142.159 89.4466 141.903 89.681 141.73C89.9153 141.555 90.1852 141.467 90.4906 141.467C90.5664 141.467 90.6481 141.472 90.7357 141.482C90.8232 141.491 90.9002 141.504 90.9665 141.521V142.863C90.8955 142.842 90.7972 142.823 90.6717 142.806C90.5463 142.79 90.4314 142.781 90.3273 142.781C90.1047 142.781 89.9059 142.83 89.7307 142.927C89.5579 143.022 89.4205 143.154 89.3188 143.325C89.2193 143.495 89.1696 143.692 89.1696 143.914V147H87.6568ZM93.9047 147.089C93.4904 147.089 93.1151 146.982 92.7789 146.769C92.4451 146.554 92.18 146.238 91.9835 145.821C91.7894 145.402 91.6923 144.888 91.6923 144.28C91.6923 143.655 91.7929 143.135 91.9941 142.721C92.1954 142.304 92.4629 141.993 92.7967 141.787C93.1329 141.579 93.501 141.474 93.9011 141.474C94.2065 141.474 94.461 141.527 94.6646 141.631C94.8706 141.732 95.0363 141.86 95.1618 142.014C95.2896 142.166 95.3867 142.315 95.4529 142.462H95.4991V139.727H97.0083V147H95.5169V146.126H95.4529C95.3819 146.278 95.2813 146.428 95.1511 146.577C95.0233 146.724 94.8564 146.846 94.6504 146.943C94.4468 147.04 94.1982 147.089 93.9047 147.089ZM94.3841 145.885C94.6279 145.885 94.8339 145.819 95.002 145.686C95.1724 145.551 95.3026 145.363 95.3926 145.121C95.4849 144.88 95.5311 144.597 95.5311 144.273C95.5311 143.948 95.4861 143.667 95.3961 143.428C95.3062 143.188 95.176 143.004 95.0055 142.874C94.835 142.743 94.6279 142.678 94.3841 142.678C94.1355 142.678 93.926 142.746 93.7555 142.881C93.585 143.016 93.456 143.203 93.3684 143.442C93.2808 143.681 93.237 143.958 93.237 144.273C93.237 144.59 93.2808 144.871 93.3684 145.114C93.4584 145.356 93.5874 145.545 93.7555 145.683C93.926 145.817 94.1355 145.885 94.3841 145.885ZM103.19 143.101L101.806 143.186C101.782 143.068 101.731 142.961 101.653 142.866C101.575 142.769 101.472 142.692 101.344 142.636C101.218 142.576 101.068 142.547 100.893 142.547C100.659 142.547 100.461 142.597 100.3 142.696C100.139 142.793 100.058 142.923 100.058 143.087C100.058 143.217 100.11 143.327 100.215 143.417C100.319 143.507 100.498 143.579 100.751 143.634L101.738 143.832C102.268 143.941 102.664 144.116 102.924 144.358C103.185 144.599 103.315 144.917 103.315 145.31C103.315 145.667 103.209 145.981 102.999 146.251C102.79 146.521 102.504 146.731 102.139 146.883C101.777 147.032 101.359 147.107 100.886 147.107C100.164 147.107 99.5884 146.956 99.1599 146.656C98.7338 146.353 98.484 145.941 98.4107 145.42L99.8986 145.342C99.9436 145.562 100.052 145.73 100.225 145.846C100.398 145.96 100.619 146.016 100.889 146.016C101.154 146.016 101.368 145.965 101.529 145.864C101.692 145.759 101.775 145.626 101.777 145.462C101.775 145.325 101.717 145.213 101.603 145.125C101.489 145.035 101.314 144.966 101.078 144.919L100.133 144.731C99.6003 144.624 99.2037 144.44 98.9433 144.177C98.6853 143.914 98.5563 143.579 98.5563 143.172C98.5563 142.821 98.6509 142.52 98.8403 142.266C99.0321 142.013 99.3008 141.818 99.6465 141.68C99.9945 141.543 100.402 141.474 100.868 141.474C101.557 141.474 102.099 141.62 102.494 141.911C102.892 142.202 103.124 142.599 103.19 143.101ZM108.895 143.847V147H107.382V141.545H108.824V142.508H108.888C109.008 142.191 109.211 141.94 109.495 141.755C109.779 141.568 110.123 141.474 110.528 141.474C110.907 141.474 111.237 141.557 111.519 141.723C111.801 141.889 112.02 142.125 112.176 142.433C112.332 142.739 112.41 143.103 112.41 143.527V147H110.897V143.797C110.9 143.463 110.815 143.203 110.642 143.016C110.469 142.826 110.231 142.732 109.928 142.732C109.724 142.732 109.544 142.775 109.388 142.863C109.234 142.951 109.114 143.078 109.026 143.246C108.941 143.412 108.897 143.612 108.895 143.847ZM116.467 147.107C115.915 147.107 115.438 146.989 115.036 146.755C114.636 146.518 114.327 146.189 114.109 145.768C113.891 145.344 113.782 144.853 113.782 144.294C113.782 143.731 113.891 143.238 114.109 142.817C114.327 142.393 114.636 142.064 115.036 141.83C115.438 141.593 115.915 141.474 116.467 141.474C117.019 141.474 117.494 141.593 117.895 141.83C118.297 142.064 118.607 142.393 118.825 142.817C119.043 143.238 119.152 143.731 119.152 144.294C119.152 144.853 119.043 145.344 118.825 145.768C118.607 146.189 118.297 146.518 117.895 146.755C117.494 146.989 117.019 147.107 116.467 147.107ZM116.474 145.935C116.725 145.935 116.935 145.864 117.103 145.722C117.271 145.577 117.397 145.381 117.483 145.132C117.57 144.884 117.614 144.601 117.614 144.283C117.614 143.966 117.57 143.683 117.483 143.435C117.397 143.186 117.271 142.99 117.103 142.845C116.935 142.701 116.725 142.629 116.474 142.629C116.221 142.629 116.008 142.701 115.835 142.845C115.664 142.99 115.535 143.186 115.448 143.435C115.363 143.683 115.32 143.966 115.32 144.283C115.32 144.601 115.363 144.884 115.448 145.132C115.535 145.381 115.664 145.577 115.835 145.722C116.008 145.864 116.221 145.935 116.474 145.935ZM123.437 141.545V142.682H120.152V141.545H123.437ZM120.898 140.239H122.41V145.324C122.41 145.464 122.432 145.572 122.474 145.651C122.517 145.726 122.576 145.78 122.652 145.81C122.73 145.841 122.82 145.857 122.922 145.857C122.993 145.857 123.064 145.851 123.135 145.839C123.206 145.825 123.26 145.814 123.298 145.807L123.536 146.933C123.46 146.956 123.354 146.983 123.216 147.014C123.079 147.047 122.912 147.067 122.716 147.075C122.351 147.089 122.032 147.04 121.757 146.929C121.485 146.818 121.273 146.645 121.121 146.411C120.97 146.176 120.895 145.88 120.898 145.523V140.239ZM130.47 141.545V142.682H127.103V141.545H130.47ZM127.874 147V141.151C127.874 140.756 127.951 140.428 128.105 140.168C128.261 139.907 128.474 139.712 128.744 139.582C129.014 139.451 129.32 139.386 129.664 139.386C129.896 139.386 130.108 139.404 130.299 139.44C130.493 139.475 130.638 139.507 130.733 139.536L130.463 140.672C130.403 140.653 130.33 140.635 130.242 140.619C130.157 140.602 130.07 140.594 129.98 140.594C129.757 140.594 129.602 140.646 129.514 140.75C129.427 140.852 129.383 140.995 129.383 141.18V147H127.874ZM134.063 147.107C133.511 147.107 133.034 146.989 132.632 146.755C132.232 146.518 131.923 146.189 131.705 145.768C131.487 145.344 131.378 144.853 131.378 144.294C131.378 143.731 131.487 143.238 131.705 142.817C131.923 142.393 132.232 142.064 132.632 141.83C133.034 141.593 133.511 141.474 134.063 141.474C134.615 141.474 135.091 141.593 135.491 141.83C135.893 142.064 136.203 142.393 136.421 142.817C136.639 143.238 136.748 143.731 136.748 144.294C136.748 144.853 136.639 145.344 136.421 145.768C136.203 146.189 135.893 146.518 135.491 146.755C135.091 146.989 134.615 147.107 134.063 147.107ZM134.07 145.935C134.321 145.935 134.531 145.864 134.699 145.722C134.867 145.577 134.993 145.381 135.079 145.132C135.166 144.884 135.21 144.601 135.21 144.283C135.21 143.966 135.166 143.683 135.079 143.435C134.993 143.186 134.867 142.99 134.699 142.845C134.531 142.701 134.321 142.629 134.07 142.629C133.817 142.629 133.604 142.701 133.431 142.845C133.261 142.99 133.132 143.186 133.044 143.435C132.959 143.683 132.916 143.966 132.916 144.283C132.916 144.601 132.959 144.884 133.044 145.132C133.132 145.381 133.261 145.577 133.431 145.722C133.604 145.864 133.817 145.935 134.07 145.935ZM141.629 144.678V141.545H143.142V147H141.69V146.009H141.633C141.51 146.329 141.305 146.586 141.019 146.78C140.734 146.974 140.388 147.071 139.978 147.071C139.613 147.071 139.293 146.988 139.016 146.822C138.739 146.657 138.522 146.421 138.366 146.116C138.212 145.81 138.134 145.445 138.131 145.018V141.545H139.644V144.749C139.647 145.071 139.733 145.325 139.903 145.512C140.074 145.699 140.302 145.793 140.589 145.793C140.771 145.793 140.942 145.751 141.1 145.668C141.259 145.583 141.387 145.458 141.484 145.292C141.583 145.126 141.632 144.921 141.629 144.678ZM146.265 143.847V147H144.752V141.545H146.194V142.508H146.258C146.379 142.191 146.581 141.94 146.865 141.755C147.149 141.568 147.494 141.474 147.898 141.474C148.277 141.474 148.607 141.557 148.889 141.723C149.171 141.889 149.39 142.125 149.546 142.433C149.702 142.739 149.781 143.103 149.781 143.527V147H148.268V143.797C148.27 143.463 148.185 143.203 148.012 143.016C147.839 142.826 147.601 142.732 147.298 142.732C147.095 142.732 146.915 142.775 146.759 142.863C146.605 142.951 146.484 143.078 146.396 143.246C146.311 143.412 146.267 143.612 146.265 143.847ZM153.383 147.089C152.968 147.089 152.593 146.982 152.257 146.769C151.923 146.554 151.658 146.238 151.462 145.821C151.267 145.402 151.17 144.888 151.17 144.28C151.17 143.655 151.271 143.135 151.472 142.721C151.673 142.304 151.941 141.993 152.275 141.787C152.611 141.579 152.979 141.474 153.379 141.474C153.685 141.474 153.939 141.527 154.143 141.631C154.349 141.732 154.514 141.86 154.64 142.014C154.768 142.166 154.865 142.315 154.931 142.462H154.977V139.727H156.486V147H154.995V146.126H154.931C154.86 146.278 154.759 146.428 154.629 146.577C154.501 146.724 154.334 146.846 154.129 146.943C153.925 147.04 153.676 147.089 153.383 147.089ZM153.862 145.885C154.106 145.885 154.312 145.819 154.48 145.686C154.651 145.551 154.781 145.363 154.871 145.121C154.963 144.88 155.009 144.597 155.009 144.273C155.009 143.948 154.964 143.667 154.874 143.428C154.784 143.188 154.654 143.004 154.484 142.874C154.313 142.743 154.106 142.678 153.862 142.678C153.614 142.678 153.404 142.746 153.234 142.881C153.063 143.016 152.934 143.203 152.847 143.442C152.759 143.681 152.715 143.958 152.715 144.273C152.715 144.59 152.759 144.871 152.847 145.114C152.937 145.356 153.066 145.545 153.234 145.683C153.404 145.817 153.614 145.885 153.862 145.885Z" fill="#8899AA"/>
<path d="M106.25 106.25C118.4 106.25 128.25 96.4003 128.25 84.25C128.25 72.0997 118.4 62.25 106.25 62.25C94.0997 62.25 84.25 72.0997 84.25 84.25C84.25 96.4003 94.0997 106.25 106.25 106.25Z" stroke="#E6E8EE" stroke-width="6" stroke-linecap="round" stroke-linejoin="round"/>
<path d="M134.963 113.963L123 102" stroke="#E6E8EE" stroke-width="7" stroke-linecap="round" stroke-linejoin="round"/>
<rect width="220" height="34" fill="#F3F5F7"/>
<rect x="69" y="11" width="88" height="12" rx="6" fill="white"/>
<rect x="145" y="11" width="12" height="12" rx="6" fill="#E6E8EE"/>
</svg>
