<svg width="220" height="240" viewBox="0 0 220 240" fill="none" xmlns="http://www.w3.org/2000/svg">
<rect width="220" height="240" rx="6" fill="#24213F"/>
<rect y="196" width="220" height="44" fill="#1A172D"/>
<rect x="71" y="206" width="22" height="4" rx="2" fill="#504D65"/>
<rect x="123" y="206" width="28" height="4" rx="2" fill="#504D65"/>
<rect x="175" y="206" width="22" height="4" rx="2" fill="#504D65"/>
<rect x="71" y="214" width="24" height="4" rx="2" fill="#504D65"/>
<rect x="123" y="214" width="24" height="4" rx="2" fill="#504D65"/>
<rect x="175" y="214" width="19" height="4" rx="2" fill="#504D65"/>
<rect x="71" y="222" width="19" height="4" rx="2" fill="#504D65"/>
<rect x="123" y="222" width="19" height="4" rx="2" fill="#504D65"/>
<rect x="175" y="222" width="26" height="4" rx="2" fill="#504D65"/>
<rect x="71" y="230" width="28" height="4" rx="2" fill="#504D65"/>
<rect x="123" y="230" width="24" height="4" rx="2" fill="#504D65"/>
<rect x="175" y="230" width="24" height="4" rx="2" fill="#504D65"/>
<path d="M14.6321 214V206.727H16.1697V212.732H19.2876V214H14.6321ZM23.142 214.107C22.5904 214.107 22.1134 213.989 21.7109 213.755C21.3108 213.518 21.0019 213.189 20.7841 212.768C20.5663 212.344 20.4574 211.853 20.4574 211.294C20.4574 210.731 20.5663 210.238 20.7841 209.817C21.0019 209.393 21.3108 209.064 21.7109 208.83C22.1134 208.593 22.5904 208.474 23.142 208.474C23.6936 208.474 24.1695 208.593 24.5696 208.83C24.972 209.064 25.2822 209.393 25.5 209.817C25.7178 210.238 25.8267 210.731 25.8267 211.294C25.8267 211.853 25.7178 212.344 25.5 212.768C25.2822 213.189 24.972 213.518 24.5696 213.755C24.1695 213.989 23.6936 214.107 23.142 214.107ZM23.1491 212.935C23.4001 212.935 23.6096 212.864 23.7777 212.722C23.9458 212.577 24.0724 212.381 24.1576 212.132C24.2452 211.884 24.289 211.601 24.289 211.283C24.289 210.966 24.2452 210.683 24.1576 210.435C24.0724 210.186 23.9458 209.99 23.7777 209.845C23.6096 209.701 23.4001 209.629 23.1491 209.629C22.8958 209.629 22.6827 209.701 22.5099 209.845C22.3395 209.99 22.2104 210.186 22.1228 210.435C22.0376 210.683 21.995 210.966 21.995 211.283C21.995 211.601 22.0376 211.884 22.1228 212.132C22.2104 212.381 22.3395 212.577 22.5099 212.722C22.6827 212.864 22.8958 212.935 23.1491 212.935ZM29.6677 216.159C29.1777 216.159 28.7574 216.092 28.4071 215.957C28.0591 215.824 27.7821 215.643 27.5761 215.413C27.3701 215.184 27.2364 214.926 27.1748 214.639L28.574 214.451C28.6166 214.56 28.6841 214.662 28.7764 214.756C28.8687 214.851 28.9906 214.927 29.1422 214.984C29.296 215.043 29.4831 215.072 29.7032 215.072C30.0323 215.072 30.3034 214.992 30.5164 214.831C30.7319 214.672 30.8396 214.406 30.8396 214.032V213.034H30.7757C30.7094 213.186 30.61 213.329 30.4774 213.464C30.3448 213.599 30.1743 213.709 29.966 213.794C29.7577 213.879 29.5091 213.922 29.2203 213.922C28.8107 213.922 28.4378 213.827 28.1017 213.638C27.7679 213.446 27.5015 213.154 27.3027 212.761C27.1062 212.365 27.0079 211.866 27.0079 211.262C27.0079 210.644 27.1085 210.128 27.3098 209.714C27.511 209.299 27.7785 208.989 28.1123 208.783C28.4485 208.577 28.8166 208.474 29.2167 208.474C29.5221 208.474 29.7778 208.527 29.9838 208.631C30.1897 208.732 30.3555 208.86 30.4809 209.014C30.6088 209.166 30.707 209.315 30.7757 209.462H30.8325V208.545H32.3346V214.053C32.3346 214.517 32.221 214.906 31.9937 215.218C31.7664 215.531 31.4516 215.765 31.0491 215.921C30.649 216.08 30.1886 216.159 29.6677 216.159ZM29.6997 212.786C29.9435 212.786 30.1495 212.725 30.3176 212.604C30.488 212.481 30.6182 212.306 30.7082 212.079C30.8005 211.849 30.8467 211.575 30.8467 211.255C30.8467 210.935 30.8017 210.658 30.7118 210.424C30.6218 210.187 30.4916 210.004 30.3211 209.874C30.1507 209.743 29.9435 209.678 29.6997 209.678C29.4511 209.678 29.2416 209.746 29.0711 209.881C28.9007 210.013 28.7717 210.198 28.6841 210.435C28.5965 210.671 28.5527 210.945 28.5527 211.255C28.5527 211.57 28.5965 211.842 28.6841 212.072C28.774 212.299 28.903 212.475 29.0711 212.601C29.2416 212.724 29.4511 212.786 29.6997 212.786ZM36.4029 214.107C35.8513 214.107 35.3743 213.989 34.9718 213.755C34.5717 213.518 34.2628 213.189 34.045 212.768C33.8272 212.344 33.7183 211.853 33.7183 211.294C33.7183 210.731 33.8272 210.238 34.045 209.817C34.2628 209.393 34.5717 209.064 34.9718 208.83C35.3743 208.593 35.8513 208.474 36.4029 208.474C36.9546 208.474 37.4304 208.593 37.8305 208.83C38.233 209.064 38.5431 209.393 38.7609 209.817C38.9787 210.238 39.0876 210.731 39.0876 211.294C39.0876 211.853 38.9787 212.344 38.7609 212.768C38.5431 213.189 38.233 213.518 37.8305 213.755C37.4304 213.989 36.9546 214.107 36.4029 214.107ZM36.4101 212.935C36.661 212.935 36.8705 212.864 37.0386 212.722C37.2067 212.577 37.3333 212.381 37.4186 212.132C37.5062 211.884 37.55 211.601 37.55 211.283C37.55 210.966 37.5062 210.683 37.4186 210.435C37.3333 210.186 37.2067 209.99 37.0386 209.845C36.8705 209.701 36.661 209.629 36.4101 209.629C36.1567 209.629 35.9437 209.701 35.7708 209.845C35.6004 209.99 35.4714 210.186 35.3838 210.435C35.2985 210.683 35.2559 210.966 35.2559 211.283C35.2559 211.601 35.2985 211.884 35.3838 212.132C35.4714 212.381 35.6004 212.577 35.7708 212.722C35.9437 212.864 36.1567 212.935 36.4101 212.935Z" fill="#BBBAC3"/>
</svg>
