<svg width="220" height="240" viewBox="0 0 220 240" fill="none" xmlns="http://www.w3.org/2000/svg">
<rect width="220" height="240" rx="6" fill="#24213F"/>
<rect width="220" height="28" fill="#1A172D"/>
<rect x="71" y="12" width="22" height="4" rx="2" fill="#504D65"/>
<rect x="99" y="12" width="22" height="4" rx="2" fill="#504D65"/>
<rect x="127" y="12" width="22" height="4" rx="2" fill="#504D65"/>
<rect x="184" y="12" width="22" height="4" rx="2" fill="#504D65"/>
<path d="M14.6321 18V10.7273H16.1697V16.7322H19.2876V18H14.6321ZM23.142 18.1065C22.5904 18.1065 22.1134 17.9893 21.7109 17.755C21.3108 17.5182 21.0019 17.1892 20.7841 16.7678C20.5663 16.344 20.4574 15.8527 20.4574 15.294C20.4574 14.7306 20.5663 14.2382 20.7841 13.8168C21.0019 13.393 21.3108 13.0639 21.7109 12.8295C22.1134 12.5928 22.5904 12.4744 23.142 12.4744C23.6936 12.4744 24.1695 12.5928 24.5696 12.8295C24.972 13.0639 25.2822 13.393 25.5 13.8168C25.7178 14.2382 25.8267 14.7306 25.8267 15.294C25.8267 15.8527 25.7178 16.344 25.5 16.7678C25.2822 17.1892 24.972 17.5182 24.5696 17.755C24.1695 17.9893 23.6936 18.1065 23.142 18.1065ZM23.1491 16.9347C23.4001 16.9347 23.6096 16.8636 23.7777 16.7216C23.9458 16.5772 24.0724 16.3807 24.1576 16.1321C24.2452 15.8835 24.289 15.6006 24.289 15.2834C24.289 14.9661 24.2452 14.6832 24.1576 14.4347C24.0724 14.1861 23.9458 13.9896 23.7777 13.8452C23.6096 13.7008 23.4001 13.6286 23.1491 13.6286C22.8958 13.6286 22.6827 13.7008 22.5099 13.8452C22.3395 13.9896 22.2104 14.1861 22.1228 14.4347C22.0376 14.6832 21.995 14.9661 21.995 15.2834C21.995 15.6006 22.0376 15.8835 22.1228 16.1321C22.2104 16.3807 22.3395 16.5772 22.5099 16.7216C22.6827 16.8636 22.8958 16.9347 23.1491 16.9347ZM29.6677 20.1591C29.1777 20.1591 28.7574 20.0916 28.4071 19.9567C28.0591 19.8241 27.7821 19.643 27.5761 19.4134C27.3701 19.1837 27.2364 18.9257 27.1748 18.6392L28.574 18.451C28.6166 18.5599 28.6841 18.6617 28.7764 18.7564C28.8687 18.8511 28.9906 18.9268 29.1422 18.9837C29.296 19.0429 29.4831 19.0724 29.7032 19.0724C30.0323 19.0724 30.3034 18.992 30.5164 18.831C30.7319 18.6723 30.8396 18.406 30.8396 18.032V17.0341H30.7757C30.7094 17.1856 30.61 17.3288 30.4774 17.4638C30.3448 17.5987 30.1743 17.7088 29.966 17.794C29.7577 17.8793 29.5091 17.9219 29.2203 17.9219C28.8107 17.9219 28.4378 17.8272 28.1017 17.6378C27.7679 17.446 27.5015 17.1536 27.3027 16.7607C27.1062 16.3653 27.0079 15.8658 27.0079 15.2621C27.0079 14.6442 27.1085 14.1281 27.3098 13.7138C27.511 13.2995 27.7785 12.9893 28.1123 12.7834C28.4485 12.5774 28.8166 12.4744 29.2167 12.4744C29.5221 12.4744 29.7778 12.5265 29.9838 12.6307C30.1897 12.7325 30.3555 12.8603 30.4809 13.0142C30.6088 13.1657 30.707 13.3149 30.7757 13.4616H30.8325V12.5455H32.3346V18.0533C32.3346 18.5173 32.221 18.9055 31.9937 19.218C31.7664 19.5305 31.4516 19.7649 31.0491 19.9212C30.649 20.0798 30.1886 20.1591 29.6677 20.1591ZM29.6997 16.7855C29.9435 16.7855 30.1495 16.7251 30.3176 16.6044C30.488 16.4813 30.6182 16.3061 30.7082 16.0788C30.8005 15.8492 30.8467 15.5746 30.8467 15.255C30.8467 14.9354 30.8017 14.6584 30.7118 14.424C30.6218 14.1873 30.4916 14.0038 30.3211 13.8736C30.1507 13.7434 29.9435 13.6783 29.6997 13.6783C29.4511 13.6783 29.2416 13.7457 29.0711 13.8807C28.9007 14.0133 28.7717 14.1979 28.6841 14.4347C28.5965 14.6714 28.5527 14.9448 28.5527 15.255C28.5527 15.5698 28.5965 15.8421 28.6841 16.0717C28.774 16.299 28.903 16.4754 29.0711 16.6009C29.2416 16.724 29.4511 16.7855 29.6997 16.7855ZM36.4029 18.1065C35.8513 18.1065 35.3743 17.9893 34.9718 17.755C34.5717 17.5182 34.2628 17.1892 34.045 16.7678C33.8272 16.344 33.7183 15.8527 33.7183 15.294C33.7183 14.7306 33.8272 14.2382 34.045 13.8168C34.2628 13.393 34.5717 13.0639 34.9718 12.8295C35.3743 12.5928 35.8513 12.4744 36.4029 12.4744C36.9546 12.4744 37.4304 12.5928 37.8305 12.8295C38.233 13.0639 38.5431 13.393 38.7609 13.8168C38.9787 14.2382 39.0876 14.7306 39.0876 15.294C39.0876 15.8527 38.9787 16.344 38.7609 16.7678C38.5431 17.1892 38.233 17.5182 37.8305 17.755C37.4304 17.9893 36.9546 18.1065 36.4029 18.1065ZM36.4101 16.9347C36.661 16.9347 36.8705 16.8636 37.0386 16.7216C37.2067 16.5772 37.3333 16.3807 37.4186 16.1321C37.5062 15.8835 37.55 15.6006 37.55 15.2834C37.55 14.9661 37.5062 14.6832 37.4186 14.4347C37.3333 14.1861 37.2067 13.9896 37.0386 13.8452C36.8705 13.7008 36.661 13.6286 36.4101 13.6286C36.1567 13.6286 35.9437 13.7008 35.7708 13.8452C35.6004 13.9896 35.4714 14.1861 35.3838 14.4347C35.2985 14.6832 35.2559 14.9661 35.2559 15.2834C35.2559 15.6006 35.2985 15.8835 35.3838 16.1321C35.4714 16.3807 35.6004 16.5772 35.7708 16.7216C35.9437 16.8636 36.1567 16.9347 36.4101 16.9347Z" fill="#BBBAC3"/>
</svg>
