<svg width="220" height="240" viewBox="0 0 220 240" fill="none" xmlns="http://www.w3.org/2000/svg">
<rect width="220" height="240" rx="6" fill="#24213F"/>
<rect width="220" height="57" fill="#1A172D"/>
<path d="M87.1697 16.7273V24H85.6321V16.7273H87.1697ZM90.3192 20.8466V24H88.8064V18.5455H90.2482V19.5078H90.3121C90.4328 19.1906 90.6353 18.9396 90.9194 18.755C91.2034 18.5679 91.5479 18.4744 91.9527 18.4744C92.3315 18.4744 92.6618 18.5573 92.9435 18.723C93.2252 18.8887 93.4442 19.1255 93.6005 19.4332C93.7567 19.7386 93.8348 20.1032 93.8348 20.527V24H92.3221V20.7969C92.3244 20.4631 92.2392 20.2027 92.0664 20.0156C91.8935 19.8262 91.6556 19.7315 91.3526 19.7315C91.149 19.7315 90.9691 19.7753 90.8128 19.8629C90.6589 19.9505 90.5382 20.0784 90.4506 20.2464C90.3654 20.4122 90.3216 20.6122 90.3192 20.8466ZM98.3604 18.5455V19.6818H94.9939V18.5455H98.3604ZM95.7645 24V18.1513C95.7645 17.7559 95.8414 17.428 95.9953 17.1676C96.1516 16.9072 96.3646 16.7119 96.6345 16.5817C96.9044 16.4515 97.211 16.3864 97.5543 16.3864C97.7863 16.3864 97.9982 16.4041 98.1899 16.4396C98.384 16.4751 98.5285 16.5071 98.6232 16.5355L98.3533 17.6719C98.2941 17.6529 98.2207 17.6352 98.1331 17.6186C98.0479 17.602 97.9603 17.5938 97.8703 17.5938C97.6478 17.5938 97.4927 17.6458 97.4051 17.75C97.3175 17.8518 97.2737 17.995 97.2737 18.1797V24H95.7645ZM101.954 24.1065C101.402 24.1065 100.925 23.9893 100.523 23.755C100.123 23.5182 99.8136 23.1892 99.5958 22.7678C99.378 22.344 99.2691 21.8527 99.2691 21.294C99.2691 20.7306 99.378 20.2382 99.5958 19.8168C99.8136 19.393 100.123 19.0639 100.523 18.8295C100.925 18.5928 101.402 18.4744 101.954 18.4744C102.505 18.4744 102.981 18.5928 103.381 18.8295C103.784 19.0639 104.094 19.393 104.312 19.8168C104.529 20.2382 104.638 20.7306 104.638 21.294C104.638 21.8527 104.529 22.344 104.312 22.7678C104.094 23.1892 103.784 23.5182 103.381 23.755C102.981 23.9893 102.505 24.1065 101.954 24.1065ZM101.961 22.9347C102.212 22.9347 102.421 22.8636 102.589 22.7216C102.757 22.5772 102.884 22.3807 102.969 22.1321C103.057 21.8835 103.101 21.6006 103.101 21.2834C103.101 20.9661 103.057 20.6832 102.969 20.4347C102.884 20.1861 102.757 19.9896 102.589 19.8452C102.421 19.7008 102.212 19.6286 101.961 19.6286C101.708 19.6286 101.494 19.7008 101.322 19.8452C101.151 19.9896 101.022 20.1861 100.935 20.4347C100.849 20.6832 100.807 20.9661 100.807 21.2834C100.807 21.6006 100.849 21.8835 100.935 22.1321C101.022 22.3807 101.151 22.5772 101.322 22.7216C101.494 22.8636 101.708 22.9347 101.961 22.9347ZM108.765 24V16.7273H111.634C112.186 16.7273 112.656 16.8326 113.044 17.0433C113.432 17.2517 113.728 17.5417 113.932 17.9134C114.138 18.2827 114.241 18.7088 114.241 19.1918C114.241 19.6747 114.137 20.1009 113.928 20.4702C113.72 20.8395 113.418 21.1271 113.023 21.3331C112.63 21.5391 112.154 21.642 111.595 21.642H109.766V20.4098H111.347C111.643 20.4098 111.886 20.3589 112.078 20.2571C112.272 20.1529 112.417 20.0097 112.511 19.8274C112.608 19.6428 112.657 19.4309 112.657 19.1918C112.657 18.9503 112.608 18.7396 112.511 18.5597C112.417 18.3774 112.272 18.2365 112.078 18.1371C111.884 18.0353 111.638 17.9844 111.339 17.9844H110.303V24H108.765ZM117.02 24.103C116.672 24.103 116.362 24.0426 116.09 23.9219C115.817 23.7988 115.602 23.6177 115.443 23.3786C115.287 23.1371 115.209 22.8364 115.209 22.4766C115.209 22.1735 115.265 21.919 115.376 21.7131C115.487 21.5071 115.639 21.3414 115.83 21.2159C116.022 21.0904 116.24 20.9957 116.484 20.9318C116.73 20.8679 116.988 20.8229 117.258 20.7969C117.575 20.7637 117.831 20.733 118.025 20.7045C118.219 20.6738 118.36 20.6288 118.448 20.5696C118.535 20.5104 118.579 20.4228 118.579 20.3068V20.2855C118.579 20.0606 118.508 19.8866 118.366 19.7635C118.226 19.6404 118.027 19.5788 117.769 19.5788C117.497 19.5788 117.28 19.6392 117.119 19.7599C116.958 19.8783 116.852 20.0275 116.8 20.2074L115.401 20.0938C115.472 19.7623 115.611 19.4759 115.82 19.2344C116.028 18.9905 116.297 18.8035 116.626 18.6733C116.957 18.5407 117.341 18.4744 117.776 18.4744C118.079 18.4744 118.369 18.5099 118.646 18.581C118.926 18.652 119.173 18.7621 119.389 18.9112C119.606 19.0604 119.778 19.2521 119.904 19.4865C120.029 19.7185 120.092 19.9967 120.092 20.321V24H118.657V23.2436H118.614C118.527 23.4141 118.41 23.5644 118.263 23.6946C118.116 23.8224 117.94 23.9231 117.734 23.9964C117.528 24.0675 117.29 24.103 117.02 24.103ZM117.453 23.0589C117.676 23.0589 117.872 23.0152 118.043 22.9276C118.213 22.8376 118.347 22.7169 118.444 22.5653C118.541 22.4138 118.59 22.2422 118.59 22.0504V21.4716C118.542 21.5024 118.477 21.5308 118.394 21.5568C118.314 21.5805 118.223 21.603 118.121 21.6243C118.019 21.6432 117.917 21.661 117.815 21.6776C117.714 21.6918 117.621 21.7048 117.538 21.7166C117.361 21.7427 117.206 21.7841 117.073 21.8409C116.941 21.8977 116.838 21.9747 116.764 22.0717C116.691 22.1664 116.654 22.2848 116.654 22.4268C116.654 22.6328 116.729 22.7902 116.878 22.8991C117.029 23.0057 117.221 23.0589 117.453 23.0589ZM124.123 26.1591C123.633 26.1591 123.213 26.0916 122.862 25.9567C122.514 25.8241 122.237 25.643 122.031 25.4134C121.825 25.1837 121.691 24.9257 121.63 24.6392L123.029 24.451C123.072 24.5599 123.139 24.6617 123.231 24.7564C123.324 24.8511 123.446 24.9268 123.597 24.9837C123.751 25.0429 123.938 25.0724 124.158 25.0724C124.487 25.0724 124.758 24.992 124.972 24.831C125.187 24.6723 125.295 24.406 125.295 24.032V23.0341H125.231C125.164 23.1856 125.065 23.3288 124.932 23.4638C124.8 23.5987 124.629 23.7088 124.421 23.794C124.213 23.8793 123.964 23.9219 123.675 23.9219C123.266 23.9219 122.893 23.8272 122.557 23.6378C122.223 23.446 121.957 23.1536 121.758 22.7607C121.561 22.3653 121.463 21.8658 121.463 21.2621C121.463 20.6442 121.564 20.1281 121.765 19.7138C121.966 19.2995 122.234 18.9893 122.567 18.7834C122.904 18.5774 123.272 18.4744 123.672 18.4744C123.977 18.4744 124.233 18.5265 124.439 18.6307C124.645 18.7325 124.811 18.8603 124.936 19.0142C125.064 19.1657 125.162 19.3149 125.231 19.4616H125.288V18.5455H126.79V24.0533C126.79 24.5173 126.676 24.9055 126.449 25.218C126.222 25.5305 125.907 25.7649 125.504 25.9212C125.104 26.0798 124.644 26.1591 124.123 26.1591ZM124.155 22.7855C124.399 22.7855 124.605 22.7251 124.773 22.6044C124.943 22.4813 125.073 22.3061 125.163 22.0788C125.256 21.8492 125.302 21.5746 125.302 21.255C125.302 20.9354 125.257 20.6584 125.167 20.424C125.077 20.1873 124.947 20.0038 124.776 19.8736C124.606 19.7434 124.399 19.6783 124.155 19.6783C123.906 19.6783 123.697 19.7457 123.526 19.8807C123.356 20.0133 123.227 20.1979 123.139 20.4347C123.052 20.6714 123.008 20.9448 123.008 21.255C123.008 21.5698 123.052 21.8421 123.139 22.0717C123.229 22.299 123.358 22.4754 123.526 22.6009C123.697 22.724 123.906 22.7855 124.155 22.7855ZM130.879 24.1065C130.318 24.1065 129.835 23.9929 129.43 23.7656C129.028 23.536 128.718 23.2116 128.5 22.7926C128.282 22.3712 128.173 21.8729 128.173 21.2976C128.173 20.7365 128.282 20.2441 128.5 19.8203C128.718 19.3965 129.024 19.0663 129.42 18.8295C129.818 18.5928 130.284 18.4744 130.819 18.4744C131.179 18.4744 131.514 18.5324 131.824 18.6484C132.136 18.7621 132.409 18.9337 132.641 19.1634C132.875 19.393 133.057 19.6818 133.188 20.0298C133.318 20.3755 133.383 20.7803 133.383 21.2443V21.6598H128.777V20.7223H131.959C131.959 20.5045 131.912 20.3116 131.817 20.1435C131.722 19.9754 131.591 19.844 131.423 19.7493C131.257 19.6522 131.064 19.6037 130.844 19.6037C130.614 19.6037 130.411 19.657 130.233 19.7635C130.058 19.8677 129.921 20.0085 129.821 20.1861C129.722 20.3613 129.671 20.5566 129.668 20.772V21.6634C129.668 21.9332 129.718 22.1664 129.818 22.3629C129.919 22.5594 130.063 22.7109 130.247 22.8175C130.432 22.924 130.651 22.9773 130.904 22.9773C131.072 22.9773 131.226 22.9536 131.366 22.9062C131.506 22.8589 131.625 22.7879 131.725 22.6932C131.824 22.5985 131.9 22.4825 131.952 22.3452L133.351 22.4375C133.28 22.7737 133.134 23.0672 132.914 23.3182C132.696 23.5668 132.415 23.7609 132.069 23.9006C131.726 24.0379 131.329 24.1065 130.879 24.1065Z" fill="#BBBAC3"/>
<rect x="30" y="115" width="69" height="6" rx="3" fill="#6C6A7E"/>
<rect x="30" y="130" width="148" height="4" rx="2" fill="#504D65"/>
<rect x="30" y="140" width="140" height="4" rx="2" fill="#504D65"/>
<rect x="30" y="150" width="100" height="4" rx="2" fill="#504D65"/>
<rect x="30" y="160" width="123" height="4" rx="2" fill="#504D65"/>
<rect x="30" y="170" width="118" height="4" rx="2" fill="#504D65"/>
<rect x="30" y="180" width="105" height="4" rx="2" fill="#504D65"/>
<rect x="30" y="190" width="86" height="4" rx="2" fill="#504D65"/>
<rect x="30" y="36" width="160" height="57" rx="2" fill="#504D65"/>
<circle cx="55" cy="59" r="6" fill="#9A99A7"/>
<path d="M71.3967 63.7953L32.1019 83.5426C31.4264 83.8821 31 84.5736 31 85.3296V90C31 91.1046 31.8954 92 33 92H187C188.105 92 189 91.1046 189 90V71.7391C189 71.1208 188.714 70.5373 188.225 70.1585L164.662 51.8881C163.978 51.3583 163.032 51.3276 162.316 51.8121L115.547 83.4468C114.953 83.8486 114.19 83.9016 113.546 83.5859L73.1754 63.7866C72.6137 63.5112 71.9556 63.5144 71.3967 63.7953Z" fill="#9A99A7"/>
</svg>
