<svg width="220" height="240" viewBox="0 0 220 240" fill="none" xmlns="http://www.w3.org/2000/svg">
<rect width="220" height="240" rx="6" fill="white"/>
<rect x="81" y="52" width="58" height="58" rx="29" fill="#E6E8EE"/>
<path d="M49.1343 130H47.4866L49.9972 122.727H51.9787L54.4859 130H52.8381L51.0164 124.389H50.9596L49.1343 130ZM49.0313 127.141H52.9234V128.342H49.0313V127.141ZM57.2456 126.847V130H55.7328V124.545H57.1746V125.508H57.2385C57.3592 125.191 57.5616 124.94 57.8457 124.755C58.1298 124.568 58.4743 124.474 58.8791 124.474C59.2579 124.474 59.5881 124.557 59.8699 124.723C60.1516 124.889 60.3706 125.125 60.5268 125.433C60.6831 125.739 60.7612 126.103 60.7612 126.527V130H59.2484V126.797C59.2508 126.463 59.1656 126.203 58.9927 126.016C58.8199 125.826 58.582 125.732 58.279 125.732C58.0754 125.732 57.8954 125.775 57.7392 125.863C57.5853 125.951 57.4646 126.078 57.377 126.246C57.2917 126.412 57.2479 126.612 57.2456 126.847ZM67.5537 130.107C66.9927 130.107 66.5097 129.993 66.1049 129.766C65.7024 129.536 65.3923 129.212 65.1745 128.793C64.9567 128.371 64.8478 127.873 64.8478 127.298C64.8478 126.737 64.9567 126.244 65.1745 125.82C65.3923 125.397 65.6989 125.066 66.0942 124.83C66.492 124.593 66.9583 124.474 67.4934 124.474C67.8532 124.474 68.1882 124.532 68.4984 124.648C68.8109 124.762 69.0831 124.934 69.3151 125.163C69.5495 125.393 69.7318 125.682 69.862 126.03C69.9922 126.375 70.0573 126.78 70.0573 127.244V127.66H65.4515V126.722H68.6333C68.6333 126.504 68.5859 126.312 68.4912 126.143C68.3966 125.975 68.2652 125.844 68.0971 125.749C67.9314 125.652 67.7384 125.604 67.5182 125.604C67.2886 125.604 67.085 125.657 66.9074 125.763C66.7323 125.868 66.5949 126.009 66.4955 126.186C66.3961 126.361 66.3452 126.557 66.3428 126.772V127.663C66.3428 127.933 66.3925 128.166 66.492 128.363C66.5938 128.559 66.737 128.711 66.9216 128.817C67.1063 128.924 67.3253 128.977 67.5786 128.977C67.7467 128.977 67.9006 128.954 68.0403 128.906C68.1799 128.859 68.2995 128.788 68.3989 128.693C68.4984 128.598 68.5741 128.482 68.6262 128.345L70.0253 128.438C69.9543 128.774 69.8087 129.067 69.5886 129.318C69.3707 129.567 69.089 129.761 68.7434 129.901C68.4001 130.038 68.0036 130.107 67.5537 130.107ZM71.4445 130V124.545H72.9111V125.497H72.968C73.0674 125.159 73.2343 124.903 73.4687 124.73C73.703 124.555 73.9729 124.467 74.2783 124.467C74.3541 124.467 74.4358 124.472 74.5233 124.482C74.6109 124.491 74.6879 124.504 74.7542 124.521V125.863C74.6832 125.842 74.5849 125.823 74.4594 125.806C74.334 125.79 74.2191 125.781 74.115 125.781C73.8924 125.781 73.6936 125.83 73.5184 125.927C73.3456 126.022 73.2082 126.154 73.1064 126.325C73.007 126.495 72.9573 126.692 72.9573 126.914V130H71.4445ZM75.9363 130V124.545H77.4029V125.497H77.4597C77.5592 125.159 77.7261 124.903 77.9605 124.73C78.1948 124.555 78.4647 124.467 78.7701 124.467C78.8459 124.467 78.9276 124.472 79.0151 124.482C79.1027 124.491 79.1797 124.504 79.246 124.521V125.863C79.1749 125.842 79.0767 125.823 78.9512 125.806C78.8258 125.79 78.7109 125.781 78.6068 125.781C78.3842 125.781 78.1854 125.83 78.0102 125.927C77.8374 126.022 77.7 126.154 77.5982 126.325C77.4988 126.495 77.4491 126.692 77.4491 126.914V130H75.9363ZM82.6387 130.107C82.0871 130.107 81.61 129.989 81.2076 129.755C80.8075 129.518 80.4985 129.189 80.2807 128.768C80.0629 128.344 79.954 127.853 79.954 127.294C79.954 126.731 80.0629 126.238 80.2807 125.817C80.4985 125.393 80.8075 125.064 81.2076 124.83C81.61 124.593 82.0871 124.474 82.6387 124.474C83.1903 124.474 83.6662 124.593 84.0662 124.83C84.4687 125.064 84.7788 125.393 84.9966 125.817C85.2145 126.238 85.3234 126.731 85.3234 127.294C85.3234 127.853 85.2145 128.344 84.9966 128.768C84.7788 129.189 84.4687 129.518 84.0662 129.755C83.6662 129.989 83.1903 130.107 82.6387 130.107ZM82.6458 128.935C82.8967 128.935 83.1063 128.864 83.2743 128.722C83.4424 128.577 83.5691 128.381 83.6543 128.132C83.7419 127.884 83.7857 127.601 83.7857 127.283C83.7857 126.966 83.7419 126.683 83.6543 126.435C83.5691 126.186 83.4424 125.99 83.2743 125.845C83.1063 125.701 82.8967 125.629 82.6458 125.629C82.3925 125.629 82.1794 125.701 82.0066 125.845C81.8361 125.99 81.7071 126.186 81.6195 126.435C81.5343 126.683 81.4917 126.966 81.4917 127.283C81.4917 127.601 81.5343 127.884 81.6195 128.132C81.7071 128.381 81.8361 128.577 82.0066 128.722C82.1794 128.864 82.3925 128.935 82.6458 128.935ZM86.707 130V124.545H88.1736V125.497H88.2305C88.3299 125.159 88.4968 124.903 88.7312 124.73C88.9655 124.555 89.2354 124.467 89.5408 124.467C89.6166 124.467 89.6983 124.472 89.7858 124.482C89.8734 124.491 89.9504 124.504 90.0167 124.521V125.863C89.9457 125.842 89.8474 125.823 89.7219 125.806C89.5965 125.79 89.4816 125.781 89.3775 125.781C89.1549 125.781 88.9561 125.83 88.7809 125.927C88.6081 126.022 88.4707 126.154 88.3689 126.325C88.2695 126.495 88.2198 126.692 88.2198 126.914V130H86.707ZM96.3778 130.107C95.8261 130.107 95.3491 129.989 94.9466 129.755C94.5465 129.518 94.2376 129.189 94.0198 128.768C93.802 128.344 93.6931 127.853 93.6931 127.294C93.6931 126.731 93.802 126.238 94.0198 125.817C94.2376 125.393 94.5465 125.064 94.9466 124.83C95.3491 124.593 95.8261 124.474 96.3778 124.474C96.9294 124.474 97.4052 124.593 97.8053 124.83C98.2078 125.064 98.5179 125.393 98.7357 125.817C98.9535 126.238 99.0624 126.731 99.0624 127.294C99.0624 127.853 98.9535 128.344 98.7357 128.768C98.5179 129.189 98.2078 129.518 97.8053 129.755C97.4052 129.989 96.9294 130.107 96.3778 130.107ZM96.3849 128.935C96.6358 128.935 96.8453 128.864 97.0134 128.722C97.1815 128.577 97.3081 128.381 97.3934 128.132C97.481 127.884 97.5248 127.601 97.5248 127.283C97.5248 126.966 97.481 126.683 97.3934 126.435C97.3081 126.186 97.1815 125.99 97.0134 125.845C96.8453 125.701 96.6358 125.629 96.3849 125.629C96.1315 125.629 95.9185 125.701 95.7456 125.845C95.5752 125.99 95.4462 126.186 95.3586 126.435C95.2733 126.683 95.2307 126.966 95.2307 127.283C95.2307 127.601 95.2733 127.884 95.3586 128.132C95.4462 128.381 95.5752 128.577 95.7456 128.722C95.9185 128.864 96.1315 128.935 96.3849 128.935ZM102.911 130.107C102.352 130.107 101.871 129.988 101.469 129.751C101.069 129.512 100.761 129.181 100.546 128.757C100.332 128.333 100.226 127.846 100.226 127.294C100.226 126.735 100.334 126.245 100.549 125.824C100.767 125.4 101.076 125.07 101.476 124.833C101.876 124.594 102.352 124.474 102.903 124.474C103.379 124.474 103.796 124.561 104.153 124.734C104.511 124.906 104.794 125.149 105.002 125.462C105.211 125.774 105.325 126.141 105.347 126.562H103.919C103.879 126.29 103.772 126.071 103.599 125.906C103.429 125.737 103.205 125.653 102.928 125.653C102.694 125.653 102.489 125.717 102.314 125.845C102.141 125.971 102.006 126.154 101.909 126.396C101.812 126.637 101.764 126.929 101.764 127.273C101.764 127.621 101.811 127.917 101.906 128.161C102.003 128.404 102.139 128.59 102.314 128.718C102.489 128.846 102.694 128.91 102.928 128.91C103.101 128.91 103.256 128.874 103.394 128.803C103.533 128.732 103.648 128.629 103.738 128.494C103.83 128.357 103.891 128.192 103.919 128.001H105.347C105.323 128.417 105.209 128.784 105.006 129.102C104.805 129.416 104.526 129.663 104.171 129.84C103.816 130.018 103.396 130.107 102.911 130.107ZM109.18 130.107C108.621 130.107 108.14 129.988 107.738 129.751C107.338 129.512 107.03 129.181 106.815 128.757C106.602 128.333 106.495 127.846 106.495 127.294C106.495 126.735 106.603 126.245 106.818 125.824C107.036 125.4 107.345 125.07 107.745 124.833C108.145 124.594 108.621 124.474 109.173 124.474C109.648 124.474 110.065 124.561 110.423 124.734C110.78 124.906 111.063 125.149 111.271 125.462C111.48 125.774 111.594 126.141 111.616 126.562H110.188C110.148 126.29 110.041 126.071 109.869 125.906C109.698 125.737 109.474 125.653 109.197 125.653C108.963 125.653 108.758 125.717 108.583 125.845C108.41 125.971 108.275 126.154 108.178 126.396C108.081 126.637 108.033 126.929 108.033 127.273C108.033 127.621 108.08 127.917 108.175 128.161C108.272 128.404 108.408 128.59 108.583 128.718C108.758 128.846 108.963 128.91 109.197 128.91C109.37 128.91 109.525 128.874 109.663 128.803C109.802 128.732 109.917 128.629 110.007 128.494C110.099 128.357 110.16 128.192 110.188 128.001H111.616C111.592 128.417 111.478 128.784 111.275 129.102C111.074 129.416 110.795 129.663 110.44 129.84C110.085 130.018 109.665 130.107 109.18 130.107ZM116.482 127.678V124.545H117.995V130H116.543V129.009H116.486C116.363 129.329 116.158 129.586 115.871 129.78C115.587 129.974 115.241 130.071 114.831 130.071C114.466 130.071 114.146 129.988 113.869 129.822C113.592 129.657 113.375 129.421 113.219 129.116C113.065 128.81 112.987 128.445 112.984 128.018V124.545H114.497V127.749C114.5 128.071 114.586 128.325 114.756 128.512C114.927 128.699 115.155 128.793 115.442 128.793C115.624 128.793 115.794 128.751 115.953 128.668C116.112 128.583 116.24 128.458 116.337 128.292C116.436 128.126 116.485 127.921 116.482 127.678ZM119.605 130V124.545H121.072V125.497H121.128C121.228 125.159 121.395 124.903 121.629 124.73C121.864 124.555 122.133 124.467 122.439 124.467C122.515 124.467 122.596 124.472 122.684 124.482C122.771 124.491 122.848 124.504 122.915 124.521V125.863C122.844 125.842 122.745 125.823 122.62 125.806C122.495 125.79 122.38 125.781 122.276 125.781C122.053 125.781 121.854 125.83 121.679 125.927C121.506 126.022 121.369 126.154 121.267 126.325C121.168 126.495 121.118 126.692 121.118 126.914V130H119.605ZM124.097 130V124.545H125.563V125.497H125.62C125.72 125.159 125.887 124.903 126.121 124.73C126.355 124.555 126.625 124.467 126.931 124.467C127.006 124.467 127.088 124.472 127.176 124.482C127.263 124.491 127.34 124.504 127.407 124.521V125.863C127.335 125.842 127.237 125.823 127.112 125.806C126.986 125.79 126.871 125.781 126.767 125.781C126.545 125.781 126.346 125.83 126.171 125.927C125.998 126.022 125.861 126.154 125.759 126.325C125.659 126.495 125.61 126.692 125.61 126.914V130H124.097ZM130.821 130.107C130.259 130.107 129.777 129.993 129.372 129.766C128.969 129.536 128.659 129.212 128.441 128.793C128.223 128.371 128.115 127.873 128.115 127.298C128.115 126.737 128.223 126.244 128.441 125.82C128.659 125.397 128.966 125.066 129.361 124.83C129.759 124.593 130.225 124.474 130.76 124.474C131.12 124.474 131.455 124.532 131.765 124.648C132.078 124.762 132.35 124.934 132.582 125.163C132.816 125.393 132.999 125.682 133.129 126.03C133.259 126.375 133.324 126.78 133.324 127.244V127.66H128.718V126.722H131.9C131.9 126.504 131.853 126.312 131.758 126.143C131.663 125.975 131.532 125.844 131.364 125.749C131.198 125.652 131.005 125.604 130.785 125.604C130.555 125.604 130.352 125.657 130.174 125.763C129.999 125.868 129.862 126.009 129.762 126.186C129.663 126.361 129.612 126.557 129.61 126.772V127.663C129.61 127.933 129.659 128.166 129.759 128.363C129.861 128.559 130.004 128.711 130.188 128.817C130.373 128.924 130.592 128.977 130.845 128.977C131.013 128.977 131.167 128.954 131.307 128.906C131.447 128.859 131.566 128.788 131.666 128.693C131.765 128.598 131.841 128.482 131.893 128.345L133.292 128.438C133.221 128.774 133.076 129.067 132.855 129.318C132.638 129.567 132.356 129.761 132.01 129.901C131.667 130.038 131.27 130.107 130.821 130.107ZM136.721 130.089C136.307 130.089 135.932 129.982 135.596 129.769C135.262 129.554 134.997 129.238 134.8 128.821C134.606 128.402 134.509 127.888 134.509 127.28C134.509 126.655 134.61 126.135 134.811 125.721C135.012 125.304 135.279 124.993 135.613 124.787C135.949 124.579 136.318 124.474 136.718 124.474C137.023 124.474 137.278 124.527 137.481 124.631C137.687 124.732 137.853 124.86 137.978 125.014C138.106 125.166 138.203 125.315 138.27 125.462H138.316V122.727H139.825V130H138.333V129.126H138.27C138.199 129.278 138.098 129.428 137.968 129.577C137.84 129.724 137.673 129.846 137.467 129.943C137.263 130.04 137.015 130.089 136.721 130.089ZM137.201 128.885C137.445 128.885 137.65 128.819 137.819 128.686C137.989 128.551 138.119 128.363 138.209 128.121C138.302 127.88 138.348 127.597 138.348 127.273C138.348 126.948 138.303 126.667 138.213 126.428C138.123 126.188 137.993 126.004 137.822 125.874C137.652 125.743 137.445 125.678 137.201 125.678C136.952 125.678 136.743 125.746 136.572 125.881C136.402 126.016 136.273 126.203 136.185 126.442C136.097 126.681 136.054 126.958 136.054 127.273C136.054 127.59 136.097 127.871 136.185 128.114C136.275 128.356 136.404 128.545 136.572 128.683C136.743 128.817 136.952 128.885 137.201 128.885ZM145.259 130L143.775 124.545H145.305L146.151 128.21H146.2L147.081 124.545H148.583L149.478 128.189H149.524L150.355 124.545H151.882L150.401 130H148.8L147.862 126.57H147.795L146.857 130H145.259ZM154.602 126.847V130H153.089V122.727H154.559V125.508H154.623C154.746 125.186 154.945 124.934 155.22 124.751C155.494 124.567 155.839 124.474 156.253 124.474C156.632 124.474 156.962 124.557 157.244 124.723C157.528 124.886 157.748 125.122 157.904 125.43C158.063 125.735 158.141 126.101 158.139 126.527V130H156.626V126.797C156.628 126.461 156.543 126.199 156.37 126.012C156.2 125.825 155.961 125.732 155.653 125.732C155.447 125.732 155.265 125.775 155.106 125.863C154.95 125.951 154.827 126.078 154.737 126.246C154.649 126.412 154.604 126.612 154.602 126.847ZM159.729 130V124.545H161.242V130H159.729ZM160.489 123.842C160.264 123.842 160.071 123.768 159.91 123.619C159.752 123.467 159.672 123.286 159.672 123.075C159.672 122.867 159.752 122.688 159.91 122.539C160.071 122.388 160.264 122.312 160.489 122.312C160.714 122.312 160.906 122.388 161.065 122.539C161.225 122.688 161.306 122.867 161.306 123.075C161.306 123.286 161.225 123.467 161.065 123.619C160.906 123.768 160.714 123.842 160.489 123.842ZM164.367 122.727V130H162.854V122.727H164.367ZM168.464 130.107C167.903 130.107 167.42 129.993 167.015 129.766C166.613 129.536 166.303 129.212 166.085 128.793C165.867 128.371 165.758 127.873 165.758 127.298C165.758 126.737 165.867 126.244 166.085 125.82C166.303 125.397 166.609 125.066 167.005 124.83C167.403 124.593 167.869 124.474 168.404 124.474C168.764 124.474 169.099 124.532 169.409 124.648C169.721 124.762 169.994 124.934 170.226 125.163C170.46 125.393 170.642 125.682 170.773 126.03C170.903 126.375 170.968 126.78 170.968 127.244V127.66H166.362V126.722H169.544C169.544 126.504 169.497 126.312 169.402 126.143C169.307 125.975 169.176 125.844 169.008 125.749C168.842 125.652 168.649 125.604 168.429 125.604C168.199 125.604 167.996 125.657 167.818 125.763C167.643 125.868 167.505 126.009 167.406 126.186C167.307 126.361 167.256 126.557 167.253 126.772V127.663C167.253 127.933 167.303 128.166 167.403 128.363C167.504 128.559 167.648 128.711 167.832 128.817C168.017 128.924 168.236 128.977 168.489 128.977C168.657 128.977 168.811 128.954 168.951 128.906C169.09 128.859 169.21 128.788 169.309 128.693C169.409 128.598 169.485 128.482 169.537 128.345L170.936 128.438C170.865 128.774 170.719 129.067 170.499 129.318C170.281 129.567 170 129.761 169.654 129.901C169.311 130.038 168.914 130.107 168.464 130.107ZM41.8123 144.045V136.545H43.3038V137.462H43.3712C43.4375 137.315 43.5334 137.166 43.6589 137.014C43.7867 136.86 43.9524 136.732 44.156 136.631C44.362 136.527 44.6177 136.474 44.9231 136.474C45.3208 136.474 45.6878 136.579 46.0239 136.787C46.3601 136.993 46.6288 137.304 46.83 137.721C47.0313 138.135 47.1319 138.655 47.1319 139.28C47.1319 139.888 47.0336 140.402 46.8371 140.821C46.643 141.238 46.3779 141.554 46.0417 141.769C45.7079 141.982 45.3338 142.089 44.9195 142.089C44.626 142.089 44.3762 142.04 44.1702 141.943C43.9666 141.846 43.7997 141.724 43.6695 141.577C43.5393 141.428 43.4399 141.278 43.3712 141.126H43.3251V144.045H41.8123ZM43.2931 139.273C43.2931 139.597 43.3381 139.88 43.4281 140.121C43.518 140.363 43.6482 140.551 43.8187 140.686C43.9891 140.819 44.1963 140.885 44.4401 140.885C44.6863 140.885 44.8947 140.817 45.0651 140.683C45.2356 140.545 45.3646 140.356 45.4522 140.114C45.5422 139.871 45.5871 139.59 45.5871 139.273C45.5871 138.958 45.5433 138.681 45.4558 138.442C45.3682 138.203 45.2391 138.016 45.0687 137.881C44.8982 137.746 44.6887 137.678 44.4401 137.678C44.1939 137.678 43.9856 137.743 43.8151 137.874C43.647 138.004 43.518 138.188 43.4281 138.428C43.3381 138.667 43.2931 138.948 43.2931 139.273ZM48.5404 142V136.545H50.007V137.497H50.0639C50.1633 137.159 50.3302 136.903 50.5646 136.73C50.7989 136.555 51.0688 136.467 51.3742 136.467C51.45 136.467 51.5317 136.472 51.6192 136.482C51.7068 136.491 51.7838 136.504 51.8501 136.521V137.863C51.779 137.842 51.6808 137.823 51.5553 137.806C51.4299 137.79 51.315 137.781 51.2109 137.781C50.9883 137.781 50.7895 137.83 50.6143 137.927C50.4415 138.022 50.3041 138.154 50.2023 138.325C50.1029 138.495 50.0532 138.692 50.0532 138.914V142H48.5404ZM55.2428 142.107C54.6912 142.107 54.2141 141.989 53.8117 141.755C53.4116 141.518 53.1026 141.189 52.8848 140.768C52.667 140.344 52.5581 139.853 52.5581 139.294C52.5581 138.731 52.667 138.238 52.8848 137.817C53.1026 137.393 53.4116 137.064 53.8117 136.83C54.2141 136.593 54.6912 136.474 55.2428 136.474C55.7944 136.474 56.2703 136.593 56.6703 136.83C57.0728 137.064 57.3829 137.393 57.6007 137.817C57.8185 138.238 57.9275 138.731 57.9275 139.294C57.9275 139.853 57.8185 140.344 57.6007 140.768C57.3829 141.189 57.0728 141.518 56.6703 141.755C56.2703 141.989 55.7944 142.107 55.2428 142.107ZM55.2499 140.935C55.5008 140.935 55.7104 140.864 55.8784 140.722C56.0465 140.577 56.1732 140.381 56.2584 140.132C56.346 139.884 56.3898 139.601 56.3898 139.283C56.3898 138.966 56.346 138.683 56.2584 138.435C56.1732 138.186 56.0465 137.99 55.8784 137.845C55.7104 137.701 55.5008 137.629 55.2499 137.629C54.9966 137.629 54.7835 137.701 54.6107 137.845C54.4402 137.99 54.3112 138.186 54.2236 138.435C54.1384 138.683 54.0958 138.966 54.0958 139.283C54.0958 139.601 54.1384 139.884 54.2236 140.132C54.3112 140.381 54.4402 140.577 54.6107 140.722C54.7835 140.864 54.9966 140.935 55.2499 140.935ZM61.7756 142.107C61.2169 142.107 60.7363 141.988 60.3338 141.751C59.9337 141.512 59.626 141.181 59.4105 140.757C59.1975 140.333 59.0909 139.846 59.0909 139.294C59.0909 138.735 59.1987 138.245 59.4141 137.824C59.6319 137.4 59.9409 137.07 60.3409 136.833C60.741 136.594 61.2169 136.474 61.7685 136.474C62.2444 136.474 62.661 136.561 63.0185 136.734C63.376 136.906 63.6589 137.149 63.8672 137.462C64.0756 137.774 64.1904 138.141 64.2117 138.562H62.7841C62.7439 138.29 62.6373 138.071 62.4645 137.906C62.2941 137.737 62.0704 137.653 61.7934 137.653C61.559 137.653 61.3542 137.717 61.179 137.845C61.0062 137.971 60.8712 138.154 60.7742 138.396C60.6771 138.637 60.6286 138.929 60.6286 139.273C60.6286 139.621 60.6759 139.917 60.7706 140.161C60.8677 140.404 61.0038 140.59 61.179 140.718C61.3542 140.846 61.559 140.91 61.7934 140.91C61.9662 140.91 62.1213 140.874 62.2586 140.803C62.3982 140.732 62.5131 140.629 62.603 140.494C62.6954 140.357 62.7557 140.192 62.7841 140.001H64.2117C64.188 140.417 64.0744 140.784 63.8708 141.102C63.6695 141.416 63.3914 141.663 63.0363 141.84C62.6811 142.018 62.2609 142.107 61.7756 142.107ZM68.0661 142.107C67.505 142.107 67.022 141.993 66.6172 141.766C66.2147 141.536 65.9046 141.212 65.6868 140.793C65.469 140.371 65.3601 139.873 65.3601 139.298C65.3601 138.737 65.469 138.244 65.6868 137.82C65.9046 137.397 66.2112 137.066 66.6065 136.83C67.0043 136.593 67.4706 136.474 68.0057 136.474C68.3655 136.474 68.7005 136.532 69.0107 136.648C69.3232 136.762 69.5954 136.934 69.8274 137.163C70.0618 137.393 70.2441 137.682 70.3743 138.03C70.5045 138.375 70.5696 138.78 70.5696 139.244V139.66H65.9638V138.722H69.1456C69.1456 138.504 69.0982 138.312 69.0036 138.143C68.9089 137.975 68.7775 137.844 68.6094 137.749C68.4437 137.652 68.2507 137.604 68.0305 137.604C67.8009 137.604 67.5973 137.657 67.4197 137.763C67.2446 137.868 67.1072 138.009 67.0078 138.186C66.9084 138.361 66.8575 138.557 66.8551 138.772V139.663C66.8551 139.933 66.9048 140.166 67.0043 140.363C67.1061 140.559 67.2493 140.711 67.4339 140.817C67.6186 140.924 67.8376 140.977 68.0909 140.977C68.259 140.977 68.4129 140.954 68.5526 140.906C68.6922 140.859 68.8118 140.788 68.9112 140.693C69.0107 140.598 69.0864 140.482 69.1385 140.345L70.5376 140.438C70.4666 140.774 70.321 141.067 70.1009 141.318C69.883 141.567 69.6013 141.761 69.2557 141.901C68.9124 142.038 68.5159 142.107 68.0661 142.107ZM76.4952 138.101L75.1102 138.186C75.0866 138.068 75.0357 137.961 74.9575 137.866C74.8794 137.769 74.7764 137.692 74.6486 137.636C74.5231 137.576 74.3728 137.547 74.1976 137.547C73.9632 137.547 73.7655 137.597 73.6045 137.696C73.4436 137.793 73.3631 137.923 73.3631 138.087C73.3631 138.217 73.4152 138.327 73.5193 138.417C73.6235 138.507 73.8022 138.579 74.0555 138.634L75.0428 138.832C75.5731 138.941 75.9684 139.116 76.2288 139.358C76.4893 139.599 76.6195 139.917 76.6195 140.31C76.6195 140.667 76.5141 140.981 76.3034 141.251C76.0951 141.521 75.8086 141.731 75.444 141.883C75.0818 142.032 74.664 142.107 74.1905 142.107C73.4684 142.107 72.8931 141.956 72.4646 141.656C72.0385 141.353 71.7887 140.941 71.7153 140.42L73.2033 140.342C73.2482 140.562 73.3572 140.73 73.53 140.846C73.7028 140.96 73.9241 141.016 74.194 141.016C74.4592 141.016 74.6723 140.965 74.8332 140.864C74.9966 140.759 75.0795 140.626 75.0818 140.462C75.0795 140.325 75.0215 140.213 74.9078 140.125C74.7942 140.035 74.619 139.966 74.3822 139.919L73.4376 139.731C72.905 139.624 72.5084 139.44 72.248 139.177C71.99 138.914 71.8609 138.579 71.8609 138.172C71.8609 137.821 71.9556 137.52 72.145 137.266C72.3368 137.013 72.6055 136.818 72.9511 136.68C73.2991 136.543 73.7063 136.474 74.1727 136.474C74.8616 136.474 75.4038 136.62 75.7991 136.911C76.1969 137.202 76.4289 137.599 76.4952 138.101ZM82.5104 138.101L81.1255 138.186C81.1018 138.068 81.0509 137.961 80.9728 137.866C80.8946 137.769 80.7917 137.692 80.6638 137.636C80.5383 137.576 80.388 137.547 80.2128 137.547C79.9784 137.547 79.7808 137.597 79.6198 137.696C79.4588 137.793 79.3783 137.923 79.3783 138.087C79.3783 138.217 79.4304 138.327 79.5346 138.417C79.6387 138.507 79.8175 138.579 80.0708 138.634L81.058 138.832C81.5883 138.941 81.9837 139.116 82.2441 139.358C82.5045 139.599 82.6347 139.917 82.6347 140.31C82.6347 140.667 82.5293 140.981 82.3186 141.251C82.1103 141.521 81.8239 141.731 81.4593 141.883C81.0971 142.032 80.6792 142.107 80.2057 142.107C79.4837 142.107 78.9084 141.956 78.4799 141.656C78.0537 141.353 77.804 140.941 77.7306 140.42L79.2185 140.342C79.2635 140.562 79.3724 140.73 79.5452 140.846C79.718 140.96 79.9394 141.016 80.2093 141.016C80.4744 141.016 80.6875 140.965 80.8485 140.864C81.0118 140.759 81.0947 140.626 81.0971 140.462C81.0947 140.325 81.0367 140.213 80.923 140.125C80.8094 140.035 80.6342 139.966 80.3975 139.919L79.4529 139.731C78.9202 139.624 78.5237 139.44 78.2632 139.177C78.0052 138.914 77.8762 138.579 77.8762 138.172C77.8762 137.821 77.9709 137.52 78.1603 137.266C78.352 137.013 78.6207 136.818 78.9664 136.68C79.3144 136.543 79.7216 136.474 80.188 136.474C80.8769 136.474 81.419 136.62 81.8144 136.911C82.2121 137.202 82.4441 137.599 82.5104 138.101ZM83.9873 142V136.545H85.5001V142H83.9873ZM84.7472 135.842C84.5223 135.842 84.3294 135.768 84.1684 135.619C84.0098 135.467 83.9305 135.286 83.9305 135.075C83.9305 134.867 84.0098 134.688 84.1684 134.539C84.3294 134.388 84.5223 134.312 84.7472 134.312C84.9721 134.312 85.1639 134.388 85.3225 134.539C85.4835 134.688 85.564 134.867 85.564 135.075C85.564 135.286 85.4835 135.467 85.3225 135.619C85.1639 135.768 84.9721 135.842 84.7472 135.842ZM88.6247 138.847V142H87.1119V136.545H88.5537V137.508H88.6176C88.7383 137.191 88.9407 136.94 89.2248 136.755C89.5089 136.568 89.8534 136.474 90.2582 136.474C90.637 136.474 90.9672 136.557 91.249 136.723C91.5307 136.889 91.7497 137.125 91.9059 137.433C92.0622 137.739 92.1403 138.103 92.1403 138.527V142H90.6275V138.797C90.6299 138.463 90.5447 138.203 90.3718 138.016C90.199 137.826 89.9611 137.732 89.6581 137.732C89.4545 137.732 89.2745 137.775 89.1183 137.863C88.9644 137.951 88.8437 138.078 88.7561 138.246C88.6708 138.412 88.6271 138.612 88.6247 138.847ZM96.19 144.159C95.6999 144.159 95.2797 144.092 94.9293 143.957C94.5813 143.824 94.3043 143.643 94.0984 143.413C93.8924 143.184 93.7586 142.926 93.6971 142.639L95.0962 142.451C95.1388 142.56 95.2063 142.662 95.2987 142.756C95.391 142.851 95.5129 142.927 95.6644 142.984C95.8183 143.043 96.0053 143.072 96.2255 143.072C96.5546 143.072 96.8256 142.992 97.0387 142.831C97.2541 142.672 97.3619 142.406 97.3619 142.032V141.034H97.2979C97.2317 141.186 97.1322 141.329 96.9996 141.464C96.8671 141.599 96.6966 141.709 96.4883 141.794C96.2799 141.879 96.0314 141.922 95.7425 141.922C95.333 141.922 94.9601 141.827 94.6239 141.638C94.2901 141.446 94.0238 141.154 93.8249 140.761C93.6284 140.365 93.5302 139.866 93.5302 139.262C93.5302 138.644 93.6308 138.128 93.832 137.714C94.0333 137.299 94.3008 136.989 94.6346 136.783C94.9708 136.577 95.3389 136.474 95.739 136.474C96.0444 136.474 96.3001 136.527 96.506 136.631C96.712 136.732 96.8777 136.86 97.0032 137.014C97.131 137.166 97.2293 137.315 97.2979 137.462H97.3548V136.545H98.8569V142.053C98.8569 142.517 98.7433 142.906 98.516 143.218C98.2887 143.531 97.9738 143.765 97.5714 143.921C97.1713 144.08 96.7108 144.159 96.19 144.159ZM96.2219 140.786C96.4658 140.786 96.6718 140.725 96.8398 140.604C97.0103 140.481 97.1405 140.306 97.2305 140.079C97.3228 139.849 97.369 139.575 97.369 139.255C97.369 138.935 97.324 138.658 97.234 138.424C97.1441 138.187 97.0138 138.004 96.8434 137.874C96.6729 137.743 96.4658 137.678 96.2219 137.678C95.9734 137.678 95.7638 137.746 95.5934 137.881C95.4229 138.013 95.2939 138.198 95.2063 138.435C95.1187 138.671 95.0749 138.945 95.0749 139.255C95.0749 139.57 95.1187 139.842 95.2063 140.072C95.2963 140.299 95.4253 140.475 95.5934 140.601C95.7638 140.724 95.9734 140.786 96.2219 140.786ZM104.109 144.045C103.917 144.045 103.737 144.03 103.569 143.999C103.404 143.971 103.266 143.934 103.157 143.889L103.498 142.76C103.676 142.814 103.836 142.844 103.978 142.849C104.122 142.853 104.246 142.82 104.351 142.749C104.457 142.678 104.544 142.558 104.61 142.387L104.699 142.156L102.742 136.545H104.333L105.462 140.551H105.519L106.659 136.545H108.26L106.14 142.589C106.039 142.883 105.9 143.139 105.725 143.357C105.552 143.577 105.333 143.746 105.068 143.864C104.803 143.985 104.483 144.045 104.109 144.045ZM111.723 142.107C111.172 142.107 110.695 141.989 110.292 141.755C109.892 141.518 109.583 141.189 109.365 140.768C109.148 140.344 109.039 139.853 109.039 139.294C109.039 138.731 109.148 138.238 109.365 137.817C109.583 137.393 109.892 137.064 110.292 136.83C110.695 136.593 111.172 136.474 111.723 136.474C112.275 136.474 112.751 136.593 113.151 136.83C113.553 137.064 113.863 137.393 114.081 137.817C114.299 138.238 114.408 138.731 114.408 139.294C114.408 139.853 114.299 140.344 114.081 140.768C113.863 141.189 113.553 141.518 113.151 141.755C112.751 141.989 112.275 142.107 111.723 142.107ZM111.73 140.935C111.981 140.935 112.191 140.864 112.359 140.722C112.527 140.577 112.654 140.381 112.739 140.132C112.826 139.884 112.87 139.601 112.87 139.283C112.87 138.966 112.826 138.683 112.739 138.435C112.654 138.186 112.527 137.99 112.359 137.845C112.191 137.701 111.981 137.629 111.73 137.629C111.477 137.629 111.264 137.701 111.091 137.845C110.921 137.99 110.792 138.186 110.704 138.435C110.619 138.683 110.576 138.966 110.576 139.283C110.576 139.601 110.619 139.884 110.704 140.132C110.792 140.381 110.921 140.577 111.091 140.722C111.264 140.864 111.477 140.935 111.73 140.935ZM119.289 139.678V136.545H120.802V142H119.35V141.009H119.293C119.17 141.329 118.965 141.586 118.679 141.78C118.395 141.974 118.048 142.071 117.638 142.071C117.274 142.071 116.953 141.988 116.676 141.822C116.399 141.657 116.182 141.421 116.026 141.116C115.872 140.81 115.794 140.445 115.792 140.018V136.545H117.304V139.749C117.307 140.071 117.393 140.325 117.564 140.512C117.734 140.699 117.963 140.793 118.249 140.793C118.431 140.793 118.602 140.751 118.76 140.668C118.919 140.583 119.047 140.458 119.144 140.292C119.243 140.126 119.292 139.921 119.289 139.678ZM122.412 142V136.545H123.879V137.497H123.936C124.035 137.159 124.202 136.903 124.436 136.73C124.671 136.555 124.941 136.467 125.246 136.467C125.322 136.467 125.404 136.472 125.491 136.482C125.579 136.491 125.656 136.504 125.722 136.521V137.863C125.651 137.842 125.553 137.823 125.427 137.806C125.302 137.79 125.187 137.781 125.083 137.781C124.86 137.781 124.661 137.83 124.486 137.927C124.313 138.022 124.176 138.154 124.074 138.325C123.975 138.495 123.925 138.692 123.925 138.914V142H122.412ZM129.619 144.045V136.545H131.11V137.462H131.177C131.244 137.315 131.34 137.166 131.465 137.014C131.593 136.86 131.759 136.732 131.962 136.631C132.168 136.527 132.424 136.474 132.729 136.474C133.127 136.474 133.494 136.579 133.83 136.787C134.166 136.993 134.435 137.304 134.636 137.721C134.838 138.135 134.938 138.655 134.938 139.28C134.938 139.888 134.84 140.402 134.643 140.821C134.449 141.238 134.184 141.554 133.848 141.769C133.514 141.982 133.14 142.089 132.726 142.089C132.432 142.089 132.182 142.04 131.976 141.943C131.773 141.846 131.606 141.724 131.476 141.577C131.346 141.428 131.246 141.278 131.177 141.126H131.131V144.045H129.619ZM131.099 139.273C131.099 139.597 131.144 139.88 131.234 140.121C131.324 140.363 131.454 140.551 131.625 140.686C131.795 140.819 132.003 140.885 132.246 140.885C132.493 140.885 132.701 140.817 132.871 140.683C133.042 140.545 133.171 140.356 133.258 140.114C133.348 139.871 133.393 139.59 133.393 139.273C133.393 138.958 133.35 138.681 133.262 138.442C133.174 138.203 133.045 138.016 132.875 137.881C132.704 137.746 132.495 137.678 132.246 137.678C132 137.678 131.792 137.743 131.621 137.874C131.453 138.004 131.324 138.188 131.234 138.428C131.144 138.667 131.099 138.948 131.099 139.273ZM137.902 142.103C137.554 142.103 137.244 142.043 136.972 141.922C136.699 141.799 136.484 141.618 136.325 141.379C136.169 141.137 136.091 140.836 136.091 140.477C136.091 140.174 136.147 139.919 136.258 139.713C136.369 139.507 136.521 139.341 136.712 139.216C136.904 139.09 137.122 138.996 137.366 138.932C137.612 138.868 137.87 138.823 138.14 138.797C138.457 138.764 138.713 138.733 138.907 138.705C139.101 138.674 139.242 138.629 139.33 138.57C139.417 138.51 139.461 138.423 139.461 138.307V138.286C139.461 138.061 139.39 137.887 139.248 137.763C139.108 137.64 138.909 137.579 138.651 137.579C138.379 137.579 138.162 137.639 138.001 137.76C137.841 137.878 137.734 138.027 137.682 138.207L136.283 138.094C136.354 137.762 136.493 137.476 136.702 137.234C136.91 136.991 137.179 136.804 137.508 136.673C137.839 136.541 138.223 136.474 138.658 136.474C138.961 136.474 139.251 136.51 139.528 136.581C139.808 136.652 140.055 136.762 140.271 136.911C140.488 137.06 140.66 137.252 140.786 137.487C140.911 137.719 140.974 137.997 140.974 138.321V142H139.539V141.244H139.497C139.409 141.414 139.292 141.564 139.145 141.695C138.998 141.822 138.822 141.923 138.616 141.996C138.41 142.067 138.172 142.103 137.902 142.103ZM138.335 141.059C138.558 141.059 138.754 141.015 138.925 140.928C139.095 140.838 139.229 140.717 139.326 140.565C139.423 140.414 139.472 140.242 139.472 140.05V139.472C139.424 139.502 139.359 139.531 139.276 139.557C139.196 139.58 139.105 139.603 139.003 139.624C138.901 139.643 138.799 139.661 138.698 139.678C138.596 139.692 138.503 139.705 138.421 139.717C138.243 139.743 138.088 139.784 137.955 139.841C137.823 139.898 137.72 139.975 137.646 140.072C137.573 140.166 137.536 140.285 137.536 140.427C137.536 140.633 137.611 140.79 137.76 140.899C137.912 141.006 138.103 141.059 138.335 141.059ZM143.286 144.045C143.094 144.045 142.914 144.03 142.746 143.999C142.581 143.971 142.443 143.934 142.334 143.889L142.675 142.76C142.853 142.814 143.013 142.844 143.155 142.849C143.299 142.853 143.423 142.82 143.528 142.749C143.634 142.678 143.721 142.558 143.787 142.387L143.876 142.156L141.919 136.545H143.51L144.639 140.551H144.696L145.836 136.545H147.437L145.317 142.589C145.216 142.883 145.077 143.139 144.902 143.357C144.729 143.577 144.51 143.746 144.245 143.864C143.98 143.985 143.66 144.045 143.286 144.045ZM148.612 142V136.545H150.053V137.508H150.117C150.231 137.188 150.42 136.936 150.685 136.751C150.951 136.567 151.268 136.474 151.637 136.474C152.011 136.474 152.33 136.568 152.592 136.755C152.855 136.94 153.03 137.191 153.118 137.508H153.175C153.286 137.195 153.487 136.946 153.778 136.759C154.072 136.569 154.419 136.474 154.819 136.474C155.328 136.474 155.741 136.637 156.058 136.961C156.378 137.283 156.538 137.74 156.538 138.332V142H155.028V138.63C155.028 138.327 154.948 138.1 154.787 137.948C154.626 137.797 154.425 137.721 154.183 137.721C153.909 137.721 153.694 137.808 153.54 137.984C153.387 138.156 153.31 138.385 153.31 138.669V142H151.843V138.598C151.843 138.33 151.766 138.117 151.612 137.959C151.461 137.8 151.261 137.721 151.012 137.721C150.844 137.721 150.692 137.763 150.558 137.849C150.425 137.932 150.32 138.049 150.241 138.2C150.163 138.349 150.124 138.525 150.124 138.726V142H148.612ZM160.618 142.107C160.057 142.107 159.574 141.993 159.17 141.766C158.767 141.536 158.457 141.212 158.239 140.793C158.021 140.371 157.912 139.873 157.912 139.298C157.912 138.737 158.021 138.244 158.239 137.82C158.457 137.397 158.764 137.066 159.159 136.83C159.557 136.593 160.023 136.474 160.558 136.474C160.918 136.474 161.253 136.532 161.563 136.648C161.875 136.762 162.148 136.934 162.38 137.163C162.614 137.393 162.796 137.682 162.927 138.03C163.057 138.375 163.122 138.78 163.122 139.244V139.66H158.516V138.722H161.698C161.698 138.504 161.651 138.312 161.556 138.143C161.461 137.975 161.33 137.844 161.162 137.749C160.996 137.652 160.803 137.604 160.583 137.604C160.353 137.604 160.15 137.657 159.972 137.763C159.797 137.868 159.66 138.009 159.56 138.186C159.461 138.361 159.41 138.557 159.407 138.772V139.663C159.407 139.933 159.457 140.166 159.557 140.363C159.658 140.559 159.802 140.711 159.986 140.817C160.171 140.924 160.39 140.977 160.643 140.977C160.811 140.977 160.965 140.954 161.105 140.906C161.245 140.859 161.364 140.788 161.464 140.693C161.563 140.598 161.639 140.482 161.691 140.345L163.09 140.438C163.019 140.774 162.873 141.067 162.653 141.318C162.435 141.567 162.154 141.761 161.808 141.901C161.465 142.038 161.068 142.107 160.618 142.107ZM166.022 138.847V142H164.509V136.545H165.951V137.508H166.015C166.136 137.191 166.338 136.94 166.622 136.755C166.906 136.568 167.251 136.474 167.655 136.474C168.034 136.474 168.365 136.557 168.646 136.723C168.928 136.889 169.147 137.125 169.303 137.433C169.459 137.739 169.538 138.103 169.538 138.527V142H168.025V138.797C168.027 138.463 167.942 138.203 167.769 138.016C167.596 137.826 167.358 137.732 167.055 137.732C166.852 137.732 166.672 137.775 166.516 137.863C166.362 137.951 166.241 138.078 166.153 138.246C166.068 138.412 166.024 138.612 166.022 138.847ZM174.031 136.545V137.682H170.746V136.545H174.031ZM171.492 135.239H173.005V140.324C173.005 140.464 173.026 140.572 173.069 140.651C173.111 140.726 173.171 140.78 173.246 140.81C173.324 140.841 173.414 140.857 173.516 140.857C173.587 140.857 173.658 140.851 173.729 140.839C173.8 140.825 173.855 140.814 173.893 140.807L174.131 141.933C174.055 141.956 173.948 141.983 173.811 142.014C173.674 142.047 173.507 142.067 173.31 142.075C172.946 142.089 172.626 142.04 172.351 141.929C172.079 141.818 171.867 141.645 171.716 141.411C171.564 141.176 171.49 140.88 171.492 140.523V135.239ZM176.301 142.092C176.066 142.092 175.865 142.009 175.697 141.844C175.531 141.676 175.449 141.474 175.449 141.24C175.449 141.008 175.531 140.809 175.697 140.643C175.865 140.478 176.066 140.395 176.301 140.395C176.528 140.395 176.727 140.478 176.897 140.643C177.068 140.809 177.153 141.008 177.153 141.24C177.153 141.396 177.113 141.54 177.032 141.67C176.954 141.798 176.851 141.901 176.723 141.979C176.596 142.054 176.455 142.092 176.301 142.092Z" fill="#8899AA"/>
<rect x="108" y="90" width="30" height="5" rx="2.5" transform="rotate(-90 108 90)" fill="white"/>
<rect x="108" y="99" width="5" height="5" rx="2.5" transform="rotate(-90 108 99)" fill="white"/>
<rect x="92" y="154" width="36" height="10" rx="4" fill="#DADFE5"/>
</svg>
