<svg width="220" height="240" viewBox="0 0 220 240" fill="none" xmlns="http://www.w3.org/2000/svg">
<rect width="220" height="240" rx="6" fill="white"/>
<rect x="30" y="17" width="160" height="57" rx="2" fill="#E6E8EE"/>
<circle cx="55" cy="40" r="6" fill="white"/>
<path d="M71.3967 44.7953L32.1019 64.5426C31.4264 64.8821 31 65.5736 31 66.3296V71C31 72.1046 31.8954 73 33 73H187C188.105 73 189 72.1046 189 71V52.7391C189 52.1208 188.714 51.5373 188.225 51.1585L164.662 32.8881C163.978 32.3583 163.032 32.3276 162.316 32.8121L115.547 64.4468C114.953 64.8486 114.19 64.9016 113.546 64.5859L73.1754 44.7866C72.6137 44.5112 71.9556 44.5144 71.3967 44.7953Z" fill="white"/>
<circle cx="30" cy="46" r="5" fill="#DADFE5"/>
<circle cx="190" cy="46" r="5" fill="#DADFE5"/>
<circle cx="105" cy="77" r="1" fill="#C8D0D8"/>
<circle cx="110" cy="77" r="1" fill="#C8D0D8"/>
<circle cx="115" cy="77" r="1" fill="#C8D0D8"/>
<g clip-path="url(#clip0_1161_1435)">
<rect x="30" y="103" width="50" height="32" rx="2" fill="#E6E8EE"/>
<circle cx="37.9375" cy="114.544" r="2" fill="white"/>
<path d="M42.198 119.175L31.6396 128.973C31.2317 129.351 31 129.882 31 130.439V132C31 133.105 31.8954 134 33 134H77C78.1046 134 79 133.105 79 132V122.714C79 122.304 78.8742 121.904 78.6397 121.568L72.7885 113.191C72.024 112.097 70.4221 112.044 69.5876 113.086L57.7219 127.907C57.0017 128.807 55.6723 128.913 54.8181 128.14L44.9009 119.158C44.132 118.462 42.9584 118.469 42.198 119.175Z" fill="white"/>
<rect x="56" y="139" width="24" height="6" rx="3" fill="#DADFE5"/>
<path d="M33.2884 140.551C33.438 140.551 33.5819 140.576 33.7202 140.626C33.8594 140.677 33.9834 140.757 34.0923 140.866C34.2022 140.976 34.2888 141.122 34.3523 141.304C34.4167 141.485 34.4493 141.707 34.4503 141.97C34.4503 142.217 34.4223 142.438 34.3665 142.632C34.3116 142.825 34.2325 142.99 34.1293 143.125C34.026 143.26 33.9015 143.364 33.7557 143.435C33.6098 143.505 33.447 143.54 33.267 143.54C33.0729 143.54 32.9015 143.502 32.7528 143.428C32.6042 143.352 32.4844 143.249 32.3935 143.119C32.3035 142.989 32.2491 142.842 32.2301 142.679H32.8366C32.8603 142.785 32.91 142.867 32.9858 142.926C33.0616 142.984 33.1553 143.013 33.267 143.013C33.4564 143.013 33.6004 142.93 33.6989 142.766C33.7973 142.6 33.8471 142.373 33.848 142.085H33.8281C33.7846 142.17 33.7259 142.244 33.652 142.305C33.5781 142.366 33.4934 142.413 33.3977 142.446C33.303 142.479 33.2022 142.496 33.0952 142.496C32.9238 142.496 32.7708 142.455 32.6364 142.375C32.5019 142.295 32.3958 142.184 32.3182 142.043C32.2405 141.902 32.2017 141.741 32.2017 141.56C32.2008 141.365 32.2457 141.191 32.3366 141.038C32.4276 140.886 32.5545 140.767 32.7173 140.68C32.8812 140.593 33.0715 140.55 33.2884 140.551ZM33.2926 141.034C33.197 141.034 33.1117 141.057 33.0369 141.102C32.9631 141.148 32.9044 141.209 32.8608 141.286C32.8182 141.362 32.7973 141.448 32.7983 141.543C32.7983 141.638 32.8191 141.724 32.8608 141.801C32.9034 141.877 32.9612 141.937 33.0341 141.983C33.108 142.027 33.1922 142.05 33.2869 142.05C33.358 142.05 33.4238 142.036 33.4844 142.01C33.545 141.983 33.5975 141.947 33.642 141.901C33.6875 141.853 33.723 141.799 33.7486 141.737C33.7741 141.676 33.7869 141.61 33.7869 141.541C33.786 141.449 33.7642 141.365 33.7216 141.288C33.679 141.212 33.6203 141.15 33.5455 141.104C33.4706 141.057 33.3864 141.034 33.2926 141.034ZM36.089 140.551C36.2386 140.551 36.3825 140.576 36.5208 140.626C36.66 140.677 36.7841 140.757 36.893 140.866C37.0028 140.976 37.0895 141.122 37.1529 141.304C37.2173 141.485 37.25 141.707 37.2509 141.97C37.2509 142.217 37.223 142.438 37.1671 142.632C37.1122 142.825 37.0331 142.99 36.9299 143.125C36.8267 143.26 36.7021 143.364 36.5563 143.435C36.4105 143.505 36.2476 143.54 36.0677 143.54C35.8735 143.54 35.7021 143.502 35.5535 143.428C35.4048 143.352 35.285 143.249 35.1941 143.119C35.1041 142.989 35.0497 142.842 35.0307 142.679H35.6373C35.6609 142.785 35.7107 142.867 35.7864 142.926C35.8622 142.984 35.9559 143.013 36.0677 143.013C36.2571 143.013 36.401 142.93 36.4995 142.766C36.598 142.6 36.6477 142.373 36.6486 142.085H36.6288C36.5852 142.17 36.5265 142.244 36.4526 142.305C36.3788 142.366 36.294 142.413 36.1984 142.446C36.1037 142.479 36.0028 142.496 35.8958 142.496C35.7244 142.496 35.5715 142.455 35.437 142.375C35.3025 142.295 35.1965 142.184 35.1188 142.043C35.0412 141.902 35.0023 141.741 35.0023 141.56C35.0014 141.365 35.0464 141.191 35.1373 141.038C35.2282 140.886 35.3551 140.767 35.518 140.68C35.6818 140.593 35.8721 140.55 36.089 140.551ZM36.0932 141.034C35.9976 141.034 35.9124 141.057 35.8376 141.102C35.7637 141.148 35.705 141.209 35.6614 141.286C35.6188 141.362 35.598 141.448 35.5989 141.543C35.5989 141.638 35.6198 141.724 35.6614 141.801C35.704 141.877 35.7618 141.937 35.8347 141.983C35.9086 142.027 35.9929 142.05 36.0876 142.05C36.1586 142.05 36.2244 142.036 36.285 142.01C36.3456 141.983 36.3982 141.947 36.4427 141.901C36.4881 141.853 36.5236 141.799 36.5492 141.737C36.5748 141.676 36.5876 141.61 36.5876 141.541C36.5866 141.449 36.5648 141.365 36.5222 141.288C36.4796 141.212 36.4209 141.15 36.3461 141.104C36.2713 141.057 36.187 141.034 36.0932 141.034ZM38.3832 143.102L38.3676 143.259C38.3553 143.384 38.3316 143.508 38.2966 143.632C38.2625 143.757 38.2265 143.87 38.1886 143.972C38.1517 144.073 38.1218 144.152 38.0991 144.21H37.7071C37.7213 144.154 37.7407 144.076 37.7653 143.976C37.7899 143.876 37.8131 143.765 37.8349 143.641C37.8567 143.517 37.8704 143.39 37.8761 143.261L37.8832 143.102H38.3832ZM40.0887 140.551C40.2383 140.551 40.3822 140.576 40.5205 140.626C40.6597 140.677 40.7837 140.757 40.8926 140.866C41.0025 140.976 41.0891 141.122 41.1526 141.304C41.217 141.485 41.2496 141.707 41.2506 141.97C41.2506 142.217 41.2227 142.438 41.1668 142.632C41.1119 142.825 41.0328 142.99 40.9296 143.125C40.8264 143.26 40.7018 143.364 40.556 143.435C40.4102 143.505 40.2473 143.54 40.0674 143.54C39.8732 143.54 39.7018 143.502 39.5532 143.428C39.4045 143.352 39.2847 143.249 39.1938 143.119C39.1038 142.989 39.0494 142.842 39.0304 142.679H39.637C39.6606 142.785 39.7104 142.867 39.7861 142.926C39.8619 142.984 39.9556 143.013 40.0674 143.013C40.2568 143.013 40.4007 142.93 40.4992 142.766C40.5977 142.6 40.6474 142.373 40.6483 142.085H40.6284C40.5849 142.17 40.5262 142.244 40.4523 142.305C40.3784 142.366 40.2937 142.413 40.198 142.446C40.1033 142.479 40.0025 142.496 39.8955 142.496C39.7241 142.496 39.5711 142.455 39.4367 142.375C39.3022 142.295 39.1961 142.184 39.1185 142.043C39.0408 141.902 39.002 141.741 39.002 141.56C39.0011 141.365 39.0461 141.191 39.137 141.038C39.2279 140.886 39.3548 140.767 39.5176 140.68C39.6815 140.593 39.8718 140.55 40.0887 140.551ZM40.0929 141.034C39.9973 141.034 39.9121 141.057 39.8372 141.102C39.7634 141.148 39.7047 141.209 39.6611 141.286C39.6185 141.362 39.5977 141.448 39.5986 141.543C39.5986 141.638 39.6194 141.724 39.6611 141.801C39.7037 141.877 39.7615 141.937 39.8344 141.983C39.9083 142.027 39.9925 142.05 40.0872 142.05C40.1583 142.05 40.2241 142.036 40.2847 142.01C40.3453 141.983 40.3979 141.947 40.4424 141.901C40.4878 141.853 40.5233 141.799 40.5489 141.737C40.5745 141.676 40.5872 141.61 40.5872 141.541C40.5863 141.449 40.5645 141.365 40.5219 141.288C40.4793 141.212 40.4206 141.15 40.3458 141.104C40.271 141.057 40.1867 141.034 40.0929 141.034ZM42.814 143.864V140.227H43.047V143.864H42.814ZM43.4319 141.428C43.4205 141.313 43.3718 141.224 43.2856 141.161C43.1994 141.097 43.0825 141.065 42.9347 141.065C42.8344 141.065 42.7496 141.08 42.6805 141.108C42.6114 141.135 42.5583 141.174 42.5214 141.223C42.4854 141.272 42.4674 141.328 42.4674 141.391C42.4655 141.443 42.4764 141.488 42.5001 141.527C42.5247 141.566 42.5583 141.599 42.6009 141.628C42.6436 141.655 42.6928 141.679 42.7487 141.7C42.8045 141.72 42.8642 141.737 42.9276 141.751L43.189 141.814C43.3159 141.842 43.4324 141.88 43.5384 141.928C43.6445 141.975 43.7364 142.033 43.814 142.102C43.8917 142.171 43.9518 142.253 43.9944 142.347C44.038 142.44 44.0602 142.548 44.0612 142.669C44.0602 142.847 44.0148 143.001 43.9248 143.132C43.8358 143.262 43.707 143.363 43.5384 143.435C43.3708 143.506 43.1686 143.541 42.9319 143.541C42.6971 143.541 42.4925 143.505 42.3183 143.433C42.145 143.361 42.0096 143.255 41.912 143.114C41.8154 142.972 41.7648 142.796 41.76 142.587H42.3552C42.3618 142.684 42.3898 142.766 42.439 142.831C42.4892 142.895 42.556 142.944 42.6393 142.977C42.7236 143.009 42.8187 143.026 42.9248 143.026C43.029 143.026 43.1194 143.01 43.1961 142.98C43.2738 142.95 43.3339 142.908 43.3765 142.854C43.4191 142.8 43.4404 142.738 43.4404 142.668C43.4404 142.602 43.421 142.547 43.3822 142.503C43.3443 142.458 43.2884 142.42 43.2146 142.389C43.1417 142.358 43.0522 142.33 42.9461 142.304L42.6293 142.224C42.3841 142.165 42.1904 142.071 42.0484 141.945C41.9063 141.818 41.8358 141.647 41.8367 141.432C41.8358 141.256 41.8827 141.102 41.9774 140.97C42.073 140.839 42.2042 140.736 42.3708 140.662C42.5375 140.588 42.7269 140.551 42.939 140.551C43.1549 140.551 43.3434 140.588 43.5043 140.662C43.6663 140.736 43.7922 140.839 43.8822 140.97C43.9722 141.102 44.0186 141.254 44.0214 141.428H43.4319Z" fill="#838EA0"/>
</g>
<g clip-path="url(#clip1_1161_1435)">
<rect x="85" y="103" width="50" height="32" rx="2" fill="#E6E8EE"/>
<circle cx="92.9375" cy="114.544" r="2" fill="white"/>
<path d="M97.198 119.175L86.6396 128.973C86.2317 129.351 86 129.882 86 130.439V132C86 133.105 86.8954 134 88 134H132C133.105 134 134 133.105 134 132V122.714C134 122.304 133.874 121.904 133.64 121.568L127.789 113.191C127.024 112.097 125.422 112.044 124.588 113.086L112.722 127.907C112.002 128.807 110.672 128.913 109.818 128.14L99.9009 119.158C99.132 118.462 97.9584 118.469 97.198 119.175Z" fill="white"/>
<rect x="111" y="139" width="24" height="6" rx="3" fill="#DADFE5"/>
<path d="M88.2884 140.551C88.438 140.551 88.5819 140.576 88.7202 140.626C88.8594 140.677 88.9834 140.757 89.0923 140.866C89.2022 140.976 89.2888 141.122 89.3523 141.304C89.4167 141.485 89.4493 141.707 89.4503 141.97C89.4503 142.217 89.4223 142.438 89.3665 142.632C89.3116 142.825 89.2325 142.99 89.1293 143.125C89.026 143.26 88.9015 143.364 88.7557 143.435C88.6098 143.505 88.447 143.54 88.267 143.54C88.0729 143.54 87.9015 143.502 87.7528 143.428C87.6042 143.352 87.4844 143.249 87.3935 143.119C87.3035 142.989 87.2491 142.842 87.2301 142.679H87.8366C87.8603 142.785 87.91 142.867 87.9858 142.926C88.0616 142.984 88.1553 143.013 88.267 143.013C88.4564 143.013 88.6004 142.93 88.6989 142.766C88.7973 142.6 88.8471 142.373 88.848 142.085H88.8281C88.7846 142.17 88.7259 142.244 88.652 142.305C88.5781 142.366 88.4934 142.413 88.3977 142.446C88.303 142.479 88.2022 142.496 88.0952 142.496C87.9238 142.496 87.7708 142.455 87.6364 142.375C87.5019 142.295 87.3958 142.184 87.3182 142.043C87.2405 141.902 87.2017 141.741 87.2017 141.56C87.2008 141.365 87.2457 141.191 87.3366 141.038C87.4276 140.886 87.5545 140.767 87.7173 140.68C87.8812 140.593 88.0715 140.55 88.2884 140.551ZM88.2926 141.034C88.197 141.034 88.1117 141.057 88.0369 141.102C87.9631 141.148 87.9044 141.209 87.8608 141.286C87.8182 141.362 87.7973 141.448 87.7983 141.543C87.7983 141.638 87.8191 141.724 87.8608 141.801C87.9034 141.877 87.9612 141.937 88.0341 141.983C88.108 142.027 88.1922 142.05 88.2869 142.05C88.358 142.05 88.4238 142.036 88.4844 142.01C88.545 141.983 88.5975 141.947 88.642 141.901C88.6875 141.853 88.723 141.799 88.7486 141.737C88.7741 141.676 88.7869 141.61 88.7869 141.541C88.786 141.449 88.7642 141.365 88.7216 141.288C88.679 141.212 88.6203 141.15 88.5455 141.104C88.4706 141.057 88.3864 141.034 88.2926 141.034ZM91.089 140.551C91.2386 140.551 91.3825 140.576 91.5208 140.626C91.66 140.677 91.7841 140.757 91.893 140.866C92.0028 140.976 92.0895 141.122 92.1529 141.304C92.2173 141.485 92.25 141.707 92.2509 141.97C92.2509 142.217 92.223 142.438 92.1671 142.632C92.1122 142.825 92.0331 142.99 91.9299 143.125C91.8267 143.26 91.7021 143.364 91.5563 143.435C91.4105 143.505 91.2476 143.54 91.0677 143.54C90.8735 143.54 90.7021 143.502 90.5535 143.428C90.4048 143.352 90.285 143.249 90.1941 143.119C90.1041 142.989 90.0497 142.842 90.0307 142.679H90.6373C90.6609 142.785 90.7107 142.867 90.7864 142.926C90.8622 142.984 90.9559 143.013 91.0677 143.013C91.2571 143.013 91.401 142.93 91.4995 142.766C91.598 142.6 91.6477 142.373 91.6486 142.085H91.6288C91.5852 142.17 91.5265 142.244 91.4526 142.305C91.3788 142.366 91.294 142.413 91.1984 142.446C91.1037 142.479 91.0028 142.496 90.8958 142.496C90.7244 142.496 90.5715 142.455 90.437 142.375C90.3025 142.295 90.1965 142.184 90.1188 142.043C90.0412 141.902 90.0023 141.741 90.0023 141.56C90.0014 141.365 90.0464 141.191 90.1373 141.038C90.2282 140.886 90.3551 140.767 90.518 140.68C90.6818 140.593 90.8721 140.55 91.089 140.551ZM91.0932 141.034C90.9976 141.034 90.9124 141.057 90.8376 141.102C90.7637 141.148 90.705 141.209 90.6614 141.286C90.6188 141.362 90.598 141.448 90.5989 141.543C90.5989 141.638 90.6198 141.724 90.6614 141.801C90.704 141.877 90.7618 141.937 90.8347 141.983C90.9086 142.027 90.9929 142.05 91.0876 142.05C91.1586 142.05 91.2244 142.036 91.285 142.01C91.3456 141.983 91.3982 141.947 91.4427 141.901C91.4881 141.853 91.5236 141.799 91.5492 141.737C91.5748 141.676 91.5876 141.61 91.5876 141.541C91.5866 141.449 91.5648 141.365 91.5222 141.288C91.4796 141.212 91.4209 141.15 91.3461 141.104C91.2713 141.057 91.187 141.034 91.0932 141.034ZM93.3832 143.102L93.3676 143.259C93.3553 143.384 93.3316 143.508 93.2966 143.632C93.2625 143.757 93.2265 143.87 93.1886 143.972C93.1517 144.073 93.1218 144.152 93.0991 144.21H92.7071C92.7213 144.154 92.7407 144.076 92.7653 143.976C92.7899 143.876 92.8131 143.765 92.8349 143.641C92.8567 143.517 92.8704 143.39 92.8761 143.261L92.8832 143.102H93.3832ZM95.0887 140.551C95.2383 140.551 95.3822 140.576 95.5205 140.626C95.6597 140.677 95.7837 140.757 95.8926 140.866C96.0025 140.976 96.0891 141.122 96.1526 141.304C96.217 141.485 96.2496 141.707 96.2506 141.97C96.2506 142.217 96.2227 142.438 96.1668 142.632C96.1119 142.825 96.0328 142.99 95.9296 143.125C95.8264 143.26 95.7018 143.364 95.556 143.435C95.4102 143.505 95.2473 143.54 95.0674 143.54C94.8732 143.54 94.7018 143.502 94.5532 143.428C94.4045 143.352 94.2847 143.249 94.1938 143.119C94.1038 142.989 94.0494 142.842 94.0304 142.679H94.637C94.6606 142.785 94.7104 142.867 94.7861 142.926C94.8619 142.984 94.9556 143.013 95.0674 143.013C95.2568 143.013 95.4007 142.93 95.4992 142.766C95.5977 142.6 95.6474 142.373 95.6483 142.085H95.6284C95.5849 142.17 95.5262 142.244 95.4523 142.305C95.3784 142.366 95.2937 142.413 95.198 142.446C95.1033 142.479 95.0025 142.496 94.8955 142.496C94.7241 142.496 94.5711 142.455 94.4367 142.375C94.3022 142.295 94.1961 142.184 94.1185 142.043C94.0408 141.902 94.002 141.741 94.002 141.56C94.0011 141.365 94.0461 141.191 94.137 141.038C94.2279 140.886 94.3548 140.767 94.5176 140.68C94.6815 140.593 94.8718 140.55 95.0887 140.551ZM95.0929 141.034C94.9973 141.034 94.9121 141.057 94.8372 141.102C94.7634 141.148 94.7047 141.209 94.6611 141.286C94.6185 141.362 94.5977 141.448 94.5986 141.543C94.5986 141.638 94.6194 141.724 94.6611 141.801C94.7037 141.877 94.7615 141.937 94.8344 141.983C94.9083 142.027 94.9925 142.05 95.0872 142.05C95.1583 142.05 95.2241 142.036 95.2847 142.01C95.3453 141.983 95.3979 141.947 95.4424 141.901C95.4878 141.853 95.5233 141.799 95.5489 141.737C95.5745 141.676 95.5872 141.61 95.5872 141.541C95.5863 141.449 95.5645 141.365 95.5219 141.288C95.4793 141.212 95.4206 141.15 95.3458 141.104C95.271 141.057 95.1867 141.034 95.0929 141.034ZM97.814 143.864V140.227H98.047V143.864H97.814ZM98.4319 141.428C98.4205 141.313 98.3718 141.224 98.2856 141.161C98.1994 141.097 98.0825 141.065 97.9347 141.065C97.8344 141.065 97.7496 141.08 97.6805 141.108C97.6114 141.135 97.5583 141.174 97.5214 141.223C97.4854 141.272 97.4674 141.328 97.4674 141.391C97.4655 141.443 97.4764 141.488 97.5001 141.527C97.5247 141.566 97.5583 141.599 97.6009 141.628C97.6436 141.655 97.6928 141.679 97.7487 141.7C97.8045 141.72 97.8642 141.737 97.9276 141.751L98.189 141.814C98.3159 141.842 98.4324 141.88 98.5384 141.928C98.6445 141.975 98.7364 142.033 98.814 142.102C98.8917 142.171 98.9518 142.253 98.9944 142.347C99.038 142.44 99.0602 142.548 99.0612 142.669C99.0602 142.847 99.0148 143.001 98.9248 143.132C98.8358 143.262 98.707 143.363 98.5384 143.435C98.3708 143.506 98.1686 143.541 97.9319 143.541C97.6971 143.541 97.4925 143.505 97.3183 143.433C97.145 143.361 97.0096 143.255 96.912 143.114C96.8154 142.972 96.7648 142.796 96.76 142.587H97.3552C97.3618 142.684 97.3898 142.766 97.439 142.831C97.4892 142.895 97.556 142.944 97.6393 142.977C97.7236 143.009 97.8187 143.026 97.9248 143.026C98.029 143.026 98.1194 143.01 98.1961 142.98C98.2738 142.95 98.3339 142.908 98.3765 142.854C98.4191 142.8 98.4404 142.738 98.4404 142.668C98.4404 142.602 98.421 142.547 98.3822 142.503C98.3443 142.458 98.2884 142.42 98.2146 142.389C98.1417 142.358 98.0522 142.33 97.9461 142.304L97.6293 142.224C97.3841 142.165 97.1904 142.071 97.0484 141.945C96.9063 141.818 96.8358 141.647 96.8367 141.432C96.8358 141.256 96.8827 141.102 96.9774 140.97C97.073 140.839 97.2042 140.736 97.3708 140.662C97.5375 140.588 97.7269 140.551 97.939 140.551C98.1549 140.551 98.3434 140.588 98.5043 140.662C98.6663 140.736 98.7922 140.839 98.8822 140.97C98.9722 141.102 99.0186 141.254 99.0214 141.428H98.4319Z" fill="#838EA0"/>
</g>
<g clip-path="url(#clip2_1161_1435)">
<rect x="140" y="103" width="50" height="32" rx="2" fill="#E6E8EE"/>
<circle cx="147.938" cy="114.544" r="2" fill="white"/>
<path d="M152.198 119.175L141.64 128.973C141.232 129.351 141 129.882 141 130.439V132C141 133.105 141.895 134 143 134H187C188.105 134 189 133.105 189 132V122.714C189 122.304 188.874 121.904 188.64 121.568L182.789 113.191C182.024 112.097 180.422 112.044 179.588 113.086L167.722 127.907C167.002 128.807 165.672 128.913 164.818 128.14L154.901 119.158C154.132 118.462 152.958 118.469 152.198 119.175Z" fill="white"/>
<rect x="166" y="139" width="24" height="6" rx="3" fill="#DADFE5"/>
<path d="M143.288 140.551C143.438 140.551 143.582 140.576 143.72 140.626C143.859 140.677 143.983 140.757 144.092 140.866C144.202 140.976 144.289 141.122 144.352 141.304C144.417 141.485 144.449 141.707 144.45 141.97C144.45 142.217 144.422 142.438 144.366 142.632C144.312 142.825 144.232 142.99 144.129 143.125C144.026 143.26 143.902 143.364 143.756 143.435C143.61 143.505 143.447 143.54 143.267 143.54C143.073 143.54 142.902 143.502 142.753 143.428C142.604 143.352 142.484 143.249 142.393 143.119C142.304 142.989 142.249 142.842 142.23 142.679H142.837C142.86 142.785 142.91 142.867 142.986 142.926C143.062 142.984 143.155 143.013 143.267 143.013C143.456 143.013 143.6 142.93 143.699 142.766C143.797 142.6 143.847 142.373 143.848 142.085H143.828C143.785 142.17 143.726 142.244 143.652 142.305C143.578 142.366 143.493 142.413 143.398 142.446C143.303 142.479 143.202 142.496 143.095 142.496C142.924 142.496 142.771 142.455 142.636 142.375C142.502 142.295 142.396 142.184 142.318 142.043C142.241 141.902 142.202 141.741 142.202 141.56C142.201 141.365 142.246 141.191 142.337 141.038C142.428 140.886 142.554 140.767 142.717 140.68C142.881 140.593 143.071 140.55 143.288 140.551ZM143.293 141.034C143.197 141.034 143.112 141.057 143.037 141.102C142.963 141.148 142.904 141.209 142.861 141.286C142.818 141.362 142.797 141.448 142.798 141.543C142.798 141.638 142.819 141.724 142.861 141.801C142.903 141.877 142.961 141.937 143.034 141.983C143.108 142.027 143.192 142.05 143.287 142.05C143.358 142.05 143.424 142.036 143.484 142.01C143.545 141.983 143.598 141.947 143.642 141.901C143.688 141.853 143.723 141.799 143.749 141.737C143.774 141.676 143.787 141.61 143.787 141.541C143.786 141.449 143.764 141.365 143.722 141.288C143.679 141.212 143.62 141.15 143.545 141.104C143.471 141.057 143.386 141.034 143.293 141.034ZM146.089 140.551C146.239 140.551 146.383 140.576 146.521 140.626C146.66 140.677 146.784 140.757 146.893 140.866C147.003 140.976 147.089 141.122 147.153 141.304C147.217 141.485 147.25 141.707 147.251 141.97C147.251 142.217 147.223 142.438 147.167 142.632C147.112 142.825 147.033 142.99 146.93 143.125C146.827 143.26 146.702 143.364 146.556 143.435C146.41 143.505 146.248 143.54 146.068 143.54C145.874 143.54 145.702 143.502 145.553 143.428C145.405 143.352 145.285 143.249 145.194 143.119C145.104 142.989 145.05 142.842 145.031 142.679H145.637C145.661 142.785 145.711 142.867 145.786 142.926C145.862 142.984 145.956 143.013 146.068 143.013C146.257 143.013 146.401 142.93 146.499 142.766C146.598 142.6 146.648 142.373 146.649 142.085H146.629C146.585 142.17 146.526 142.244 146.453 142.305C146.379 142.366 146.294 142.413 146.198 142.446C146.104 142.479 146.003 142.496 145.896 142.496C145.724 142.496 145.571 142.455 145.437 142.375C145.303 142.295 145.196 142.184 145.119 142.043C145.041 141.902 145.002 141.741 145.002 141.56C145.001 141.365 145.046 141.191 145.137 141.038C145.228 140.886 145.355 140.767 145.518 140.68C145.682 140.593 145.872 140.55 146.089 140.551ZM146.093 141.034C145.998 141.034 145.912 141.057 145.838 141.102C145.764 141.148 145.705 141.209 145.661 141.286C145.619 141.362 145.598 141.448 145.599 141.543C145.599 141.638 145.62 141.724 145.661 141.801C145.704 141.877 145.762 141.937 145.835 141.983C145.909 142.027 145.993 142.05 146.088 142.05C146.159 142.05 146.224 142.036 146.285 142.01C146.346 141.983 146.398 141.947 146.443 141.901C146.488 141.853 146.524 141.799 146.549 141.737C146.575 141.676 146.588 141.61 146.588 141.541C146.587 141.449 146.565 141.365 146.522 141.288C146.48 141.212 146.421 141.15 146.346 141.104C146.271 141.057 146.187 141.034 146.093 141.034ZM148.383 143.102L148.368 143.259C148.355 143.384 148.332 143.508 148.297 143.632C148.262 143.757 148.226 143.87 148.189 143.972C148.152 144.073 148.122 144.152 148.099 144.21H147.707C147.721 144.154 147.741 144.076 147.765 143.976C147.79 143.876 147.813 143.765 147.835 143.641C147.857 143.517 147.87 143.39 147.876 143.261L147.883 143.102H148.383ZM150.089 140.551C150.238 140.551 150.382 140.576 150.52 140.626C150.66 140.677 150.784 140.757 150.893 140.866C151.002 140.976 151.089 141.122 151.153 141.304C151.217 141.485 151.25 141.707 151.251 141.97C151.251 142.217 151.223 142.438 151.167 142.632C151.112 142.825 151.033 142.99 150.93 143.125C150.826 143.26 150.702 143.364 150.556 143.435C150.41 143.505 150.247 143.54 150.067 143.54C149.873 143.54 149.702 143.502 149.553 143.428C149.404 143.352 149.285 143.249 149.194 143.119C149.104 142.989 149.049 142.842 149.03 142.679H149.637C149.661 142.785 149.71 142.867 149.786 142.926C149.862 142.984 149.956 143.013 150.067 143.013C150.257 143.013 150.401 142.93 150.499 142.766C150.598 142.6 150.647 142.373 150.648 142.085H150.628C150.585 142.17 150.526 142.244 150.452 142.305C150.378 142.366 150.294 142.413 150.198 142.446C150.103 142.479 150.002 142.496 149.895 142.496C149.724 142.496 149.571 142.455 149.437 142.375C149.302 142.295 149.196 142.184 149.118 142.043C149.041 141.902 149.002 141.741 149.002 141.56C149.001 141.365 149.046 141.191 149.137 141.038C149.228 140.886 149.355 140.767 149.518 140.68C149.681 140.593 149.872 140.55 150.089 140.551ZM150.093 141.034C149.997 141.034 149.912 141.057 149.837 141.102C149.763 141.148 149.705 141.209 149.661 141.286C149.618 141.362 149.598 141.448 149.599 141.543C149.599 141.638 149.619 141.724 149.661 141.801C149.704 141.877 149.761 141.937 149.834 141.983C149.908 142.027 149.993 142.05 150.087 142.05C150.158 142.05 150.224 142.036 150.285 142.01C150.345 141.983 150.398 141.947 150.442 141.901C150.488 141.853 150.523 141.799 150.549 141.737C150.574 141.676 150.587 141.61 150.587 141.541C150.586 141.449 150.565 141.365 150.522 141.288C150.479 141.212 150.421 141.15 150.346 141.104C150.271 141.057 150.187 141.034 150.093 141.034ZM152.814 143.864V140.227H153.047V143.864H152.814ZM153.432 141.428C153.421 141.313 153.372 141.224 153.286 141.161C153.199 141.097 153.082 141.065 152.935 141.065C152.834 141.065 152.75 141.08 152.68 141.108C152.611 141.135 152.558 141.174 152.521 141.223C152.485 141.272 152.467 141.328 152.467 141.391C152.466 141.443 152.476 141.488 152.5 141.527C152.525 141.566 152.558 141.599 152.601 141.628C152.644 141.655 152.693 141.679 152.749 141.7C152.805 141.72 152.864 141.737 152.928 141.751L153.189 141.814C153.316 141.842 153.432 141.88 153.538 141.928C153.644 141.975 153.736 142.033 153.814 142.102C153.892 142.171 153.952 142.253 153.994 142.347C154.038 142.44 154.06 142.548 154.061 142.669C154.06 142.847 154.015 143.001 153.925 143.132C153.836 143.262 153.707 143.363 153.538 143.435C153.371 143.506 153.169 143.541 152.932 143.541C152.697 143.541 152.493 143.505 152.318 143.433C152.145 143.361 152.01 143.255 151.912 143.114C151.815 142.972 151.765 142.796 151.76 142.587H152.355C152.362 142.684 152.39 142.766 152.439 142.831C152.489 142.895 152.556 142.944 152.639 142.977C152.724 143.009 152.819 143.026 152.925 143.026C153.029 143.026 153.119 143.01 153.196 142.98C153.274 142.95 153.334 142.908 153.377 142.854C153.419 142.8 153.44 142.738 153.44 142.668C153.44 142.602 153.421 142.547 153.382 142.503C153.344 142.458 153.288 142.42 153.215 142.389C153.142 142.358 153.052 142.33 152.946 142.304L152.629 142.224C152.384 142.165 152.19 142.071 152.048 141.945C151.906 141.818 151.836 141.647 151.837 141.432C151.836 141.256 151.883 141.102 151.977 140.97C152.073 140.839 152.204 140.736 152.371 140.662C152.537 140.588 152.727 140.551 152.939 140.551C153.155 140.551 153.343 140.588 153.504 140.662C153.666 140.736 153.792 140.839 153.882 140.97C153.972 141.102 154.019 141.254 154.021 141.428H153.432Z" fill="#838EA0"/>
</g>
<path d="M30.5057 97V91.1818H32.8352C33.2633 91.1818 33.6203 91.2453 33.9062 91.3722C34.1922 91.4991 34.4072 91.6752 34.5511 91.9006C34.6951 92.1241 34.767 92.3816 34.767 92.6733C34.767 92.9006 34.7216 93.1004 34.6307 93.2727C34.5398 93.4432 34.4148 93.5833 34.2557 93.6932C34.0985 93.8011 33.9186 93.8778 33.7159 93.9233V93.9801C33.9375 93.9896 34.1449 94.0521 34.3381 94.1676C34.5331 94.2831 34.6913 94.4451 34.8125 94.6534C34.9337 94.8598 34.9943 95.1061 34.9943 95.392C34.9943 95.7008 34.9176 95.9763 34.7642 96.2188C34.6127 96.4593 34.3883 96.6496 34.0909 96.7898C33.7936 96.9299 33.4271 97 32.9915 97H30.5057ZM31.7358 95.9943H32.7386C33.0814 95.9943 33.3314 95.929 33.4886 95.7983C33.6458 95.6657 33.7244 95.4896 33.7244 95.2699C33.7244 95.1089 33.6856 94.9669 33.608 94.8438C33.5303 94.7206 33.4195 94.6241 33.2756 94.554C33.1335 94.4839 32.964 94.4489 32.767 94.4489H31.7358V95.9943ZM31.7358 93.6165H32.6477C32.8163 93.6165 32.9659 93.5871 33.0966 93.5284C33.2292 93.4678 33.3333 93.3826 33.4091 93.2727C33.4867 93.1629 33.5256 93.0312 33.5256 92.8778C33.5256 92.6676 33.4508 92.4981 33.3011 92.3693C33.1534 92.2405 32.9432 92.1761 32.6705 92.1761H31.7358V93.6165ZM38.0807 97.0852C37.6318 97.0852 37.2454 96.9943 36.9216 96.8125C36.5996 96.6288 36.3515 96.3693 36.1772 96.0341C36.003 95.697 35.9159 95.2983 35.9159 94.8381C35.9159 94.3892 36.003 93.9953 36.1772 93.6562C36.3515 93.3172 36.5968 93.053 36.913 92.8636C37.2312 92.6742 37.6043 92.5795 38.0324 92.5795C38.3202 92.5795 38.5882 92.6259 38.8363 92.7188C39.0863 92.8097 39.3041 92.947 39.4897 93.1307C39.6772 93.3144 39.8231 93.5455 39.9272 93.8239C40.0314 94.1004 40.0835 94.4242 40.0835 94.7955V95.1278H36.3988V94.3778H38.9443C38.9443 94.2036 38.9064 94.0492 38.8307 93.9148C38.7549 93.7803 38.6498 93.6752 38.5153 93.5994C38.3827 93.5218 38.2284 93.483 38.0522 93.483C37.8685 93.483 37.7057 93.5256 37.5636 93.6108C37.4235 93.6941 37.3136 93.8068 37.2341 93.9489C37.1545 94.089 37.1138 94.2453 37.1119 94.4176V95.1307C37.1119 95.3466 37.1517 95.5331 37.2312 95.6903C37.3127 95.8475 37.4272 95.9688 37.575 96.054C37.7227 96.1392 37.8979 96.1818 38.1005 96.1818C38.235 96.1818 38.3581 96.1629 38.4699 96.125C38.5816 96.0871 38.6772 96.0303 38.7568 95.9545C38.8363 95.8788 38.8969 95.786 38.9386 95.6761L40.0579 95.75C40.0011 96.0189 39.8846 96.2538 39.7085 96.4545C39.5343 96.6534 39.3089 96.8087 39.0324 96.9205C38.7577 97.0303 38.4405 97.0852 38.0807 97.0852ZM44.8239 93.8807L43.716 93.9489C43.6971 93.8542 43.6563 93.7689 43.5938 93.6932C43.5313 93.6155 43.4489 93.554 43.3467 93.5085C43.2463 93.4612 43.126 93.4375 42.9859 93.4375C42.7984 93.4375 42.6402 93.4773 42.5114 93.5568C42.3827 93.6345 42.3183 93.7386 42.3183 93.8693C42.3183 93.9735 42.3599 94.0616 42.4433 94.1335C42.5266 94.2055 42.6696 94.2633 42.8722 94.3068L43.662 94.4659C44.0863 94.553 44.4025 94.6932 44.6109 94.8864C44.8192 95.0795 44.9234 95.3333 44.9234 95.6477C44.9234 95.9337 44.8391 96.1847 44.6705 96.4006C44.5039 96.6165 44.2747 96.785 43.983 96.9062C43.6933 97.0256 43.359 97.0852 42.9802 97.0852C42.4025 97.0852 41.9423 96.965 41.5995 96.7244C41.2586 96.482 41.0588 96.1525 41.0001 95.7358L42.1904 95.6733C42.2264 95.8494 42.3135 95.9839 42.4518 96.0767C42.59 96.1676 42.7671 96.2131 42.983 96.2131C43.1952 96.2131 43.3656 96.1723 43.4944 96.0909C43.6251 96.0076 43.6914 95.9006 43.6933 95.7699C43.6914 95.66 43.645 95.5701 43.5541 95.5C43.4632 95.428 43.323 95.3731 43.1336 95.3352L42.3779 95.1847C41.9518 95.0994 41.6346 94.9517 41.4262 94.7415C41.2198 94.5312 41.1166 94.2633 41.1166 93.9375C41.1166 93.6572 41.1923 93.4157 41.3438 93.2131C41.4972 93.0104 41.7122 92.8542 41.9887 92.7443C42.2671 92.6345 42.5929 92.5795 42.966 92.5795C43.5171 92.5795 43.9508 92.696 44.2671 92.929C44.5853 93.1619 44.7709 93.4792 44.8239 93.8807ZM48.3265 92.6364V93.5455H45.6986V92.6364H48.3265ZM46.2952 91.5909H47.5055V95.6591C47.5055 95.7708 47.5225 95.858 47.5566 95.9205C47.5907 95.9811 47.638 96.0237 47.6986 96.0483C47.7611 96.0729 47.8331 96.0852 47.9145 96.0852C47.9714 96.0852 48.0282 96.0805 48.085 96.071C48.1418 96.0597 48.1854 96.0511 48.2157 96.0455L48.406 96.946C48.3454 96.965 48.2602 96.9867 48.1503 97.0114C48.0405 97.0379 47.907 97.054 47.7498 97.0597C47.4581 97.071 47.2024 97.0322 46.9827 96.9432C46.7649 96.8542 46.5954 96.7159 46.4742 96.5284C46.353 96.3409 46.2933 96.1042 46.2952 95.8182V91.5909ZM54.7854 92.8551C54.7626 92.6259 54.6651 92.4479 54.4928 92.321C54.3204 92.1941 54.0865 92.1307 53.7911 92.1307C53.5903 92.1307 53.4208 92.1591 53.2825 92.2159C53.1443 92.2708 53.0382 92.3475 52.9643 92.446C52.8924 92.5445 52.8564 92.6562 52.8564 92.7812C52.8526 92.8854 52.8744 92.9763 52.9217 93.054C52.971 93.1316 53.0382 93.1989 53.1234 93.2557C53.2087 93.3106 53.3072 93.3589 53.4189 93.4006C53.5306 93.4403 53.65 93.4744 53.7768 93.5028L54.2996 93.6278C54.5534 93.6847 54.7863 93.7604 54.9984 93.8551C55.2106 93.9498 55.3943 94.0663 55.5496 94.2045C55.7049 94.3428 55.8251 94.5057 55.9104 94.6932C55.9975 94.8807 56.042 95.0956 56.0439 95.3381C56.042 95.6941 55.9511 96.0028 55.7712 96.2642C55.5931 96.5237 55.3356 96.7254 54.9984 96.8693C54.6632 97.0114 54.2589 97.0824 53.7854 97.0824C53.3157 97.0824 52.9066 97.0104 52.5581 96.8665C52.2115 96.7225 51.9407 96.5095 51.7456 96.2273C51.5524 95.9432 51.4511 95.5919 51.4416 95.1733H52.632C52.6452 95.3684 52.7011 95.5312 52.7996 95.6619C52.9 95.7907 53.0335 95.8883 53.2001 95.9545C53.3687 96.0189 53.559 96.0511 53.7712 96.0511C53.9795 96.0511 54.1604 96.0208 54.3138 95.9602C54.4691 95.8996 54.5893 95.8153 54.6746 95.7074C54.7598 95.5994 54.8024 95.4754 54.8024 95.3352C54.8024 95.2045 54.7636 95.0947 54.6859 95.0057C54.6102 94.9167 54.4984 94.8409 54.3507 94.7784C54.2049 94.7159 54.0259 94.6591 53.8138 94.608L53.1803 94.4489C52.6897 94.3295 52.3024 94.143 52.0183 93.8892C51.7342 93.6354 51.5931 93.2936 51.595 92.8636C51.5931 92.5114 51.6869 92.2036 51.8763 91.9403C52.0676 91.6771 52.3299 91.4716 52.6632 91.3239C52.9965 91.1761 53.3753 91.1023 53.7996 91.1023C54.2314 91.1023 54.6083 91.1761 54.9303 91.3239C55.2541 91.4716 55.506 91.6771 55.6859 91.9403C55.8659 92.2036 55.9587 92.5085 55.9643 92.8551H54.7854ZM59.1572 97.0852C58.7084 97.0852 58.322 96.9943 57.9981 96.8125C57.6762 96.6288 57.428 96.3693 57.2538 96.0341C57.0796 95.697 56.9924 95.2983 56.9924 94.8381C56.9924 94.3892 57.0796 93.9953 57.2538 93.6562C57.428 93.3172 57.6733 93.053 57.9896 92.8636C58.3078 92.6742 58.6809 92.5795 59.1089 92.5795C59.3968 92.5795 59.6648 92.6259 59.9129 92.7188C60.1629 92.8097 60.3807 92.947 60.5663 93.1307C60.7538 93.3144 60.8996 93.5455 61.0038 93.8239C61.108 94.1004 61.1601 94.4242 61.1601 94.7955V95.1278H57.4754V94.3778H60.0209C60.0209 94.2036 59.983 94.0492 59.9072 93.9148C59.8315 93.7803 59.7263 93.6752 59.5919 93.5994C59.4593 93.5218 59.3049 93.483 59.1288 93.483C58.9451 93.483 58.7822 93.5256 58.6402 93.6108C58.5 93.6941 58.3902 93.8068 58.3106 93.9489C58.2311 94.089 58.1904 94.2453 58.1885 94.4176V95.1307C58.1885 95.3466 58.2282 95.5331 58.3078 95.6903C58.3892 95.8475 58.5038 95.9688 58.6515 96.054C58.7993 96.1392 58.9745 96.1818 59.1771 96.1818C59.3116 96.1818 59.4347 96.1629 59.5464 96.125C59.6582 96.0871 59.7538 96.0303 59.8334 95.9545C59.9129 95.8788 59.9735 95.786 60.0152 95.6761L61.1345 95.75C61.0777 96.0189 60.9612 96.2538 60.7851 96.4545C60.6108 96.6534 60.3854 96.8087 60.1089 96.9205C59.8343 97.0303 59.5171 97.0852 59.1572 97.0852ZM63.4801 91.1818V97H62.2698V91.1818H63.4801ZM65.9797 91.1818V97H64.7695V91.1818H65.9797ZM69.2578 97.0852C68.809 97.0852 68.4226 96.9943 68.0988 96.8125C67.7768 96.6288 67.5287 96.3693 67.3544 96.0341C67.1802 95.697 67.0931 95.2983 67.0931 94.8381C67.0931 94.3892 67.1802 93.9953 67.3544 93.6562C67.5287 93.3172 67.7739 93.053 68.0902 92.8636C68.4084 92.6742 68.7815 92.5795 69.2095 92.5795C69.4974 92.5795 69.7654 92.6259 70.0135 92.7188C70.2635 92.8097 70.4813 92.947 70.6669 93.1307C70.8544 93.3144 71.0003 93.5455 71.1044 93.8239C71.2086 94.1004 71.2607 94.4242 71.2607 94.7955V95.1278H67.576V94.3778H70.1215C70.1215 94.2036 70.0836 94.0492 70.0078 93.9148C69.9321 93.7803 69.827 93.6752 69.6925 93.5994C69.5599 93.5218 69.4056 93.483 69.2294 93.483C69.0457 93.483 68.8828 93.5256 68.7408 93.6108C68.6006 93.6941 68.4908 93.8068 68.4113 93.9489C68.3317 94.089 68.291 94.2453 68.2891 94.4176V95.1307C68.2891 95.3466 68.3289 95.5331 68.4084 95.6903C68.4898 95.8475 68.6044 95.9688 68.7522 96.054C68.8999 96.1392 69.0751 96.1818 69.2777 96.1818C69.4122 96.1818 69.5353 96.1629 69.647 96.125C69.7588 96.0871 69.8544 96.0303 69.934 95.9545C70.0135 95.8788 70.0741 95.786 70.1158 95.6761L71.2351 95.75C71.1783 96.0189 71.0618 96.2538 70.8857 96.4545C70.7114 96.6534 70.4861 96.8087 70.2095 96.9205C69.9349 97.0303 69.6177 97.0852 69.2578 97.0852ZM72.3705 97V92.6364H73.5438V93.3977H73.5892C73.6688 93.1269 73.8023 92.9223 73.9898 92.7841C74.1773 92.6439 74.3932 92.5739 74.6375 92.5739C74.6981 92.5739 74.7634 92.5777 74.8335 92.5852C74.9036 92.5928 74.9652 92.6032 75.0182 92.6165V93.6903C74.9614 93.6733 74.8828 93.6581 74.7824 93.6449C74.682 93.6316 74.5902 93.625 74.5068 93.625C74.3288 93.625 74.1697 93.6638 74.0295 93.7415C73.8913 93.8172 73.7814 93.9233 73.7 94.0597C73.6205 94.196 73.5807 94.3532 73.5807 94.5312V97H72.3705ZM79.5946 93.8807L78.4866 93.9489C78.4677 93.8542 78.427 93.7689 78.3645 93.6932C78.302 93.6155 78.2196 93.554 78.1173 93.5085C78.0169 93.4612 77.8967 93.4375 77.7565 93.4375C77.569 93.4375 77.4109 93.4773 77.2821 93.5568C77.1533 93.6345 77.0889 93.7386 77.0889 93.8693C77.0889 93.9735 77.1306 94.0616 77.2139 94.1335C77.2972 94.2055 77.4402 94.2633 77.6429 94.3068L78.4326 94.4659C78.8569 94.553 79.1732 94.6932 79.3815 94.8864C79.5898 95.0795 79.694 95.3333 79.694 95.6477C79.694 95.9337 79.6097 96.1847 79.4412 96.4006C79.2745 96.6165 79.0453 96.785 78.7537 96.9062C78.4639 97.0256 78.1296 97.0852 77.7508 97.0852C77.1732 97.0852 76.7129 96.965 76.3701 96.7244C76.0292 96.482 75.8294 96.1525 75.7707 95.7358L76.9611 95.6733C76.997 95.8494 77.0842 95.9839 77.2224 96.0767C77.3607 96.1676 77.5378 96.2131 77.7537 96.2131C77.9658 96.2131 78.1362 96.1723 78.265 96.0909C78.3957 96.0076 78.462 95.9006 78.4639 95.7699C78.462 95.66 78.4156 95.5701 78.3247 95.5C78.2338 95.428 78.0936 95.3731 77.9042 95.3352L77.1486 95.1847C76.7224 95.0994 76.4052 94.9517 76.1968 94.7415C75.9904 94.5312 75.8872 94.2633 75.8872 93.9375C75.8872 93.6572 75.9629 93.4157 76.1145 93.2131C76.2679 93.0104 76.4828 92.8542 76.7593 92.7443C77.0378 92.6345 77.3635 92.5795 77.7366 92.5795C78.2878 92.5795 78.7215 92.696 79.0378 92.929C79.3559 93.1619 79.5415 93.4792 79.5946 93.8807Z" fill="#838EA0"/>
<path d="M30.5057 212V206.182H32.8011C33.2424 206.182 33.6184 206.266 33.929 206.435C34.2396 206.601 34.4763 206.833 34.6392 207.131C34.804 207.426 34.8864 207.767 34.8864 208.153C34.8864 208.54 34.803 208.881 34.6364 209.176C34.4697 209.472 34.2282 209.702 33.9119 209.866C33.5975 210.031 33.2169 210.114 32.7699 210.114H31.3068V209.128H32.571C32.8078 209.128 33.0028 209.087 33.1562 209.006C33.3116 208.922 33.4271 208.808 33.5028 208.662C33.5805 208.514 33.6193 208.345 33.6193 208.153C33.6193 207.96 33.5805 207.792 33.5028 207.648C33.4271 207.502 33.3116 207.389 33.1562 207.31C33.0009 207.228 32.804 207.188 32.5653 207.188H31.7358V212H30.5057ZM37.1098 212.082C36.8314 212.082 36.5833 212.034 36.3655 211.938C36.1477 211.839 35.9753 211.694 35.8484 211.503C35.7234 211.31 35.6609 211.069 35.6609 210.781C35.6609 210.539 35.7054 210.335 35.7944 210.17C35.8834 210.006 36.0047 209.873 36.1581 209.773C36.3115 209.672 36.4857 209.597 36.6808 209.545C36.8778 209.494 37.0842 209.458 37.3001 209.438C37.5539 209.411 37.7584 209.386 37.9138 209.364C38.0691 209.339 38.1817 209.303 38.2518 209.256C38.3219 209.208 38.3569 209.138 38.3569 209.045V209.028C38.3569 208.848 38.3001 208.709 38.1865 208.611C38.0747 208.512 37.9156 208.463 37.7092 208.463C37.4914 208.463 37.3181 208.511 37.1893 208.608C37.0605 208.703 36.9753 208.822 36.9336 208.966L35.8143 208.875C35.8711 208.61 35.9829 208.381 36.1495 208.188C36.3162 207.992 36.5312 207.843 36.7944 207.739C37.0596 207.633 37.3664 207.58 37.7149 207.58C37.9573 207.58 38.1893 207.608 38.4109 207.665C38.6344 207.722 38.8323 207.81 39.0047 207.929C39.1789 208.048 39.3162 208.202 39.4166 208.389C39.517 208.575 39.5672 208.797 39.5672 209.057V212H38.4194V211.395H38.3853C38.3153 211.531 38.2215 211.652 38.1041 211.756C37.9867 211.858 37.8456 211.938 37.6808 211.997C37.516 212.054 37.3257 212.082 37.1098 212.082ZM37.4564 211.247C37.6344 211.247 37.7916 211.212 37.928 211.142C38.0643 211.07 38.1713 210.973 38.249 210.852C38.3266 210.731 38.3655 210.594 38.3655 210.44V209.977C38.3276 210.002 38.2755 210.025 38.2092 210.045C38.1448 210.064 38.0719 210.082 37.9905 210.099C37.909 210.115 37.8276 210.129 37.7461 210.142C37.6647 210.153 37.5908 210.164 37.5245 210.173C37.3825 210.194 37.2584 210.227 37.1524 210.273C37.0463 210.318 36.9639 210.38 36.9052 210.457C36.8465 210.533 36.8172 210.628 36.8172 210.741C36.8172 210.906 36.8768 211.032 36.9961 211.119C37.1173 211.205 37.2708 211.247 37.4564 211.247ZM40.8261 212V207.636H41.9994V208.398H42.0448C42.1244 208.127 42.2579 207.922 42.4454 207.784C42.6329 207.644 42.8488 207.574 43.0931 207.574C43.1537 207.574 43.2191 207.578 43.2891 207.585C43.3592 207.593 43.4208 207.603 43.4738 207.616V208.69C43.417 208.673 43.3384 208.658 43.238 208.645C43.1376 208.632 43.0458 208.625 42.9624 208.625C42.7844 208.625 42.6253 208.664 42.4852 208.741C42.3469 208.817 42.2371 208.923 42.1556 209.06C42.0761 209.196 42.0363 209.353 42.0363 209.531V212H40.8261ZM46.9593 207.636V208.545H44.3314V207.636H46.9593ZM44.928 206.591H46.1383V210.659C46.1383 210.771 46.1553 210.858 46.1894 210.92C46.2235 210.981 46.2708 211.024 46.3314 211.048C46.3939 211.073 46.4659 211.085 46.5474 211.085C46.6042 211.085 46.661 211.08 46.7178 211.071C46.7746 211.06 46.8182 211.051 46.8485 211.045L47.0388 211.946C46.9782 211.965 46.893 211.987 46.7832 212.011C46.6733 212.038 46.5398 212.054 46.3826 212.06C46.0909 212.071 45.8352 212.032 45.6155 211.943C45.3977 211.854 45.2282 211.716 45.107 211.528C44.9858 211.341 44.9261 211.104 44.928 210.818V206.591ZM49.2779 209.477V212H48.0676V207.636H49.2211V208.406H49.2722C49.3688 208.152 49.5307 207.952 49.758 207.804C49.9853 207.654 50.2608 207.58 50.5847 207.58C50.8877 207.58 51.1519 207.646 51.3773 207.778C51.6027 207.911 51.7779 208.1 51.9029 208.347C52.0279 208.591 52.0904 208.883 52.0904 209.222V212H50.8801V209.438C50.882 209.17 50.8139 208.962 50.6756 208.812C50.5373 208.661 50.347 208.585 50.1046 208.585C49.9417 208.585 49.7978 208.62 49.6728 208.69C49.5497 208.76 49.4531 208.863 49.383 208.997C49.3148 209.13 49.2798 209.29 49.2779 209.477ZM55.3528 212.085C54.904 212.085 54.5176 211.994 54.1938 211.812C53.8718 211.629 53.6237 211.369 53.4494 211.034C53.2752 210.697 53.1881 210.298 53.1881 209.838C53.1881 209.389 53.2752 208.995 53.4494 208.656C53.6237 208.317 53.8689 208.053 54.1852 207.864C54.5034 207.674 54.8765 207.58 55.3045 207.58C55.5924 207.58 55.8604 207.626 56.1085 207.719C56.3585 207.81 56.5763 207.947 56.7619 208.131C56.9494 208.314 57.0953 208.545 57.1994 208.824C57.3036 209.1 57.3557 209.424 57.3557 209.795V210.128H53.671V209.378H56.2165C56.2165 209.204 56.1786 209.049 56.1028 208.915C56.0271 208.78 55.922 208.675 55.7875 208.599C55.6549 208.522 55.5006 208.483 55.3244 208.483C55.1407 208.483 54.9778 208.526 54.8358 208.611C54.6956 208.694 54.5858 208.807 54.5063 208.949C54.4267 209.089 54.386 209.245 54.3841 209.418V210.131C54.3841 210.347 54.4239 210.533 54.5034 210.69C54.5848 210.848 54.6994 210.969 54.8472 211.054C54.9949 211.139 55.1701 211.182 55.3727 211.182C55.5072 211.182 55.6303 211.163 55.742 211.125C55.8538 211.087 55.9494 211.03 56.029 210.955C56.1085 210.879 56.1691 210.786 56.2108 210.676L57.3301 210.75C57.2733 211.019 57.1568 211.254 56.9807 211.455C56.8064 211.653 56.5811 211.809 56.3045 211.92C56.0299 212.03 55.7127 212.085 55.3528 212.085ZM58.4655 212V207.636H59.6388V208.398H59.6842C59.7638 208.127 59.8973 207.922 60.0848 207.784C60.2723 207.644 60.4882 207.574 60.7325 207.574C60.7931 207.574 60.8584 207.578 60.9285 207.585C60.9986 207.593 61.0602 207.603 61.1132 207.616V208.69C61.0564 208.673 60.9778 208.658 60.8774 208.645C60.777 208.632 60.6852 208.625 60.6018 208.625C60.4238 208.625 60.2647 208.664 60.1245 208.741C59.9863 208.817 59.8764 208.923 59.795 209.06C59.7155 209.196 59.6757 209.353 59.6757 209.531V212H58.4655ZM65.6896 208.881L64.5816 208.949C64.5627 208.854 64.522 208.769 64.4595 208.693C64.397 208.616 64.3146 208.554 64.2123 208.509C64.1119 208.461 63.9917 208.438 63.8515 208.438C63.664 208.438 63.5059 208.477 63.3771 208.557C63.2483 208.634 63.1839 208.739 63.1839 208.869C63.1839 208.973 63.2256 209.062 63.3089 209.134C63.3922 209.205 63.5352 209.263 63.7379 209.307L64.5276 209.466C64.9519 209.553 65.2682 209.693 65.4765 209.886C65.6848 210.08 65.789 210.333 65.789 210.648C65.789 210.934 65.7047 211.185 65.5362 211.401C65.3695 211.616 65.1403 211.785 64.8487 211.906C64.5589 212.026 64.2246 212.085 63.8458 212.085C63.2682 212.085 62.8079 211.965 62.4651 211.724C62.1242 211.482 61.9244 211.152 61.8657 210.736L63.0561 210.673C63.092 210.849 63.1792 210.984 63.3174 211.077C63.4557 211.168 63.6328 211.213 63.8487 211.213C64.0608 211.213 64.2312 211.172 64.36 211.091C64.4907 211.008 64.557 210.901 64.5589 210.77C64.557 210.66 64.5106 210.57 64.4197 210.5C64.3288 210.428 64.1886 210.373 63.9992 210.335L63.2436 210.185C62.8174 210.099 62.5002 209.952 62.2918 209.741C62.0854 209.531 61.9822 209.263 61.9822 208.938C61.9822 208.657 62.0579 208.416 62.2095 208.213C62.3629 208.01 62.5778 207.854 62.8543 207.744C63.1328 207.634 63.4585 207.58 63.8316 207.58C64.3828 207.58 64.8165 207.696 65.1328 207.929C65.4509 208.162 65.6365 208.479 65.6896 208.881Z" fill="#838EA0"/>
<path d="M35.3722 162.182V168H34.3097L31.7784 164.338H31.7358V168H30.5057V162.182H31.5852L34.0966 165.841H34.1477V162.182H35.3722ZM38.6744 168.085C38.2255 168.085 37.8392 167.994 37.5153 167.812C37.1933 167.629 36.9452 167.369 36.771 167.034C36.5968 166.697 36.5096 166.298 36.5096 165.838C36.5096 165.389 36.5968 164.995 36.771 164.656C36.9452 164.317 37.1905 164.053 37.5068 163.864C37.825 163.674 38.1981 163.58 38.6261 163.58C38.914 163.58 39.182 163.626 39.4301 163.719C39.6801 163.81 39.8979 163.947 40.0835 164.131C40.271 164.314 40.4168 164.545 40.521 164.824C40.6252 165.1 40.6772 165.424 40.6772 165.795V166.128H36.9926V165.378H39.538C39.538 165.204 39.5002 165.049 39.4244 164.915C39.3486 164.78 39.2435 164.675 39.1091 164.599C38.9765 164.522 38.8221 164.483 38.646 164.483C38.4623 164.483 38.2994 164.526 38.1574 164.611C38.0172 164.694 37.9074 164.807 37.8278 164.949C37.7483 165.089 37.7075 165.245 37.7057 165.418V166.131C37.7057 166.347 37.7454 166.533 37.825 166.69C37.9064 166.848 38.021 166.969 38.1687 167.054C38.3164 167.139 38.4916 167.182 38.6943 167.182C38.8288 167.182 38.9519 167.163 39.0636 167.125C39.1754 167.087 39.271 167.03 39.3505 166.955C39.4301 166.879 39.4907 166.786 39.5324 166.676L40.6517 166.75C40.5949 167.019 40.4784 167.254 40.3022 167.455C40.128 167.653 39.9026 167.809 39.6261 167.92C39.3515 168.03 39.0343 168.085 38.6744 168.085ZM42.6166 168L41.4291 163.636H42.6535L43.3296 166.568H43.3694L44.0739 163.636H45.2757L45.9916 166.551H46.0285L46.6933 163.636H47.9149L46.7302 168H45.4489L44.6989 165.256H44.645L43.895 168H42.6166ZM52.5111 164.881L51.4032 164.949C51.3842 164.854 51.3435 164.769 51.281 164.693C51.2185 164.616 51.1361 164.554 51.0339 164.509C50.9335 164.461 50.8132 164.438 50.6731 164.438C50.4856 164.438 50.3274 164.477 50.1986 164.557C50.0698 164.634 50.0055 164.739 50.0055 164.869C50.0055 164.973 50.0471 165.062 50.1305 165.134C50.2138 165.205 50.3568 165.263 50.5594 165.307L51.3492 165.466C51.7734 165.553 52.0897 165.693 52.2981 165.886C52.5064 166.08 52.6106 166.333 52.6106 166.648C52.6106 166.934 52.5263 167.185 52.3577 167.401C52.1911 167.616 51.9619 167.785 51.6702 167.906C51.3805 168.026 51.0462 168.085 50.6674 168.085C50.0897 168.085 49.6295 167.965 49.2867 167.724C48.9458 167.482 48.746 167.152 48.6873 166.736L49.8776 166.673C49.9136 166.849 50.0007 166.984 50.139 167.077C50.2772 167.168 50.4543 167.213 50.6702 167.213C50.8823 167.213 51.0528 167.172 51.1816 167.091C51.3123 167.008 51.3786 166.901 51.3805 166.77C51.3786 166.66 51.3322 166.57 51.2412 166.5C51.1503 166.428 51.0102 166.373 50.8208 166.335L50.0651 166.185C49.639 166.099 49.3217 165.952 49.1134 165.741C48.907 165.531 48.8037 165.263 48.8037 164.938C48.8037 164.657 48.8795 164.416 49.031 164.213C49.1844 164.01 49.3994 163.854 49.6759 163.744C49.9543 163.634 50.2801 163.58 50.6532 163.58C51.2043 163.58 51.638 163.696 51.9543 163.929C52.2725 164.162 52.4581 164.479 52.5111 164.881Z" fill="#838EA0"/>
<rect x="30" y="218" width="36" height="16" rx="4" fill="#E6E8EE"/>
<rect x="71" y="218" width="36" height="16" rx="4" fill="#E6E8EE"/>
<rect x="112" y="218" width="36" height="16" rx="4" fill="#E6E8EE"/>
<rect x="153" y="218" width="36" height="16" rx="4" fill="#E6E8EE"/>
<rect x="154" y="160" width="36" height="32" rx="4" fill="#F3F5F7"/>
<rect x="30" y="179" width="57" height="3" rx="1.5" fill="#F3F5F7"/>
<rect x="30" y="174" width="63" height="3" rx="1.5" fill="#F3F5F7"/>
<rect x="30" y="184" width="69" height="3" rx="1.5" fill="#F3F5F7"/>
<rect x="30" y="189" width="92" height="3" rx="1.5" fill="#F3F5F7"/>
<defs>
<clipPath id="clip0_1161_1435">
<rect x="30" y="103" width="50" height="42" rx="2" fill="white"/>
</clipPath>
<clipPath id="clip1_1161_1435">
<rect x="85" y="103" width="50" height="42" rx="2" fill="white"/>
</clipPath>
<clipPath id="clip2_1161_1435">
<rect x="140" y="103" width="50" height="42" rx="2" fill="white"/>
</clipPath>
</defs>
</svg>
