<svg width="220" height="240" viewBox="0 0 220 240" fill="none" xmlns="http://www.w3.org/2000/svg">
<rect width="220" height="240" rx="6" fill="#24213F"/>
<g clip-path="url(#clip0_1170_2644)">
<rect x="30" y="17" width="92" height="47" rx="2" fill="#504D65"/>
<circle cx="54" cy="38" r="3" fill="#9A99A7"/>
<path d="M52.7633 47.7952L33.2011 57.4769C31.853 58.1441 31 59.5181 31 61.0222C31 62.1145 31.8855 63 32.9778 63H119C120.105 63 121 62.1046 121 61V53.0628C121 51.8159 120.419 50.6404 119.428 49.8836L108.753 41.7327C107.395 40.696 105.529 40.6358 104.108 41.5828L80.5136 57.3001C79.3357 58.0848 77.8308 58.1885 76.5564 57.573L56.2772 47.7783C55.166 47.2416 53.8693 47.2478 52.7633 47.7952Z" fill="#9A99A7"/>
</g>
<g clip-path="url(#clip1_1170_2644)">
<rect x="30" y="68" width="28" height="18" rx="2" fill="#504D65"/>
<circle cx="37.9375" cy="73" r="2" fill="#9A99A7"/>
<path d="M36.4769 77.7914L31.5331 82.2102C31.1939 82.5134 31 82.9468 31 83.4018C31 84.2845 31.7155 85 32.5982 85H55C56.1046 85 57 84.1046 57 83V79.432C57 79.0102 56.8667 78.5993 56.6191 78.2579L54.3179 75.0843C53.5517 74.0277 51.995 73.9762 51.1607 74.98L46.0641 81.1116C45.3461 81.9754 44.0578 82.0787 43.2113 81.3404L39.1244 77.7753C38.3641 77.1122 37.229 77.1191 36.4769 77.7914Z" fill="#9A99A7"/>
</g>
<g clip-path="url(#clip2_1170_2644)">
<rect x="62" y="68" width="28" height="18" rx="2" fill="#504D65"/>
<circle cx="69.9375" cy="73" r="2" fill="#9A99A7"/>
<path d="M68.4769 77.7914L63.5331 82.2102C63.1939 82.5134 63 82.9468 63 83.4018C63 84.2845 63.7155 85 64.5982 85H87C88.1046 85 89 84.1046 89 83V79.432C89 79.0102 88.8667 78.5993 88.6191 78.2579L86.3179 75.0843C85.5517 74.0277 83.995 73.9762 83.1607 74.98L78.0641 81.1116C77.3461 81.9754 76.0578 82.0787 75.2113 81.3404L71.1244 77.7753C70.3641 77.1122 69.229 77.1191 68.4769 77.7914Z" fill="#9A99A7"/>
</g>
<g clip-path="url(#clip3_1170_2644)">
<rect x="94" y="68" width="28" height="18" rx="2" fill="#504D65"/>
<circle cx="101.938" cy="73" r="2" fill="#9A99A7"/>
<path d="M100.477 77.7914L95.5331 82.2102C95.1939 82.5134 95 82.9468 95 83.4018C95 84.2845 95.7155 85 96.5982 85H119C120.105 85 121 84.1046 121 83V79.432C121 79.0102 120.867 78.5993 120.619 78.2579L118.318 75.0843C117.552 74.0277 115.995 73.9762 115.161 74.98L110.064 81.1116C109.346 81.9754 108.058 82.0787 107.211 81.3404L103.124 77.7753C102.364 77.1122 101.229 77.1191 100.477 77.7914Z" fill="#9A99A7"/>
</g>
<rect x="132" y="64" width="32" height="8" rx="4" fill="#9A99A7"/>
<rect x="31" y="104" width="32" height="8" rx="2" fill="#504D65"/>
<rect x="99" y="104" width="32" height="8" rx="2" fill="#504D65"/>
<rect x="65" y="104" width="32" height="8" rx="2" fill="#9A99A7"/>
<rect y="111" width="220" height="1" rx="0.5" fill="#504D65"/>
<path d="M132.506 25V19.1818H134.801C135.242 19.1818 135.618 19.2661 135.929 19.4347C136.24 19.6013 136.476 19.8333 136.639 20.1307C136.804 20.4261 136.886 20.767 136.886 21.1534C136.886 21.5398 136.803 21.8807 136.636 22.1761C136.47 22.4716 136.228 22.7017 135.912 22.8665C135.598 23.0312 135.217 23.1136 134.77 23.1136H133.307V22.1278H134.571C134.808 22.1278 135.003 22.0871 135.156 22.0057C135.312 21.9223 135.427 21.8078 135.503 21.6619C135.58 21.5142 135.619 21.3447 135.619 21.1534C135.619 20.9602 135.58 20.7917 135.503 20.6477C135.427 20.5019 135.312 20.3892 135.156 20.3097C135.001 20.2282 134.804 20.1875 134.565 20.1875H133.736V25H132.506ZM137.983 25V20.6364H139.156V21.3977H139.201C139.281 21.1269 139.414 20.9223 139.602 20.7841C139.789 20.6439 140.005 20.5739 140.25 20.5739C140.31 20.5739 140.376 20.5777 140.446 20.5852C140.516 20.5928 140.577 20.6032 140.63 20.6165V21.6903C140.574 21.6733 140.495 21.6581 140.395 21.6449C140.294 21.6316 140.202 21.625 140.119 21.625C139.941 21.625 139.782 21.6638 139.642 21.7415C139.503 21.8172 139.394 21.9233 139.312 22.0597C139.233 22.196 139.193 22.3532 139.193 22.5312V25H137.983ZM143.345 25.0852C142.903 25.0852 142.522 24.9915 142.2 24.804C141.88 24.6146 141.632 24.3513 141.458 24.0142C141.284 23.6752 141.197 23.2822 141.197 22.8352C141.197 22.3845 141.284 21.9905 141.458 21.6534C141.632 21.3144 141.88 21.0511 142.2 20.8636C142.522 20.6742 142.903 20.5795 143.345 20.5795C143.786 20.5795 144.167 20.6742 144.487 20.8636C144.809 21.0511 145.057 21.3144 145.231 21.6534C145.405 21.9905 145.492 22.3845 145.492 22.8352C145.492 23.2822 145.405 23.6752 145.231 24.0142C145.057 24.3513 144.809 24.6146 144.487 24.804C144.167 24.9915 143.786 25.0852 143.345 25.0852ZM143.35 24.1477C143.551 24.1477 143.719 24.0909 143.853 23.9773C143.988 23.8617 144.089 23.7045 144.157 23.5057C144.227 23.3068 144.262 23.0805 144.262 22.8267C144.262 22.5729 144.227 22.3466 144.157 22.1477C144.089 21.9489 143.988 21.7917 143.853 21.6761C143.719 21.5606 143.551 21.5028 143.35 21.5028C143.148 21.5028 142.977 21.5606 142.839 21.6761C142.703 21.7917 142.599 21.9489 142.529 22.1477C142.461 22.3466 142.427 22.5729 142.427 22.8267C142.427 23.0805 142.461 23.3068 142.529 23.5057C142.599 23.7045 142.703 23.8617 142.839 23.9773C142.977 24.0909 143.148 24.1477 143.35 24.1477ZM148.207 25.071C147.876 25.071 147.576 24.9858 147.307 24.8153C147.04 24.643 146.827 24.3902 146.67 24.0568C146.515 23.7216 146.437 23.3106 146.437 22.8239C146.437 22.3239 146.518 21.9081 146.679 21.5767C146.84 21.2434 147.054 20.9943 147.321 20.8295C147.59 20.6629 147.884 20.5795 148.204 20.5795C148.449 20.5795 148.652 20.6212 148.815 20.7045C148.98 20.786 149.112 20.8883 149.213 21.0114C149.315 21.1326 149.393 21.2519 149.446 21.3693H149.483V19.1818H150.69V25H149.497V24.3011H149.446C149.389 24.4223 149.308 24.5426 149.204 24.6619C149.102 24.7794 148.969 24.8769 148.804 24.9545C148.641 25.0322 148.442 25.071 148.207 25.071ZM148.591 24.108C148.786 24.108 148.951 24.0549 149.085 23.9489C149.221 23.8409 149.326 23.6903 149.398 23.4972C149.471 23.304 149.508 23.0777 149.508 22.8182C149.508 22.5587 149.472 22.3333 149.4 22.142C149.328 21.9508 149.224 21.803 149.088 21.6989C148.951 21.5947 148.786 21.5426 148.591 21.5426C148.392 21.5426 148.224 21.5966 148.088 21.7045C147.951 21.8125 147.848 21.9621 147.778 22.1534C147.708 22.3447 147.673 22.5663 147.673 22.8182C147.673 23.072 147.708 23.2964 147.778 23.4915C147.85 23.6847 147.953 23.8362 148.088 23.946C148.224 24.054 148.392 24.108 148.591 24.108ZM154.803 23.142V20.6364H156.014V25H154.852V24.2074H154.806C154.708 24.4631 154.544 24.6686 154.315 24.8239C154.088 24.9792 153.81 25.0568 153.482 25.0568C153.191 25.0568 152.934 24.9905 152.713 24.858C152.491 24.7254 152.318 24.5369 152.193 24.2926C152.07 24.0483 152.007 23.7557 152.005 23.4148V20.6364H153.215V23.1989C153.217 23.4564 153.286 23.66 153.423 23.8097C153.559 23.9593 153.742 24.0341 153.971 24.0341C154.117 24.0341 154.253 24.0009 154.38 23.9347C154.507 23.8665 154.609 23.7661 154.687 23.6335C154.767 23.5009 154.805 23.3371 154.803 23.142ZM159.273 25.0852C158.826 25.0852 158.442 24.9905 158.12 24.8011C157.8 24.6098 157.554 24.3447 157.381 24.0057C157.211 23.6667 157.126 23.2765 157.126 22.8352C157.126 22.3883 157.212 21.9962 157.384 21.6591C157.558 21.3201 157.805 21.0559 158.126 20.8665C158.446 20.6752 158.826 20.5795 159.268 20.5795C159.648 20.5795 159.982 20.6487 160.268 20.7869C160.554 20.9252 160.78 21.1193 160.947 21.3693C161.113 21.6193 161.205 21.9129 161.222 22.25H160.08C160.048 22.0322 159.963 21.857 159.824 21.7244C159.688 21.59 159.509 21.5227 159.288 21.5227C159.1 21.5227 158.936 21.5739 158.796 21.6761C158.658 21.7765 158.55 21.9233 158.472 22.1165C158.395 22.3097 158.356 22.5436 158.356 22.8182C158.356 23.0966 158.394 23.3333 158.469 23.5284C158.547 23.7235 158.656 23.8722 158.796 23.9744C158.936 24.0767 159.1 24.1278 159.288 24.1278C159.426 24.1278 159.55 24.0994 159.66 24.0426C159.771 23.9858 159.863 23.9034 159.935 23.7955C160.009 23.6856 160.057 23.554 160.08 23.4006H161.222C161.203 23.7339 161.112 24.0275 160.949 24.2812C160.788 24.5331 160.566 24.7301 160.282 24.8722C159.998 25.0142 159.662 25.0852 159.273 25.0852ZM164.638 20.6364V21.5455H162.01V20.6364H164.638ZM162.607 19.5909H163.817V23.6591C163.817 23.7708 163.834 23.858 163.868 23.9205C163.902 23.9811 163.95 24.0237 164.01 24.0483C164.073 24.0729 164.145 24.0852 164.226 24.0852C164.283 24.0852 164.34 24.0805 164.397 24.071C164.453 24.0597 164.497 24.0511 164.527 24.0455L164.718 24.946C164.657 24.965 164.572 24.9867 164.462 25.0114C164.352 25.0379 164.219 25.054 164.061 25.0597C163.77 25.071 163.514 25.0322 163.294 24.9432C163.076 24.8542 162.907 24.7159 162.786 24.5284C162.665 24.3409 162.605 24.1042 162.607 23.8182V19.5909ZM167.719 20.196V19.1818H172.498V20.196H170.716V25H169.5V20.196H167.719ZM173.582 25V20.6364H174.792V25H173.582ZM174.19 20.0739C174.01 20.0739 173.855 20.0142 173.727 19.8949C173.6 19.7737 173.536 19.6288 173.536 19.4602C173.536 19.2936 173.6 19.1506 173.727 19.0312C173.855 18.91 174.01 18.8494 174.19 18.8494C174.37 18.8494 174.523 18.91 174.65 19.0312C174.779 19.1506 174.843 19.2936 174.843 19.4602C174.843 19.6288 174.779 19.7737 174.65 19.8949C174.523 20.0142 174.37 20.0739 174.19 20.0739ZM178.402 20.6364V21.5455H175.775V20.6364H178.402ZM176.371 19.5909H177.581V23.6591C177.581 23.7708 177.598 23.858 177.633 23.9205C177.667 23.9811 177.714 24.0237 177.775 24.0483C177.837 24.0729 177.909 24.0852 177.99 24.0852C178.047 24.0852 178.104 24.0805 178.161 24.071C178.218 24.0597 178.261 24.0511 178.292 24.0455L178.482 24.946C178.421 24.965 178.336 24.9867 178.226 25.0114C178.116 25.0379 177.983 25.054 177.826 25.0597C177.534 25.071 177.278 25.0322 177.059 24.9432C176.841 24.8542 176.671 24.7159 176.55 24.5284C176.429 24.3409 176.369 24.1042 176.371 23.8182V19.5909ZM180.815 19.1818V25H179.605V19.1818H180.815ZM184.093 25.0852C183.644 25.0852 183.258 24.9943 182.934 24.8125C182.612 24.6288 182.364 24.3693 182.189 24.0341C182.015 23.697 181.928 23.2983 181.928 22.8381C181.928 22.3892 182.015 21.9953 182.189 21.6562C182.364 21.3172 182.609 21.053 182.925 20.8636C183.243 20.6742 183.617 20.5795 184.045 20.5795C184.332 20.5795 184.6 20.6259 184.849 20.7188C185.099 20.8097 185.316 20.947 185.502 21.1307C185.689 21.3144 185.835 21.5455 185.939 21.8239C186.044 22.1004 186.096 22.4242 186.096 22.7955V23.1278H182.411V22.3778H184.956C184.956 22.2036 184.919 22.0492 184.843 21.9148C184.767 21.7803 184.662 21.6752 184.528 21.5994C184.395 21.5218 184.241 21.483 184.064 21.483C183.881 21.483 183.718 21.5256 183.576 21.6108C183.436 21.6941 183.326 21.8068 183.246 21.9489C183.167 22.089 183.126 22.2453 183.124 22.4176V23.1307C183.124 23.3466 183.164 23.5331 183.243 23.6903C183.325 23.8475 183.439 23.9688 183.587 24.054C183.735 24.1392 183.91 24.1818 184.113 24.1818C184.247 24.1818 184.37 24.1629 184.482 24.125C184.594 24.0871 184.689 24.0303 184.769 23.9545C184.849 23.8788 184.909 23.786 184.951 23.6761L186.07 23.75C186.013 24.0189 185.897 24.2538 185.721 24.4545C185.546 24.6534 185.321 24.8087 185.045 24.9205C184.77 25.0303 184.453 25.0852 184.093 25.0852Z" fill="#BBBAC3"/>
<rect x="132" y="44" width="44" height="3" rx="1.5" fill="#504D65"/>
<rect x="30" y="118" width="44" height="3" rx="1.5" fill="#504D65"/>
<rect x="121" y="118" width="10" height="3" rx="1.5" fill="#504D65"/>
<rect x="121" y="123" width="10" height="3" rx="1.5" fill="#504D65"/>
<rect x="121" y="138" width="10" height="3" rx="1.5" fill="#504D65"/>
<rect x="121" y="128" width="10" height="3" rx="1.5" fill="#504D65"/>
<rect x="121" y="133" width="10" height="3" rx="1.5" fill="#504D65"/>
<rect x="132" y="49" width="58" height="3" rx="1.5" fill="#504D65"/>
<rect x="30" y="123" width="58" height="3" rx="1.5" fill="#504D65"/>
<rect x="30" y="138" width="58" height="3" rx="1.5" fill="#504D65"/>
<rect x="132" y="54" width="35" height="3" rx="1.5" fill="#504D65"/>
<rect x="30" y="128" width="35" height="3" rx="1.5" fill="#504D65"/>
<rect x="30" y="133" width="35" height="3" rx="1.5" fill="#504D65"/>
<path d="M133.933 31.5767C134.157 31.5767 134.373 31.6143 134.58 31.6896C134.789 31.7649 134.975 31.8849 135.138 32.0497C135.303 32.2145 135.433 32.4332 135.528 32.706C135.625 32.9773 135.674 33.3104 135.675 33.7053C135.675 34.076 135.634 34.407 135.55 34.6982C135.467 34.9879 135.349 35.2344 135.194 35.4375C135.039 35.6406 134.852 35.7955 134.634 35.902C134.415 36.0071 134.17 36.0597 133.901 36.0597C133.609 36.0597 133.352 36.0036 133.129 35.8913C132.906 35.7777 132.727 35.6236 132.59 35.429C132.455 35.233 132.374 35.0128 132.345 34.7685H133.255C133.29 34.9276 133.365 35.0511 133.479 35.1392C133.592 35.2259 133.733 35.2692 133.901 35.2692C134.185 35.2692 134.401 35.1456 134.548 34.8984C134.696 34.6499 134.771 34.3097 134.772 33.8778H134.742C134.677 34.0057 134.589 34.1158 134.478 34.2081C134.367 34.299 134.24 34.3693 134.097 34.419C133.955 34.4688 133.803 34.4936 133.643 34.4936C133.386 34.4936 133.156 34.4332 132.955 34.3125C132.753 34.1918 132.594 34.0256 132.477 33.8139C132.361 33.6023 132.303 33.3608 132.303 33.0895C132.301 32.7969 132.369 32.5362 132.505 32.3075C132.641 32.0788 132.832 31.8999 133.076 31.7706C133.322 31.6399 133.607 31.5753 133.933 31.5767ZM133.939 32.3011C133.795 32.3011 133.668 32.3352 133.555 32.4034C133.445 32.4716 133.357 32.5632 133.291 32.6783C133.227 32.7933 133.196 32.9219 133.197 33.0639C133.197 33.2074 133.229 33.3366 133.291 33.4517C133.355 33.5653 133.442 33.6562 133.551 33.7244C133.662 33.7912 133.788 33.8246 133.93 33.8246C134.037 33.8246 134.136 33.8047 134.227 33.7649C134.317 33.7251 134.396 33.6705 134.463 33.6009C134.531 33.5298 134.585 33.4482 134.623 33.3558C134.661 33.2635 134.68 33.1655 134.68 33.0618C134.679 32.924 134.646 32.7976 134.582 32.6825C134.518 32.5675 134.43 32.4751 134.318 32.4055C134.206 32.3359 134.08 32.3011 133.939 32.3011ZM138.133 31.5767C138.358 31.5767 138.574 31.6143 138.781 31.6896C138.99 31.7649 139.176 31.8849 139.339 32.0497C139.504 32.2145 139.634 32.4332 139.729 32.706C139.826 32.9773 139.875 33.3104 139.876 33.7053C139.876 34.076 139.834 34.407 139.751 34.6982C139.668 34.9879 139.55 35.2344 139.395 35.4375C139.24 35.6406 139.053 35.7955 138.834 35.902C138.616 36.0071 138.371 36.0597 138.102 36.0597C137.81 36.0597 137.553 36.0036 137.33 35.8913C137.107 35.7777 136.927 35.6236 136.791 35.429C136.656 35.233 136.575 35.0128 136.546 34.7685H137.456C137.491 34.9276 137.566 35.0511 137.68 35.1392C137.793 35.2259 137.934 35.2692 138.102 35.2692C138.386 35.2692 138.602 35.1456 138.749 34.8984C138.897 34.6499 138.972 34.3097 138.973 33.8778H138.943C138.878 34.0057 138.79 34.1158 138.679 34.2081C138.568 34.299 138.441 34.3693 138.298 34.419C138.155 34.4688 138.004 34.4936 137.844 34.4936C137.587 34.4936 137.357 34.4332 137.155 34.3125C136.954 34.1918 136.795 34.0256 136.678 33.8139C136.562 33.6023 136.503 33.3608 136.503 33.0895C136.502 32.7969 136.57 32.5362 136.706 32.3075C136.842 32.0788 137.033 31.8999 137.277 31.7706C137.523 31.6399 137.808 31.5753 138.133 31.5767ZM138.14 32.3011C137.996 32.3011 137.869 32.3352 137.756 32.4034C137.646 32.4716 137.557 32.5632 137.492 32.6783C137.428 32.7933 137.397 32.9219 137.398 33.0639C137.398 33.2074 137.43 33.3366 137.492 33.4517C137.556 33.5653 137.643 33.6562 137.752 33.7244C137.863 33.7912 137.989 33.8246 138.131 33.8246C138.238 33.8246 138.337 33.8047 138.427 33.7649C138.518 33.7251 138.597 33.6705 138.664 33.6009C138.732 33.5298 138.785 33.4482 138.824 33.3558C138.862 33.2635 138.881 33.1655 138.881 33.0618C138.88 32.924 138.847 32.7976 138.783 32.6825C138.719 32.5675 138.631 32.4751 138.519 32.4055C138.407 32.3359 138.28 32.3011 138.14 32.3011ZM141.575 35.4034L141.551 35.6378C141.533 35.8253 141.497 36.0121 141.445 36.1982C141.394 36.3857 141.34 36.5554 141.283 36.7074C141.228 36.8594 141.183 36.9787 141.149 37.0653H140.561C140.582 36.9815 140.611 36.8643 140.648 36.7138C140.685 36.5646 140.72 36.397 140.752 36.2109C140.785 36.0249 140.806 35.8352 140.814 35.642L140.825 35.4034H141.575ZM144.133 31.5767C144.357 31.5767 144.573 31.6143 144.781 31.6896C144.99 31.7649 145.176 31.8849 145.339 32.0497C145.504 32.2145 145.634 32.4332 145.729 32.706C145.825 32.9773 145.874 33.3104 145.876 33.7053C145.876 34.076 145.834 34.407 145.75 34.6982C145.668 34.9879 145.549 35.2344 145.394 35.4375C145.24 35.6406 145.053 35.7955 144.834 35.902C144.615 36.0071 144.371 36.0597 144.101 36.0597C143.81 36.0597 143.553 36.0036 143.33 35.8913C143.107 35.7777 142.927 35.6236 142.791 35.429C142.656 35.233 142.574 35.0128 142.546 34.7685H143.455C143.491 34.9276 143.566 35.0511 143.679 35.1392C143.793 35.2259 143.933 35.2692 144.101 35.2692C144.385 35.2692 144.601 35.1456 144.749 34.8984C144.896 34.6499 144.971 34.3097 144.972 33.8778H144.943C144.877 34.0057 144.789 34.1158 144.678 34.2081C144.568 34.299 144.441 34.3693 144.297 34.419C144.155 34.4688 144.004 34.4936 143.843 34.4936C143.586 34.4936 143.357 34.4332 143.155 34.3125C142.953 34.1918 142.794 34.0256 142.678 33.8139C142.561 33.6023 142.503 33.3608 142.503 33.0895C142.502 32.7969 142.569 32.5362 142.705 32.3075C142.842 32.0788 143.032 31.8999 143.276 31.7706C143.522 31.6399 143.808 31.5753 144.133 31.5767ZM144.139 32.3011C143.996 32.3011 143.868 32.3352 143.756 32.4034C143.645 32.4716 143.557 32.5632 143.492 32.6783C143.428 32.7933 143.396 32.9219 143.398 33.0639C143.398 33.2074 143.429 33.3366 143.492 33.4517C143.556 33.5653 143.642 33.6562 143.752 33.7244C143.862 33.7912 143.989 33.8246 144.131 33.8246C144.237 33.8246 144.336 33.8047 144.427 33.7649C144.518 33.7251 144.597 33.6705 144.664 33.6009C144.732 33.5298 144.785 33.4482 144.823 33.3558C144.862 33.2635 144.881 33.1655 144.881 33.0618C144.879 32.924 144.847 32.7976 144.783 32.6825C144.719 32.5675 144.631 32.4751 144.519 32.4055C144.406 32.3359 144.28 32.3011 144.139 32.3011ZM148.221 36.5455V31.0909H148.57V36.5455H148.221ZM149.148 32.8913C149.131 32.7195 149.058 32.5859 148.928 32.4908C148.799 32.3956 148.624 32.348 148.402 32.348C148.252 32.348 148.124 32.3693 148.021 32.4119C147.917 32.4531 147.837 32.5107 147.782 32.5845C147.728 32.6584 147.701 32.7422 147.701 32.8359C147.698 32.9141 147.715 32.9822 147.75 33.0405C147.787 33.0987 147.837 33.1491 147.901 33.1918C147.965 33.233 148.039 33.2692 148.123 33.3004C148.207 33.3303 148.296 33.3558 148.391 33.3771L148.784 33.4709C148.974 33.5135 149.149 33.5703 149.308 33.6413C149.467 33.7124 149.605 33.7997 149.721 33.9034C149.837 34.0071 149.928 34.1293 149.992 34.2699C150.057 34.4105 150.09 34.5717 150.092 34.7536C150.09 35.0206 150.022 35.2521 149.887 35.4482C149.754 35.6428 149.56 35.794 149.308 35.902C149.056 36.0085 148.753 36.0618 148.398 36.0618C148.046 36.0618 147.739 36.0078 147.477 35.8999C147.217 35.7919 147.014 35.6321 146.868 35.4205C146.723 35.2074 146.647 34.9439 146.64 34.63H147.533C147.543 34.7763 147.585 34.8984 147.659 34.9964C147.734 35.093 147.834 35.1662 147.959 35.2159C148.085 35.2642 148.228 35.2884 148.387 35.2884C148.543 35.2884 148.679 35.2656 148.794 35.2202C148.911 35.1747 149.001 35.1115 149.065 35.0305C149.129 34.9496 149.161 34.8565 149.161 34.7514C149.161 34.6534 149.132 34.571 149.073 34.5043C149.016 34.4375 148.933 34.3807 148.822 34.3338C148.712 34.2869 148.578 34.2443 148.419 34.206L147.944 34.0866C147.576 33.9972 147.286 33.8572 147.073 33.6669C146.86 33.4766 146.754 33.2202 146.755 32.8977C146.754 32.6335 146.824 32.4027 146.966 32.2053C147.11 32.0078 147.306 31.8537 147.556 31.7429C147.806 31.6321 148.09 31.5767 148.409 31.5767C148.732 31.5767 149.015 31.6321 149.257 31.7429C149.499 31.8537 149.688 32.0078 149.823 32.2053C149.958 32.4027 150.028 32.6314 150.032 32.8913H149.148Z" fill="#BBBAC3"/>
<path d="M32.7464 164.891C32.7294 164.719 32.6563 164.586 32.527 164.491C32.3977 164.396 32.2223 164.348 32.0007 164.348C31.8501 164.348 31.723 164.369 31.6193 164.412C31.5156 164.453 31.4361 164.511 31.3807 164.585C31.3267 164.658 31.2997 164.742 31.2997 164.836C31.2969 164.914 31.3132 164.982 31.3487 165.04C31.3857 165.099 31.4361 165.149 31.5 165.192C31.5639 165.233 31.6378 165.269 31.7216 165.3C31.8054 165.33 31.8949 165.356 31.9901 165.377L32.3821 165.471C32.5724 165.513 32.7472 165.57 32.9062 165.641C33.0653 165.712 33.2031 165.8 33.3196 165.903C33.4361 166.007 33.5263 166.129 33.5902 166.27C33.6555 166.411 33.6889 166.572 33.6903 166.754C33.6889 167.021 33.6207 167.252 33.4858 167.448C33.3523 167.643 33.1591 167.794 32.9062 167.902C32.6548 168.009 32.3516 168.062 31.9964 168.062C31.6442 168.062 31.3374 168.008 31.076 167.9C30.8161 167.792 30.6129 167.632 30.4666 167.42C30.3217 167.207 30.2457 166.944 30.2386 166.63H31.1314C31.1413 166.776 31.1832 166.898 31.2571 166.996C31.3324 167.093 31.4325 167.166 31.5575 167.216C31.6839 167.264 31.8267 167.288 31.9858 167.288C32.142 167.288 32.2777 167.266 32.3928 167.22C32.5092 167.175 32.5994 167.112 32.6634 167.031C32.7273 166.95 32.7592 166.857 32.7592 166.751C32.7592 166.653 32.7301 166.571 32.6719 166.504C32.6151 166.437 32.5313 166.381 32.4205 166.334C32.3111 166.287 32.1768 166.244 32.0178 166.206L31.5426 166.087C31.1747 165.997 30.8842 165.857 30.6712 165.667C30.4581 165.477 30.3523 165.22 30.3537 164.898C30.3523 164.634 30.4226 164.403 30.5646 164.205C30.7081 164.008 30.9048 163.854 31.1548 163.743C31.4048 163.632 31.6889 163.577 32.0071 163.577C32.331 163.577 32.6136 163.632 32.8551 163.743C33.098 163.854 33.2869 164.008 33.4219 164.205C33.5568 164.403 33.6264 164.631 33.6307 164.891H32.7464ZM36.6326 166.607V164.727H37.5402V168H36.6688V167.406H36.6347C36.5608 167.597 36.438 167.751 36.2661 167.868C36.0956 167.984 35.8875 168.043 35.6418 168.043C35.4231 168.043 35.2306 167.993 35.0644 167.893C34.8982 167.794 34.7682 167.653 34.6745 167.469C34.5822 167.286 34.5353 167.067 34.5339 166.811V164.727H35.4415V166.649C35.4429 166.842 35.4948 166.995 35.5971 167.107C35.6993 167.219 35.8364 167.276 36.0083 167.276C36.1177 167.276 36.2199 167.251 36.3151 167.201C36.4103 167.15 36.487 167.075 36.5452 166.975C36.6049 166.876 36.634 166.753 36.6326 166.607ZM39.9807 169.295C39.6867 169.295 39.4345 169.255 39.2243 169.174C39.0155 169.094 38.8493 168.986 38.7257 168.848C38.6022 168.71 38.5219 168.555 38.485 168.384L39.3245 168.271C39.35 168.336 39.3905 168.397 39.4459 168.454C39.5013 168.511 39.5745 168.556 39.6654 168.59C39.7577 168.626 39.8699 168.643 40.002 168.643C40.1995 168.643 40.3621 168.595 40.4899 168.499C40.6192 168.403 40.6838 168.244 40.6838 168.019V167.42H40.6455C40.6057 167.511 40.5461 167.597 40.4665 167.678C40.387 167.759 40.2847 167.825 40.1597 167.876C40.0347 167.928 39.8855 167.953 39.7122 167.953C39.4665 167.953 39.2428 167.896 39.0411 167.783C38.8408 167.668 38.681 167.492 38.5617 167.256C38.4438 167.019 38.3848 166.719 38.3848 166.357C38.3848 165.987 38.4452 165.677 38.5659 165.428C38.6867 165.18 38.8472 164.994 39.0475 164.87C39.2492 164.746 39.4701 164.685 39.7101 164.685C39.8934 164.685 40.0468 164.716 40.1703 164.778C40.2939 164.839 40.3934 164.916 40.4686 165.009C40.5453 165.099 40.6043 165.189 40.6455 165.277H40.6796V164.727H41.5809V168.032C41.5809 168.31 41.5127 168.543 41.3763 168.731C41.2399 168.918 41.051 169.059 40.8095 169.153C40.5695 169.248 40.2932 169.295 39.9807 169.295ZM39.9999 167.271C40.1462 167.271 40.2698 167.235 40.3706 167.163C40.4729 167.089 40.551 166.984 40.605 166.847C40.6604 166.71 40.6881 166.545 40.6881 166.353C40.6881 166.161 40.6611 165.995 40.6071 165.854C40.5532 165.712 40.475 165.602 40.3728 165.524C40.2705 165.446 40.1462 165.407 39.9999 165.407C39.8507 165.407 39.725 165.447 39.6228 165.528C39.5205 165.608 39.4431 165.719 39.3905 165.861C39.338 166.003 39.3117 166.167 39.3117 166.353C39.3117 166.542 39.338 166.705 39.3905 166.843C39.4445 166.979 39.5219 167.085 39.6228 167.161C39.725 167.234 39.8507 167.271 39.9999 167.271ZM44.0176 169.295C43.7236 169.295 43.4714 169.255 43.2612 169.174C43.0524 169.094 42.8862 168.986 42.7626 168.848C42.639 168.71 42.5588 168.555 42.5218 168.384L43.3613 168.271C43.3869 168.336 43.4274 168.397 43.4828 168.454C43.5382 168.511 43.6113 168.556 43.7022 168.59C43.7946 168.626 43.9068 168.643 44.0389 168.643C44.2363 168.643 44.399 168.595 44.5268 168.499C44.6561 168.403 44.7207 168.244 44.7207 168.019V167.42H44.6824C44.6426 167.511 44.5829 167.597 44.5034 167.678C44.4238 167.759 44.3216 167.825 44.1966 167.876C44.0716 167.928 43.9224 167.953 43.7491 167.953C43.5034 167.953 43.2797 167.896 43.078 167.783C42.8777 167.668 42.7179 167.492 42.5986 167.256C42.4807 167.019 42.4217 166.719 42.4217 166.357C42.4217 165.987 42.4821 165.677 42.6028 165.428C42.7236 165.18 42.8841 164.994 43.0843 164.87C43.2861 164.746 43.5069 164.685 43.747 164.685C43.9302 164.685 44.0836 164.716 44.2072 164.778C44.3308 164.839 44.4302 164.916 44.5055 165.009C44.5822 165.099 44.6412 165.189 44.6824 165.277H44.7164V164.727H45.6177V168.032C45.6177 168.31 45.5495 168.543 45.4132 168.731C45.2768 168.918 45.0879 169.059 44.8464 169.153C44.6064 169.248 44.3301 169.295 44.0176 169.295ZM44.0368 167.271C44.1831 167.271 44.3066 167.235 44.4075 167.163C44.5098 167.089 44.5879 166.984 44.6419 166.847C44.6973 166.71 44.725 166.545 44.725 166.353C44.725 166.161 44.698 165.995 44.644 165.854C44.59 165.712 44.5119 165.602 44.4096 165.524C44.3074 165.446 44.1831 165.407 44.0368 165.407C43.8876 165.407 43.7619 165.447 43.6596 165.528C43.5574 165.608 43.4799 165.719 43.4274 165.861C43.3748 166.003 43.3486 166.167 43.3486 166.353C43.3486 166.542 43.3748 166.705 43.4274 166.843C43.4814 166.979 43.5588 167.085 43.6596 167.161C43.7619 167.234 43.8876 167.271 44.0368 167.271ZM48.0715 168.064C47.7349 168.064 47.4451 167.996 47.2022 167.859C46.9607 167.722 46.7746 167.527 46.6439 167.276C46.5133 167.023 46.4479 166.724 46.4479 166.379C46.4479 166.042 46.5133 165.746 46.6439 165.492C46.7746 165.238 46.9586 165.04 47.1958 164.898C47.4344 164.756 47.7143 164.685 48.0353 164.685C48.2512 164.685 48.4522 164.719 48.6383 164.789C48.8258 164.857 48.9891 164.96 49.1283 165.098C49.2689 165.236 49.3783 165.409 49.4564 165.618C49.5346 165.825 49.5736 166.068 49.5736 166.347V166.596H46.8101V166.033H48.7192C48.7192 165.903 48.6908 165.787 48.634 165.686C48.5772 165.585 48.4984 165.506 48.3975 165.45C48.2981 165.391 48.1823 165.362 48.0502 165.362C47.9124 165.362 47.7903 165.394 47.6837 165.458C47.5786 165.521 47.4962 165.605 47.4366 165.712C47.3769 165.817 47.3464 165.934 47.3449 166.063V166.598C47.3449 166.76 47.3748 166.9 47.4344 167.018C47.4955 167.136 47.5814 167.227 47.6922 167.29C47.803 167.354 47.9344 167.386 48.0864 167.386C48.1873 167.386 48.2796 167.372 48.3634 167.344C48.4472 167.315 48.5189 167.273 48.5786 167.216C48.6383 167.159 48.6837 167.089 48.715 167.007L49.5545 167.062C49.5118 167.264 49.4245 167.44 49.2924 167.591C49.1617 167.74 48.9927 167.857 48.7853 167.94C48.5793 168.023 48.3414 168.064 48.0715 168.064ZM53.129 165.661L52.298 165.712C52.2838 165.641 52.2533 165.577 52.2064 165.52C52.1595 165.462 52.0977 165.415 52.021 165.381C51.9457 165.346 51.8555 165.328 51.7504 165.328C51.6098 165.328 51.4912 165.358 51.3946 165.418C51.298 165.476 51.2497 165.554 51.2497 165.652C51.2497 165.73 51.281 165.796 51.3435 165.85C51.406 165.904 51.5132 165.947 51.6652 165.98L52.2575 166.099C52.5757 166.165 52.8129 166.27 52.9692 166.415C53.1254 166.56 53.2036 166.75 53.2036 166.986C53.2036 167.2 53.1403 167.388 53.0139 167.55C52.8889 167.712 52.717 167.839 52.4983 167.93C52.281 168.019 52.0303 168.064 51.7462 168.064C51.3129 168.064 50.9678 167.974 50.7107 167.793C50.455 167.612 50.3051 167.364 50.2611 167.052L51.1538 167.005C51.1808 167.137 51.2462 167.238 51.3499 167.308C51.4536 167.376 51.5864 167.41 51.7483 167.41C51.9074 167.41 52.0352 167.379 52.1318 167.318C52.2298 167.256 52.2795 167.175 52.281 167.077C52.2795 166.995 52.2447 166.928 52.1766 166.875C52.1084 166.821 52.0033 166.78 51.8612 166.751L51.2945 166.638C50.9749 166.575 50.7369 166.464 50.5807 166.306C50.4259 166.148 50.3484 165.947 50.3484 165.703C50.3484 165.493 50.4053 165.312 50.5189 165.16C50.6339 165.008 50.7952 164.891 51.0026 164.808C51.2114 164.726 51.4557 164.685 51.7355 164.685C52.1489 164.685 52.4741 164.772 52.7114 164.947C52.95 165.121 53.0892 165.359 53.129 165.661ZM55.7559 164.727V165.409H53.785V164.727H55.7559ZM54.2324 163.943H55.1401V166.994C55.1401 167.078 55.1529 167.143 55.1785 167.19C55.204 167.236 55.2395 167.268 55.285 167.286C55.3319 167.305 55.3858 167.314 55.4469 167.314C55.4895 167.314 55.5322 167.31 55.5748 167.303C55.6174 167.295 55.6501 167.288 55.6728 167.284L55.8155 167.96C55.7701 167.974 55.7062 167.99 55.6238 168.009C55.5414 168.028 55.4412 168.04 55.3233 168.045C55.1046 168.053 54.9128 168.024 54.7481 167.957C54.5847 167.891 54.4576 167.787 54.3667 167.646C54.2758 167.506 54.231 167.328 54.2324 167.114V163.943ZM58.0435 168.064C57.7068 168.064 57.417 167.996 57.1741 167.859C56.9327 167.722 56.7466 167.527 56.6159 167.276C56.4852 167.023 56.4199 166.724 56.4199 166.379C56.4199 166.042 56.4852 165.746 56.6159 165.492C56.7466 165.238 56.9305 165.04 57.1677 164.898C57.4064 164.756 57.6862 164.685 58.0072 164.685C58.2231 164.685 58.4241 164.719 58.6102 164.789C58.7977 164.857 58.9611 164.96 59.1003 165.098C59.2409 165.236 59.3503 165.409 59.4284 165.618C59.5065 165.825 59.5456 166.068 59.5456 166.347V166.596H56.7821V166.033H58.6912C58.6912 165.903 58.6628 165.787 58.606 165.686C58.5491 165.585 58.4703 165.506 58.3695 165.45C58.27 165.391 58.1543 165.362 58.0222 165.362C57.8844 165.362 57.7622 165.394 57.6557 165.458C57.5506 165.521 57.4682 165.605 57.4085 165.712C57.3489 165.817 57.3183 165.934 57.3169 166.063V166.598C57.3169 166.76 57.3467 166.9 57.4064 167.018C57.4675 167.136 57.5534 167.227 57.6642 167.29C57.775 167.354 57.9064 167.386 58.0584 167.386C58.1592 167.386 58.2516 167.372 58.3354 167.344C58.4192 167.315 58.4909 167.273 58.5506 167.216C58.6102 167.159 58.6557 167.089 58.6869 167.007L59.5264 167.062C59.4838 167.264 59.3964 167.44 59.2643 167.591C59.1337 167.74 58.9646 167.857 58.7572 167.94C58.5513 168.023 58.3133 168.064 58.0435 168.064ZM61.5839 168.053C61.3353 168.053 61.1102 167.989 60.9085 167.862C60.7082 167.732 60.5491 167.543 60.4312 167.293C60.3147 167.041 60.2565 166.733 60.2565 166.368C60.2565 165.993 60.3168 165.681 60.4376 165.433C60.5583 165.183 60.7188 164.996 60.9191 164.872C61.1208 164.747 61.3417 164.685 61.5818 164.685C61.765 164.685 61.9177 164.716 62.0399 164.778C62.1634 164.839 62.2629 164.916 62.3381 165.009C62.4149 165.099 62.4731 165.189 62.5129 165.277H62.5406V163.636H63.4461V168H62.5512V167.476H62.5129C62.4702 167.567 62.4099 167.657 62.3318 167.746C62.255 167.835 62.1549 167.908 62.0313 167.966C61.9092 168.024 61.76 168.053 61.5839 168.053ZM61.8715 167.331C62.0178 167.331 62.1414 167.291 62.2423 167.212C62.3445 167.131 62.4227 167.018 62.4766 166.873C62.532 166.728 62.5597 166.558 62.5597 166.364C62.5597 166.169 62.5327 166 62.4788 165.857C62.4248 165.713 62.3467 165.602 62.2444 165.524C62.1421 165.446 62.0178 165.407 61.8715 165.407C61.7224 165.407 61.5967 165.447 61.4944 165.528C61.3921 165.609 61.3147 165.722 61.2622 165.865C61.2096 166.009 61.1833 166.175 61.1833 166.364C61.1833 166.554 61.2096 166.722 61.2622 166.869C61.3161 167.013 61.3935 167.127 61.4944 167.21C61.5967 167.29 61.7224 167.331 61.8715 167.331ZM66.0781 168V163.636H67.7997C68.1306 163.636 68.4126 163.7 68.6456 163.826C68.8785 163.951 69.0561 164.125 69.1782 164.348C69.3018 164.57 69.3636 164.825 69.3636 165.115C69.3636 165.405 69.3011 165.661 69.1761 165.882C69.0511 166.104 68.87 166.276 68.6328 166.4C68.397 166.523 68.1115 166.585 67.7762 166.585H66.6789V165.846H67.6271C67.8047 165.846 67.951 165.815 68.066 165.754C68.1825 165.692 68.2691 165.606 68.326 165.496C68.3842 165.386 68.4133 165.259 68.4133 165.115C68.4133 164.97 68.3842 164.844 68.326 164.736C68.2691 164.626 68.1825 164.542 68.066 164.482C67.9495 164.421 67.8018 164.391 67.6228 164.391H67.0007V168H66.0781ZM70.1858 168V164.727H71.0658V165.298H71.0999C71.1595 165.095 71.2597 164.942 71.4003 164.838C71.5409 164.733 71.7029 164.68 71.8861 164.68C71.9315 164.68 71.9806 164.683 72.0331 164.689C72.0857 164.695 72.1318 164.702 72.1716 164.712V165.518C72.129 165.505 72.07 165.494 71.9948 165.484C71.9195 165.474 71.8506 165.469 71.7881 165.469C71.6546 165.469 71.5352 165.498 71.4301 165.556C71.3264 165.613 71.244 165.692 71.183 165.795C71.1233 165.897 71.0935 166.015 71.0935 166.148V168H70.1858ZM74.2072 168.064C73.8763 168.064 73.5901 167.994 73.3486 167.853C73.1085 167.711 72.9231 167.513 72.7925 167.261C72.6618 167.006 72.5964 166.712 72.5964 166.376C72.5964 166.038 72.6618 165.743 72.7925 165.49C72.9231 165.236 73.1085 165.038 73.3486 164.898C73.5901 164.756 73.8763 164.685 74.2072 164.685C74.5382 164.685 74.8237 164.756 75.0638 164.898C75.3052 165.038 75.4913 165.236 75.622 165.49C75.7527 165.743 75.818 166.038 75.818 166.376C75.818 166.712 75.7527 167.006 75.622 167.261C75.4913 167.513 75.3052 167.711 75.0638 167.853C74.8237 167.994 74.5382 168.064 74.2072 168.064ZM74.2115 167.361C74.3621 167.361 74.4878 167.318 74.5886 167.233C74.6895 167.146 74.7655 167.028 74.8166 166.879C74.8692 166.73 74.8954 166.56 74.8954 166.37C74.8954 166.18 74.8692 166.01 74.8166 165.861C74.7655 165.712 74.6895 165.594 74.5886 165.507C74.4878 165.42 74.3621 165.377 74.2115 165.377C74.0595 165.377 73.9317 165.42 73.828 165.507C73.7257 165.594 73.6483 165.712 73.5957 165.861C73.5446 166.01 73.519 166.18 73.519 166.37C73.519 166.56 73.5446 166.73 73.5957 166.879C73.6483 167.028 73.7257 167.146 73.828 167.233C73.9317 167.318 74.0595 167.361 74.2115 167.361ZM77.8542 168.053C77.6056 168.053 77.3805 167.989 77.1788 167.862C76.9785 167.732 76.8194 167.543 76.7015 167.293C76.585 167.041 76.5268 166.733 76.5268 166.368C76.5268 165.993 76.5872 165.681 76.7079 165.433C76.8286 165.183 76.9891 164.996 77.1894 164.872C77.3911 164.747 77.612 164.685 77.8521 164.685C78.0353 164.685 78.188 164.716 78.3102 164.778C78.4337 164.839 78.5332 164.916 78.6085 165.009C78.6852 165.099 78.7434 165.189 78.7832 165.277H78.8109V163.636H79.7164V168H78.8215V167.476H78.7832C78.7406 167.567 78.6802 167.657 78.6021 167.746C78.5254 167.835 78.4252 167.908 78.3016 167.966C78.1795 168.024 78.0303 168.053 77.8542 168.053ZM78.1418 167.331C78.2881 167.331 78.4117 167.291 78.5126 167.212C78.6148 167.131 78.693 167.018 78.747 166.873C78.8023 166.728 78.83 166.558 78.83 166.364C78.83 166.169 78.8031 166 78.7491 165.857C78.6951 165.713 78.617 165.602 78.5147 165.524C78.4124 165.446 78.2881 165.407 78.1418 165.407C77.9927 165.407 77.867 165.447 77.7647 165.528C77.6624 165.609 77.585 165.722 77.5325 165.865C77.4799 166.009 77.4536 166.175 77.4536 166.364C77.4536 166.554 77.4799 166.722 77.5325 166.869C77.5864 167.013 77.6639 167.127 77.7647 167.21C77.867 167.29 77.9927 167.331 78.1418 167.331ZM82.8014 166.607V164.727H83.7091V168H82.8376V167.406H82.8035C82.7297 167.597 82.6068 167.751 82.4349 167.868C82.2645 167.984 82.0564 168.043 81.8106 168.043C81.5919 168.043 81.3994 167.993 81.2332 167.893C81.067 167.794 80.9371 167.653 80.8433 167.469C80.751 167.286 80.7041 167.067 80.7027 166.811V164.727H81.6104V166.649C81.6118 166.842 81.6636 166.995 81.7659 167.107C81.8682 167.219 82.0052 167.276 82.1771 167.276C82.2865 167.276 82.3888 167.251 82.4839 167.201C82.5791 167.15 82.6558 167.075 82.714 166.975C82.7737 166.876 82.8028 166.753 82.8014 166.607ZM86.1538 168.064C85.8186 168.064 85.5302 167.993 85.2887 167.851C85.0487 167.707 84.864 167.509 84.7348 167.254C84.6069 167 84.543 166.707 84.543 166.376C84.543 166.041 84.6076 165.747 84.7369 165.494C84.8676 165.24 85.0529 165.042 85.293 164.9C85.5331 164.756 85.8186 164.685 86.1495 164.685C86.435 164.685 86.685 164.737 86.8995 164.84C87.114 164.944 87.2838 165.089 87.4088 165.277C87.5338 165.464 87.6027 165.685 87.6154 165.938H86.7589C86.7348 165.774 86.6708 165.643 86.5672 165.543C86.4649 165.442 86.3306 165.392 86.1645 165.392C86.0238 165.392 85.901 165.43 85.7958 165.507C85.6922 165.582 85.6112 165.692 85.5529 165.837C85.4947 165.982 85.4656 166.158 85.4656 166.364C85.4656 166.572 85.494 166.75 85.5508 166.896C85.6091 167.043 85.6907 167.154 85.7958 167.231C85.901 167.308 86.0238 167.346 86.1645 167.346C86.2681 167.346 86.3612 167.325 86.4436 167.282C86.5274 167.239 86.5963 167.178 86.6502 167.097C86.7056 167.014 86.7419 166.915 86.7589 166.8H87.6154C87.6012 167.05 87.5331 167.271 87.4109 167.461C87.2902 167.65 87.1233 167.798 86.9102 167.904C86.6971 168.011 86.445 168.064 86.1538 168.064ZM90.1774 164.727V165.409H88.2065V164.727H90.1774ZM88.6539 163.943H89.5616V166.994C89.5616 167.078 89.5744 167.143 89.5999 167.19C89.6255 167.236 89.661 167.268 89.7065 167.286C89.7534 167.305 89.8073 167.314 89.8684 167.314C89.911 167.314 89.9536 167.31 89.9963 167.303C90.0389 167.295 90.0715 167.288 90.0943 167.284L90.237 167.96C90.1916 167.974 90.1276 167.99 90.0453 168.009C89.9629 168.028 89.8627 168.04 89.7448 168.045C89.5261 168.053 89.3343 168.024 89.1695 167.957C89.0062 167.891 88.8791 167.787 88.7882 167.646C88.6972 167.506 88.6525 167.328 88.6539 167.114V163.943ZM93.6906 165.661L92.8597 165.712C92.8454 165.641 92.8149 165.577 92.768 165.52C92.7212 165.462 92.6594 165.415 92.5827 165.381C92.5074 165.346 92.4172 165.328 92.3121 165.328C92.1714 165.328 92.0528 165.358 91.9562 165.418C91.8597 165.476 91.8114 165.554 91.8114 165.652C91.8114 165.73 91.8426 165.796 91.9051 165.85C91.9676 165.904 92.0748 165.947 92.2268 165.98L92.8192 166.099C93.1373 166.165 93.3746 166.27 93.5308 166.415C93.6871 166.56 93.7652 166.75 93.7652 166.986C93.7652 167.2 93.702 167.388 93.5756 167.55C93.4506 167.712 93.2787 167.839 93.0599 167.93C92.8426 168.019 92.5919 168.064 92.3078 168.064C91.8746 168.064 91.5294 167.974 91.2723 167.793C91.0166 167.612 90.8668 167.364 90.8227 167.052L91.7155 167.005C91.7425 167.137 91.8078 167.238 91.9115 167.308C92.0152 167.376 92.148 167.41 92.3099 167.41C92.469 167.41 92.5969 167.379 92.6935 167.318C92.7915 167.256 92.8412 167.175 92.8426 167.077C92.8412 166.995 92.8064 166.928 92.7382 166.875C92.67 166.821 92.5649 166.78 92.4229 166.751L91.8561 166.638C91.5365 166.575 91.2986 166.464 91.1423 166.306C90.9875 166.148 90.9101 165.947 90.9101 165.703C90.9101 165.493 90.9669 165.312 91.0805 165.16C91.1956 165.008 91.3568 164.891 91.5642 164.808C91.773 164.726 92.0173 164.685 92.2972 164.685C92.7105 164.685 93.0358 164.772 93.273 164.947C93.5116 165.121 93.6508 165.359 93.6906 165.661Z" fill="#BBBAC3"/>
<g clip-path="url(#clip4_1170_2644)">
<rect x="30" y="174" width="50" height="32" rx="2" fill="#504D65"/>
<circle cx="37.9375" cy="185.544" r="2" fill="#9A99A7"/>
<path d="M42.198 190.175L31.6396 199.973C31.2317 200.351 31 200.882 31 201.439V203C31 204.105 31.8954 205 33 205H77C78.1046 205 79 204.105 79 203V193.714C79 193.304 78.8742 192.904 78.6397 192.568L72.7885 184.191C72.024 183.097 70.4221 183.044 69.5876 184.086L57.7219 198.907C57.0017 199.807 55.6723 199.913 54.8181 199.14L44.9009 190.158C44.132 189.462 42.9584 189.469 42.198 190.175Z" fill="#9A99A7"/>
<rect x="56" y="210" width="24" height="6" rx="3" fill="#504D65"/>
<path d="M33.2884 211.551C33.438 211.551 33.5819 211.576 33.7202 211.626C33.8594 211.677 33.9834 211.757 34.0923 211.866C34.2022 211.976 34.2888 212.122 34.3523 212.304C34.4167 212.485 34.4493 212.707 34.4503 212.97C34.4503 213.217 34.4223 213.438 34.3665 213.632C34.3116 213.825 34.2325 213.99 34.1293 214.125C34.026 214.26 33.9015 214.364 33.7557 214.435C33.6098 214.505 33.447 214.54 33.267 214.54C33.0729 214.54 32.9015 214.502 32.7528 214.428C32.6042 214.352 32.4844 214.249 32.3935 214.119C32.3035 213.989 32.2491 213.842 32.2301 213.679H32.8366C32.8603 213.785 32.91 213.867 32.9858 213.926C33.0616 213.984 33.1553 214.013 33.267 214.013C33.4564 214.013 33.6004 213.93 33.6989 213.766C33.7973 213.6 33.8471 213.373 33.848 213.085H33.8281C33.7846 213.17 33.7259 213.244 33.652 213.305C33.5781 213.366 33.4934 213.413 33.3977 213.446C33.303 213.479 33.2022 213.496 33.0952 213.496C32.9238 213.496 32.7708 213.455 32.6364 213.375C32.5019 213.295 32.3958 213.184 32.3182 213.043C32.2405 212.902 32.2017 212.741 32.2017 212.56C32.2008 212.365 32.2457 212.191 32.3366 212.038C32.4276 211.886 32.5545 211.767 32.7173 211.68C32.8812 211.593 33.0715 211.55 33.2884 211.551ZM33.2926 212.034C33.197 212.034 33.1117 212.057 33.0369 212.102C32.9631 212.148 32.9044 212.209 32.8608 212.286C32.8182 212.362 32.7973 212.448 32.7983 212.543C32.7983 212.638 32.8191 212.724 32.8608 212.801C32.9034 212.877 32.9612 212.937 33.0341 212.983C33.108 213.027 33.1922 213.05 33.2869 213.05C33.358 213.05 33.4238 213.036 33.4844 213.01C33.545 212.983 33.5975 212.947 33.642 212.901C33.6875 212.853 33.723 212.799 33.7486 212.737C33.7741 212.676 33.7869 212.61 33.7869 212.541C33.786 212.449 33.7642 212.365 33.7216 212.288C33.679 212.212 33.6203 212.15 33.5455 212.104C33.4706 212.057 33.3864 212.034 33.2926 212.034ZM36.089 211.551C36.2386 211.551 36.3825 211.576 36.5208 211.626C36.66 211.677 36.7841 211.757 36.893 211.866C37.0028 211.976 37.0895 212.122 37.1529 212.304C37.2173 212.485 37.25 212.707 37.2509 212.97C37.2509 213.217 37.223 213.438 37.1671 213.632C37.1122 213.825 37.0331 213.99 36.9299 214.125C36.8267 214.26 36.7021 214.364 36.5563 214.435C36.4105 214.505 36.2476 214.54 36.0677 214.54C35.8735 214.54 35.7021 214.502 35.5535 214.428C35.4048 214.352 35.285 214.249 35.1941 214.119C35.1041 213.989 35.0497 213.842 35.0307 213.679H35.6373C35.6609 213.785 35.7107 213.867 35.7864 213.926C35.8622 213.984 35.9559 214.013 36.0677 214.013C36.2571 214.013 36.401 213.93 36.4995 213.766C36.598 213.6 36.6477 213.373 36.6486 213.085H36.6288C36.5852 213.17 36.5265 213.244 36.4526 213.305C36.3788 213.366 36.294 213.413 36.1984 213.446C36.1037 213.479 36.0028 213.496 35.8958 213.496C35.7244 213.496 35.5715 213.455 35.437 213.375C35.3025 213.295 35.1965 213.184 35.1188 213.043C35.0412 212.902 35.0023 212.741 35.0023 212.56C35.0014 212.365 35.0464 212.191 35.1373 212.038C35.2282 211.886 35.3551 211.767 35.518 211.68C35.6818 211.593 35.8721 211.55 36.089 211.551ZM36.0932 212.034C35.9976 212.034 35.9124 212.057 35.8376 212.102C35.7637 212.148 35.705 212.209 35.6614 212.286C35.6188 212.362 35.598 212.448 35.5989 212.543C35.5989 212.638 35.6198 212.724 35.6614 212.801C35.704 212.877 35.7618 212.937 35.8347 212.983C35.9086 213.027 35.9929 213.05 36.0876 213.05C36.1586 213.05 36.2244 213.036 36.285 213.01C36.3456 212.983 36.3982 212.947 36.4427 212.901C36.4881 212.853 36.5236 212.799 36.5492 212.737C36.5748 212.676 36.5876 212.61 36.5876 212.541C36.5866 212.449 36.5648 212.365 36.5222 212.288C36.4796 212.212 36.4209 212.15 36.3461 212.104C36.2713 212.057 36.187 212.034 36.0932 212.034ZM38.3832 214.102L38.3676 214.259C38.3553 214.384 38.3316 214.508 38.2966 214.632C38.2625 214.757 38.2265 214.87 38.1886 214.972C38.1517 215.073 38.1218 215.152 38.0991 215.21H37.7071C37.7213 215.154 37.7407 215.076 37.7653 214.976C37.7899 214.876 37.8131 214.765 37.8349 214.641C37.8567 214.517 37.8704 214.39 37.8761 214.261L37.8832 214.102H38.3832ZM40.0887 211.551C40.2383 211.551 40.3822 211.576 40.5205 211.626C40.6597 211.677 40.7837 211.757 40.8926 211.866C41.0025 211.976 41.0891 212.122 41.1526 212.304C41.217 212.485 41.2496 212.707 41.2506 212.97C41.2506 213.217 41.2227 213.438 41.1668 213.632C41.1119 213.825 41.0328 213.99 40.9296 214.125C40.8264 214.26 40.7018 214.364 40.556 214.435C40.4102 214.505 40.2473 214.54 40.0674 214.54C39.8732 214.54 39.7018 214.502 39.5532 214.428C39.4045 214.352 39.2847 214.249 39.1938 214.119C39.1038 213.989 39.0494 213.842 39.0304 213.679H39.637C39.6606 213.785 39.7104 213.867 39.7861 213.926C39.8619 213.984 39.9556 214.013 40.0674 214.013C40.2568 214.013 40.4007 213.93 40.4992 213.766C40.5977 213.6 40.6474 213.373 40.6483 213.085H40.6284C40.5849 213.17 40.5262 213.244 40.4523 213.305C40.3784 213.366 40.2937 213.413 40.198 213.446C40.1033 213.479 40.0025 213.496 39.8955 213.496C39.7241 213.496 39.5711 213.455 39.4367 213.375C39.3022 213.295 39.1961 213.184 39.1185 213.043C39.0408 212.902 39.002 212.741 39.002 212.56C39.0011 212.365 39.0461 212.191 39.137 212.038C39.2279 211.886 39.3548 211.767 39.5176 211.68C39.6815 211.593 39.8718 211.55 40.0887 211.551ZM40.0929 212.034C39.9973 212.034 39.9121 212.057 39.8372 212.102C39.7634 212.148 39.7047 212.209 39.6611 212.286C39.6185 212.362 39.5977 212.448 39.5986 212.543C39.5986 212.638 39.6194 212.724 39.6611 212.801C39.7037 212.877 39.7615 212.937 39.8344 212.983C39.9083 213.027 39.9925 213.05 40.0872 213.05C40.1583 213.05 40.2241 213.036 40.2847 213.01C40.3453 212.983 40.3979 212.947 40.4424 212.901C40.4878 212.853 40.5233 212.799 40.5489 212.737C40.5745 212.676 40.5872 212.61 40.5872 212.541C40.5863 212.449 40.5645 212.365 40.5219 212.288C40.4793 212.212 40.4206 212.15 40.3458 212.104C40.271 212.057 40.1867 212.034 40.0929 212.034ZM42.814 214.864V211.227H43.047V214.864H42.814ZM43.4319 212.428C43.4205 212.313 43.3718 212.224 43.2856 212.161C43.1994 212.097 43.0825 212.065 42.9347 212.065C42.8344 212.065 42.7496 212.08 42.6805 212.108C42.6114 212.135 42.5583 212.174 42.5214 212.223C42.4854 212.272 42.4674 212.328 42.4674 212.391C42.4655 212.443 42.4764 212.488 42.5001 212.527C42.5247 212.566 42.5583 212.599 42.6009 212.628C42.6436 212.655 42.6928 212.679 42.7487 212.7C42.8045 212.72 42.8642 212.737 42.9276 212.751L43.189 212.814C43.3159 212.842 43.4324 212.88 43.5384 212.928C43.6445 212.975 43.7364 213.033 43.814 213.102C43.8917 213.171 43.9518 213.253 43.9944 213.347C44.038 213.44 44.0602 213.548 44.0612 213.669C44.0602 213.847 44.0148 214.001 43.9248 214.132C43.8358 214.262 43.707 214.363 43.5384 214.435C43.3708 214.506 43.1686 214.541 42.9319 214.541C42.6971 214.541 42.4925 214.505 42.3183 214.433C42.145 214.361 42.0096 214.255 41.912 214.114C41.8154 213.972 41.7648 213.796 41.76 213.587H42.3552C42.3618 213.684 42.3898 213.766 42.439 213.831C42.4892 213.895 42.556 213.944 42.6393 213.977C42.7236 214.009 42.8187 214.026 42.9248 214.026C43.029 214.026 43.1194 214.01 43.1961 213.98C43.2738 213.95 43.3339 213.908 43.3765 213.854C43.4191 213.8 43.4404 213.738 43.4404 213.668C43.4404 213.602 43.421 213.547 43.3822 213.503C43.3443 213.458 43.2884 213.42 43.2146 213.389C43.1417 213.358 43.0522 213.33 42.9461 213.304L42.6293 213.224C42.3841 213.165 42.1904 213.071 42.0484 212.945C41.9063 212.818 41.8358 212.647 41.8367 212.432C41.8358 212.256 41.8827 212.102 41.9774 211.97C42.073 211.839 42.2042 211.736 42.3708 211.662C42.5375 211.588 42.7269 211.551 42.939 211.551C43.1549 211.551 43.3434 211.588 43.5043 211.662C43.6663 211.736 43.7922 211.839 43.8822 211.97C43.9722 212.102 44.0186 212.254 44.0214 212.428H43.4319Z" fill="#BBBAC3"/>
</g>
<g clip-path="url(#clip5_1170_2644)">
<rect x="85" y="174" width="50" height="32" rx="2" fill="#504D65"/>
<circle cx="92.9375" cy="185.544" r="2" fill="#9A99A7"/>
<path d="M97.198 190.175L86.6396 199.973C86.2317 200.351 86 200.882 86 201.439V203C86 204.105 86.8954 205 88 205H132C133.105 205 134 204.105 134 203V193.714C134 193.304 133.874 192.904 133.64 192.568L127.789 184.191C127.024 183.097 125.422 183.044 124.588 184.086L112.722 198.907C112.002 199.807 110.672 199.913 109.818 199.14L99.9009 190.158C99.132 189.462 97.9584 189.469 97.198 190.175Z" fill="#9A99A7"/>
<rect x="111" y="210" width="24" height="6" rx="3" fill="#504D65"/>
<path d="M88.2884 211.551C88.438 211.551 88.5819 211.576 88.7202 211.626C88.8594 211.677 88.9834 211.757 89.0923 211.866C89.2022 211.976 89.2888 212.122 89.3523 212.304C89.4167 212.485 89.4493 212.707 89.4503 212.97C89.4503 213.217 89.4223 213.438 89.3665 213.632C89.3116 213.825 89.2325 213.99 89.1293 214.125C89.026 214.26 88.9015 214.364 88.7557 214.435C88.6098 214.505 88.447 214.54 88.267 214.54C88.0729 214.54 87.9015 214.502 87.7528 214.428C87.6042 214.352 87.4844 214.249 87.3935 214.119C87.3035 213.989 87.2491 213.842 87.2301 213.679H87.8366C87.8603 213.785 87.91 213.867 87.9858 213.926C88.0616 213.984 88.1553 214.013 88.267 214.013C88.4564 214.013 88.6004 213.93 88.6989 213.766C88.7973 213.6 88.8471 213.373 88.848 213.085H88.8281C88.7846 213.17 88.7259 213.244 88.652 213.305C88.5781 213.366 88.4934 213.413 88.3977 213.446C88.303 213.479 88.2022 213.496 88.0952 213.496C87.9238 213.496 87.7708 213.455 87.6364 213.375C87.5019 213.295 87.3958 213.184 87.3182 213.043C87.2405 212.902 87.2017 212.741 87.2017 212.56C87.2008 212.365 87.2457 212.191 87.3366 212.038C87.4276 211.886 87.5545 211.767 87.7173 211.68C87.8812 211.593 88.0715 211.55 88.2884 211.551ZM88.2926 212.034C88.197 212.034 88.1117 212.057 88.0369 212.102C87.9631 212.148 87.9044 212.209 87.8608 212.286C87.8182 212.362 87.7973 212.448 87.7983 212.543C87.7983 212.638 87.8191 212.724 87.8608 212.801C87.9034 212.877 87.9612 212.937 88.0341 212.983C88.108 213.027 88.1922 213.05 88.2869 213.05C88.358 213.05 88.4238 213.036 88.4844 213.01C88.545 212.983 88.5975 212.947 88.642 212.901C88.6875 212.853 88.723 212.799 88.7486 212.737C88.7741 212.676 88.7869 212.61 88.7869 212.541C88.786 212.449 88.7642 212.365 88.7216 212.288C88.679 212.212 88.6203 212.15 88.5455 212.104C88.4706 212.057 88.3864 212.034 88.2926 212.034ZM91.089 211.551C91.2386 211.551 91.3825 211.576 91.5208 211.626C91.66 211.677 91.7841 211.757 91.893 211.866C92.0028 211.976 92.0895 212.122 92.1529 212.304C92.2173 212.485 92.25 212.707 92.2509 212.97C92.2509 213.217 92.223 213.438 92.1671 213.632C92.1122 213.825 92.0331 213.99 91.9299 214.125C91.8267 214.26 91.7021 214.364 91.5563 214.435C91.4105 214.505 91.2476 214.54 91.0677 214.54C90.8735 214.54 90.7021 214.502 90.5535 214.428C90.4048 214.352 90.285 214.249 90.1941 214.119C90.1041 213.989 90.0497 213.842 90.0307 213.679H90.6373C90.6609 213.785 90.7107 213.867 90.7864 213.926C90.8622 213.984 90.9559 214.013 91.0677 214.013C91.2571 214.013 91.401 213.93 91.4995 213.766C91.598 213.6 91.6477 213.373 91.6486 213.085H91.6288C91.5852 213.17 91.5265 213.244 91.4526 213.305C91.3788 213.366 91.294 213.413 91.1984 213.446C91.1037 213.479 91.0028 213.496 90.8958 213.496C90.7244 213.496 90.5715 213.455 90.437 213.375C90.3025 213.295 90.1965 213.184 90.1188 213.043C90.0412 212.902 90.0023 212.741 90.0023 212.56C90.0014 212.365 90.0464 212.191 90.1373 212.038C90.2282 211.886 90.3551 211.767 90.518 211.68C90.6818 211.593 90.8721 211.55 91.089 211.551ZM91.0932 212.034C90.9976 212.034 90.9124 212.057 90.8376 212.102C90.7637 212.148 90.705 212.209 90.6614 212.286C90.6188 212.362 90.598 212.448 90.5989 212.543C90.5989 212.638 90.6198 212.724 90.6614 212.801C90.704 212.877 90.7618 212.937 90.8347 212.983C90.9086 213.027 90.9929 213.05 91.0876 213.05C91.1586 213.05 91.2244 213.036 91.285 213.01C91.3456 212.983 91.3982 212.947 91.4427 212.901C91.4881 212.853 91.5236 212.799 91.5492 212.737C91.5748 212.676 91.5876 212.61 91.5876 212.541C91.5866 212.449 91.5648 212.365 91.5222 212.288C91.4796 212.212 91.4209 212.15 91.3461 212.104C91.2713 212.057 91.187 212.034 91.0932 212.034ZM93.3832 214.102L93.3676 214.259C93.3553 214.384 93.3316 214.508 93.2966 214.632C93.2625 214.757 93.2265 214.87 93.1886 214.972C93.1517 215.073 93.1218 215.152 93.0991 215.21H92.7071C92.7213 215.154 92.7407 215.076 92.7653 214.976C92.7899 214.876 92.8131 214.765 92.8349 214.641C92.8567 214.517 92.8704 214.39 92.8761 214.261L92.8832 214.102H93.3832ZM95.0887 211.551C95.2383 211.551 95.3822 211.576 95.5205 211.626C95.6597 211.677 95.7837 211.757 95.8926 211.866C96.0025 211.976 96.0891 212.122 96.1526 212.304C96.217 212.485 96.2496 212.707 96.2506 212.97C96.2506 213.217 96.2227 213.438 96.1668 213.632C96.1119 213.825 96.0328 213.99 95.9296 214.125C95.8264 214.26 95.7018 214.364 95.556 214.435C95.4102 214.505 95.2473 214.54 95.0674 214.54C94.8732 214.54 94.7018 214.502 94.5532 214.428C94.4045 214.352 94.2847 214.249 94.1938 214.119C94.1038 213.989 94.0494 213.842 94.0304 213.679H94.637C94.6606 213.785 94.7104 213.867 94.7861 213.926C94.8619 213.984 94.9556 214.013 95.0674 214.013C95.2568 214.013 95.4007 213.93 95.4992 213.766C95.5977 213.6 95.6474 213.373 95.6483 213.085H95.6284C95.5849 213.17 95.5262 213.244 95.4523 213.305C95.3784 213.366 95.2937 213.413 95.198 213.446C95.1033 213.479 95.0025 213.496 94.8955 213.496C94.7241 213.496 94.5711 213.455 94.4367 213.375C94.3022 213.295 94.1961 213.184 94.1185 213.043C94.0408 212.902 94.002 212.741 94.002 212.56C94.0011 212.365 94.0461 212.191 94.137 212.038C94.2279 211.886 94.3548 211.767 94.5176 211.68C94.6815 211.593 94.8718 211.55 95.0887 211.551ZM95.0929 212.034C94.9973 212.034 94.9121 212.057 94.8372 212.102C94.7634 212.148 94.7047 212.209 94.6611 212.286C94.6185 212.362 94.5977 212.448 94.5986 212.543C94.5986 212.638 94.6194 212.724 94.6611 212.801C94.7037 212.877 94.7615 212.937 94.8344 212.983C94.9083 213.027 94.9925 213.05 95.0872 213.05C95.1583 213.05 95.2241 213.036 95.2847 213.01C95.3453 212.983 95.3979 212.947 95.4424 212.901C95.4878 212.853 95.5233 212.799 95.5489 212.737C95.5745 212.676 95.5872 212.61 95.5872 212.541C95.5863 212.449 95.5645 212.365 95.5219 212.288C95.4793 212.212 95.4206 212.15 95.3458 212.104C95.271 212.057 95.1867 212.034 95.0929 212.034ZM97.814 214.864V211.227H98.047V214.864H97.814ZM98.4319 212.428C98.4205 212.313 98.3718 212.224 98.2856 212.161C98.1994 212.097 98.0825 212.065 97.9347 212.065C97.8344 212.065 97.7496 212.08 97.6805 212.108C97.6114 212.135 97.5583 212.174 97.5214 212.223C97.4854 212.272 97.4674 212.328 97.4674 212.391C97.4655 212.443 97.4764 212.488 97.5001 212.527C97.5247 212.566 97.5583 212.599 97.6009 212.628C97.6436 212.655 97.6928 212.679 97.7487 212.7C97.8045 212.72 97.8642 212.737 97.9276 212.751L98.189 212.814C98.3159 212.842 98.4324 212.88 98.5384 212.928C98.6445 212.975 98.7364 213.033 98.814 213.102C98.8917 213.171 98.9518 213.253 98.9944 213.347C99.038 213.44 99.0602 213.548 99.0612 213.669C99.0602 213.847 99.0148 214.001 98.9248 214.132C98.8358 214.262 98.707 214.363 98.5384 214.435C98.3708 214.506 98.1686 214.541 97.9319 214.541C97.6971 214.541 97.4925 214.505 97.3183 214.433C97.145 214.361 97.0096 214.255 96.912 214.114C96.8154 213.972 96.7648 213.796 96.76 213.587H97.3552C97.3618 213.684 97.3898 213.766 97.439 213.831C97.4892 213.895 97.556 213.944 97.6393 213.977C97.7236 214.009 97.8187 214.026 97.9248 214.026C98.029 214.026 98.1194 214.01 98.1961 213.98C98.2738 213.95 98.3339 213.908 98.3765 213.854C98.4191 213.8 98.4404 213.738 98.4404 213.668C98.4404 213.602 98.421 213.547 98.3822 213.503C98.3443 213.458 98.2884 213.42 98.2146 213.389C98.1417 213.358 98.0522 213.33 97.9461 213.304L97.6293 213.224C97.3841 213.165 97.1904 213.071 97.0484 212.945C96.9063 212.818 96.8358 212.647 96.8367 212.432C96.8358 212.256 96.8827 212.102 96.9774 211.97C97.073 211.839 97.2042 211.736 97.3708 211.662C97.5375 211.588 97.7269 211.551 97.939 211.551C98.1549 211.551 98.3434 211.588 98.5043 211.662C98.6663 211.736 98.7922 211.839 98.8822 211.97C98.9722 212.102 99.0186 212.254 99.0214 212.428H98.4319Z" fill="#BBBAC3"/>
</g>
<g clip-path="url(#clip6_1170_2644)">
<rect x="140" y="174" width="50" height="32" rx="2" fill="#504D65"/>
<circle cx="147.938" cy="185.544" r="2" fill="#9A99A7"/>
<path d="M152.198 190.175L141.64 199.973C141.232 200.351 141 200.882 141 201.439V203C141 204.105 141.895 205 143 205H187C188.105 205 189 204.105 189 203V193.714C189 193.304 188.874 192.904 188.64 192.568L182.789 184.191C182.024 183.097 180.422 183.044 179.588 184.086L167.722 198.907C167.002 199.807 165.672 199.913 164.818 199.14L154.901 190.158C154.132 189.462 152.958 189.469 152.198 190.175Z" fill="#9A99A7"/>
<rect x="166" y="210" width="24" height="6" rx="3" fill="#504D65"/>
<path d="M143.288 211.551C143.438 211.551 143.582 211.576 143.72 211.626C143.859 211.677 143.983 211.757 144.092 211.866C144.202 211.976 144.289 212.122 144.352 212.304C144.417 212.485 144.449 212.707 144.45 212.97C144.45 213.217 144.422 213.438 144.366 213.632C144.312 213.825 144.232 213.99 144.129 214.125C144.026 214.26 143.902 214.364 143.756 214.435C143.61 214.505 143.447 214.54 143.267 214.54C143.073 214.54 142.902 214.502 142.753 214.428C142.604 214.352 142.484 214.249 142.393 214.119C142.304 213.989 142.249 213.842 142.23 213.679H142.837C142.86 213.785 142.91 213.867 142.986 213.926C143.062 213.984 143.155 214.013 143.267 214.013C143.456 214.013 143.6 213.93 143.699 213.766C143.797 213.6 143.847 213.373 143.848 213.085H143.828C143.785 213.17 143.726 213.244 143.652 213.305C143.578 213.366 143.493 213.413 143.398 213.446C143.303 213.479 143.202 213.496 143.095 213.496C142.924 213.496 142.771 213.455 142.636 213.375C142.502 213.295 142.396 213.184 142.318 213.043C142.241 212.902 142.202 212.741 142.202 212.56C142.201 212.365 142.246 212.191 142.337 212.038C142.428 211.886 142.554 211.767 142.717 211.68C142.881 211.593 143.071 211.55 143.288 211.551ZM143.293 212.034C143.197 212.034 143.112 212.057 143.037 212.102C142.963 212.148 142.904 212.209 142.861 212.286C142.818 212.362 142.797 212.448 142.798 212.543C142.798 212.638 142.819 212.724 142.861 212.801C142.903 212.877 142.961 212.937 143.034 212.983C143.108 213.027 143.192 213.05 143.287 213.05C143.358 213.05 143.424 213.036 143.484 213.01C143.545 212.983 143.598 212.947 143.642 212.901C143.688 212.853 143.723 212.799 143.749 212.737C143.774 212.676 143.787 212.61 143.787 212.541C143.786 212.449 143.764 212.365 143.722 212.288C143.679 212.212 143.62 212.15 143.545 212.104C143.471 212.057 143.386 212.034 143.293 212.034ZM146.089 211.551C146.239 211.551 146.383 211.576 146.521 211.626C146.66 211.677 146.784 211.757 146.893 211.866C147.003 211.976 147.089 212.122 147.153 212.304C147.217 212.485 147.25 212.707 147.251 212.97C147.251 213.217 147.223 213.438 147.167 213.632C147.112 213.825 147.033 213.99 146.93 214.125C146.827 214.26 146.702 214.364 146.556 214.435C146.41 214.505 146.248 214.54 146.068 214.54C145.874 214.54 145.702 214.502 145.553 214.428C145.405 214.352 145.285 214.249 145.194 214.119C145.104 213.989 145.05 213.842 145.031 213.679H145.637C145.661 213.785 145.711 213.867 145.786 213.926C145.862 213.984 145.956 214.013 146.068 214.013C146.257 214.013 146.401 213.93 146.499 213.766C146.598 213.6 146.648 213.373 146.649 213.085H146.629C146.585 213.17 146.526 213.244 146.453 213.305C146.379 213.366 146.294 213.413 146.198 213.446C146.104 213.479 146.003 213.496 145.896 213.496C145.724 213.496 145.571 213.455 145.437 213.375C145.303 213.295 145.196 213.184 145.119 213.043C145.041 212.902 145.002 212.741 145.002 212.56C145.001 212.365 145.046 212.191 145.137 212.038C145.228 211.886 145.355 211.767 145.518 211.68C145.682 211.593 145.872 211.55 146.089 211.551ZM146.093 212.034C145.998 212.034 145.912 212.057 145.838 212.102C145.764 212.148 145.705 212.209 145.661 212.286C145.619 212.362 145.598 212.448 145.599 212.543C145.599 212.638 145.62 212.724 145.661 212.801C145.704 212.877 145.762 212.937 145.835 212.983C145.909 213.027 145.993 213.05 146.088 213.05C146.159 213.05 146.224 213.036 146.285 213.01C146.346 212.983 146.398 212.947 146.443 212.901C146.488 212.853 146.524 212.799 146.549 212.737C146.575 212.676 146.588 212.61 146.588 212.541C146.587 212.449 146.565 212.365 146.522 212.288C146.48 212.212 146.421 212.15 146.346 212.104C146.271 212.057 146.187 212.034 146.093 212.034ZM148.383 214.102L148.368 214.259C148.355 214.384 148.332 214.508 148.297 214.632C148.262 214.757 148.226 214.87 148.189 214.972C148.152 215.073 148.122 215.152 148.099 215.21H147.707C147.721 215.154 147.741 215.076 147.765 214.976C147.79 214.876 147.813 214.765 147.835 214.641C147.857 214.517 147.87 214.39 147.876 214.261L147.883 214.102H148.383ZM150.089 211.551C150.238 211.551 150.382 211.576 150.52 211.626C150.66 211.677 150.784 211.757 150.893 211.866C151.002 211.976 151.089 212.122 151.153 212.304C151.217 212.485 151.25 212.707 151.251 212.97C151.251 213.217 151.223 213.438 151.167 213.632C151.112 213.825 151.033 213.99 150.93 214.125C150.826 214.26 150.702 214.364 150.556 214.435C150.41 214.505 150.247 214.54 150.067 214.54C149.873 214.54 149.702 214.502 149.553 214.428C149.404 214.352 149.285 214.249 149.194 214.119C149.104 213.989 149.049 213.842 149.03 213.679H149.637C149.661 213.785 149.71 213.867 149.786 213.926C149.862 213.984 149.956 214.013 150.067 214.013C150.257 214.013 150.401 213.93 150.499 213.766C150.598 213.6 150.647 213.373 150.648 213.085H150.628C150.585 213.17 150.526 213.244 150.452 213.305C150.378 213.366 150.294 213.413 150.198 213.446C150.103 213.479 150.002 213.496 149.895 213.496C149.724 213.496 149.571 213.455 149.437 213.375C149.302 213.295 149.196 213.184 149.118 213.043C149.041 212.902 149.002 212.741 149.002 212.56C149.001 212.365 149.046 212.191 149.137 212.038C149.228 211.886 149.355 211.767 149.518 211.68C149.681 211.593 149.872 211.55 150.089 211.551ZM150.093 212.034C149.997 212.034 149.912 212.057 149.837 212.102C149.763 212.148 149.705 212.209 149.661 212.286C149.618 212.362 149.598 212.448 149.599 212.543C149.599 212.638 149.619 212.724 149.661 212.801C149.704 212.877 149.761 212.937 149.834 212.983C149.908 213.027 149.993 213.05 150.087 213.05C150.158 213.05 150.224 213.036 150.285 213.01C150.345 212.983 150.398 212.947 150.442 212.901C150.488 212.853 150.523 212.799 150.549 212.737C150.574 212.676 150.587 212.61 150.587 212.541C150.586 212.449 150.565 212.365 150.522 212.288C150.479 212.212 150.421 212.15 150.346 212.104C150.271 212.057 150.187 212.034 150.093 212.034ZM152.814 214.864V211.227H153.047V214.864H152.814ZM153.432 212.428C153.421 212.313 153.372 212.224 153.286 212.161C153.199 212.097 153.082 212.065 152.935 212.065C152.834 212.065 152.75 212.08 152.68 212.108C152.611 212.135 152.558 212.174 152.521 212.223C152.485 212.272 152.467 212.328 152.467 212.391C152.466 212.443 152.476 212.488 152.5 212.527C152.525 212.566 152.558 212.599 152.601 212.628C152.644 212.655 152.693 212.679 152.749 212.7C152.805 212.72 152.864 212.737 152.928 212.751L153.189 212.814C153.316 212.842 153.432 212.88 153.538 212.928C153.644 212.975 153.736 213.033 153.814 213.102C153.892 213.171 153.952 213.253 153.994 213.347C154.038 213.44 154.06 213.548 154.061 213.669C154.06 213.847 154.015 214.001 153.925 214.132C153.836 214.262 153.707 214.363 153.538 214.435C153.371 214.506 153.169 214.541 152.932 214.541C152.697 214.541 152.493 214.505 152.318 214.433C152.145 214.361 152.01 214.255 151.912 214.114C151.815 213.972 151.765 213.796 151.76 213.587H152.355C152.362 213.684 152.39 213.766 152.439 213.831C152.489 213.895 152.556 213.944 152.639 213.977C152.724 214.009 152.819 214.026 152.925 214.026C153.029 214.026 153.119 214.01 153.196 213.98C153.274 213.95 153.334 213.908 153.377 213.854C153.419 213.8 153.44 213.738 153.44 213.668C153.44 213.602 153.421 213.547 153.382 213.503C153.344 213.458 153.288 213.42 153.215 213.389C153.142 213.358 153.052 213.33 152.946 213.304L152.629 213.224C152.384 213.165 152.19 213.071 152.048 212.945C151.906 212.818 151.836 212.647 151.837 212.432C151.836 212.256 151.883 212.102 151.977 211.97C152.073 211.839 152.204 211.736 152.371 211.662C152.537 211.588 152.727 211.551 152.939 211.551C153.155 211.551 153.343 211.588 153.504 211.662C153.666 211.736 153.792 211.839 153.882 211.97C153.972 212.102 154.019 212.254 154.021 212.428H153.432Z" fill="#BBBAC3"/>
</g>
<defs>
<clipPath id="clip0_1170_2644">
<rect x="30" y="17" width="92" height="47" rx="2" fill="white"/>
</clipPath>
<clipPath id="clip1_1170_2644">
<rect x="30" y="68" width="28" height="18" rx="2" fill="white"/>
</clipPath>
<clipPath id="clip2_1170_2644">
<rect x="62" y="68" width="28" height="18" rx="2" fill="white"/>
</clipPath>
<clipPath id="clip3_1170_2644">
<rect x="94" y="68" width="28" height="18" rx="2" fill="white"/>
</clipPath>
<clipPath id="clip4_1170_2644">
<rect x="30" y="174" width="50" height="42" rx="2" fill="white"/>
</clipPath>
<clipPath id="clip5_1170_2644">
<rect x="85" y="174" width="50" height="42" rx="2" fill="white"/>
</clipPath>
<clipPath id="clip6_1170_2644">
<rect x="140" y="174" width="50" height="42" rx="2" fill="white"/>
</clipPath>
</defs>
</svg>
