<svg width="220" height="240" viewBox="0 0 220 240" fill="none" xmlns="http://www.w3.org/2000/svg">
<rect width="220" height="240" rx="6" fill="#24213F"/>
<rect x="81" y="52" width="58" height="58" rx="29" fill="#504D65"/>
<path d="M35.4416 130L33.3607 122.727H35.0404L36.2442 127.781H36.3046L37.6327 122.727H39.0709L40.3955 127.791H40.4594L41.6632 122.727H43.3429L41.262 130H39.7634L38.3784 125.245H38.3216L36.9402 130H35.4416ZM46.4373 130.107C45.8763 130.107 45.3933 129.993 44.9885 129.766C44.586 129.536 44.2759 129.212 44.0581 128.793C43.8403 128.371 43.7314 127.873 43.7314 127.298C43.7314 126.737 43.8403 126.244 44.0581 125.82C44.2759 125.397 44.5825 125.066 44.9778 124.83C45.3756 124.593 45.8419 124.474 46.377 124.474C46.7368 124.474 47.0718 124.532 47.3819 124.648C47.6944 124.762 47.9667 124.934 48.1987 125.163C48.4331 125.393 48.6154 125.682 48.7456 126.03C48.8758 126.375 48.9409 126.78 48.9409 127.244V127.66H44.3351V126.722H47.5169C47.5169 126.504 47.4695 126.312 47.3748 126.143C47.2801 125.975 47.1488 125.844 46.9807 125.749C46.8149 125.652 46.622 125.604 46.4018 125.604C46.1722 125.604 45.9686 125.657 45.791 125.763C45.6158 125.868 45.4785 126.009 45.3791 126.186C45.2797 126.361 45.2288 126.557 45.2264 126.772V127.663C45.2264 127.933 45.2761 128.166 45.3756 128.363C45.4774 128.559 45.6206 128.711 45.8052 128.817C45.9899 128.924 46.2089 128.977 46.4622 128.977C46.6303 128.977 46.7842 128.954 46.9238 128.906C47.0635 128.859 47.1831 128.788 47.2825 128.693C47.3819 128.598 47.4577 128.482 47.5098 128.345L48.9089 128.438C48.8379 128.774 48.6923 129.067 48.4721 129.318C48.2543 129.567 47.9726 129.761 47.627 129.901C47.2837 130.038 46.8872 130.107 46.4373 130.107ZM54.5553 126.847V130H53.0426V122.727H54.5127V125.508H54.5767C54.6998 125.186 54.8986 124.934 55.1732 124.751C55.4479 124.567 55.7923 124.474 56.2066 124.474C56.5854 124.474 56.9157 124.557 57.1974 124.723C57.4815 124.886 57.7017 125.122 57.8579 125.43C58.0165 125.735 58.0946 126.101 58.0923 126.527V130H56.5795V126.797C56.5819 126.461 56.4966 126.199 56.3238 126.012C56.1534 125.825 55.9142 125.732 55.6065 125.732C55.4005 125.732 55.2182 125.775 55.0596 125.863C54.9034 125.951 54.7803 126.078 54.6903 126.246C54.6027 126.412 54.5577 126.612 54.5553 126.847ZM61.2382 130.103C60.8902 130.103 60.5801 130.043 60.3078 129.922C60.0355 129.799 59.8201 129.618 59.6615 129.379C59.5052 129.137 59.4271 128.836 59.4271 128.477C59.4271 128.174 59.4827 127.919 59.594 127.713C59.7053 127.507 59.8568 127.341 60.0486 127.216C60.2403 127.09 60.4581 126.996 60.702 126.932C60.9482 126.868 61.2062 126.823 61.4761 126.797C61.7934 126.764 62.049 126.733 62.2432 126.705C62.4373 126.674 62.5782 126.629 62.6658 126.57C62.7533 126.51 62.7971 126.423 62.7971 126.307V126.286C62.7971 126.061 62.7261 125.887 62.5841 125.763C62.4444 125.64 62.2455 125.579 61.9875 125.579C61.7152 125.579 61.4986 125.639 61.3376 125.76C61.1766 125.878 61.0701 126.027 61.018 126.207L59.6189 126.094C59.6899 125.762 59.8296 125.476 60.0379 125.234C60.2462 124.991 60.5149 124.804 60.844 124.673C61.1755 124.541 61.559 124.474 61.9946 124.474C62.2976 124.474 62.5876 124.51 62.8646 124.581C63.144 124.652 63.3914 124.762 63.6068 124.911C63.8246 125.06 63.9962 125.252 64.1217 125.487C64.2472 125.719 64.3099 125.997 64.3099 126.321V130H62.8753V129.244H62.8327C62.7451 129.414 62.6279 129.564 62.4811 129.695C62.3343 129.822 62.1579 129.923 61.952 129.996C61.746 130.067 61.5081 130.103 61.2382 130.103ZM61.6714 129.059C61.894 129.059 62.0905 129.015 62.2609 128.928C62.4314 128.838 62.5651 128.717 62.6622 128.565C62.7593 128.414 62.8078 128.242 62.8078 128.05V127.472C62.7604 127.502 62.6953 127.531 62.6125 127.557C62.532 127.58 62.4408 127.603 62.339 127.624C62.2372 127.643 62.1354 127.661 62.0336 127.678C61.9318 127.692 61.8395 127.705 61.7567 127.717C61.5791 127.743 61.424 127.784 61.2915 127.841C61.1589 127.898 61.0559 127.975 60.9825 128.072C60.9091 128.166 60.8724 128.285 60.8724 128.427C60.8724 128.633 60.947 128.79 61.0961 128.899C61.2477 129.006 61.4394 129.059 61.6714 129.059ZM70.7735 124.545L68.8665 130H67.162L65.255 124.545H66.853L67.9859 128.448H68.0427L69.1719 124.545H70.7735ZM74.2577 130.107C73.6966 130.107 73.2136 129.993 72.8088 129.766C72.4063 129.536 72.0962 129.212 71.8784 128.793C71.6606 128.371 71.5517 127.873 71.5517 127.298C71.5517 126.737 71.6606 126.244 71.8784 125.82C72.0962 125.397 72.4028 125.066 72.7981 124.83C73.1959 124.593 73.6622 124.474 74.1973 124.474C74.5571 124.474 74.8921 124.532 75.2023 124.648C75.5148 124.762 75.787 124.934 76.019 125.163C76.2534 125.393 76.4357 125.682 76.5659 126.03C76.6961 126.375 76.7612 126.78 76.7612 127.244V127.66H72.1554V126.722H75.3372C75.3372 126.504 75.2899 126.312 75.1952 126.143C75.1005 125.975 74.9691 125.844 74.801 125.749C74.6353 125.652 74.4423 125.604 74.2221 125.604C73.9925 125.604 73.7889 125.657 73.6113 125.763C73.4362 125.868 73.2988 126.009 73.1994 126.186C73.1 126.361 73.0491 126.557 73.0467 126.772V127.663C73.0467 127.933 73.0964 128.166 73.1959 128.363C73.2977 128.559 73.4409 128.711 73.6256 128.817C73.8102 128.924 74.0292 128.977 74.2825 128.977C74.4506 128.977 74.6045 128.954 74.7442 128.906C74.8838 128.859 75.0034 128.788 75.1028 128.693C75.2023 128.598 75.278 128.482 75.3301 128.345L76.7292 128.438C76.6582 128.774 76.5126 129.067 76.2925 129.318C76.0747 129.567 75.7929 129.761 75.4473 129.901C75.104 130.038 74.7075 130.107 74.2577 130.107ZM80.8629 130V124.545H82.3295V125.497H82.3863C82.4857 125.159 82.6526 124.903 82.887 124.73C83.1214 124.555 83.3913 124.467 83.6967 124.467C83.7724 124.467 83.8541 124.472 83.9417 124.482C84.0293 124.491 84.1062 124.504 84.1725 124.521V125.863C84.1015 125.842 84.0033 125.823 83.8778 125.806C83.7523 125.79 83.6375 125.781 83.5333 125.781C83.3108 125.781 83.1119 125.83 82.9367 125.927C82.7639 126.022 82.6266 126.154 82.5248 126.325C82.4254 126.495 82.3757 126.692 82.3757 126.914V130H80.8629ZM87.5866 130.107C87.0255 130.107 86.5425 129.993 86.1377 129.766C85.7352 129.536 85.4251 129.212 85.2073 128.793C84.9895 128.371 84.8806 127.873 84.8806 127.298C84.8806 126.737 84.9895 126.244 85.2073 125.82C85.4251 125.397 85.7317 125.066 86.127 124.83C86.5248 124.593 86.9912 124.474 87.5262 124.474C87.886 124.474 88.221 124.532 88.5312 124.648C88.8437 124.762 89.1159 124.934 89.3479 125.163C89.5823 125.393 89.7646 125.682 89.8948 126.03C90.025 126.375 90.0901 126.78 90.0901 127.244V127.66H85.4843V126.722H88.6661C88.6661 126.504 88.6188 126.312 88.5241 126.143C88.4294 125.975 88.298 125.844 88.1299 125.749C87.9642 125.652 87.7712 125.604 87.551 125.604C87.3214 125.604 87.1178 125.657 86.9403 125.763C86.7651 125.868 86.6278 126.009 86.5283 126.186C86.4289 126.361 86.378 126.557 86.3756 126.772V127.663C86.3756 127.933 86.4253 128.166 86.5248 128.363C86.6266 128.559 86.7698 128.711 86.9545 128.817C87.1391 128.924 87.3581 128.977 87.6114 128.977C87.7795 128.977 87.9334 128.954 88.0731 128.906C88.2127 128.859 88.3323 128.788 88.4317 128.693C88.5312 128.598 88.6069 128.482 88.659 128.345L90.0582 128.438C89.9871 128.774 89.8415 129.067 89.6214 129.318C89.4036 129.567 89.1218 129.761 88.7762 129.901C88.4329 130.038 88.0364 130.107 87.5866 130.107ZM93.9418 130.107C93.3831 130.107 92.9025 129.988 92.5001 129.751C92.1 129.512 91.7922 129.181 91.5768 128.757C91.3637 128.333 91.2572 127.846 91.2572 127.294C91.2572 126.735 91.3649 126.245 91.5803 125.824C91.7981 125.4 92.1071 125.07 92.5072 124.833C92.9073 124.594 93.3831 124.474 93.9347 124.474C94.4106 124.474 94.8272 124.561 95.1847 124.734C95.5422 124.906 95.8251 125.149 96.0334 125.462C96.2418 125.774 96.3566 126.141 96.3779 126.562H94.9503C94.9101 126.29 94.8036 126.071 94.6307 125.906C94.4603 125.737 94.2366 125.653 93.9596 125.653C93.7252 125.653 93.5204 125.717 93.3452 125.845C93.1724 125.971 93.0375 126.154 92.9404 126.396C92.8433 126.637 92.7948 126.929 92.7948 127.273C92.7948 127.621 92.8421 127.917 92.9368 128.161C93.0339 128.404 93.17 128.59 93.3452 128.718C93.5204 128.846 93.7252 128.91 93.9596 128.91C94.1324 128.91 94.2875 128.874 94.4248 128.803C94.5644 128.732 94.6793 128.629 94.7692 128.494C94.8616 128.357 94.9219 128.192 94.9503 128.001H96.3779C96.3542 128.417 96.2406 128.784 96.037 129.102C95.8358 129.416 95.5576 129.663 95.2025 129.84C94.8474 130.018 94.4271 130.107 93.9418 130.107ZM100.232 130.107C99.6712 130.107 99.1882 129.993 98.7834 129.766C98.3809 129.536 98.0708 129.212 97.853 128.793C97.6352 128.371 97.5263 127.873 97.5263 127.298C97.5263 126.737 97.6352 126.244 97.853 125.82C98.0708 125.397 98.3774 125.066 98.7727 124.83C99.1705 124.593 99.6369 124.474 100.172 124.474C100.532 124.474 100.867 124.532 101.177 124.648C101.489 124.762 101.762 124.934 101.994 125.163C102.228 125.393 102.41 125.682 102.541 126.03C102.671 126.375 102.736 126.78 102.736 127.244V127.66H98.13V126.722H101.312C101.312 126.504 101.264 126.312 101.17 126.143C101.075 125.975 100.944 125.844 100.776 125.749C100.61 125.652 100.417 125.604 100.197 125.604C99.9671 125.604 99.7635 125.657 99.586 125.763C99.4108 125.868 99.2735 126.009 99.174 126.186C99.0746 126.361 99.0237 126.557 99.0213 126.772V127.663C99.0213 127.933 99.071 128.166 99.1705 128.363C99.2723 128.559 99.4155 128.711 99.6002 128.817C99.7848 128.924 100.004 128.977 100.257 128.977C100.425 128.977 100.579 128.954 100.719 128.906C100.858 128.859 100.978 128.788 101.077 128.693C101.177 128.598 101.253 128.482 101.305 128.345L102.704 128.438C102.633 128.774 102.487 129.067 102.267 129.318C102.049 129.567 101.768 129.761 101.422 129.901C101.079 130.038 100.682 130.107 100.232 130.107ZM104.123 130V124.545H105.636V130H104.123ZM104.883 123.842C104.658 123.842 104.465 123.768 104.304 123.619C104.146 123.467 104.066 123.286 104.066 123.075C104.066 122.867 104.146 122.688 104.304 122.539C104.465 122.388 104.658 122.312 104.883 122.312C105.108 122.312 105.3 122.388 105.458 122.539C105.619 122.688 105.7 122.867 105.7 123.075C105.7 123.286 105.619 123.467 105.458 123.619C105.3 123.768 105.108 123.842 104.883 123.842ZM112.333 124.545L110.426 130H108.721L106.814 124.545H108.412L109.545 128.448H109.602L110.731 124.545H112.333ZM115.817 130.107C115.256 130.107 114.773 129.993 114.368 129.766C113.966 129.536 113.656 129.212 113.438 128.793C113.22 128.371 113.111 127.873 113.111 127.298C113.111 126.737 113.22 126.244 113.438 125.82C113.656 125.397 113.962 125.066 114.358 124.83C114.755 124.593 115.222 124.474 115.757 124.474C116.117 124.474 116.451 124.532 116.762 124.648C117.074 124.762 117.346 124.934 117.578 125.163C117.813 125.393 117.995 125.682 118.125 126.03C118.255 126.375 118.321 126.78 118.321 127.244V127.66H113.715V126.722H116.897C116.897 126.504 116.849 126.312 116.755 126.143C116.66 125.975 116.528 125.844 116.36 125.749C116.195 125.652 116.002 125.604 115.782 125.604C115.552 125.604 115.348 125.657 115.171 125.763C114.996 125.868 114.858 126.009 114.759 126.186C114.659 126.361 114.608 126.557 114.606 126.772V127.663C114.606 127.933 114.656 128.166 114.755 128.363C114.857 128.559 115 128.711 115.185 128.817C115.37 128.924 115.589 128.977 115.842 128.977C116.01 128.977 116.164 128.954 116.304 128.906C116.443 128.859 116.563 128.788 116.662 128.693C116.762 128.598 116.837 128.482 116.889 128.345L118.289 128.438C118.218 128.774 118.072 129.067 117.852 129.318C117.634 129.567 117.352 129.761 117.007 129.901C116.663 130.038 116.267 130.107 115.817 130.107ZM121.718 130.089C121.303 130.089 120.928 129.982 120.592 129.769C120.258 129.554 119.993 129.238 119.797 128.821C119.602 128.402 119.505 127.888 119.505 127.28C119.505 126.655 119.606 126.135 119.807 125.721C120.008 125.304 120.276 124.993 120.61 124.787C120.946 124.579 121.314 124.474 121.714 124.474C122.02 124.474 122.274 124.527 122.478 124.631C122.684 124.732 122.849 124.86 122.975 125.014C123.103 125.166 123.2 125.315 123.266 125.462H123.312V122.727H124.821V130H123.33V129.126H123.266C123.195 129.278 123.094 129.428 122.964 129.577C122.836 129.724 122.669 129.846 122.463 129.943C122.26 130.04 122.011 130.089 121.718 130.089ZM122.197 128.885C122.441 128.885 122.647 128.819 122.815 128.686C122.985 128.551 123.116 128.363 123.206 128.121C123.298 127.88 123.344 127.597 123.344 127.273C123.344 126.948 123.299 126.667 123.209 126.428C123.119 126.188 122.989 126.004 122.819 125.874C122.648 125.743 122.441 125.678 122.197 125.678C121.949 125.678 121.739 125.746 121.569 125.881C121.398 126.016 121.269 126.203 121.182 126.442C121.094 126.681 121.05 126.958 121.05 127.273C121.05 127.59 121.094 127.871 121.182 128.114C121.271 128.356 121.401 128.545 121.569 128.683C121.739 128.817 121.949 128.885 122.197 128.885ZM130.114 132.045C129.922 132.045 129.742 132.03 129.574 131.999C129.408 131.971 129.271 131.934 129.162 131.889L129.503 130.76C129.68 130.814 129.84 130.844 129.982 130.849C130.127 130.853 130.251 130.82 130.355 130.749C130.462 130.678 130.548 130.558 130.614 130.387L130.703 130.156L128.746 124.545H130.337L131.467 128.551H131.523L132.663 124.545H134.265L132.145 130.589C132.043 130.883 131.905 131.139 131.729 131.357C131.557 131.577 131.338 131.746 131.072 131.864C130.807 131.985 130.488 132.045 130.114 132.045ZM137.728 130.107C137.176 130.107 136.699 129.989 136.297 129.755C135.897 129.518 135.588 129.189 135.37 128.768C135.152 128.344 135.043 127.853 135.043 127.294C135.043 126.731 135.152 126.238 135.37 125.817C135.588 125.393 135.897 125.064 136.297 124.83C136.699 124.593 137.176 124.474 137.728 124.474C138.279 124.474 138.755 124.593 139.155 124.83C139.558 125.064 139.868 125.393 140.086 125.817C140.304 126.238 140.412 126.731 140.412 127.294C140.412 127.853 140.304 128.344 140.086 128.768C139.868 129.189 139.558 129.518 139.155 129.755C138.755 129.989 138.279 130.107 137.728 130.107ZM137.735 128.935C137.986 128.935 138.195 128.864 138.363 128.722C138.531 128.577 138.658 128.381 138.743 128.132C138.831 127.884 138.875 127.601 138.875 127.283C138.875 126.966 138.831 126.683 138.743 126.435C138.658 126.186 138.531 125.99 138.363 125.845C138.195 125.701 137.986 125.629 137.735 125.629C137.482 125.629 137.268 125.701 137.096 125.845C136.925 125.99 136.796 126.186 136.709 126.435C136.623 126.683 136.581 126.966 136.581 127.283C136.581 127.601 136.623 127.884 136.709 128.132C136.796 128.381 136.925 128.577 137.096 128.722C137.268 128.864 137.482 128.935 137.735 128.935ZM145.294 127.678V124.545H146.807V130H145.354V129.009H145.297C145.174 129.329 144.97 129.586 144.683 129.78C144.399 129.974 144.052 130.071 143.643 130.071C143.278 130.071 142.957 129.988 142.68 129.822C142.403 129.657 142.187 129.421 142.03 129.116C141.877 128.81 141.798 128.445 141.796 128.018V124.545H143.309V127.749C143.311 128.071 143.398 128.325 143.568 128.512C143.739 128.699 143.967 128.793 144.253 128.793C144.436 128.793 144.606 128.751 144.765 128.668C144.923 128.583 145.051 128.458 145.148 128.292C145.248 128.126 145.296 127.921 145.294 127.678ZM148.417 130V124.545H149.883V125.497H149.94C150.04 125.159 150.207 124.903 150.441 124.73C150.675 124.555 150.945 124.467 151.251 124.467C151.326 124.467 151.408 124.472 151.496 124.482C151.583 124.491 151.66 124.504 151.726 124.521V125.863C151.655 125.842 151.557 125.823 151.432 125.806C151.306 125.79 151.191 125.781 151.087 125.781C150.865 125.781 150.666 125.83 150.491 125.927C150.318 126.022 150.181 126.154 150.079 126.325C149.979 126.495 149.93 126.692 149.93 126.914V130H148.417ZM158.088 130.107C157.536 130.107 157.059 129.989 156.656 129.755C156.256 129.518 155.947 129.189 155.73 128.768C155.512 128.344 155.403 127.853 155.403 127.294C155.403 126.731 155.512 126.238 155.73 125.817C155.947 125.393 156.256 125.064 156.656 124.83C157.059 124.593 157.536 124.474 158.088 124.474C158.639 124.474 159.115 124.593 159.515 124.83C159.918 125.064 160.228 125.393 160.445 125.817C160.663 126.238 160.772 126.731 160.772 127.294C160.772 127.853 160.663 128.344 160.445 128.768C160.228 129.189 159.918 129.518 159.515 129.755C159.115 129.989 158.639 130.107 158.088 130.107ZM158.095 128.935C158.346 128.935 158.555 128.864 158.723 128.722C158.891 128.577 159.018 128.381 159.103 128.132C159.191 127.884 159.235 127.601 159.235 127.283C159.235 126.966 159.191 126.683 159.103 126.435C159.018 126.186 158.891 125.99 158.723 125.845C158.555 125.701 158.346 125.629 158.095 125.629C157.841 125.629 157.628 125.701 157.455 125.845C157.285 125.99 157.156 126.186 157.068 126.435C156.983 126.683 156.941 126.966 156.941 127.283C156.941 127.601 156.983 127.884 157.068 128.132C157.156 128.381 157.285 128.577 157.455 128.722C157.628 128.864 157.841 128.935 158.095 128.935ZM162.156 130V124.545H163.622V125.497H163.679C163.779 125.159 163.946 124.903 164.18 124.73C164.414 124.555 164.684 124.467 164.99 124.467C165.065 124.467 165.147 124.472 165.235 124.482C165.322 124.491 165.399 124.504 165.466 124.521V125.863C165.394 125.842 165.296 125.823 165.171 125.806C165.045 125.79 164.93 125.781 164.826 125.781C164.604 125.781 164.405 125.83 164.23 125.927C164.057 126.022 163.92 126.154 163.818 126.325C163.718 126.495 163.669 126.692 163.669 126.914V130H162.156ZM168.404 130.089C167.989 130.089 167.614 129.982 167.278 129.769C166.944 129.554 166.679 129.238 166.483 128.821C166.288 128.402 166.191 127.888 166.191 127.28C166.191 126.655 166.292 126.135 166.493 125.721C166.694 125.304 166.962 124.993 167.296 124.787C167.632 124.579 168 124.474 168.4 124.474C168.706 124.474 168.96 124.527 169.164 124.631C169.37 124.732 169.535 124.86 169.661 125.014C169.789 125.166 169.886 125.315 169.952 125.462H169.998V122.727H171.507V130H170.016V129.126H169.952C169.881 129.278 169.78 129.428 169.65 129.577C169.522 129.724 169.355 129.846 169.149 129.943C168.946 130.04 168.697 130.089 168.404 130.089ZM168.883 128.885C169.127 128.885 169.333 128.819 169.501 128.686C169.671 128.551 169.802 128.363 169.892 128.121C169.984 127.88 170.03 127.597 170.03 127.273C170.03 126.948 169.985 126.667 169.895 126.428C169.805 126.188 169.675 126.004 169.505 125.874C169.334 125.743 169.127 125.678 168.883 125.678C168.634 125.678 168.425 125.746 168.255 125.881C168.084 126.016 167.955 126.203 167.867 126.442C167.78 126.681 167.736 126.958 167.736 127.273C167.736 127.59 167.78 127.871 167.867 128.114C167.957 128.356 168.086 128.545 168.255 128.683C168.425 128.817 168.634 128.885 168.883 128.885ZM175.637 130.107C175.076 130.107 174.593 129.993 174.188 129.766C173.786 129.536 173.475 129.212 173.258 128.793C173.04 128.371 172.931 127.873 172.931 127.298C172.931 126.737 173.04 126.244 173.258 125.82C173.475 125.397 173.782 125.066 174.177 124.83C174.575 124.593 175.042 124.474 175.577 124.474C175.936 124.474 176.271 124.532 176.582 124.648C176.894 124.762 177.166 124.934 177.398 125.163C177.633 125.393 177.815 125.682 177.945 126.03C178.075 126.375 178.14 126.78 178.14 127.244V127.66H173.535V126.722H176.716C176.716 126.504 176.669 126.312 176.574 126.143C176.48 125.975 176.348 125.844 176.18 125.749C176.015 125.652 175.822 125.604 175.601 125.604C175.372 125.604 175.168 125.657 174.991 125.763C174.815 125.868 174.678 126.009 174.579 126.186C174.479 126.361 174.428 126.557 174.426 126.772V127.663C174.426 127.933 174.476 128.166 174.575 128.363C174.677 128.559 174.82 128.711 175.005 128.817C175.19 128.924 175.408 128.977 175.662 128.977C175.83 128.977 175.984 128.954 176.123 128.906C176.263 128.859 176.383 128.788 176.482 128.693C176.582 128.598 176.657 128.482 176.709 128.345L178.109 128.438C178.038 128.774 177.892 129.067 177.672 129.318C177.454 129.567 177.172 129.761 176.827 129.901C176.483 130.038 176.087 130.107 175.637 130.107ZM179.528 130V124.545H180.994V125.497H181.051C181.151 125.159 181.317 124.903 181.552 124.73C181.786 124.555 182.056 124.467 182.362 124.467C182.437 124.467 182.519 124.472 182.607 124.482C182.694 124.491 182.771 124.504 182.837 124.521V125.863C182.766 125.842 182.668 125.823 182.543 125.806C182.417 125.79 182.302 125.781 182.198 125.781C181.976 125.781 181.777 125.83 181.602 125.927C181.429 126.022 181.291 126.154 181.19 126.325C181.09 126.495 181.04 126.692 181.04 126.914V130H179.528ZM184.279 130.092C184.044 130.092 183.843 130.009 183.675 129.844C183.509 129.676 183.426 129.474 183.426 129.24C183.426 129.008 183.509 128.809 183.675 128.643C183.843 128.478 184.044 128.395 184.279 128.395C184.506 128.395 184.705 128.478 184.875 128.643C185.046 128.809 185.131 129.008 185.131 129.24C185.131 129.396 185.091 129.54 185.01 129.67C184.932 129.798 184.829 129.901 184.701 129.979C184.574 130.054 184.433 130.092 184.279 130.092ZM80.8774 135.995V134.727H86.8504V135.995H84.6238V142H83.1039V135.995H80.8774ZM89.7184 138.847V142H88.2056V134.727H89.6758V137.508H89.7397C89.8628 137.186 90.0617 136.934 90.3363 136.751C90.611 136.567 90.9554 136.474 91.3697 136.474C91.7485 136.474 92.0788 136.557 92.3605 136.723C92.6446 136.886 92.8647 137.122 93.021 137.43C93.1796 137.735 93.2577 138.101 93.2554 138.527V142H91.7426V138.797C91.7449 138.461 91.6597 138.199 91.4869 138.012C91.3164 137.825 91.0773 137.732 90.7696 137.732C90.5636 137.732 90.3813 137.775 90.2227 137.863C90.0664 137.951 89.9433 138.078 89.8534 138.246C89.7658 138.412 89.7208 138.612 89.7184 138.847ZM96.4013 142.103C96.0533 142.103 95.7431 142.043 95.4709 141.922C95.1986 141.799 94.9832 141.618 94.8246 141.379C94.6683 141.137 94.5902 140.836 94.5902 140.477C94.5902 140.174 94.6458 139.919 94.7571 139.713C94.8684 139.507 95.0199 139.341 95.2116 139.216C95.4034 139.09 95.6212 138.996 95.8651 138.932C96.1113 138.868 96.3693 138.823 96.6392 138.797C96.9564 138.764 97.2121 138.733 97.4062 138.705C97.6004 138.674 97.7412 138.629 97.8288 138.57C97.9164 138.51 97.9602 138.423 97.9602 138.307V138.286C97.9602 138.061 97.8892 137.887 97.7472 137.763C97.6075 137.64 97.4086 137.579 97.1506 137.579C96.8783 137.579 96.6617 137.639 96.5007 137.76C96.3397 137.878 96.2332 138.027 96.1811 138.207L94.782 138.094C94.853 137.762 94.9927 137.476 95.201 137.234C95.4093 136.991 95.678 136.804 96.0071 136.673C96.3385 136.541 96.7221 136.474 97.1577 136.474C97.4607 136.474 97.7507 136.51 98.0277 136.581C98.3071 136.652 98.5545 136.762 98.7699 136.911C98.9877 137.06 99.1593 137.252 99.2848 137.487C99.4103 137.719 99.473 137.997 99.473 138.321V142H98.0384V141.244H97.9957C97.9081 141.414 97.791 141.564 97.6442 141.695C97.4974 141.822 97.321 141.923 97.1151 141.996C96.9091 142.067 96.6712 142.103 96.4013 142.103ZM96.8345 141.059C97.0571 141.059 97.2536 141.015 97.424 140.928C97.5945 140.838 97.7282 140.717 97.8253 140.565C97.9223 140.414 97.9709 140.242 97.9709 140.05V139.472C97.9235 139.502 97.8584 139.531 97.7756 139.557C97.6951 139.58 97.6039 139.603 97.5021 139.624C97.4003 139.643 97.2985 139.661 97.1967 139.678C97.0949 139.692 97.0026 139.705 96.9197 139.717C96.7422 139.743 96.5871 139.784 96.4545 139.841C96.322 139.898 96.219 139.975 96.1456 140.072C96.0722 140.166 96.0355 140.285 96.0355 140.427C96.0355 140.633 96.1101 140.79 96.2592 140.899C96.4107 141.006 96.6025 141.059 96.8345 141.059ZM102.559 138.847V142H101.047V136.545H102.488V137.508H102.552C102.673 137.191 102.875 136.94 103.16 136.755C103.444 136.568 103.788 136.474 104.193 136.474C104.572 136.474 104.902 136.557 105.184 136.723C105.465 136.889 105.684 137.125 105.841 137.433C105.997 137.739 106.075 138.103 106.075 138.527V142H104.562V138.797C104.565 138.463 104.479 138.203 104.307 138.016C104.134 137.826 103.896 137.732 103.593 137.732C103.389 137.732 103.209 137.775 103.053 137.863C102.899 137.951 102.778 138.078 102.691 138.246C102.606 138.412 102.562 138.612 102.559 138.847ZM109.038 140.43L109.042 138.616H109.262L111.009 136.545H112.745L110.398 139.287H110.04L109.038 140.43ZM107.667 142V134.727H109.18V142H107.667ZM111.076 142L109.471 139.624L110.48 138.555L112.848 142H111.076ZM117.536 144.045C117.344 144.045 117.164 144.03 116.996 143.999C116.831 143.971 116.693 143.934 116.584 143.889L116.925 142.76C117.103 142.814 117.263 142.844 117.405 142.849C117.549 142.853 117.673 142.82 117.778 142.749C117.884 142.678 117.971 142.558 118.037 142.387L118.126 142.156L116.169 136.545H117.76L118.889 140.551H118.946L120.086 136.545H121.687L119.567 142.589C119.466 142.883 119.327 143.139 119.152 143.357C118.979 143.577 118.76 143.746 118.495 143.864C118.23 143.985 117.91 144.045 117.536 144.045ZM125.15 142.107C124.599 142.107 124.122 141.989 123.719 141.755C123.319 141.518 123.01 141.189 122.792 140.768C122.574 140.344 122.466 139.853 122.466 139.294C122.466 138.731 122.574 138.238 122.792 137.817C123.01 137.393 123.319 137.064 123.719 136.83C124.122 136.593 124.599 136.474 125.15 136.474C125.702 136.474 126.178 136.593 126.578 136.83C126.98 137.064 127.29 137.393 127.508 137.817C127.726 138.238 127.835 138.731 127.835 139.294C127.835 139.853 127.726 140.344 127.508 140.768C127.29 141.189 126.98 141.518 126.578 141.755C126.178 141.989 125.702 142.107 125.15 142.107ZM125.157 140.935C125.408 140.935 125.618 140.864 125.786 140.722C125.954 140.577 126.081 140.381 126.166 140.132C126.253 139.884 126.297 139.601 126.297 139.283C126.297 138.966 126.253 138.683 126.166 138.435C126.081 138.186 125.954 137.99 125.786 137.845C125.618 137.701 125.408 137.629 125.157 137.629C124.904 137.629 124.691 137.701 124.518 137.845C124.348 137.99 124.219 138.186 124.131 138.435C124.046 138.683 124.003 138.966 124.003 139.283C124.003 139.601 124.046 139.884 124.131 140.132C124.219 140.381 124.348 140.577 124.518 140.722C124.691 140.864 124.904 140.935 125.157 140.935ZM132.716 139.678V136.545H134.229V142H132.777V141.009H132.72C132.597 141.329 132.392 141.586 132.106 141.78C131.822 141.974 131.475 142.071 131.065 142.071C130.701 142.071 130.38 141.988 130.103 141.822C129.826 141.657 129.609 141.421 129.453 141.116C129.299 140.81 129.221 140.445 129.219 140.018V136.545H130.731V139.749C130.734 140.071 130.82 140.325 130.991 140.512C131.161 140.699 131.389 140.793 131.676 140.793C131.858 140.793 132.029 140.751 132.187 140.668C132.346 140.583 132.474 140.458 132.571 140.292C132.67 140.126 132.719 139.921 132.716 139.678ZM137.647 134.727L137.508 139.82H136.209L136.067 134.727H137.647ZM136.858 142.092C136.624 142.092 136.423 142.009 136.255 141.844C136.087 141.676 136.004 141.474 136.006 141.24C136.004 141.008 136.087 140.809 136.255 140.643C136.423 140.478 136.624 140.395 136.858 140.395C137.083 140.395 137.281 140.478 137.451 140.643C137.622 140.809 137.708 141.008 137.711 141.24C137.708 141.396 137.667 141.54 137.586 141.67C137.508 141.798 137.405 141.901 137.277 141.979C137.15 142.054 137.01 142.092 136.858 142.092Z" fill="#BBBAC3"/>
<rect x="104" y="92.326" width="30.45" height="3" rx="1.5" transform="rotate(-50 104 92.326)" fill="#9A99A7"/>
<rect x="105.67" y="94.1333" width="15.3604" height="3" rx="1.5" transform="rotate(-134 105.67 94.1333)" fill="#9A99A7"/>
<rect x="92" y="154" width="36" height="10" rx="4" fill="#9A99A7"/>
</svg>
