<svg width="220" height="240" viewBox="0 0 220 240" fill="none" xmlns="http://www.w3.org/2000/svg">
<rect width="220" height="240" rx="6" fill="#24213F"/>
<path d="M93.6321 147V139.727H96.5014C97.0507 139.727 97.5194 139.826 97.9077 140.022C98.2983 140.216 98.5954 140.492 98.799 140.849C99.005 141.205 99.108 141.622 99.108 142.103C99.108 142.586 99.0038 143.001 98.7955 143.349C98.5871 143.695 98.2853 143.96 97.8899 144.145C97.4969 144.33 97.0211 144.422 96.4624 144.422H94.5412V143.186H96.2138C96.5073 143.186 96.7512 143.146 96.9453 143.065C97.1394 142.985 97.2839 142.864 97.3786 142.703C97.4756 142.542 97.5241 142.342 97.5241 142.103C97.5241 141.862 97.4756 141.658 97.3786 141.492C97.2839 141.326 97.1383 141.201 96.9418 141.116C96.7476 141.028 96.5026 140.984 96.2067 140.984H95.1697V147H93.6321ZM97.5597 143.69L99.3672 147H97.6697L95.9013 143.69H97.5597ZM102.964 147.107C102.403 147.107 101.92 146.993 101.515 146.766C101.113 146.536 100.803 146.212 100.585 145.793C100.367 145.371 100.258 144.873 100.258 144.298C100.258 143.737 100.367 143.244 100.585 142.82C100.803 142.397 101.109 142.066 101.505 141.83C101.902 141.593 102.369 141.474 102.904 141.474C103.264 141.474 103.599 141.532 103.909 141.648C104.221 141.762 104.493 141.934 104.725 142.163C104.96 142.393 105.142 142.682 105.272 143.03C105.403 143.375 105.468 143.78 105.468 144.244V144.66H100.862V143.722H104.044C104.044 143.504 103.996 143.312 103.902 143.143C103.807 142.975 103.676 142.844 103.507 142.749C103.342 142.652 103.149 142.604 102.929 142.604C102.699 142.604 102.495 142.657 102.318 142.763C102.143 142.868 102.005 143.009 101.906 143.186C101.806 143.361 101.756 143.557 101.753 143.772V144.663C101.753 144.933 101.803 145.166 101.902 145.363C102.004 145.559 102.147 145.711 102.332 145.817C102.517 145.924 102.736 145.977 102.989 145.977C103.157 145.977 103.311 145.954 103.451 145.906C103.59 145.859 103.71 145.788 103.809 145.693C103.909 145.598 103.984 145.482 104.037 145.345L105.436 145.438C105.365 145.774 105.219 146.067 104.999 146.318C104.781 146.567 104.499 146.761 104.154 146.901C103.81 147.038 103.414 147.107 102.964 147.107ZM109.319 147.107C108.761 147.107 108.28 146.988 107.878 146.751C107.477 146.512 107.17 146.181 106.954 145.757C106.741 145.333 106.635 144.846 106.635 144.294C106.635 143.735 106.742 143.245 106.958 142.824C107.176 142.4 107.485 142.07 107.885 141.833C108.285 141.594 108.761 141.474 109.312 141.474C109.788 141.474 110.205 141.561 110.562 141.734C110.92 141.906 111.203 142.149 111.411 142.462C111.619 142.774 111.734 143.141 111.755 143.562H110.328C110.288 143.29 110.181 143.071 110.008 142.906C109.838 142.737 109.614 142.653 109.337 142.653C109.103 142.653 108.898 142.717 108.723 142.845C108.55 142.971 108.415 143.154 108.318 143.396C108.221 143.637 108.172 143.929 108.172 144.273C108.172 144.621 108.22 144.917 108.314 145.161C108.411 145.404 108.548 145.59 108.723 145.718C108.898 145.846 109.103 145.91 109.337 145.91C109.51 145.91 109.665 145.874 109.802 145.803C109.942 145.732 110.057 145.629 110.147 145.494C110.239 145.357 110.299 145.192 110.328 145.001H111.755C111.732 145.417 111.618 145.784 111.415 146.102C111.213 146.416 110.935 146.663 110.58 146.84C110.225 147.018 109.805 147.107 109.319 147.107ZM115.588 147.107C115.037 147.107 114.56 146.989 114.157 146.755C113.757 146.518 113.448 146.189 113.231 145.768C113.013 145.344 112.904 144.853 112.904 144.294C112.904 143.731 113.013 143.238 113.231 142.817C113.448 142.393 113.757 142.064 114.157 141.83C114.56 141.593 115.037 141.474 115.588 141.474C116.14 141.474 116.616 141.593 117.016 141.83C117.419 142.064 117.729 142.393 117.946 142.817C118.164 143.238 118.273 143.731 118.273 144.294C118.273 144.853 118.164 145.344 117.946 145.768C117.729 146.189 117.419 146.518 117.016 146.755C116.616 146.989 116.14 147.107 115.588 147.107ZM115.596 145.935C115.847 145.935 116.056 145.864 116.224 145.722C116.392 145.577 116.519 145.381 116.604 145.132C116.692 144.884 116.736 144.601 116.736 144.283C116.736 143.966 116.692 143.683 116.604 143.435C116.519 143.186 116.392 142.99 116.224 142.845C116.056 142.701 115.847 142.629 115.596 142.629C115.342 142.629 115.129 142.701 114.956 142.845C114.786 142.99 114.657 143.186 114.569 143.435C114.484 143.683 114.441 143.966 114.441 144.283C114.441 144.601 114.484 144.884 114.569 145.132C114.657 145.381 114.786 145.577 114.956 145.722C115.129 145.864 115.342 145.935 115.596 145.935ZM119.657 147V141.545H121.123V142.497H121.18C121.28 142.159 121.447 141.903 121.681 141.73C121.915 141.555 122.185 141.467 122.491 141.467C122.566 141.467 122.648 141.472 122.736 141.482C122.823 141.491 122.9 141.504 122.966 141.521V142.863C122.895 142.842 122.797 142.823 122.672 142.806C122.546 142.79 122.431 142.781 122.327 142.781C122.105 142.781 121.906 142.83 121.731 142.927C121.558 143.022 121.421 143.154 121.319 143.325C121.219 143.495 121.17 143.692 121.17 143.914V147H119.657ZM125.905 147.089C125.49 147.089 125.115 146.982 124.779 146.769C124.445 146.554 124.18 146.238 123.983 145.821C123.789 145.402 123.692 144.888 123.692 144.28C123.692 143.655 123.793 143.135 123.994 142.721C124.195 142.304 124.463 141.993 124.797 141.787C125.133 141.579 125.501 141.474 125.901 141.474C126.206 141.474 126.461 141.527 126.665 141.631C126.871 141.732 127.036 141.86 127.162 142.014C127.29 142.166 127.387 142.315 127.453 142.462H127.499V139.727H129.008V147H127.517V146.126H127.453C127.382 146.278 127.281 146.428 127.151 146.577C127.023 146.724 126.856 146.846 126.65 146.943C126.447 147.04 126.198 147.089 125.905 147.089ZM126.384 145.885C126.628 145.885 126.834 145.819 127.002 145.686C127.172 145.551 127.303 145.363 127.393 145.121C127.485 144.88 127.531 144.597 127.531 144.273C127.531 143.948 127.486 143.667 127.396 143.428C127.306 143.188 127.176 143.004 127.006 142.874C126.835 142.743 126.628 142.678 126.384 142.678C126.135 142.678 125.926 142.746 125.756 142.881C125.585 143.016 125.456 143.203 125.368 143.442C125.281 143.681 125.237 143.958 125.237 144.273C125.237 144.59 125.281 144.871 125.368 145.114C125.458 145.356 125.587 145.545 125.756 145.683C125.926 145.817 126.135 145.885 126.384 145.885ZM135.19 143.101L133.806 143.186C133.782 143.068 133.731 142.961 133.653 142.866C133.575 142.769 133.472 142.692 133.344 142.636C133.218 142.576 133.068 142.547 132.893 142.547C132.659 142.547 132.461 142.597 132.3 142.696C132.139 142.793 132.058 142.923 132.058 143.087C132.058 143.217 132.11 143.327 132.215 143.417C132.319 143.507 132.498 143.579 132.751 143.634L133.738 143.832C134.268 143.941 134.664 144.116 134.924 144.358C135.185 144.599 135.315 144.917 135.315 145.31C135.315 145.667 135.209 145.981 134.999 146.251C134.79 146.521 134.504 146.731 134.139 146.883C133.777 147.032 133.359 147.107 132.886 147.107C132.164 147.107 131.588 146.956 131.16 146.656C130.734 146.353 130.484 145.941 130.411 145.42L131.899 145.342C131.944 145.562 132.052 145.73 132.225 145.846C132.398 145.96 132.619 146.016 132.889 146.016C133.154 146.016 133.368 145.965 133.529 145.864C133.692 145.759 133.775 145.626 133.777 145.462C133.775 145.325 133.717 145.213 133.603 145.125C133.489 145.035 133.314 144.966 133.078 144.919L132.133 144.731C131.6 144.624 131.204 144.44 130.943 144.177C130.685 143.914 130.556 143.579 130.556 143.172C130.556 142.821 130.651 142.52 130.84 142.266C131.032 142.013 131.301 141.818 131.646 141.68C131.994 141.543 132.402 141.474 132.868 141.474C133.557 141.474 134.099 141.62 134.494 141.911C134.892 142.202 135.124 142.599 135.19 143.101ZM140.895 143.847V147H139.382V141.545H140.824V142.508H140.888C141.008 142.191 141.211 141.94 141.495 141.755C141.779 141.568 142.123 141.474 142.528 141.474C142.907 141.474 143.237 141.557 143.519 141.723C143.801 141.889 144.02 142.125 144.176 142.433C144.332 142.739 144.41 143.103 144.41 143.527V147H142.897V143.797C142.9 143.463 142.815 143.203 142.642 143.016C142.469 142.826 142.231 142.732 141.928 142.732C141.724 142.732 141.544 142.775 141.388 142.863C141.234 142.951 141.114 143.078 141.026 143.246C140.941 143.412 140.897 143.612 140.895 143.847ZM148.467 147.107C147.915 147.107 147.438 146.989 147.036 146.755C146.636 146.518 146.327 146.189 146.109 145.768C145.891 145.344 145.782 144.853 145.782 144.294C145.782 143.731 145.891 143.238 146.109 142.817C146.327 142.393 146.636 142.064 147.036 141.83C147.438 141.593 147.915 141.474 148.467 141.474C149.019 141.474 149.494 141.593 149.895 141.83C150.297 142.064 150.607 142.393 150.825 142.817C151.043 143.238 151.152 143.731 151.152 144.294C151.152 144.853 151.043 145.344 150.825 145.768C150.607 146.189 150.297 146.518 149.895 146.755C149.494 146.989 149.019 147.107 148.467 147.107ZM148.474 145.935C148.725 145.935 148.935 145.864 149.103 145.722C149.271 145.577 149.397 145.381 149.483 145.132C149.57 144.884 149.614 144.601 149.614 144.283C149.614 143.966 149.57 143.683 149.483 143.435C149.397 143.186 149.271 142.99 149.103 142.845C148.935 142.701 148.725 142.629 148.474 142.629C148.221 142.629 148.008 142.701 147.835 142.845C147.664 142.99 147.535 143.186 147.448 143.435C147.363 143.683 147.32 143.966 147.32 144.283C147.32 144.601 147.363 144.884 147.448 145.132C147.535 145.381 147.664 145.577 147.835 145.722C148.008 145.864 148.221 145.935 148.474 145.935ZM155.437 141.545V142.682H152.152V141.545H155.437ZM152.898 140.239H154.41V145.324C154.41 145.464 154.432 145.572 154.474 145.651C154.517 145.726 154.576 145.78 154.652 145.81C154.73 145.841 154.82 145.857 154.922 145.857C154.993 145.857 155.064 145.851 155.135 145.839C155.206 145.825 155.26 145.814 155.298 145.807L155.536 146.933C155.46 146.956 155.354 146.983 155.216 147.014C155.079 147.047 154.912 147.067 154.716 147.075C154.351 147.089 154.032 147.04 153.757 146.929C153.485 146.818 153.273 146.645 153.121 146.411C152.97 146.176 152.895 145.88 152.898 145.523V140.239ZM162.47 141.545V142.682H159.103V141.545H162.47ZM159.874 147V141.151C159.874 140.756 159.951 140.428 160.105 140.168C160.261 139.907 160.474 139.712 160.744 139.582C161.014 139.451 161.32 139.386 161.664 139.386C161.896 139.386 162.108 139.404 162.299 139.44C162.493 139.475 162.638 139.507 162.733 139.536L162.463 140.672C162.403 140.653 162.33 140.635 162.242 140.619C162.157 140.602 162.07 140.594 161.98 140.594C161.757 140.594 161.602 140.646 161.514 140.75C161.427 140.852 161.383 140.995 161.383 141.18V147H159.874ZM166.063 147.107C165.511 147.107 165.034 146.989 164.632 146.755C164.232 146.518 163.923 146.189 163.705 145.768C163.487 145.344 163.378 144.853 163.378 144.294C163.378 143.731 163.487 143.238 163.705 142.817C163.923 142.393 164.232 142.064 164.632 141.83C165.034 141.593 165.511 141.474 166.063 141.474C166.615 141.474 167.091 141.593 167.491 141.83C167.893 142.064 168.203 142.393 168.421 142.817C168.639 143.238 168.748 143.731 168.748 144.294C168.748 144.853 168.639 145.344 168.421 145.768C168.203 146.189 167.893 146.518 167.491 146.755C167.091 146.989 166.615 147.107 166.063 147.107ZM166.07 145.935C166.321 145.935 166.531 145.864 166.699 145.722C166.867 145.577 166.993 145.381 167.079 145.132C167.166 144.884 167.21 144.601 167.21 144.283C167.21 143.966 167.166 143.683 167.079 143.435C166.993 143.186 166.867 142.99 166.699 142.845C166.531 142.701 166.321 142.629 166.07 142.629C165.817 142.629 165.604 142.701 165.431 142.845C165.261 142.99 165.132 143.186 165.044 143.435C164.959 143.683 164.916 143.966 164.916 144.283C164.916 144.601 164.959 144.884 165.044 145.132C165.132 145.381 165.261 145.577 165.431 145.722C165.604 145.864 165.817 145.935 166.07 145.935ZM173.629 144.678V141.545H175.142V147H173.69V146.009H173.633C173.51 146.329 173.305 146.586 173.019 146.78C172.734 146.974 172.388 147.071 171.978 147.071C171.613 147.071 171.293 146.988 171.016 146.822C170.739 146.657 170.522 146.421 170.366 146.116C170.212 145.81 170.134 145.445 170.131 145.018V141.545H171.644V144.749C171.647 145.071 171.733 145.325 171.903 145.512C172.074 145.699 172.302 145.793 172.589 145.793C172.771 145.793 172.942 145.751 173.1 145.668C173.259 145.583 173.387 145.458 173.484 145.292C173.583 145.126 173.632 144.921 173.629 144.678ZM178.265 143.847V147H176.752V141.545H178.194V142.508H178.258C178.379 142.191 178.581 141.94 178.865 141.755C179.149 141.568 179.494 141.474 179.898 141.474C180.277 141.474 180.607 141.557 180.889 141.723C181.171 141.889 181.39 142.125 181.546 142.433C181.702 142.739 181.781 143.103 181.781 143.527V147H180.268V143.797C180.27 143.463 180.185 143.203 180.012 143.016C179.839 142.826 179.601 142.732 179.298 142.732C179.095 142.732 178.915 142.775 178.759 142.863C178.605 142.951 178.484 143.078 178.396 143.246C178.311 143.412 178.267 143.612 178.265 143.847ZM185.383 147.089C184.968 147.089 184.593 146.982 184.257 146.769C183.923 146.554 183.658 146.238 183.462 145.821C183.267 145.402 183.17 144.888 183.17 144.28C183.17 143.655 183.271 143.135 183.472 142.721C183.673 142.304 183.941 141.993 184.275 141.787C184.611 141.579 184.979 141.474 185.379 141.474C185.685 141.474 185.939 141.527 186.143 141.631C186.349 141.732 186.514 141.86 186.64 142.014C186.768 142.166 186.865 142.315 186.931 142.462H186.977V139.727H188.486V147H186.995V146.126H186.931C186.86 146.278 186.759 146.428 186.629 146.577C186.501 146.724 186.334 146.846 186.129 146.943C185.925 147.04 185.676 147.089 185.383 147.089ZM185.862 145.885C186.106 145.885 186.312 145.819 186.48 145.686C186.651 145.551 186.781 145.363 186.871 145.121C186.963 144.88 187.009 144.597 187.009 144.273C187.009 143.948 186.964 143.667 186.874 143.428C186.784 143.188 186.654 143.004 186.484 142.874C186.313 142.743 186.106 142.678 185.862 142.678C185.614 142.678 185.404 142.746 185.234 142.881C185.063 143.016 184.934 143.203 184.847 143.442C184.759 143.681 184.715 143.958 184.715 144.273C184.715 144.59 184.759 144.871 184.847 145.114C184.937 145.356 185.066 145.545 185.234 145.683C185.404 145.817 185.614 145.885 185.862 145.885Z" fill="#BBBAC3"/>
<path d="M136.833 101.167C146.406 101.167 154.167 93.4063 154.167 83.8333C154.167 74.2604 146.406 66.5 136.833 66.5C127.26 66.5 119.5 74.2604 119.5 83.8333C119.5 93.4063 127.26 101.167 136.833 101.167Z" stroke="#BBBAC3" stroke-width="6" stroke-linecap="round" stroke-linejoin="round"/>
<path d="M159.455 107.243L150.03 97.8182" stroke="#BBBAC3" stroke-width="7" stroke-linecap="round" stroke-linejoin="round"/>
<rect width="220" height="34" fill="#1A172D"/>
<path d="M33.2209 13.6278C33.5949 13.6278 33.9548 13.6906 34.3004 13.8161C34.6484 13.9415 34.9586 14.1416 35.2308 14.4162C35.5054 14.6908 35.7221 15.0554 35.8807 15.5099C36.0417 15.9621 36.1233 16.5173 36.1257 17.1754C36.1257 17.7933 36.0559 18.3449 35.9162 18.8303C35.7789 19.3132 35.5812 19.724 35.3232 20.0625C35.0651 20.401 34.7538 20.6591 34.3892 20.8366C34.0246 21.0118 33.6174 21.0994 33.1676 21.0994C32.6823 21.0994 32.2538 21.0059 31.8821 20.8189C31.5104 20.6295 31.2109 20.3726 30.9837 20.0483C30.7588 19.7216 30.6226 19.3546 30.5753 18.9474H32.0916C32.1508 19.2126 32.2751 19.4186 32.4645 19.5653C32.6539 19.7098 32.8883 19.782 33.1676 19.782C33.6411 19.782 34.0009 19.576 34.2472 19.1641C34.4934 18.7498 34.6177 18.1828 34.62 17.4631H34.5703C34.4614 17.6761 34.3146 17.8596 34.13 18.0135C33.9453 18.165 33.7334 18.2822 33.4943 18.3651C33.2576 18.4479 33.0054 18.4893 32.7379 18.4893C32.3094 18.4893 31.9271 18.3887 31.5909 18.1875C31.2547 17.9863 30.9896 17.7093 30.7955 17.3565C30.6013 17.0038 30.5043 16.6013 30.5043 16.1491C30.5019 15.6615 30.6143 15.227 30.8416 14.8459C31.0689 14.4647 31.3861 14.1664 31.7933 13.951C32.2029 13.7332 32.6787 13.6255 33.2209 13.6278ZM33.2315 14.8352C32.9924 14.8352 32.7794 14.892 32.5923 15.0057C32.4077 15.1193 32.2609 15.272 32.152 15.4638C32.0455 15.6555 31.9934 15.8698 31.9957 16.1065C31.9957 16.3456 32.0478 16.5611 32.152 16.7528C32.2585 16.9422 32.4029 17.0937 32.5852 17.2074C32.7699 17.3187 32.9806 17.3743 33.2173 17.3743C33.3949 17.3743 33.5594 17.3411 33.7109 17.2749C33.8625 17.2086 33.9938 17.1174 34.1051 17.0014C34.2188 16.883 34.3075 16.7469 34.3714 16.593C34.4354 16.4392 34.4673 16.2758 34.4673 16.103C34.465 15.8733 34.4105 15.6626 34.304 15.4709C34.1974 15.2791 34.0507 15.1252 33.8636 15.0092C33.6766 14.8932 33.4659 14.8352 33.2315 14.8352ZM40.3481 21V13.7273H43.2174C43.7667 13.7273 44.2354 13.8255 44.6237 14.022C45.0143 14.2161 45.3114 14.492 45.515 14.8494C45.721 15.2045 45.824 15.6224 45.824 16.103C45.824 16.5859 45.7198 17.0014 45.5115 17.3494C45.3031 17.6951 45.0013 17.9602 44.6059 18.1449C44.2129 18.3295 43.7371 18.4219 43.1784 18.4219H41.2572V17.1861H42.9298C43.2234 17.1861 43.4672 17.1458 43.6613 17.0653C43.8555 16.9848 43.9999 16.8641 44.0946 16.7031C44.1916 16.5421 44.2402 16.3421 44.2402 16.103C44.2402 15.8615 44.1916 15.6579 44.0946 15.4922C43.9999 15.3265 43.8543 15.201 43.6578 15.1158C43.4636 15.0282 43.2186 14.9844 42.9227 14.9844H41.8858V21H40.3481ZM44.2757 17.6903L46.0832 21H44.3858L42.6173 17.6903H44.2757ZM49.6801 21.1065C49.119 21.1065 48.6361 20.9929 48.2313 20.7656C47.8288 20.536 47.5187 20.2116 47.3009 19.7926C47.0831 19.3712 46.9741 18.8729 46.9741 18.2976C46.9741 17.7365 47.0831 17.2441 47.3009 16.8203C47.5187 16.3965 47.8252 16.0663 48.2206 15.8295C48.6183 15.5928 49.0847 15.4744 49.6197 15.4744C49.9796 15.4744 50.3146 15.5324 50.6247 15.6484C50.9372 15.7621 51.2095 15.9337 51.4415 16.1634C51.6759 16.393 51.8581 16.6818 51.9884 17.0298C52.1186 17.3755 52.1837 17.7803 52.1837 18.2443V18.6598H47.5778V17.7223H50.7597C50.7597 17.5045 50.7123 17.3116 50.6176 17.1435C50.5229 16.9754 50.3915 16.844 50.2234 16.7493C50.0577 16.6522 49.8648 16.6037 49.6446 16.6037C49.415 16.6037 49.2114 16.657 49.0338 16.7635C48.8586 16.8677 48.7213 17.0085 48.6219 17.1861C48.5224 17.3613 48.4715 17.5566 48.4692 17.772V18.6634C48.4692 18.9332 48.5189 19.1664 48.6183 19.3629C48.7201 19.5594 48.8634 19.7109 49.048 19.8175C49.2327 19.924 49.4517 19.9773 49.705 19.9773C49.8731 19.9773 50.0269 19.9536 50.1666 19.9062C50.3063 19.8589 50.4259 19.7879 50.5253 19.6932C50.6247 19.5985 50.7005 19.4825 50.7526 19.3452L52.1517 19.4375C52.0807 19.7737 51.9351 20.0672 51.7149 20.3182C51.4971 20.5668 51.2154 20.7609 50.8697 20.9006C50.5265 21.0379 50.1299 21.1065 49.6801 21.1065ZM58.1092 17.1009L56.7243 17.1861C56.7006 17.0677 56.6497 16.9612 56.5716 16.8665C56.4935 16.7694 56.3905 16.6925 56.2626 16.6357C56.1372 16.5765 55.9868 16.5469 55.8116 16.5469C55.5773 16.5469 55.3796 16.5966 55.2186 16.696C55.0576 16.7931 54.9771 16.9233 54.9771 17.0866C54.9771 17.2169 55.0292 17.3269 55.1334 17.4169C55.2375 17.5069 55.4163 17.5791 55.6696 17.6335L56.6568 17.8324C57.1871 17.9413 57.5825 18.1165 57.8429 18.358C58.1033 18.5994 58.2335 18.9167 58.2335 19.3097C58.2335 19.6671 58.1282 19.9808 57.9175 20.2507C57.7091 20.5206 57.4227 20.7313 57.0581 20.8828C56.6959 21.032 56.278 21.1065 55.8045 21.1065C55.0825 21.1065 54.5072 20.9562 54.0787 20.6555C53.6526 20.3525 53.4028 19.9406 53.3294 19.4197L54.8173 19.3416C54.8623 19.5618 54.9712 19.7299 55.144 19.8459C55.3169 19.9595 55.5382 20.0163 55.8081 20.0163C56.0732 20.0163 56.2863 19.9654 56.4473 19.8636C56.6107 19.7595 56.6935 19.6257 56.6959 19.4624C56.6935 19.325 56.6355 19.2126 56.5219 19.125C56.4082 19.035 56.233 18.9664 55.9963 18.919L55.0517 18.7308C54.519 18.6243 54.1225 18.4396 53.8621 18.1768C53.604 17.9141 53.475 17.5791 53.475 17.1719C53.475 16.8215 53.5697 16.5196 53.7591 16.2663C53.9509 16.013 54.2196 15.8177 54.5652 15.6804C54.9132 15.5431 55.3204 15.4744 55.7868 15.4744C56.4757 15.4744 57.0179 15.62 57.4132 15.9112C57.8109 16.2024 58.0429 16.599 58.1092 17.1009ZM63.084 18.6776V15.5455H64.5968V21H63.1444V20.0092H63.0875C62.9644 20.3288 62.7596 20.5857 62.4732 20.7798C62.1891 20.974 61.8423 21.071 61.4327 21.071C61.0681 21.071 60.7473 20.9882 60.4703 20.8224C60.1934 20.6567 59.9767 20.4212 59.8205 20.1158C59.6666 19.8104 59.5885 19.4446 59.5861 19.0185V15.5455H61.0989V18.7486C61.1013 19.0705 61.1877 19.325 61.3581 19.5121C61.5286 19.6991 61.757 19.7926 62.0435 19.7926C62.2258 19.7926 62.3962 19.7512 62.5549 19.6683C62.7135 19.5831 62.8413 19.4576 62.9384 19.2919C63.0378 19.1262 63.0864 18.9214 63.084 18.6776ZM67.7196 13.7273V21H66.2068V13.7273H67.7196ZM72.2327 15.5455V16.6818H68.9479V15.5455H72.2327ZM69.6936 14.2386H71.2064V19.3239C71.2064 19.4635 71.2277 19.5724 71.2703 19.6506C71.313 19.7263 71.3721 19.7796 71.4479 19.8104C71.526 19.8411 71.616 19.8565 71.7178 19.8565C71.7888 19.8565 71.8598 19.8506 71.9309 19.8388C72.0019 19.8246 72.0563 19.8139 72.0942 19.8068L72.3321 20.9325C72.2564 20.9562 72.1498 20.9834 72.0125 21.0142C71.8752 21.0473 71.7083 21.0675 71.5118 21.0746C71.1472 21.0888 70.8276 21.0402 70.553 20.929C70.2808 20.8177 70.0689 20.6449 69.9174 20.4105C69.7658 20.1761 69.6913 19.8802 69.6936 19.5227V14.2386ZM78.0881 17.1009L76.7032 17.1861C76.6795 17.0677 76.6286 16.9612 76.5505 16.8665C76.4724 16.7694 76.3694 16.6925 76.2415 16.6357C76.1161 16.5765 75.9657 16.5469 75.7906 16.5469C75.5562 16.5469 75.3585 16.5966 75.1975 16.696C75.0365 16.7931 74.956 16.9233 74.956 17.0866C74.956 17.2169 75.0081 17.3269 75.1123 17.4169C75.2165 17.5069 75.3952 17.5791 75.6485 17.6335L76.6357 17.8324C77.166 17.9413 77.5614 18.1165 77.8218 18.358C78.0822 18.5994 78.2124 18.9167 78.2124 19.3097C78.2124 19.6671 78.1071 19.9808 77.8964 20.2507C77.688 20.5206 77.4016 20.7313 77.037 20.8828C76.6748 21.032 76.2569 21.1065 75.7835 21.1065C75.0614 21.1065 74.4861 20.9562 74.0576 20.6555C73.6315 20.3525 73.3817 19.9406 73.3083 19.4197L74.7962 19.3416C74.8412 19.5618 74.9501 19.7299 75.1229 19.8459C75.2958 19.9595 75.5171 20.0163 75.787 20.0163C76.0522 20.0163 76.2652 19.9654 76.4262 19.8636C76.5896 19.7595 76.6724 19.6257 76.6748 19.4624C76.6724 19.325 76.6144 19.2126 76.5008 19.125C76.3871 19.035 76.212 18.9664 75.9752 18.919L75.0306 18.7308C74.4979 18.6243 74.1014 18.4396 73.841 18.1768C73.5829 17.9141 73.4539 17.5791 73.4539 17.1719C73.4539 16.8215 73.5486 16.5196 73.738 16.2663C73.9298 16.013 74.1985 15.8177 74.5441 15.6804C74.8921 15.5431 75.2993 15.4744 75.7657 15.4744C76.4546 15.4744 76.9968 15.62 77.3921 15.9112C77.7898 16.2024 78.0219 16.599 78.0881 17.1009Z" fill="#BBBAC3"/>
<rect x="102" y="11" width="88" height="12" rx="6" fill="#9A99A7"/>
<rect x="178" y="11" width="12" height="12" rx="6" fill="#504D65"/>
<rect x="30" y="54" width="48" height="120" rx="2" fill="#504D65"/>
<rect x="36" y="60" width="36" height="4" rx="2" fill="#9A99A7"/>
<rect x="36" y="99" width="36" height="4" rx="2" fill="#9A99A7"/>
<rect x="36" y="138" width="36" height="4" rx="2" fill="#9A99A7"/>
<rect x="36" y="70" width="15" height="3" rx="1.5" fill="#9A99A7"/>
<rect x="36" y="109" width="15" height="3" rx="1.5" fill="#9A99A7"/>
<rect x="36" y="148" width="15" height="3" rx="1.5" fill="#9A99A7"/>
<rect x="69" y="70" width="3" height="3" rx="1.5" fill="#9A99A7"/>
<rect x="69" y="109" width="3" height="3" rx="1.5" fill="#9A99A7"/>
<rect x="69" y="148" width="3" height="3" rx="1.5" fill="#9A99A7"/>
<rect x="69" y="77" width="3" height="3" rx="1.5" fill="#9A99A7"/>
<rect x="69" y="116" width="3" height="3" rx="1.5" fill="#9A99A7"/>
<rect x="69" y="155" width="3" height="3" rx="1.5" fill="#9A99A7"/>
<rect x="69" y="84" width="3" height="3" rx="1.5" fill="#9A99A7"/>
<rect x="69" y="123" width="3" height="3" rx="1.5" fill="#9A99A7"/>
<rect x="69" y="162" width="3" height="3" rx="1.5" fill="#9A99A7"/>
<rect x="36" y="77" width="19" height="3" rx="1.5" fill="#9A99A7"/>
<rect x="36" y="116" width="19" height="3" rx="1.5" fill="#9A99A7"/>
<rect x="36" y="155" width="19" height="3" rx="1.5" fill="#9A99A7"/>
<rect x="36" y="84" width="25" height="3" rx="1.5" fill="#9A99A7"/>
<rect x="36" y="123" width="25" height="3" rx="1.5" fill="#9A99A7"/>
<rect x="36" y="162" width="25" height="3" rx="1.5" fill="#9A99A7"/>
</svg>
