<svg width="220" height="240" viewBox="0 0 220 240" fill="none" xmlns="http://www.w3.org/2000/svg">
<rect width="220" height="240" rx="6" fill="#24213F"/>
<rect x="30" y="17" width="74" height="94" rx="2" fill="#504D65" fill-opacity="0.5"/>
<path d="M88.2884 40.0511C88.438 40.0511 88.5819 40.0762 88.7202 40.1264C88.8594 40.1766 88.9834 40.2566 89.0923 40.3665C89.2022 40.4763 89.2888 40.6222 89.3523 40.804C89.4167 40.9848 89.4493 41.2069 89.4503 41.4702C89.4503 41.7173 89.4223 41.938 89.3665 42.1321C89.3116 42.3253 89.2325 42.4896 89.1293 42.625C89.026 42.7604 88.9015 42.8636 88.7557 42.9347C88.6098 43.0047 88.447 43.0398 88.267 43.0398C88.0729 43.0398 87.9015 43.0024 87.7528 42.9276C87.6042 42.8518 87.4844 42.7491 87.3935 42.6193C87.3035 42.4886 87.2491 42.3419 87.2301 42.179H87.8366C87.8603 42.285 87.91 42.3674 87.9858 42.4261C88.0616 42.4839 88.1553 42.5128 88.267 42.5128C88.4564 42.5128 88.6004 42.4304 88.6989 42.2656C88.7973 42.0999 88.8471 41.8731 88.848 41.5852H88.8281C88.7846 41.6705 88.7259 41.7438 88.652 41.8054C88.5781 41.866 88.4934 41.9129 88.3977 41.946C88.303 41.9792 88.2022 41.9957 88.0952 41.9957C87.9238 41.9957 87.7708 41.9555 87.6364 41.875C87.5019 41.7945 87.3958 41.6837 87.3182 41.5426C87.2405 41.4015 87.2017 41.2405 87.2017 41.0597C87.2008 40.8646 87.2457 40.6908 87.3366 40.5384C87.4276 40.3859 87.5545 40.2666 87.7173 40.1804C87.8812 40.0933 88.0715 40.0502 88.2884 40.0511ZM88.2926 40.5341C88.197 40.5341 88.1117 40.5568 88.0369 40.6023C87.9631 40.6477 87.9044 40.7088 87.8608 40.7855C87.8182 40.8622 87.7973 40.9479 87.7983 41.0426C87.7983 41.1383 87.8191 41.2244 87.8608 41.3011C87.9034 41.3769 87.9612 41.4375 88.0341 41.483C88.108 41.5275 88.1922 41.5497 88.2869 41.5497C88.358 41.5497 88.4238 41.5365 88.4844 41.5099C88.545 41.4834 88.5975 41.447 88.642 41.4006C88.6875 41.3532 88.723 41.2988 88.7486 41.2372C88.7741 41.1757 88.7869 41.1103 88.7869 41.0412C88.786 40.9493 88.7642 40.8651 88.7216 40.7884C88.679 40.7116 88.6203 40.6501 88.5455 40.6037C88.4706 40.5573 88.3864 40.5341 88.2926 40.5341ZM91.089 40.0511C91.2386 40.0511 91.3825 40.0762 91.5208 40.1264C91.66 40.1766 91.7841 40.2566 91.893 40.3665C92.0028 40.4763 92.0895 40.6222 92.1529 40.804C92.2173 40.9848 92.25 41.2069 92.2509 41.4702C92.2509 41.7173 92.223 41.938 92.1671 42.1321C92.1122 42.3253 92.0331 42.4896 91.9299 42.625C91.8267 42.7604 91.7021 42.8636 91.5563 42.9347C91.4105 43.0047 91.2476 43.0398 91.0677 43.0398C90.8735 43.0398 90.7021 43.0024 90.5535 42.9276C90.4048 42.8518 90.285 42.7491 90.1941 42.6193C90.1041 42.4886 90.0497 42.3419 90.0307 42.179H90.6373C90.6609 42.285 90.7107 42.3674 90.7864 42.4261C90.8622 42.4839 90.9559 42.5128 91.0677 42.5128C91.2571 42.5128 91.401 42.4304 91.4995 42.2656C91.598 42.0999 91.6477 41.8731 91.6486 41.5852H91.6288C91.5852 41.6705 91.5265 41.7438 91.4526 41.8054C91.3788 41.866 91.294 41.9129 91.1984 41.946C91.1037 41.9792 91.0028 41.9957 90.8958 41.9957C90.7244 41.9957 90.5715 41.9555 90.437 41.875C90.3025 41.7945 90.1965 41.6837 90.1188 41.5426C90.0412 41.4015 90.0023 41.2405 90.0023 41.0597C90.0014 40.8646 90.0464 40.6908 90.1373 40.5384C90.2282 40.3859 90.3551 40.2666 90.518 40.1804C90.6818 40.0933 90.8721 40.0502 91.089 40.0511ZM91.0932 40.5341C90.9976 40.5341 90.9124 40.5568 90.8376 40.6023C90.7637 40.6477 90.705 40.7088 90.6614 40.7855C90.6188 40.8622 90.598 40.9479 90.5989 41.0426C90.5989 41.1383 90.6198 41.2244 90.6614 41.3011C90.704 41.3769 90.7618 41.4375 90.8347 41.483C90.9086 41.5275 90.9929 41.5497 91.0876 41.5497C91.1586 41.5497 91.2244 41.5365 91.285 41.5099C91.3456 41.4834 91.3982 41.447 91.4427 41.4006C91.4881 41.3532 91.5236 41.2988 91.5492 41.2372C91.5748 41.1757 91.5876 41.1103 91.5876 41.0412C91.5866 40.9493 91.5648 40.8651 91.5222 40.7884C91.4796 40.7116 91.4209 40.6501 91.3461 40.6037C91.2713 40.5573 91.187 40.5341 91.0932 40.5341ZM93.3832 42.6023L93.3676 42.7585C93.3553 42.8835 93.3316 43.008 93.2966 43.1321C93.2625 43.2571 93.2265 43.3703 93.1886 43.4716C93.1517 43.5729 93.1218 43.6525 93.0991 43.7102H92.7071C92.7213 43.6544 92.7407 43.5762 92.7653 43.4759C92.7899 43.3764 92.8131 43.2647 92.8349 43.1406C92.8567 43.0166 92.8704 42.8902 92.8761 42.7614L92.8832 42.6023H93.3832ZM95.0887 40.0511C95.2383 40.0511 95.3822 40.0762 95.5205 40.1264C95.6597 40.1766 95.7837 40.2566 95.8926 40.3665C96.0025 40.4763 96.0891 40.6222 96.1526 40.804C96.217 40.9848 96.2496 41.2069 96.2506 41.4702C96.2506 41.7173 96.2227 41.938 96.1668 42.1321C96.1119 42.3253 96.0328 42.4896 95.9296 42.625C95.8264 42.7604 95.7018 42.8636 95.556 42.9347C95.4102 43.0047 95.2473 43.0398 95.0674 43.0398C94.8732 43.0398 94.7018 43.0024 94.5532 42.9276C94.4045 42.8518 94.2847 42.7491 94.1938 42.6193C94.1038 42.4886 94.0494 42.3419 94.0304 42.179H94.637C94.6606 42.285 94.7104 42.3674 94.7861 42.4261C94.8619 42.4839 94.9556 42.5128 95.0674 42.5128C95.2568 42.5128 95.4007 42.4304 95.4992 42.2656C95.5977 42.0999 95.6474 41.8731 95.6483 41.5852H95.6284C95.5849 41.6705 95.5262 41.7438 95.4523 41.8054C95.3784 41.866 95.2937 41.9129 95.198 41.946C95.1033 41.9792 95.0025 41.9957 94.8955 41.9957C94.7241 41.9957 94.5711 41.9555 94.4367 41.875C94.3022 41.7945 94.1961 41.6837 94.1185 41.5426C94.0408 41.4015 94.002 41.2405 94.002 41.0597C94.0011 40.8646 94.0461 40.6908 94.137 40.5384C94.2279 40.3859 94.3548 40.2666 94.5176 40.1804C94.6815 40.0933 94.8718 40.0502 95.0887 40.0511ZM95.0929 40.5341C94.9973 40.5341 94.9121 40.5568 94.8372 40.6023C94.7634 40.6477 94.7047 40.7088 94.6611 40.7855C94.6185 40.8622 94.5977 40.9479 94.5986 41.0426C94.5986 41.1383 94.6194 41.2244 94.6611 41.3011C94.7037 41.3769 94.7615 41.4375 94.8344 41.483C94.9083 41.5275 94.9925 41.5497 95.0872 41.5497C95.1583 41.5497 95.2241 41.5365 95.2847 41.5099C95.3453 41.4834 95.3979 41.447 95.4424 41.4006C95.4878 41.3532 95.5233 41.2988 95.5489 41.2372C95.5745 41.1757 95.5872 41.1103 95.5872 41.0412C95.5863 40.9493 95.5645 40.8651 95.5219 40.7884C95.4793 40.7116 95.4206 40.6501 95.3458 40.6037C95.271 40.5573 95.1867 40.5341 95.0929 40.5341ZM97.814 43.3636V39.7273H98.047V43.3636H97.814ZM98.4319 40.9276C98.4205 40.813 98.3718 40.724 98.2856 40.6605C98.1994 40.5971 98.0825 40.5653 97.9347 40.5653C97.8344 40.5653 97.7496 40.5795 97.6805 40.608C97.6114 40.6354 97.5583 40.6738 97.5214 40.723C97.4854 40.7723 97.4674 40.8281 97.4674 40.8906C97.4655 40.9427 97.4764 40.9882 97.5001 41.027C97.5247 41.0658 97.5583 41.0994 97.6009 41.1278C97.6436 41.1553 97.6928 41.1795 97.7487 41.2003C97.8045 41.2202 97.8642 41.2372 97.9276 41.2514L98.189 41.3139C98.3159 41.3423 98.4324 41.3802 98.5384 41.4276C98.6445 41.4749 98.7364 41.5331 98.814 41.6023C98.8917 41.6714 98.9518 41.7528 98.9944 41.8466C99.038 41.9403 99.0602 42.0478 99.0612 42.169C99.0602 42.3471 99.0148 42.5014 98.9248 42.6321C98.8358 42.7618 98.707 42.8627 98.5384 42.9347C98.3708 43.0057 98.1686 43.0412 97.9319 43.0412C97.6971 43.0412 97.4925 43.0052 97.3183 42.9332C97.145 42.8613 97.0096 42.7547 96.912 42.6136C96.8154 42.4716 96.7648 42.2959 96.76 42.0866H97.3552C97.3618 42.1842 97.3898 42.2656 97.439 42.331C97.4892 42.3954 97.556 42.4441 97.6393 42.4773C97.7236 42.5095 97.8187 42.5256 97.9248 42.5256C98.029 42.5256 98.1194 42.5104 98.1961 42.4801C98.2738 42.4498 98.3339 42.4077 98.3765 42.3537C98.4191 42.2997 98.4404 42.2377 98.4404 42.1676C98.4404 42.1023 98.421 42.0473 98.3822 42.0028C98.3443 41.9583 98.2884 41.9205 98.2146 41.8892C98.1417 41.858 98.0522 41.8295 97.9461 41.804L97.6293 41.7244C97.3841 41.6648 97.1904 41.5715 97.0484 41.4446C96.9063 41.3177 96.8358 41.1468 96.8367 40.9318C96.8358 40.7557 96.8827 40.6018 96.9774 40.4702C97.073 40.3385 97.2042 40.2358 97.3708 40.1619C97.5375 40.0881 97.7269 40.0511 97.939 40.0511C98.1549 40.0511 98.3434 40.0881 98.5043 40.1619C98.6663 40.2358 98.7922 40.3385 98.8822 40.4702C98.9722 40.6018 99.0186 40.7543 99.0214 40.9276H98.4319Z" fill="#BBBAC3"/>
<path d="M88.2884 58.0511C88.438 58.0511 88.5819 58.0762 88.7202 58.1264C88.8594 58.1766 88.9834 58.2566 89.0923 58.3665C89.2022 58.4763 89.2888 58.6222 89.3523 58.804C89.4167 58.9848 89.4493 59.2069 89.4503 59.4702C89.4503 59.7173 89.4223 59.938 89.3665 60.1321C89.3116 60.3253 89.2325 60.4896 89.1293 60.625C89.026 60.7604 88.9015 60.8636 88.7557 60.9347C88.6098 61.0047 88.447 61.0398 88.267 61.0398C88.0729 61.0398 87.9015 61.0024 87.7528 60.9276C87.6042 60.8518 87.4844 60.7491 87.3935 60.6193C87.3035 60.4886 87.2491 60.3419 87.2301 60.179H87.8366C87.8603 60.285 87.91 60.3674 87.9858 60.4261C88.0616 60.4839 88.1553 60.5128 88.267 60.5128C88.4564 60.5128 88.6004 60.4304 88.6989 60.2656C88.7973 60.0999 88.8471 59.8731 88.848 59.5852H88.8281C88.7846 59.6705 88.7259 59.7438 88.652 59.8054C88.5781 59.866 88.4934 59.9129 88.3977 59.946C88.303 59.9792 88.2022 59.9957 88.0952 59.9957C87.9238 59.9957 87.7708 59.9555 87.6364 59.875C87.5019 59.7945 87.3958 59.6837 87.3182 59.5426C87.2405 59.4015 87.2017 59.2405 87.2017 59.0597C87.2008 58.8646 87.2457 58.6908 87.3366 58.5384C87.4276 58.3859 87.5545 58.2666 87.7173 58.1804C87.8812 58.0933 88.0715 58.0502 88.2884 58.0511ZM88.2926 58.5341C88.197 58.5341 88.1117 58.5568 88.0369 58.6023C87.9631 58.6477 87.9044 58.7088 87.8608 58.7855C87.8182 58.8622 87.7973 58.9479 87.7983 59.0426C87.7983 59.1383 87.8191 59.2244 87.8608 59.3011C87.9034 59.3769 87.9612 59.4375 88.0341 59.483C88.108 59.5275 88.1922 59.5497 88.2869 59.5497C88.358 59.5497 88.4238 59.5365 88.4844 59.5099C88.545 59.4834 88.5975 59.447 88.642 59.4006C88.6875 59.3532 88.723 59.2988 88.7486 59.2372C88.7741 59.1757 88.7869 59.1103 88.7869 59.0412C88.786 58.9493 88.7642 58.8651 88.7216 58.7884C88.679 58.7116 88.6203 58.6501 88.5455 58.6037C88.4706 58.5573 88.3864 58.5341 88.2926 58.5341ZM91.089 58.0511C91.2386 58.0511 91.3825 58.0762 91.5208 58.1264C91.66 58.1766 91.7841 58.2566 91.893 58.3665C92.0028 58.4763 92.0895 58.6222 92.1529 58.804C92.2173 58.9848 92.25 59.2069 92.2509 59.4702C92.2509 59.7173 92.223 59.938 92.1671 60.1321C92.1122 60.3253 92.0331 60.4896 91.9299 60.625C91.8267 60.7604 91.7021 60.8636 91.5563 60.9347C91.4105 61.0047 91.2476 61.0398 91.0677 61.0398C90.8735 61.0398 90.7021 61.0024 90.5535 60.9276C90.4048 60.8518 90.285 60.7491 90.1941 60.6193C90.1041 60.4886 90.0497 60.3419 90.0307 60.179H90.6373C90.6609 60.285 90.7107 60.3674 90.7864 60.4261C90.8622 60.4839 90.9559 60.5128 91.0677 60.5128C91.2571 60.5128 91.401 60.4304 91.4995 60.2656C91.598 60.0999 91.6477 59.8731 91.6486 59.5852H91.6288C91.5852 59.6705 91.5265 59.7438 91.4526 59.8054C91.3788 59.866 91.294 59.9129 91.1984 59.946C91.1037 59.9792 91.0028 59.9957 90.8958 59.9957C90.7244 59.9957 90.5715 59.9555 90.437 59.875C90.3025 59.7945 90.1965 59.6837 90.1188 59.5426C90.0412 59.4015 90.0023 59.2405 90.0023 59.0597C90.0014 58.8646 90.0464 58.6908 90.1373 58.5384C90.2282 58.3859 90.3551 58.2666 90.518 58.1804C90.6818 58.0933 90.8721 58.0502 91.089 58.0511ZM91.0932 58.5341C90.9976 58.5341 90.9124 58.5568 90.8376 58.6023C90.7637 58.6477 90.705 58.7088 90.6614 58.7855C90.6188 58.8622 90.598 58.9479 90.5989 59.0426C90.5989 59.1383 90.6198 59.2244 90.6614 59.3011C90.704 59.3769 90.7618 59.4375 90.8347 59.483C90.9086 59.5275 90.9929 59.5497 91.0876 59.5497C91.1586 59.5497 91.2244 59.5365 91.285 59.5099C91.3456 59.4834 91.3982 59.447 91.4427 59.4006C91.4881 59.3532 91.5236 59.2988 91.5492 59.2372C91.5748 59.1757 91.5876 59.1103 91.5876 59.0412C91.5866 58.9493 91.5648 58.8651 91.5222 58.7884C91.4796 58.7116 91.4209 58.6501 91.3461 58.6037C91.2713 58.5573 91.187 58.5341 91.0932 58.5341ZM93.3832 60.6023L93.3676 60.7585C93.3553 60.8835 93.3316 61.008 93.2966 61.1321C93.2625 61.2571 93.2265 61.3703 93.1886 61.4716C93.1517 61.5729 93.1218 61.6525 93.0991 61.7102H92.7071C92.7213 61.6544 92.7407 61.5762 92.7653 61.4759C92.7899 61.3764 92.8131 61.2647 92.8349 61.1406C92.8567 61.0166 92.8704 60.8902 92.8761 60.7614L92.8832 60.6023H93.3832ZM95.0887 58.0511C95.2383 58.0511 95.3822 58.0762 95.5205 58.1264C95.6597 58.1766 95.7837 58.2566 95.8926 58.3665C96.0025 58.4763 96.0891 58.6222 96.1526 58.804C96.217 58.9848 96.2496 59.2069 96.2506 59.4702C96.2506 59.7173 96.2227 59.938 96.1668 60.1321C96.1119 60.3253 96.0328 60.4896 95.9296 60.625C95.8264 60.7604 95.7018 60.8636 95.556 60.9347C95.4102 61.0047 95.2473 61.0398 95.0674 61.0398C94.8732 61.0398 94.7018 61.0024 94.5532 60.9276C94.4045 60.8518 94.2847 60.7491 94.1938 60.6193C94.1038 60.4886 94.0494 60.3419 94.0304 60.179H94.637C94.6606 60.285 94.7104 60.3674 94.7861 60.4261C94.8619 60.4839 94.9556 60.5128 95.0674 60.5128C95.2568 60.5128 95.4007 60.4304 95.4992 60.2656C95.5977 60.0999 95.6474 59.8731 95.6483 59.5852H95.6284C95.5849 59.6705 95.5262 59.7438 95.4523 59.8054C95.3784 59.866 95.2937 59.9129 95.198 59.946C95.1033 59.9792 95.0025 59.9957 94.8955 59.9957C94.7241 59.9957 94.5711 59.9555 94.4367 59.875C94.3022 59.7945 94.1961 59.6837 94.1185 59.5426C94.0408 59.4015 94.002 59.2405 94.002 59.0597C94.0011 58.8646 94.0461 58.6908 94.137 58.5384C94.2279 58.3859 94.3548 58.2666 94.5176 58.1804C94.6815 58.0933 94.8718 58.0502 95.0887 58.0511ZM95.0929 58.5341C94.9973 58.5341 94.9121 58.5568 94.8372 58.6023C94.7634 58.6477 94.7047 58.7088 94.6611 58.7855C94.6185 58.8622 94.5977 58.9479 94.5986 59.0426C94.5986 59.1383 94.6194 59.2244 94.6611 59.3011C94.7037 59.3769 94.7615 59.4375 94.8344 59.483C94.9083 59.5275 94.9925 59.5497 95.0872 59.5497C95.1583 59.5497 95.2241 59.5365 95.2847 59.5099C95.3453 59.4834 95.3979 59.447 95.4424 59.4006C95.4878 59.3532 95.5233 59.2988 95.5489 59.2372C95.5745 59.1757 95.5872 59.1103 95.5872 59.0412C95.5863 58.9493 95.5645 58.8651 95.5219 58.7884C95.4793 58.7116 95.4206 58.6501 95.3458 58.6037C95.271 58.5573 95.1867 58.5341 95.0929 58.5341ZM97.814 61.3636V57.7273H98.047V61.3636H97.814ZM98.4319 58.9276C98.4205 58.813 98.3718 58.724 98.2856 58.6605C98.1994 58.5971 98.0825 58.5653 97.9347 58.5653C97.8344 58.5653 97.7496 58.5795 97.6805 58.608C97.6114 58.6354 97.5583 58.6738 97.5214 58.723C97.4854 58.7723 97.4674 58.8281 97.4674 58.8906C97.4655 58.9427 97.4764 58.9882 97.5001 59.027C97.5247 59.0658 97.5583 59.0994 97.6009 59.1278C97.6436 59.1553 97.6928 59.1795 97.7487 59.2003C97.8045 59.2202 97.8642 59.2372 97.9276 59.2514L98.189 59.3139C98.3159 59.3423 98.4324 59.3802 98.5384 59.4276C98.6445 59.4749 98.7364 59.5331 98.814 59.6023C98.8917 59.6714 98.9518 59.7528 98.9944 59.8466C99.038 59.9403 99.0602 60.0478 99.0612 60.169C99.0602 60.3471 99.0148 60.5014 98.9248 60.6321C98.8358 60.7618 98.707 60.8627 98.5384 60.9347C98.3708 61.0057 98.1686 61.0412 97.9319 61.0412C97.6971 61.0412 97.4925 61.0052 97.3183 60.9332C97.145 60.8613 97.0096 60.7547 96.912 60.6136C96.8154 60.4716 96.7648 60.2959 96.76 60.0866H97.3552C97.3618 60.1842 97.3898 60.2656 97.439 60.331C97.4892 60.3954 97.556 60.4441 97.6393 60.4773C97.7236 60.5095 97.8187 60.5256 97.9248 60.5256C98.029 60.5256 98.1194 60.5104 98.1961 60.4801C98.2738 60.4498 98.3339 60.4077 98.3765 60.3537C98.4191 60.2997 98.4404 60.2377 98.4404 60.1676C98.4404 60.1023 98.421 60.0473 98.3822 60.0028C98.3443 59.9583 98.2884 59.9205 98.2146 59.8892C98.1417 59.858 98.0522 59.8295 97.9461 59.804L97.6293 59.7244C97.3841 59.6648 97.1904 59.5715 97.0484 59.4446C96.9063 59.3177 96.8358 59.1468 96.8367 58.9318C96.8358 58.7557 96.8827 58.6018 96.9774 58.4702C97.073 58.3385 97.2042 58.2358 97.3708 58.1619C97.5375 58.0881 97.7269 58.0511 97.939 58.0511C98.1549 58.0511 98.3434 58.0881 98.5043 58.1619C98.6663 58.2358 98.7922 58.3385 98.8822 58.4702C98.9722 58.6018 99.0186 58.7543 99.0214 58.9276H98.4319Z" fill="#BBBAC3"/>
<path d="M88.2884 76.0511C88.438 76.0511 88.5819 76.0762 88.7202 76.1264C88.8594 76.1766 88.9834 76.2566 89.0923 76.3665C89.2022 76.4763 89.2888 76.6222 89.3523 76.804C89.4167 76.9848 89.4493 77.2069 89.4503 77.4702C89.4503 77.7173 89.4223 77.938 89.3665 78.1321C89.3116 78.3253 89.2325 78.4896 89.1293 78.625C89.026 78.7604 88.9015 78.8636 88.7557 78.9347C88.6098 79.0047 88.447 79.0398 88.267 79.0398C88.0729 79.0398 87.9015 79.0024 87.7528 78.9276C87.6042 78.8518 87.4844 78.7491 87.3935 78.6193C87.3035 78.4886 87.2491 78.3419 87.2301 78.179H87.8366C87.8603 78.285 87.91 78.3674 87.9858 78.4261C88.0616 78.4839 88.1553 78.5128 88.267 78.5128C88.4564 78.5128 88.6004 78.4304 88.6989 78.2656C88.7973 78.0999 88.8471 77.8731 88.848 77.5852H88.8281C88.7846 77.6705 88.7259 77.7438 88.652 77.8054C88.5781 77.866 88.4934 77.9129 88.3977 77.946C88.303 77.9792 88.2022 77.9957 88.0952 77.9957C87.9238 77.9957 87.7708 77.9555 87.6364 77.875C87.5019 77.7945 87.3958 77.6837 87.3182 77.5426C87.2405 77.4015 87.2017 77.2405 87.2017 77.0597C87.2008 76.8646 87.2457 76.6908 87.3366 76.5384C87.4276 76.3859 87.5545 76.2666 87.7173 76.1804C87.8812 76.0933 88.0715 76.0502 88.2884 76.0511ZM88.2926 76.5341C88.197 76.5341 88.1117 76.5568 88.0369 76.6023C87.9631 76.6477 87.9044 76.7088 87.8608 76.7855C87.8182 76.8622 87.7973 76.9479 87.7983 77.0426C87.7983 77.1383 87.8191 77.2244 87.8608 77.3011C87.9034 77.3769 87.9612 77.4375 88.0341 77.483C88.108 77.5275 88.1922 77.5497 88.2869 77.5497C88.358 77.5497 88.4238 77.5365 88.4844 77.5099C88.545 77.4834 88.5975 77.447 88.642 77.4006C88.6875 77.3532 88.723 77.2988 88.7486 77.2372C88.7741 77.1757 88.7869 77.1103 88.7869 77.0412C88.786 76.9493 88.7642 76.8651 88.7216 76.7884C88.679 76.7116 88.6203 76.6501 88.5455 76.6037C88.4706 76.5573 88.3864 76.5341 88.2926 76.5341ZM91.089 76.0511C91.2386 76.0511 91.3825 76.0762 91.5208 76.1264C91.66 76.1766 91.7841 76.2566 91.893 76.3665C92.0028 76.4763 92.0895 76.6222 92.1529 76.804C92.2173 76.9848 92.25 77.2069 92.2509 77.4702C92.2509 77.7173 92.223 77.938 92.1671 78.1321C92.1122 78.3253 92.0331 78.4896 91.9299 78.625C91.8267 78.7604 91.7021 78.8636 91.5563 78.9347C91.4105 79.0047 91.2476 79.0398 91.0677 79.0398C90.8735 79.0398 90.7021 79.0024 90.5535 78.9276C90.4048 78.8518 90.285 78.7491 90.1941 78.6193C90.1041 78.4886 90.0497 78.3419 90.0307 78.179H90.6373C90.6609 78.285 90.7107 78.3674 90.7864 78.4261C90.8622 78.4839 90.9559 78.5128 91.0677 78.5128C91.2571 78.5128 91.401 78.4304 91.4995 78.2656C91.598 78.0999 91.6477 77.8731 91.6486 77.5852H91.6288C91.5852 77.6705 91.5265 77.7438 91.4526 77.8054C91.3788 77.866 91.294 77.9129 91.1984 77.946C91.1037 77.9792 91.0028 77.9957 90.8958 77.9957C90.7244 77.9957 90.5715 77.9555 90.437 77.875C90.3025 77.7945 90.1965 77.6837 90.1188 77.5426C90.0412 77.4015 90.0023 77.2405 90.0023 77.0597C90.0014 76.8646 90.0464 76.6908 90.1373 76.5384C90.2282 76.3859 90.3551 76.2666 90.518 76.1804C90.6818 76.0933 90.8721 76.0502 91.089 76.0511ZM91.0932 76.5341C90.9976 76.5341 90.9124 76.5568 90.8376 76.6023C90.7637 76.6477 90.705 76.7088 90.6614 76.7855C90.6188 76.8622 90.598 76.9479 90.5989 77.0426C90.5989 77.1383 90.6198 77.2244 90.6614 77.3011C90.704 77.3769 90.7618 77.4375 90.8347 77.483C90.9086 77.5275 90.9929 77.5497 91.0876 77.5497C91.1586 77.5497 91.2244 77.5365 91.285 77.5099C91.3456 77.4834 91.3982 77.447 91.4427 77.4006C91.4881 77.3532 91.5236 77.2988 91.5492 77.2372C91.5748 77.1757 91.5876 77.1103 91.5876 77.0412C91.5866 76.9493 91.5648 76.8651 91.5222 76.7884C91.4796 76.7116 91.4209 76.6501 91.3461 76.6037C91.2713 76.5573 91.187 76.5341 91.0932 76.5341ZM93.3832 78.6023L93.3676 78.7585C93.3553 78.8835 93.3316 79.008 93.2966 79.1321C93.2625 79.2571 93.2265 79.3703 93.1886 79.4716C93.1517 79.5729 93.1218 79.6525 93.0991 79.7102H92.7071C92.7213 79.6544 92.7407 79.5762 92.7653 79.4759C92.7899 79.3764 92.8131 79.2647 92.8349 79.1406C92.8567 79.0166 92.8704 78.8902 92.8761 78.7614L92.8832 78.6023H93.3832ZM95.0887 76.0511C95.2383 76.0511 95.3822 76.0762 95.5205 76.1264C95.6597 76.1766 95.7837 76.2566 95.8926 76.3665C96.0025 76.4763 96.0891 76.6222 96.1526 76.804C96.217 76.9848 96.2496 77.2069 96.2506 77.4702C96.2506 77.7173 96.2227 77.938 96.1668 78.1321C96.1119 78.3253 96.0328 78.4896 95.9296 78.625C95.8264 78.7604 95.7018 78.8636 95.556 78.9347C95.4102 79.0047 95.2473 79.0398 95.0674 79.0398C94.8732 79.0398 94.7018 79.0024 94.5532 78.9276C94.4045 78.8518 94.2847 78.7491 94.1938 78.6193C94.1038 78.4886 94.0494 78.3419 94.0304 78.179H94.637C94.6606 78.285 94.7104 78.3674 94.7861 78.4261C94.8619 78.4839 94.9556 78.5128 95.0674 78.5128C95.2568 78.5128 95.4007 78.4304 95.4992 78.2656C95.5977 78.0999 95.6474 77.8731 95.6483 77.5852H95.6284C95.5849 77.6705 95.5262 77.7438 95.4523 77.8054C95.3784 77.866 95.2937 77.9129 95.198 77.946C95.1033 77.9792 95.0025 77.9957 94.8955 77.9957C94.7241 77.9957 94.5711 77.9555 94.4367 77.875C94.3022 77.7945 94.1961 77.6837 94.1185 77.5426C94.0408 77.4015 94.002 77.2405 94.002 77.0597C94.0011 76.8646 94.0461 76.6908 94.137 76.5384C94.2279 76.3859 94.3548 76.2666 94.5176 76.1804C94.6815 76.0933 94.8718 76.0502 95.0887 76.0511ZM95.0929 76.5341C94.9973 76.5341 94.9121 76.5568 94.8372 76.6023C94.7634 76.6477 94.7047 76.7088 94.6611 76.7855C94.6185 76.8622 94.5977 76.9479 94.5986 77.0426C94.5986 77.1383 94.6194 77.2244 94.6611 77.3011C94.7037 77.3769 94.7615 77.4375 94.8344 77.483C94.9083 77.5275 94.9925 77.5497 95.0872 77.5497C95.1583 77.5497 95.2241 77.5365 95.2847 77.5099C95.3453 77.4834 95.3979 77.447 95.4424 77.4006C95.4878 77.3532 95.5233 77.2988 95.5489 77.2372C95.5745 77.1757 95.5872 77.1103 95.5872 77.0412C95.5863 76.9493 95.5645 76.8651 95.5219 76.7884C95.4793 76.7116 95.4206 76.6501 95.3458 76.6037C95.271 76.5573 95.1867 76.5341 95.0929 76.5341ZM97.814 79.3636V75.7273H98.047V79.3636H97.814ZM98.4319 76.9276C98.4205 76.813 98.3718 76.724 98.2856 76.6605C98.1994 76.5971 98.0825 76.5653 97.9347 76.5653C97.8344 76.5653 97.7496 76.5795 97.6805 76.608C97.6114 76.6354 97.5583 76.6738 97.5214 76.723C97.4854 76.7723 97.4674 76.8281 97.4674 76.8906C97.4655 76.9427 97.4764 76.9882 97.5001 77.027C97.5247 77.0658 97.5583 77.0994 97.6009 77.1278C97.6436 77.1553 97.6928 77.1795 97.7487 77.2003C97.8045 77.2202 97.8642 77.2372 97.9276 77.2514L98.189 77.3139C98.3159 77.3423 98.4324 77.3802 98.5384 77.4276C98.6445 77.4749 98.7364 77.5331 98.814 77.6023C98.8917 77.6714 98.9518 77.7528 98.9944 77.8466C99.038 77.9403 99.0602 78.0478 99.0612 78.169C99.0602 78.3471 99.0148 78.5014 98.9248 78.6321C98.8358 78.7618 98.707 78.8627 98.5384 78.9347C98.3708 79.0057 98.1686 79.0412 97.9319 79.0412C97.6971 79.0412 97.4925 79.0052 97.3183 78.9332C97.145 78.8613 97.0096 78.7547 96.912 78.6136C96.8154 78.4716 96.7648 78.2959 96.76 78.0866H97.3552C97.3618 78.1842 97.3898 78.2656 97.439 78.331C97.4892 78.3954 97.556 78.4441 97.6393 78.4773C97.7236 78.5095 97.8187 78.5256 97.9248 78.5256C98.029 78.5256 98.1194 78.5104 98.1961 78.4801C98.2738 78.4498 98.3339 78.4077 98.3765 78.3537C98.4191 78.2997 98.4404 78.2377 98.4404 78.1676C98.4404 78.1023 98.421 78.0473 98.3822 78.0028C98.3443 77.9583 98.2884 77.9205 98.2146 77.8892C98.1417 77.858 98.0522 77.8295 97.9461 77.804L97.6293 77.7244C97.3841 77.6648 97.1904 77.5715 97.0484 77.4446C96.9063 77.3177 96.8358 77.1468 96.8367 76.9318C96.8358 76.7557 96.8827 76.6018 96.9774 76.4702C97.073 76.3385 97.2042 76.2358 97.3708 76.1619C97.5375 76.0881 97.7269 76.0511 97.939 76.0511C98.1549 76.0511 98.3434 76.0881 98.5043 76.1619C98.6663 76.2358 98.7922 76.3385 98.8822 76.4702C98.9722 76.6018 99.0186 76.7543 99.0214 76.9276H98.4319Z" fill="#BBBAC3"/>
<path d="M74.142 100.598V100.091H76.5312V100.598H75.6406V103H75.0327V100.598H74.142ZM77.7427 103.043C77.5221 103.043 77.3313 102.996 77.1703 102.902C77.0103 102.807 76.8867 102.676 76.7996 102.507C76.7124 102.338 76.6689 102.141 76.6689 101.918C76.6689 101.692 76.7124 101.495 76.7996 101.327C76.8867 101.157 77.0103 101.026 77.1703 100.932C77.3313 100.837 77.5221 100.79 77.7427 100.79C77.9634 100.79 78.1537 100.837 78.3138 100.932C78.4747 101.026 78.5988 101.157 78.6859 101.327C78.773 101.495 78.8166 101.692 78.8166 101.918C78.8166 102.141 78.773 102.338 78.6859 102.507C78.5988 102.676 78.4747 102.807 78.3138 102.902C78.1537 102.996 77.9634 103.043 77.7427 103.043ZM77.7456 102.574C77.846 102.574 77.9298 102.545 77.997 102.489C78.0642 102.431 78.1149 102.352 78.149 102.253C78.184 102.153 78.2015 102.04 78.2015 101.913C78.2015 101.786 78.184 101.673 78.149 101.574C78.1149 101.474 78.0642 101.396 77.997 101.338C77.9298 101.28 77.846 101.251 77.7456 101.251C77.6443 101.251 77.559 101.28 77.4899 101.338C77.4217 101.396 77.3701 101.474 77.3351 101.574C77.301 101.673 77.2839 101.786 77.2839 101.913C77.2839 102.04 77.301 102.153 77.3351 102.253C77.3701 102.352 77.4217 102.431 77.4899 102.489C77.559 102.545 77.6443 102.574 77.7456 102.574ZM80.5306 100.818V101.273H79.2167V100.818H80.5306ZM79.515 100.295H80.1201V102.33C80.1201 102.385 80.1286 102.429 80.1456 102.46C80.1627 102.491 80.1864 102.512 80.2167 102.524C80.2479 102.536 80.2839 102.543 80.3246 102.543C80.353 102.543 80.3814 102.54 80.4098 102.536C80.4383 102.53 80.46 102.526 80.4752 102.523L80.5704 102.973C80.5401 102.982 80.4974 102.993 80.4425 103.006C80.3876 103.019 80.3208 103.027 80.2422 103.03C80.0964 103.036 79.9686 103.016 79.8587 102.972C79.7498 102.927 79.6651 102.858 79.6044 102.764C79.5438 102.67 79.514 102.552 79.515 102.409V100.295ZM81.7069 103.041C81.5677 103.041 81.4437 103.017 81.3348 102.969C81.2259 102.92 81.1397 102.847 81.0762 102.751C81.0137 102.655 80.9825 102.535 80.9825 102.391C80.9825 102.269 81.0047 102.168 81.0492 102.085C81.0938 102.003 81.1544 101.937 81.2311 101.886C81.3078 101.836 81.3949 101.798 81.4924 101.773C81.5909 101.747 81.6941 101.729 81.8021 101.719C81.929 101.705 82.0313 101.693 82.1089 101.682C82.1866 101.67 82.2429 101.652 82.2779 101.628C82.313 101.604 82.3305 101.569 82.3305 101.523V101.514C82.3305 101.424 82.3021 101.355 82.2453 101.305C82.1894 101.256 82.1099 101.232 82.0066 101.232C81.8977 101.232 81.8111 101.256 81.7467 101.304C81.6823 101.351 81.6397 101.411 81.6188 101.483L81.0592 101.438C81.0876 101.305 81.1435 101.19 81.2268 101.094C81.3101 100.996 81.4176 100.921 81.5492 100.869C81.6818 100.816 81.8352 100.79 82.0095 100.79C82.1307 100.79 82.2467 100.804 82.3575 100.832C82.4692 100.861 82.5682 100.905 82.6544 100.964C82.7415 101.024 82.8101 101.101 82.8603 101.195C82.9105 101.287 82.9356 101.399 82.9356 101.528V103H82.3617V102.697H82.3447C82.3097 102.766 82.2628 102.826 82.2041 102.878C82.1454 102.929 82.0748 102.969 81.9924 102.999C81.91 103.027 81.8149 103.041 81.7069 103.041ZM81.8802 102.624C81.9692 102.624 82.0478 102.606 82.116 102.571C82.1842 102.535 82.2377 102.487 82.2765 102.426C82.3153 102.366 82.3348 102.297 82.3348 102.22V101.989C82.3158 102.001 82.2898 102.012 82.2566 102.023C82.2244 102.032 82.188 102.041 82.1473 102.05C82.1065 102.057 82.0658 102.064 82.0251 102.071C81.9844 102.077 81.9474 102.082 81.9143 102.087C81.8433 102.097 81.7813 102.114 81.7282 102.136C81.6752 102.159 81.634 102.19 81.6046 102.229C81.5753 102.267 81.5606 102.314 81.5606 102.371C81.5606 102.453 81.5904 102.516 81.6501 102.56C81.7107 102.602 81.7874 102.624 81.8802 102.624ZM84.1702 100.091V103H83.5651V100.091H84.1702ZM85.1686 103.037C85.0749 103.037 84.9944 103.004 84.9271 102.938C84.8608 102.87 84.8277 102.79 84.8277 102.696C84.8277 102.603 84.8608 102.524 84.9271 102.457C84.9944 102.391 85.0749 102.358 85.1686 102.358C85.2595 102.358 85.3391 102.391 85.4072 102.457C85.4754 102.524 85.5095 102.603 85.5095 102.696C85.5095 102.759 85.4934 102.816 85.4612 102.868C85.43 102.919 85.3888 102.96 85.3376 102.991C85.2865 103.022 85.2302 103.037 85.1686 103.037ZM85.1686 101.509C85.0749 101.509 84.9944 101.475 84.9271 101.409C84.8608 101.343 84.8277 101.262 84.8277 101.168C84.8277 101.075 84.8608 100.996 84.9271 100.93C84.9944 100.864 85.0749 100.831 85.1686 100.831C85.2595 100.831 85.3391 100.864 85.4072 100.93C85.4754 100.996 85.5095 101.075 85.5095 101.168C85.5095 101.231 85.4934 101.289 85.4612 101.341C85.43 101.392 85.3888 101.433 85.3376 101.463C85.2865 101.493 85.2302 101.509 85.1686 101.509ZM88.299 100.051C88.4486 100.051 88.5925 100.076 88.7308 100.126C88.87 100.177 88.9941 100.257 89.103 100.366C89.2128 100.476 89.2995 100.622 89.3629 100.804C89.4273 100.985 89.46 101.207 89.4609 101.47C89.4609 101.717 89.433 101.938 89.3771 102.132C89.3222 102.325 89.2431 102.49 89.1399 102.625C89.0367 102.76 88.9121 102.864 88.7663 102.935C88.6205 103.005 88.4576 103.04 88.2777 103.04C88.0835 103.04 87.9121 103.002 87.7635 102.928C87.6148 102.852 87.495 102.749 87.4041 102.619C87.3141 102.489 87.2597 102.342 87.2407 102.179H87.8473C87.8709 102.285 87.9207 102.367 87.9964 102.426C88.0722 102.484 88.1659 102.513 88.2777 102.513C88.4671 102.513 88.611 102.43 88.7095 102.266C88.808 102.1 88.8577 101.873 88.8586 101.585H88.8387C88.7952 101.67 88.7365 101.744 88.6626 101.805C88.5887 101.866 88.504 101.913 88.4084 101.946C88.3137 101.979 88.2128 101.996 88.1058 101.996C87.9344 101.996 87.7815 101.955 87.647 101.875C87.5125 101.795 87.4065 101.684 87.3288 101.543C87.2512 101.402 87.2123 101.241 87.2123 101.06C87.2114 100.865 87.2564 100.691 87.3473 100.538C87.4382 100.386 87.5651 100.267 87.728 100.18C87.8918 100.093 88.0821 100.05 88.299 100.051ZM88.3032 100.534C88.2076 100.534 88.1224 100.557 88.0476 100.602C87.9737 100.648 87.915 100.709 87.8714 100.786C87.8288 100.862 87.808 100.948 87.8089 101.043C87.8089 101.138 87.8298 101.224 87.8714 101.301C87.914 101.377 87.9718 101.437 88.0447 101.483C88.1186 101.527 88.2029 101.55 88.2976 101.55C88.3686 101.55 88.4344 101.536 88.495 101.51C88.5556 101.483 88.6082 101.447 88.6527 101.401C88.6981 101.353 88.7336 101.299 88.7592 101.237C88.7848 101.176 88.7976 101.11 88.7976 101.041C88.7966 100.949 88.7748 100.865 88.7322 100.788C88.6896 100.712 88.6309 100.65 88.5561 100.604C88.4813 100.557 88.397 100.534 88.3032 100.534ZM91.0996 100.051C91.2492 100.051 91.3932 100.076 91.5314 100.126C91.6706 100.177 91.7947 100.257 91.9036 100.366C92.0134 100.476 92.1001 100.622 92.1635 100.804C92.2279 100.985 92.2606 101.207 92.2615 101.47C92.2615 101.717 92.2336 101.938 92.1777 102.132C92.1228 102.325 92.0437 102.49 91.9405 102.625C91.8373 102.76 91.7128 102.864 91.5669 102.935C91.4211 103.005 91.2582 103.04 91.0783 103.04C90.8842 103.04 90.7128 103.002 90.5641 102.928C90.4154 102.852 90.2956 102.749 90.2047 102.619C90.1148 102.489 90.0603 102.342 90.0414 102.179H90.6479C90.6716 102.285 90.7213 102.367 90.797 102.426C90.8728 102.484 90.9666 102.513 91.0783 102.513C91.2677 102.513 91.4116 102.43 91.5101 102.266C91.6086 102.1 91.6583 101.873 91.6593 101.585H91.6394C91.5958 101.67 91.5371 101.744 91.4632 101.805C91.3894 101.866 91.3046 101.913 91.209 101.946C91.1143 101.979 91.0134 101.996 90.9064 101.996C90.735 101.996 90.5821 101.955 90.4476 101.875C90.3131 101.795 90.2071 101.684 90.1294 101.543C90.0518 101.402 90.013 101.241 90.013 101.06C90.012 100.865 90.057 100.691 90.1479 100.538C90.2388 100.386 90.3657 100.267 90.5286 100.18C90.6924 100.093 90.8827 100.05 91.0996 100.051ZM91.1039 100.534C91.0082 100.534 90.923 100.557 90.8482 100.602C90.7743 100.648 90.7156 100.709 90.672 100.786C90.6294 100.862 90.6086 100.948 90.6095 101.043C90.6095 101.138 90.6304 101.224 90.672 101.301C90.7147 101.377 90.7724 101.437 90.8453 101.483C90.9192 101.527 91.0035 101.55 91.0982 101.55C91.1692 101.55 91.235 101.536 91.2956 101.51C91.3562 101.483 91.4088 101.447 91.4533 101.401C91.4987 101.353 91.5343 101.299 91.5598 101.237C91.5854 101.176 91.5982 101.11 91.5982 101.041C91.5972 100.949 91.5755 100.865 91.5328 100.788C91.4902 100.712 91.4315 100.65 91.3567 100.604C91.2819 100.557 91.1976 100.534 91.1039 100.534ZM93.3938 102.602L93.3782 102.759C93.3659 102.884 93.3422 103.008 93.3072 103.132C93.2731 103.257 93.2371 103.37 93.1992 103.472C93.1623 103.573 93.1325 103.652 93.1097 103.71H92.7177C92.7319 103.654 92.7513 103.576 92.7759 103.476C92.8006 103.376 92.8238 103.265 92.8455 103.141C92.8673 103.017 92.8811 102.89 92.8867 102.761L92.8938 102.602H93.3938ZM95.0993 100.051C95.2489 100.051 95.3929 100.076 95.5311 100.126C95.6703 100.177 95.7944 100.257 95.9033 100.366C96.0131 100.476 96.0998 100.622 96.1632 100.804C96.2276 100.985 96.2603 101.207 96.2612 101.47C96.2612 101.717 96.2333 101.938 96.1774 102.132C96.1225 102.325 96.0434 102.49 95.9402 102.625C95.837 102.76 95.7125 102.864 95.5666 102.935C95.4208 103.005 95.2579 103.04 95.078 103.04C94.8839 103.04 94.7125 103.002 94.5638 102.928C94.4151 102.852 94.2953 102.749 94.2044 102.619C94.1144 102.489 94.06 102.342 94.0411 102.179H94.6476C94.6713 102.285 94.721 102.367 94.7967 102.426C94.8725 102.484 94.9662 102.513 95.078 102.513C95.2674 102.513 95.4113 102.43 95.5098 102.266C95.6083 102.1 95.658 101.873 95.6589 101.585H95.6391C95.5955 101.67 95.5368 101.744 95.4629 101.805C95.3891 101.866 95.3043 101.913 95.2087 101.946C95.114 101.979 95.0131 101.996 94.9061 101.996C94.7347 101.996 94.5818 101.955 94.4473 101.875C94.3128 101.795 94.2068 101.684 94.1291 101.543C94.0515 101.402 94.0126 101.241 94.0126 101.06C94.0117 100.865 94.0567 100.691 94.1476 100.538C94.2385 100.386 94.3654 100.267 94.5283 100.18C94.6921 100.093 94.8824 100.05 95.0993 100.051ZM95.1036 100.534C95.0079 100.534 94.9227 100.557 94.8479 100.602C94.774 100.648 94.7153 100.709 94.6717 100.786C94.6291 100.862 94.6083 100.948 94.6092 101.043C94.6092 101.138 94.6301 101.224 94.6717 101.301C94.7143 101.377 94.7721 101.437 94.845 101.483C94.9189 101.527 95.0032 101.55 95.0979 101.55C95.1689 101.55 95.2347 101.536 95.2953 101.51C95.3559 101.483 95.4085 101.447 95.453 101.401C95.4984 101.353 95.5339 101.299 95.5595 101.237C95.5851 101.176 95.5979 101.11 95.5979 101.041C95.5969 100.949 95.5751 100.865 95.5325 100.788C95.4899 100.712 95.4312 100.65 95.3564 100.604C95.2816 100.557 95.1973 100.534 95.1036 100.534ZM97.8246 103.364V99.7273H98.0576V103.364H97.8246ZM98.4425 100.928C98.4312 100.813 98.3824 100.724 98.2962 100.661C98.21 100.597 98.0931 100.565 97.9454 100.565C97.845 100.565 97.7602 100.58 97.6911 100.608C97.622 100.635 97.5689 100.674 97.532 100.723C97.496 100.772 97.478 100.828 97.478 100.891C97.4761 100.943 97.487 100.988 97.5107 101.027C97.5353 101.066 97.5689 101.099 97.6116 101.128C97.6542 101.155 97.7034 101.179 97.7593 101.2C97.8152 101.22 97.8748 101.237 97.9383 101.251L98.1996 101.314C98.3265 101.342 98.443 101.38 98.5491 101.428C98.6551 101.475 98.747 101.533 98.8246 101.602C98.9023 101.671 98.9624 101.753 99.005 101.847C99.0486 101.94 99.0708 102.048 99.0718 102.169C99.0708 102.347 99.0254 102.501 98.9354 102.632C98.8464 102.762 98.7176 102.863 98.5491 102.935C98.3814 103.006 98.1793 103.041 97.9425 103.041C97.7077 103.041 97.5031 103.005 97.3289 102.933C97.1556 102.861 97.0202 102.755 96.9226 102.614C96.8261 102.472 96.7754 102.296 96.7707 102.087H97.3658C97.3725 102.184 97.4004 102.266 97.4496 102.331C97.4998 102.395 97.5666 102.444 97.6499 102.477C97.7342 102.509 97.8294 102.526 97.9354 102.526C98.0396 102.526 98.13 102.51 98.2067 102.48C98.2844 102.45 98.3445 102.408 98.3871 102.354C98.4297 102.3 98.4511 102.238 98.4511 102.168C98.4511 102.102 98.4316 102.047 98.3928 102.003C98.3549 101.958 98.2991 101.92 98.2252 101.889C98.1523 101.858 98.0628 101.83 97.9567 101.804L97.64 101.724C97.3947 101.665 97.2011 101.571 97.059 101.445C96.917 101.318 96.8464 101.147 96.8474 100.932C96.8464 100.756 96.8933 100.602 96.988 100.47C97.0836 100.339 97.2148 100.236 97.3814 100.162C97.5481 100.088 97.7375 100.051 97.9496 100.051C98.1655 100.051 98.354 100.088 98.515 100.162C98.6769 100.236 98.8029 100.339 98.8928 100.47C98.9828 100.602 99.0292 100.754 99.032 100.928H98.4425Z" fill="#838EA0"/>
<path d="M48.7507 41.5455V43H48.4432V41.8374H48.4347L48.1016 42.0462V41.7734L48.4616 41.5455H48.7507Z" fill="#9A99A7"/>
<path d="M48.7507 59.5455V61H48.4432V59.8374H48.4347L48.1016 60.0462V59.7734L48.4616 59.5455H48.7507Z" fill="#9A99A7"/>
<path d="M48.7507 77.5455V79H48.4432V77.8374H48.4347L48.1016 78.0462V77.7734L48.4616 77.5455H48.7507Z" fill="#9A99A7"/>
<rect x="30" y="17" width="74" height="14" rx="2" fill="#1A172D"/>
<path d="M36.7464 22.8913C36.7294 22.7195 36.6563 22.5859 36.527 22.4908C36.3977 22.3956 36.2223 22.348 36.0007 22.348C35.8501 22.348 35.723 22.3693 35.6193 22.4119C35.5156 22.4531 35.4361 22.5107 35.3807 22.5845C35.3267 22.6584 35.2997 22.7422 35.2997 22.8359C35.2969 22.9141 35.3132 22.9822 35.3487 23.0405C35.3857 23.0987 35.4361 23.1491 35.5 23.1918C35.5639 23.233 35.6378 23.2692 35.7216 23.3004C35.8054 23.3303 35.8949 23.3558 35.9901 23.3771L36.3821 23.4709C36.5724 23.5135 36.7472 23.5703 36.9062 23.6413C37.0653 23.7124 37.2031 23.7997 37.3196 23.9034C37.4361 24.0071 37.5263 24.1293 37.5902 24.2699C37.6555 24.4105 37.6889 24.5717 37.6903 24.7536C37.6889 25.0206 37.6207 25.2521 37.4858 25.4482C37.3523 25.6428 37.1591 25.794 36.9062 25.902C36.6548 26.0085 36.3516 26.0618 35.9964 26.0618C35.6442 26.0618 35.3374 26.0078 35.076 25.8999C34.8161 25.7919 34.6129 25.6321 34.4666 25.4205C34.3217 25.2074 34.2457 24.9439 34.2386 24.63H35.1314C35.1413 24.7763 35.1832 24.8984 35.2571 24.9964C35.3324 25.093 35.4325 25.1662 35.5575 25.2159C35.6839 25.2642 35.8267 25.2884 35.9858 25.2884C36.142 25.2884 36.2777 25.2656 36.3928 25.2202C36.5092 25.1747 36.5994 25.1115 36.6634 25.0305C36.7273 24.9496 36.7592 24.8565 36.7592 24.7514C36.7592 24.6534 36.7301 24.571 36.6719 24.5043C36.6151 24.4375 36.5313 24.3807 36.4205 24.3338C36.3111 24.2869 36.1768 24.2443 36.0178 24.206L35.5426 24.0866C35.1747 23.9972 34.8842 23.8572 34.6712 23.6669C34.4581 23.4766 34.3523 23.2202 34.3537 22.8977C34.3523 22.6335 34.4226 22.4027 34.5646 22.2053C34.7081 22.0078 34.9048 21.8537 35.1548 21.7429C35.4048 21.6321 35.6889 21.5767 36.0071 21.5767C36.331 21.5767 36.6136 21.6321 36.8551 21.7429C37.098 21.8537 37.2869 22.0078 37.4219 22.2053C37.5568 22.4027 37.6264 22.6314 37.6307 22.8913H36.7464ZM39.4415 24.108V26H38.5339V21.6364H39.416V23.3047H39.4543C39.5282 23.1115 39.6475 22.9602 39.8123 22.8509C39.977 22.7401 40.1837 22.6847 40.4323 22.6847C40.6596 22.6847 40.8577 22.7344 41.0268 22.8338C41.1972 22.9318 41.3293 23.0732 41.4231 23.2578C41.5182 23.4411 41.5651 23.6605 41.5637 23.9162V26H40.656V24.0781C40.6574 23.8764 40.6063 23.7195 40.5026 23.6072C40.4003 23.495 40.2569 23.4389 40.0722 23.4389C39.9486 23.4389 39.8393 23.4652 39.7441 23.5178C39.6503 23.5703 39.5765 23.647 39.5225 23.7479C39.4699 23.8473 39.4429 23.9673 39.4415 24.108ZM43.9967 26.0639C43.6657 26.0639 43.3795 25.9936 43.138 25.853C42.898 25.7109 42.7126 25.5135 42.5819 25.2607C42.4512 25.0064 42.3859 24.7116 42.3859 24.3764C42.3859 24.0384 42.4512 23.7429 42.5819 23.4901C42.7126 23.2358 42.898 23.0384 43.138 22.8977C43.3795 22.7557 43.6657 22.6847 43.9967 22.6847C44.3277 22.6847 44.6132 22.7557 44.8532 22.8977C45.0947 23.0384 45.2808 23.2358 45.4115 23.4901C45.5421 23.7429 45.6075 24.0384 45.6075 24.3764C45.6075 24.7116 45.5421 25.0064 45.4115 25.2607C45.2808 25.5135 45.0947 25.7109 44.8532 25.853C44.6132 25.9936 44.3277 26.0639 43.9967 26.0639ZM44.001 25.3608C44.1515 25.3608 44.2772 25.3182 44.3781 25.233C44.4789 25.1463 44.5549 25.0284 44.6061 24.8793C44.6586 24.7301 44.6849 24.5604 44.6849 24.37C44.6849 24.1797 44.6586 24.0099 44.6061 23.8608C44.5549 23.7116 44.4789 23.5937 44.3781 23.5071C44.2772 23.4205 44.1515 23.3771 44.001 23.3771C43.849 23.3771 43.7211 23.4205 43.6174 23.5071C43.5152 23.5937 43.4377 23.7116 43.3852 23.8608C43.334 24.0099 43.3085 24.1797 43.3085 24.37C43.3085 24.5604 43.334 24.7301 43.3852 24.8793C43.4377 25.0284 43.5152 25.1463 43.6174 25.233C43.7211 25.3182 43.849 25.3608 44.001 25.3608ZM46.4377 27.2273V22.7273H47.3326V23.277H47.3731C47.4128 23.1889 47.4704 23.0994 47.5456 23.0085C47.6223 22.9162 47.7218 22.8395 47.8439 22.7784C47.9675 22.7159 48.1209 22.6847 48.3042 22.6847C48.5428 22.6847 48.763 22.7472 48.9647 22.8722C49.1664 22.9957 49.3276 23.1825 49.4483 23.4325C49.5691 23.6811 49.6294 23.9929 49.6294 24.3679C49.6294 24.733 49.5705 25.0412 49.4526 25.2926C49.3361 25.5426 49.177 25.7322 48.9753 25.8615C48.775 25.9893 48.5506 26.0533 48.302 26.0533C48.1259 26.0533 47.976 26.0241 47.8525 25.9659C47.7303 25.9077 47.6302 25.8345 47.552 25.7464C47.4739 25.657 47.4142 25.5668 47.3731 25.4759H47.3454V27.2273H46.4377ZM47.3262 24.3636C47.3262 24.5582 47.3532 24.728 47.4071 24.8729C47.4611 25.0178 47.5392 25.1307 47.6415 25.2116C47.7438 25.2912 47.8681 25.331 48.0144 25.331C48.1621 25.331 48.2871 25.2905 48.3894 25.2095C48.4917 25.1271 48.5691 25.0135 48.6216 24.8686C48.6756 24.7223 48.7026 24.554 48.7026 24.3636C48.7026 24.1747 48.6763 24.0085 48.6238 23.8651C48.5712 23.7216 48.4938 23.6094 48.3915 23.5284C48.2892 23.4474 48.1635 23.407 48.0144 23.407C47.8667 23.407 47.7417 23.446 47.6394 23.5241C47.5385 23.6023 47.4611 23.7131 47.4071 23.8565C47.3532 24 47.3262 24.169 47.3262 24.3636ZM50.4746 27.2273V22.7273H51.3694V23.277H51.4099C51.4497 23.1889 51.5072 23.0994 51.5825 23.0085C51.6592 22.9162 51.7586 22.8395 51.8808 22.7784C52.0044 22.7159 52.1578 22.6847 52.341 22.6847C52.5797 22.6847 52.7998 22.7472 53.0015 22.8722C53.2033 22.9957 53.3645 23.1825 53.4852 23.4325C53.606 23.6811 53.6663 23.9929 53.6663 24.3679C53.6663 24.733 53.6074 25.0412 53.4895 25.2926C53.373 25.5426 53.2139 25.7322 53.0122 25.8615C52.8119 25.9893 52.5875 26.0533 52.3389 26.0533C52.1628 26.0533 52.0129 26.0241 51.8893 25.9659C51.7672 25.9077 51.667 25.8345 51.5889 25.7464C51.5108 25.657 51.4511 25.5668 51.4099 25.4759H51.3822V27.2273H50.4746ZM51.3631 24.3636C51.3631 24.5582 51.39 24.728 51.444 24.8729C51.498 25.0178 51.5761 25.1307 51.6784 25.2116C51.7807 25.2912 51.905 25.331 52.0513 25.331C52.199 25.331 52.324 25.2905 52.4263 25.2095C52.5285 25.1271 52.606 25.0135 52.6585 24.8686C52.7125 24.7223 52.7395 24.554 52.7395 24.3636C52.7395 24.1747 52.7132 24.0085 52.6606 23.8651C52.6081 23.7216 52.5307 23.6094 52.4284 23.5284C52.3261 23.4474 52.2004 23.407 52.0513 23.407C51.9035 23.407 51.7785 23.446 51.6763 23.5241C51.5754 23.6023 51.498 23.7131 51.444 23.8565C51.39 24 51.3631 24.169 51.3631 24.3636ZM54.5114 26V22.7273H55.4191V26H54.5114ZM54.9674 22.3054C54.8325 22.3054 54.7167 22.2607 54.6201 22.1712C54.5249 22.0803 54.4773 21.9716 54.4773 21.8452C54.4773 21.7202 54.5249 21.6129 54.6201 21.5234C54.7167 21.4325 54.8325 21.3871 54.9674 21.3871C55.1023 21.3871 55.2174 21.4325 55.3126 21.5234C55.4092 21.6129 55.4575 21.7202 55.4575 21.8452C55.4575 21.9716 55.4092 22.0803 55.3126 22.1712C55.2174 22.2607 55.1023 22.3054 54.9674 22.3054ZM57.2939 24.108V26H56.3862V22.7273H57.2513V23.3047H57.2896C57.3621 23.1143 57.4835 22.9638 57.654 22.853C57.8244 22.7408 58.0311 22.6847 58.274 22.6847C58.5013 22.6847 58.6994 22.7344 58.8684 22.8338C59.0375 22.9332 59.1689 23.0753 59.2626 23.2599C59.3564 23.4432 59.4032 23.6619 59.4032 23.9162V26H58.4956V24.0781C58.497 23.8778 58.4459 23.7216 58.3422 23.6094C58.2385 23.4957 58.0957 23.4389 57.9139 23.4389C57.7917 23.4389 57.6838 23.4652 57.59 23.5178C57.4977 23.5703 57.4253 23.647 57.3727 23.7479C57.3216 23.8473 57.2953 23.9673 57.2939 24.108ZM61.8331 27.2955C61.539 27.2955 61.2869 27.255 61.0767 27.174C60.8679 27.0945 60.7017 26.9858 60.5781 26.848C60.4545 26.7102 60.3742 26.5554 60.3373 26.3835L61.1768 26.2706C61.2024 26.3359 61.2429 26.397 61.2983 26.4538C61.3537 26.5107 61.4268 26.5561 61.5177 26.5902C61.61 26.6257 61.7223 26.6435 61.8544 26.6435C62.0518 26.6435 62.2144 26.5952 62.3423 26.4986C62.4715 26.4034 62.5362 26.2436 62.5362 26.0192V25.4205H62.4978C62.4581 25.5114 62.3984 25.5973 62.3188 25.6783C62.2393 25.7592 62.137 25.8253 62.012 25.8764C61.887 25.9276 61.7379 25.9531 61.5646 25.9531C61.3188 25.9531 61.0951 25.8963 60.8934 25.7827C60.6931 25.6676 60.5333 25.4922 60.414 25.2564C60.2961 25.0192 60.2372 24.7195 60.2372 24.3572C60.2372 23.9865 60.2975 23.6768 60.4183 23.4283C60.539 23.1797 60.6995 22.9936 60.8998 22.87C61.1015 22.7464 61.3224 22.6847 61.5625 22.6847C61.7457 22.6847 61.8991 22.7159 62.0227 22.7784C62.1463 22.8395 62.2457 22.9162 62.321 23.0085C62.3977 23.0994 62.4566 23.1889 62.4978 23.277H62.5319V22.7273H63.4332V26.032C63.4332 26.3104 63.365 26.5433 63.2287 26.7308C63.0923 26.9183 62.9034 27.0589 62.6619 27.1527C62.4218 27.2479 62.1456 27.2955 61.8331 27.2955ZM61.8522 25.2713C61.9985 25.2713 62.1221 25.2351 62.223 25.1626C62.3252 25.0888 62.4034 24.9837 62.4573 24.8473C62.5127 24.7095 62.5404 24.5447 62.5404 24.353C62.5404 24.1612 62.5135 23.995 62.4595 23.8544C62.4055 23.7124 62.3274 23.6023 62.2251 23.5241C62.1228 23.446 61.9985 23.407 61.8522 23.407C61.7031 23.407 61.5774 23.4474 61.4751 23.5284C61.3728 23.608 61.2954 23.7187 61.2429 23.8608C61.1903 24.0028 61.164 24.1669 61.164 24.353C61.164 24.5419 61.1903 24.7053 61.2429 24.843C61.2968 24.9794 61.3742 25.0852 61.4751 25.1605C61.5774 25.2344 61.7031 25.2713 61.8522 25.2713ZM67.5029 26.0639C67.1676 26.0639 66.8793 25.9929 66.6378 25.8509C66.3977 25.7074 66.2131 25.5085 66.0838 25.2543C65.956 25 65.8921 24.7074 65.8921 24.3764C65.8921 24.0412 65.9567 23.7472 66.086 23.4943C66.2166 23.2401 66.402 23.0419 66.6421 22.8999C66.8821 22.7564 67.1676 22.6847 67.4986 22.6847C67.7841 22.6847 68.0341 22.7365 68.2486 22.8402C68.4631 22.9439 68.6328 23.0895 68.7578 23.277C68.8828 23.4645 68.9517 23.6847 68.9645 23.9375H68.108C68.0838 23.7741 68.0199 23.6428 67.9162 23.5433C67.8139 23.4425 67.6797 23.392 67.5135 23.392C67.3729 23.392 67.25 23.4304 67.1449 23.5071C67.0412 23.5824 66.9602 23.6925 66.902 23.8374C66.8438 23.9822 66.8147 24.1577 66.8147 24.3636C66.8147 24.5724 66.8431 24.75 66.8999 24.8963C66.9581 25.0426 67.0398 25.1541 67.1449 25.2308C67.25 25.3075 67.3729 25.3459 67.5135 25.3459C67.6172 25.3459 67.7102 25.3246 67.7926 25.282C67.8764 25.2393 67.9453 25.1776 67.9993 25.0966C68.0547 25.0142 68.0909 24.9155 68.108 24.8004H68.9645C68.9503 25.0504 68.8821 25.2706 68.76 25.4609C68.6392 25.6499 68.4723 25.7976 68.2593 25.9041C68.0462 26.0107 67.7941 26.0639 67.5029 26.0639ZM70.7189 26.0618C70.5101 26.0618 70.324 26.0256 70.1607 25.9531C69.9973 25.8793 69.868 25.7706 69.7729 25.6271C69.6791 25.4822 69.6322 25.3018 69.6322 25.0859C69.6322 24.9041 69.6656 24.7514 69.7324 24.6278C69.7991 24.5043 69.8901 24.4048 70.0051 24.3295C70.1202 24.2543 70.2509 24.1974 70.3972 24.1591C70.5449 24.1207 70.6997 24.0938 70.8616 24.0781C71.052 24.0582 71.2054 24.0398 71.3219 24.0227C71.4384 24.0043 71.5229 23.9773 71.5754 23.9418C71.628 23.9062 71.6543 23.8537 71.6543 23.7841V23.7713C71.6543 23.6364 71.6116 23.532 71.5264 23.4581C71.4426 23.3842 71.3233 23.3473 71.1685 23.3473C71.0051 23.3473 70.8751 23.3835 70.7786 23.456C70.682 23.527 70.618 23.6165 70.5868 23.7244L69.7473 23.6562C69.7899 23.4574 69.8737 23.2855 69.9987 23.1406C70.1237 22.9943 70.2849 22.8821 70.4824 22.804C70.6813 22.7244 70.9114 22.6847 71.1727 22.6847C71.3545 22.6847 71.5286 22.706 71.6947 22.7486C71.8624 22.7912 72.0108 22.8572 72.1401 22.9467C72.2707 23.0362 72.3737 23.1513 72.449 23.2919C72.5243 23.4311 72.5619 23.598 72.5619 23.7926V26H71.7011V25.5462H71.6756C71.623 25.6484 71.5527 25.7386 71.4646 25.8168C71.3766 25.8935 71.2707 25.9538 71.1472 25.9979C71.0236 26.0405 70.8808 26.0618 70.7189 26.0618ZM70.9788 25.4354C71.1124 25.4354 71.2303 25.4091 71.3325 25.3565C71.4348 25.3026 71.5151 25.2301 71.5733 25.1392C71.6315 25.0483 71.6607 24.9453 71.6607 24.8303V24.483C71.6322 24.5014 71.5932 24.5185 71.5435 24.5341C71.4952 24.5483 71.4405 24.5618 71.3794 24.5746C71.3183 24.5859 71.2572 24.5966 71.1962 24.6065C71.1351 24.6151 71.0797 24.6229 71.03 24.63C70.9234 24.6456 70.8304 24.6705 70.7509 24.7045C70.6713 24.7386 70.6095 24.7848 70.5655 24.843C70.5215 24.8999 70.4994 24.9709 70.4994 25.0561C70.4994 25.1797 70.5442 25.2741 70.6337 25.3395C70.7246 25.4034 70.8396 25.4354 70.9788 25.4354ZM73.5061 26V22.7273H74.3861V23.2983H74.4202C74.4798 23.0952 74.58 22.9418 74.7206 22.8381C74.8612 22.733 75.0232 22.6804 75.2064 22.6804C75.2519 22.6804 75.3009 22.6832 75.3534 22.6889C75.406 22.6946 75.4521 22.7024 75.4919 22.7124V23.5178C75.4493 23.505 75.3904 23.4936 75.3151 23.4837C75.2398 23.4737 75.1709 23.4688 75.1084 23.4688C74.9749 23.4688 74.8556 23.4979 74.7504 23.5561C74.6467 23.6129 74.5644 23.6925 74.5033 23.7947C74.4436 23.897 74.4138 24.0149 74.4138 24.1484V26H73.5061ZM78.106 22.7273V23.4091H76.1352V22.7273H78.106ZM76.5826 21.9432H77.4903V24.9943C77.4903 25.0781 77.503 25.1435 77.5286 25.1903C77.5542 25.2358 77.5897 25.2678 77.6352 25.2862C77.682 25.3047 77.736 25.3139 77.7971 25.3139C77.8397 25.3139 77.8823 25.3104 77.9249 25.3033C77.9675 25.2947 78.0002 25.2884 78.0229 25.2841L78.1657 25.9595C78.1202 25.9737 78.0563 25.9901 77.9739 26.0085C77.8915 26.0284 77.7914 26.0405 77.6735 26.0447C77.4548 26.0533 77.263 26.0241 77.0982 25.9574C76.9349 25.8906 76.8077 25.7869 76.7168 25.6463C76.6259 25.5057 76.5812 25.3281 76.5826 25.1136V21.9432Z" fill="#BBBAC3"/>
<rect x="34" y="36" width="8" height="8" rx="2" fill="#9A99A7"/>
<rect x="34" y="54" width="8" height="8" rx="2" fill="#9A99A7"/>
<rect x="34" y="72" width="8" height="8" rx="2" fill="#9A99A7"/>
<rect x="44" y="36" width="28" height="3" rx="1.5" fill="#9A99A7"/>
<rect x="44" y="54" width="28" height="3" rx="1.5" fill="#9A99A7"/>
<rect x="44" y="72" width="28" height="3" rx="1.5" fill="#9A99A7"/>
<rect x="30" y="48" width="74" height="1" rx="0.5" fill="#504D65"/>
<rect x="30" y="66" width="74" height="1" rx="0.5" fill="#504D65"/>
<rect x="30" y="84" width="74" height="1" rx="0.5" fill="#504D65"/>
<rect x="44" y="42" width="3" height="1" rx="0.5" fill="#9A99A7"/>
<rect x="44" y="60" width="3" height="1" rx="0.5" fill="#9A99A7"/>
<rect x="44" y="78" width="3" height="1" rx="0.5" fill="#9A99A7"/>
<rect x="50" y="42" width="3" height="1" rx="0.5" fill="#9A99A7"/>
<rect x="50" y="60" width="3" height="1" rx="0.5" fill="#9A99A7"/>
<rect x="50" y="78" width="3" height="1" rx="0.5" fill="#9A99A7"/>
<rect x="74" y="36" width="3" height="3" rx="1" fill="#9A99A7"/>
<rect x="74" y="54" width="3" height="3" rx="1" fill="#9A99A7"/>
<rect x="74" y="72" width="3" height="3" rx="1" fill="#9A99A7"/>
<rect x="116" y="17" width="74" height="190" rx="2" fill="#504D65" fill-opacity="0.5"/>
<rect x="116" y="17" width="74" height="14" rx="2" fill="#1A172D"/>
<path d="M124.229 23.1641H123.296C123.279 23.0433 123.244 22.9361 123.192 22.8423C123.139 22.7472 123.072 22.6662 122.989 22.5994C122.907 22.5327 122.812 22.4815 122.704 22.446C122.597 22.4105 122.482 22.3928 122.357 22.3928C122.131 22.3928 121.934 22.4489 121.766 22.5611C121.599 22.6719 121.469 22.8338 121.376 23.0469C121.284 23.2585 121.238 23.5156 121.238 23.8182C121.238 24.1293 121.284 24.3906 121.376 24.6023C121.47 24.8139 121.601 24.9737 121.768 25.0817C121.936 25.1896 122.13 25.2436 122.35 25.2436C122.474 25.2436 122.588 25.2273 122.693 25.1946C122.8 25.1619 122.894 25.1143 122.977 25.0518C123.059 24.9879 123.127 24.9105 123.181 24.8196C123.237 24.7287 123.275 24.625 123.296 24.5085L124.229 24.5128C124.205 24.7131 124.145 24.9062 124.048 25.0923C123.953 25.277 123.825 25.4425 123.663 25.5888C123.502 25.7337 123.31 25.8487 123.087 25.9339C122.866 26.0178 122.615 26.0597 122.335 26.0597C121.946 26.0597 121.598 25.9716 121.291 25.7955C120.986 25.6193 120.744 25.3643 120.567 25.0305C120.391 24.6967 120.303 24.2926 120.303 23.8182C120.303 23.3423 120.392 22.9375 120.571 22.6037C120.75 22.2699 120.993 22.0156 121.3 21.8409C121.607 21.6648 121.952 21.5767 122.335 21.5767C122.588 21.5767 122.822 21.6122 123.038 21.6832C123.256 21.7543 123.448 21.858 123.616 21.9943C123.783 22.1293 123.92 22.2947 124.025 22.4908C124.131 22.6868 124.2 22.9112 124.229 23.1641ZM126.022 24.108V26H125.114V21.6364H125.996V23.3047H126.034C126.108 23.1115 126.228 22.9602 126.392 22.8509C126.557 22.7401 126.764 22.6847 127.012 22.6847C127.24 22.6847 127.438 22.7344 127.607 22.8338C127.777 22.9318 127.909 23.0732 128.003 23.2578C128.098 23.4411 128.145 23.6605 128.144 23.9162V26H127.236V24.0781C127.238 23.8764 127.186 23.7195 127.083 23.6072C126.98 23.495 126.837 23.4389 126.652 23.4389C126.529 23.4389 126.419 23.4652 126.324 23.5178C126.23 23.5703 126.157 23.647 126.103 23.7479C126.05 23.8473 126.023 23.9673 126.022 24.108ZM130.59 26.0639C130.253 26.0639 129.963 25.9957 129.72 25.8594C129.479 25.7216 129.293 25.527 129.162 25.2756C129.031 25.0227 128.966 24.7237 128.966 24.3786C128.966 24.0419 129.031 23.7464 129.162 23.4922C129.293 23.2379 129.477 23.0398 129.714 22.8977C129.952 22.7557 130.232 22.6847 130.553 22.6847C130.769 22.6847 130.97 22.7195 131.156 22.7891C131.344 22.8572 131.507 22.9602 131.646 23.098C131.787 23.2358 131.896 23.4091 131.974 23.6179C132.053 23.8253 132.092 24.0682 132.092 24.3466V24.5959H129.328V24.0334H131.237C131.237 23.9027 131.209 23.7869 131.152 23.6861C131.095 23.5852 131.016 23.5064 130.916 23.4496C130.816 23.3913 130.7 23.3622 130.568 23.3622C130.43 23.3622 130.308 23.3942 130.202 23.4581C130.097 23.5206 130.014 23.6051 129.955 23.7116C129.895 23.8168 129.864 23.9339 129.863 24.0632V24.598C129.863 24.7599 129.893 24.8999 129.952 25.0178C130.014 25.1357 130.099 25.2266 130.21 25.2905C130.321 25.3544 130.452 25.3864 130.604 25.3864C130.705 25.3864 130.798 25.3722 130.881 25.3438C130.965 25.3153 131.037 25.2727 131.097 25.2159C131.156 25.1591 131.202 25.0895 131.233 25.0071L132.073 25.0625C132.03 25.2642 131.943 25.4403 131.81 25.5909C131.68 25.7401 131.511 25.8565 131.303 25.9403C131.097 26.0227 130.859 26.0639 130.59 26.0639ZM134.403 26.0639C134.067 26.0639 133.779 25.9929 133.538 25.8509C133.298 25.7074 133.113 25.5085 132.984 25.2543C132.856 25 132.792 24.7074 132.792 24.3764C132.792 24.0412 132.857 23.7472 132.986 23.4943C133.116 23.2401 133.302 23.0419 133.542 22.8999C133.782 22.7564 134.067 22.6847 134.398 22.6847C134.684 22.6847 134.934 22.7365 135.148 22.8402C135.363 22.9439 135.533 23.0895 135.658 23.277C135.783 23.4645 135.852 23.6847 135.864 23.9375H135.008C134.984 23.7741 134.92 23.6428 134.816 23.5433C134.714 23.4425 134.58 23.392 134.413 23.392C134.273 23.392 134.15 23.4304 134.045 23.5071C133.941 23.5824 133.86 23.6925 133.802 23.8374C133.744 23.9822 133.714 24.1577 133.714 24.3636C133.714 24.5724 133.743 24.75 133.8 24.8963C133.858 25.0426 133.94 25.1541 134.045 25.2308C134.15 25.3075 134.273 25.3459 134.413 25.3459C134.517 25.3459 134.61 25.3246 134.692 25.282C134.776 25.2393 134.845 25.1776 134.899 25.0966C134.955 25.0142 134.991 24.9155 135.008 24.8004H135.864C135.85 25.0504 135.782 25.2706 135.66 25.4609C135.539 25.6499 135.372 25.7976 135.159 25.9041C134.946 26.0107 134.694 26.0639 134.403 26.0639ZM137.508 25.0582L137.51 23.9695H137.642L138.69 22.7273H139.732L138.324 24.3722H138.109L137.508 25.0582ZM136.685 26V21.6364H137.593V26H136.685ZM138.731 26L137.768 24.5746L138.373 23.9332L139.794 26H138.731ZM141.762 26.0639C141.431 26.0639 141.144 25.9936 140.903 25.853C140.663 25.7109 140.478 25.5135 140.347 25.2607C140.216 25.0064 140.151 24.7116 140.151 24.3764C140.151 24.0384 140.216 23.7429 140.347 23.4901C140.478 23.2358 140.663 23.0384 140.903 22.8977C141.144 22.7557 141.431 22.6847 141.762 22.6847C142.093 22.6847 142.378 22.7557 142.618 22.8977C142.86 23.0384 143.046 23.2358 143.176 23.4901C143.307 23.7429 143.372 24.0384 143.372 24.3764C143.372 24.7116 143.307 25.0064 143.176 25.2607C143.046 25.5135 142.86 25.7109 142.618 25.853C142.378 25.9936 142.093 26.0639 141.762 26.0639ZM141.766 25.3608C141.916 25.3608 142.042 25.3182 142.143 25.233C142.244 25.1463 142.32 25.0284 142.371 24.8793C142.424 24.7301 142.45 24.5604 142.45 24.37C142.45 24.1797 142.424 24.0099 142.371 23.8608C142.32 23.7116 142.244 23.5937 142.143 23.5071C142.042 23.4205 141.916 23.3771 141.766 23.3771C141.614 23.3771 141.486 23.4205 141.382 23.5071C141.28 23.5937 141.203 23.7116 141.15 23.8608C141.099 24.0099 141.073 24.1797 141.073 24.37C141.073 24.5604 141.099 24.7301 141.15 24.8793C141.203 25.0284 141.28 25.1463 141.382 25.233C141.486 25.3182 141.614 25.3608 141.766 25.3608ZM146.301 24.6065V22.7273H147.209V26H146.338V25.4055H146.303C146.23 25.5973 146.107 25.7514 145.935 25.8679C145.764 25.9844 145.556 26.0426 145.311 26.0426C145.092 26.0426 144.899 25.9929 144.733 25.8935C144.567 25.794 144.437 25.6527 144.343 25.4695C144.251 25.2862 144.204 25.0668 144.203 24.8111V22.7273H145.11V24.6491C145.112 24.8423 145.164 24.995 145.266 25.1072C145.368 25.2195 145.505 25.2756 145.677 25.2756C145.786 25.2756 145.889 25.2507 145.984 25.201C146.079 25.1499 146.156 25.0746 146.214 24.9751C146.274 24.8757 146.303 24.7528 146.301 24.6065ZM149.916 22.7273V23.4091H147.945V22.7273H149.916ZM148.392 21.9432H149.3V24.9943C149.3 25.0781 149.313 25.1435 149.338 25.1903C149.364 25.2358 149.399 25.2678 149.445 25.2862C149.492 25.3047 149.546 25.3139 149.607 25.3139C149.649 25.3139 149.692 25.3104 149.735 25.3033C149.777 25.2947 149.81 25.2884 149.833 25.2841L149.975 25.9595C149.93 25.9737 149.866 25.9901 149.784 26.0085C149.701 26.0284 149.601 26.0405 149.483 26.0447C149.265 26.0533 149.073 26.0241 148.908 25.9574C148.745 25.8906 148.618 25.7869 148.527 25.6463C148.436 25.5057 148.391 25.3281 148.392 25.1136V21.9432ZM152.393 26V21.6364H153.3V23.277H153.328C153.368 23.1889 153.425 23.0994 153.501 23.0085C153.577 22.9162 153.677 22.8395 153.799 22.7784C153.923 22.7159 154.076 22.6847 154.259 22.6847C154.498 22.6847 154.718 22.7472 154.92 22.8722C155.121 22.9957 155.283 23.1825 155.403 23.4325C155.524 23.6811 155.585 23.9929 155.585 24.3679C155.585 24.733 155.526 25.0412 155.408 25.2926C155.291 25.5426 155.132 25.7322 154.93 25.8615C154.73 25.9893 154.506 26.0533 154.257 26.0533C154.081 26.0533 153.931 26.0241 153.808 25.9659C153.685 25.9077 153.585 25.8345 153.507 25.7464C153.429 25.657 153.369 25.5668 153.328 25.4759H153.288V26H152.393ZM153.281 24.3636C153.281 24.5582 153.308 24.728 153.362 24.8729C153.416 25.0178 153.494 25.1307 153.597 25.2116C153.699 25.2912 153.823 25.331 153.969 25.331C154.117 25.331 154.242 25.2905 154.344 25.2095C154.447 25.1271 154.524 25.0135 154.577 24.8686C154.631 24.7223 154.658 24.554 154.658 24.3636C154.658 24.1747 154.631 24.0085 154.579 23.8651C154.526 23.7216 154.449 23.6094 154.347 23.5284C154.244 23.4474 154.119 23.407 153.969 23.407C153.822 23.407 153.697 23.446 153.594 23.5241C153.494 23.6023 153.416 23.7131 153.362 23.8565C153.308 24 153.281 24.169 153.281 24.3636ZM157.338 21.6364V26H156.43V21.6364H157.338ZM159.784 26.0639C159.453 26.0639 159.166 25.9936 158.925 25.853C158.685 25.7109 158.5 25.5135 158.369 25.2607C158.238 25.0064 158.173 24.7116 158.173 24.3764C158.173 24.0384 158.238 23.7429 158.369 23.4901C158.5 23.2358 158.685 23.0384 158.925 22.8977C159.166 22.7557 159.453 22.6847 159.784 22.6847C160.115 22.6847 160.4 22.7557 160.64 22.8977C160.882 23.0384 161.068 23.2358 161.198 23.4901C161.329 23.7429 161.394 24.0384 161.394 24.3764C161.394 24.7116 161.329 25.0064 161.198 25.2607C161.068 25.5135 160.882 25.7109 160.64 25.853C160.4 25.9936 160.115 26.0639 159.784 26.0639ZM159.788 25.3608C159.938 25.3608 160.064 25.3182 160.165 25.233C160.266 25.1463 160.342 25.0284 160.393 24.8793C160.446 24.7301 160.472 24.5604 160.472 24.37C160.472 24.1797 160.446 24.0099 160.393 23.8608C160.342 23.7116 160.266 23.5937 160.165 23.5071C160.064 23.4205 159.938 23.3771 159.788 23.3771C159.636 23.3771 159.508 23.4205 159.404 23.5071C159.302 23.5937 159.225 23.7116 159.172 23.8608C159.121 24.0099 159.095 24.1797 159.095 24.37C159.095 24.5604 159.121 24.7301 159.172 24.8793C159.225 25.0284 159.302 25.1463 159.404 25.233C159.508 25.3182 159.636 25.3608 159.788 25.3608ZM163.703 26.0639C163.368 26.0639 163.08 25.9929 162.838 25.8509C162.598 25.7074 162.414 25.5085 162.284 25.2543C162.156 25 162.093 24.7074 162.093 24.3764C162.093 24.0412 162.157 23.7472 162.286 23.4943C162.417 23.2401 162.602 23.0419 162.843 22.8999C163.083 22.7564 163.368 22.6847 163.699 22.6847C163.985 22.6847 164.235 22.7365 164.449 22.8402C164.664 22.9439 164.833 23.0895 164.958 23.277C165.083 23.4645 165.152 23.6847 165.165 23.9375H164.308C164.284 23.7741 164.22 23.6428 164.117 23.5433C164.014 23.4425 163.88 23.392 163.714 23.392C163.573 23.392 163.45 23.4304 163.345 23.5071C163.242 23.5824 163.161 23.6925 163.102 23.8374C163.044 23.9822 163.015 24.1577 163.015 24.3636C163.015 24.5724 163.044 24.75 163.1 24.8963C163.159 25.0426 163.24 25.1541 163.345 25.2308C163.45 25.3075 163.573 25.3459 163.714 25.3459C163.818 25.3459 163.911 25.3246 163.993 25.282C164.077 25.2393 164.146 25.1776 164.2 25.0966C164.255 25.0142 164.291 24.9155 164.308 24.8004H165.165C165.151 25.0504 165.083 25.2706 164.96 25.4609C164.84 25.6499 164.673 25.7976 164.46 25.9041C164.247 26.0107 163.995 26.0639 163.703 26.0639ZM166.809 25.0582L166.811 23.9695H166.943L167.991 22.7273H169.033L167.625 24.3722H167.409L166.809 25.0582ZM165.986 26V21.6364H166.894V26H165.986ZM168.032 26L167.069 24.5746L167.674 23.9332L169.095 26H168.032Z" fill="#BBBAC3"/>
<path d="M122.82 39.1094H122.197C122.186 39.0289 122.163 38.9574 122.128 38.8949C122.093 38.8314 122.048 38.7775 121.993 38.733C121.938 38.6884 121.875 38.6544 121.803 38.6307C121.732 38.607 121.654 38.5952 121.571 38.5952C121.42 38.5952 121.289 38.6326 121.178 38.7074C121.066 38.7812 120.979 38.8892 120.918 39.0312C120.856 39.1723 120.825 39.3437 120.825 39.5455C120.825 39.7528 120.856 39.9271 120.918 40.0682C120.98 40.2093 121.067 40.3158 121.179 40.3878C121.291 40.4598 121.42 40.4957 121.567 40.4957C121.649 40.4957 121.725 40.4848 121.795 40.4631C121.866 40.4413 121.929 40.4096 121.984 40.3679C122.039 40.3253 122.085 40.2737 122.121 40.2131C122.158 40.1525 122.183 40.0833 122.197 40.0057L122.82 40.0085C122.804 40.142 122.763 40.2708 122.699 40.3949C122.635 40.518 122.55 40.6283 122.442 40.7259C122.335 40.8224 122.207 40.8991 122.058 40.956C121.911 41.0118 121.743 41.0398 121.557 41.0398C121.297 41.0398 121.065 40.9811 120.861 40.8636C120.657 40.7462 120.496 40.5762 120.378 40.3537C120.26 40.1312 120.202 39.8617 120.202 39.5455C120.202 39.2282 120.261 38.9583 120.381 38.7358C120.5 38.5133 120.662 38.3437 120.866 38.2273C121.071 38.1098 121.301 38.0511 121.557 38.0511C121.725 38.0511 121.882 38.0748 122.026 38.1222C122.17 38.1695 122.299 38.2386 122.411 38.3295C122.522 38.4195 122.613 38.5298 122.683 38.6605C122.754 38.7912 122.8 38.9408 122.82 39.1094ZM124.808 40.071V38.8182H125.414V41H124.833V40.6037H124.81C124.761 40.7315 124.679 40.8343 124.564 40.9119C124.45 40.9896 124.312 41.0284 124.148 41.0284C124.002 41.0284 123.874 40.9953 123.763 40.929C123.652 40.8627 123.566 40.7685 123.503 40.6463C123.441 40.5241 123.41 40.3778 123.409 40.2074V38.8182H124.014V40.0994C124.015 40.2282 124.05 40.33 124.118 40.4048C124.186 40.4796 124.278 40.517 124.392 40.517C124.465 40.517 124.533 40.5005 124.597 40.4673C124.66 40.4332 124.711 40.383 124.75 40.3168C124.79 40.2505 124.809 40.1686 124.808 40.071ZM127.873 39.4403L127.319 39.4744C127.309 39.4271 127.289 39.3845 127.258 39.3466C127.227 39.3078 127.185 39.277 127.134 39.2543C127.084 39.2306 127.024 39.2188 126.954 39.2188C126.86 39.2188 126.781 39.2386 126.717 39.2784C126.652 39.3172 126.62 39.3693 126.62 39.4347C126.62 39.4867 126.641 39.5308 126.683 39.5668C126.724 39.6027 126.796 39.6316 126.897 39.6534L127.292 39.733C127.504 39.7765 127.662 39.8466 127.766 39.9432C127.871 40.0398 127.923 40.1667 127.923 40.3239C127.923 40.4669 127.88 40.5923 127.796 40.7003C127.713 40.8082 127.598 40.8925 127.452 40.9531C127.308 41.0128 127.14 41.0426 126.951 41.0426C126.662 41.0426 126.432 40.9825 126.261 40.8622C126.09 40.741 125.99 40.5762 125.961 40.3679L126.556 40.3366C126.574 40.4247 126.618 40.492 126.687 40.5384C126.756 40.5838 126.845 40.6065 126.952 40.6065C127.059 40.6065 127.144 40.5862 127.208 40.5455C127.273 40.5038 127.307 40.4503 127.308 40.3849C127.307 40.33 127.283 40.285 127.238 40.25C127.193 40.214 127.122 40.1866 127.028 40.1676L126.65 40.0923C126.437 40.0497 126.278 39.9759 126.174 39.8707C126.071 39.7656 126.019 39.6316 126.019 39.4688C126.019 39.3286 126.057 39.2079 126.133 39.1065C126.21 39.0052 126.317 38.9271 126.455 38.8722C126.595 38.8172 126.757 38.7898 126.944 38.7898C127.22 38.7898 127.436 38.848 127.595 38.9645C127.754 39.081 127.846 39.2396 127.873 39.4403ZM129.624 38.8182V39.2727H128.31V38.8182H129.624ZM128.609 38.2955H129.214V40.3295C129.214 40.3854 129.222 40.429 129.239 40.4602C129.256 40.4905 129.28 40.5118 129.31 40.5241C129.342 40.5365 129.377 40.5426 129.418 40.5426C129.447 40.5426 129.475 40.5402 129.503 40.5355C129.532 40.5298 129.554 40.5256 129.569 40.5227L129.664 40.973C129.634 40.9825 129.591 40.9934 129.536 41.0057C129.481 41.0189 129.414 41.027 129.336 41.0298C129.19 41.0355 129.062 41.0161 128.952 40.9716C128.843 40.9271 128.759 40.858 128.698 40.7642C128.637 40.6705 128.608 40.5521 128.609 40.4091V38.2955ZM131.141 41.0426C130.92 41.0426 130.729 40.9957 130.568 40.902C130.408 40.8073 130.285 40.6757 130.198 40.5071C130.11 40.3376 130.067 40.1411 130.067 39.9176C130.067 39.6922 130.11 39.4953 130.198 39.3267C130.285 39.1572 130.408 39.0256 130.568 38.9318C130.729 38.8371 130.92 38.7898 131.141 38.7898C131.361 38.7898 131.552 38.8371 131.712 38.9318C131.873 39.0256 131.997 39.1572 132.084 39.3267C132.171 39.4953 132.215 39.6922 132.215 39.9176C132.215 40.1411 132.171 40.3376 132.084 40.5071C131.997 40.6757 131.873 40.8073 131.712 40.902C131.552 40.9957 131.361 41.0426 131.141 41.0426ZM131.144 40.5739C131.244 40.5739 131.328 40.5455 131.395 40.4886C131.462 40.4309 131.513 40.3523 131.547 40.2528C131.582 40.1534 131.6 40.0402 131.6 39.9134C131.6 39.7865 131.582 39.6733 131.547 39.5739C131.513 39.4744 131.462 39.3958 131.395 39.3381C131.328 39.2803 131.244 39.2514 131.144 39.2514C131.042 39.2514 130.957 39.2803 130.888 39.3381C130.82 39.3958 130.768 39.4744 130.733 39.5739C130.699 39.6733 130.682 39.7865 130.682 39.9134C130.682 40.0402 130.699 40.1534 130.733 40.2528C130.768 40.3523 130.82 40.4309 130.888 40.4886C130.957 40.5455 131.042 40.5739 131.144 40.5739ZM132.768 41V38.8182H133.345V39.2031H133.37C133.416 39.0753 133.492 38.9744 133.598 38.9006C133.704 38.8267 133.831 38.7898 133.978 38.7898C134.128 38.7898 134.255 38.8272 134.36 38.902C134.465 38.9759 134.536 39.0762 134.571 39.2031H134.593C134.638 39.0781 134.718 38.9782 134.835 38.9034C134.952 38.8277 135.091 38.7898 135.251 38.7898C135.455 38.7898 135.62 38.8546 135.747 38.9844C135.875 39.1132 135.938 39.2959 135.938 39.5327V41H135.335V39.652C135.335 39.5308 135.303 39.4399 135.238 39.3793C135.174 39.3187 135.093 39.2884 134.997 39.2884C134.887 39.2884 134.801 39.3234 134.74 39.3935C134.678 39.4626 134.647 39.554 134.647 39.6676V41H134.061V39.6392C134.061 39.5322 134.03 39.447 133.968 39.3835C133.908 39.3201 133.828 39.2884 133.728 39.2884C133.661 39.2884 133.6 39.3054 133.546 39.3395C133.493 39.3726 133.451 39.4195 133.42 39.4801C133.389 39.5398 133.373 39.6098 133.373 39.6903V41H132.768ZM137.571 41.0426C137.346 41.0426 137.153 40.9972 136.991 40.9062C136.83 40.8144 136.706 40.6847 136.619 40.517C136.532 40.3485 136.488 40.1491 136.488 39.919C136.488 39.6946 136.532 39.4976 136.619 39.3281C136.706 39.1586 136.829 39.0265 136.987 38.9318C137.146 38.8371 137.333 38.7898 137.547 38.7898C137.691 38.7898 137.825 38.813 137.949 38.8594C138.074 38.9048 138.183 38.9735 138.275 39.0653C138.369 39.1572 138.442 39.2727 138.494 39.4119C138.546 39.5502 138.572 39.7121 138.572 39.8977V40.0639H136.73V39.6889H138.003C138.003 39.6018 137.984 39.5246 137.946 39.4574C137.908 39.3902 137.855 39.3376 137.788 39.2997C137.722 39.2609 137.645 39.2415 137.557 39.2415C137.465 39.2415 137.383 39.2628 137.312 39.3054C137.242 39.3471 137.187 39.4034 137.147 39.4744C137.108 39.5445 137.087 39.6226 137.086 39.7088V40.0653C137.086 40.1733 137.106 40.2666 137.146 40.3452C137.187 40.4238 137.244 40.4844 137.318 40.527C137.392 40.5696 137.479 40.5909 137.581 40.5909C137.648 40.5909 137.71 40.5814 137.765 40.5625C137.821 40.5436 137.869 40.5152 137.909 40.4773C137.949 40.4394 137.979 40.393 138 40.3381L138.559 40.375C138.531 40.5095 138.473 40.6269 138.385 40.7273C138.298 40.8267 138.185 40.9044 138.047 40.9602C137.909 41.0152 137.751 41.0426 137.571 41.0426ZM139.127 41V38.8182H139.714V39.1989H139.736C139.776 39.0634 139.843 38.9612 139.937 38.892C140.031 38.822 140.138 38.7869 140.261 38.7869C140.291 38.7869 140.324 38.7888 140.359 38.7926C140.394 38.7964 140.424 38.8016 140.451 38.8082V39.3452C140.423 39.3366 140.383 39.3291 140.333 39.3224C140.283 39.3158 140.237 39.3125 140.195 39.3125C140.106 39.3125 140.027 39.3319 139.957 39.3707C139.888 39.4086 139.833 39.4616 139.792 39.5298C139.752 39.598 139.732 39.6766 139.732 39.7656V41H139.127Z" fill="#BBBAC3"/>
<path d="M121.831 85.9276C121.82 85.813 121.771 85.724 121.685 85.6605C121.598 85.5971 121.482 85.5653 121.334 85.5653C121.233 85.5653 121.149 85.5795 121.08 85.608C121.01 85.6354 120.957 85.6738 120.92 85.723C120.884 85.7723 120.866 85.8281 120.866 85.8906C120.865 85.9427 120.875 85.9882 120.899 86.027C120.924 86.0658 120.957 86.0994 121 86.1278C121.043 86.1553 121.092 86.1795 121.148 86.2003C121.204 86.2202 121.263 86.2372 121.327 86.2514L121.588 86.3139C121.715 86.3423 121.831 86.3802 121.938 86.4276C122.044 86.4749 122.135 86.5331 122.213 86.6023C122.291 86.6714 122.351 86.7528 122.393 86.8466C122.437 86.9403 122.459 87.0478 122.46 87.169C122.459 87.3471 122.414 87.5014 122.324 87.6321C122.235 87.7618 122.106 87.8627 121.938 87.9347C121.77 88.0057 121.568 88.0412 121.331 88.0412C121.096 88.0412 120.892 88.0052 120.717 87.9332C120.544 87.8613 120.409 87.7547 120.311 87.6136C120.214 87.4716 120.164 87.2959 120.159 87.0866H120.754C120.761 87.1842 120.789 87.2656 120.838 87.331C120.888 87.3954 120.955 87.4441 121.038 87.4773C121.123 87.5095 121.218 87.5256 121.324 87.5256C121.428 87.5256 121.518 87.5104 121.595 87.4801C121.673 87.4498 121.733 87.4077 121.776 87.3537C121.818 87.2997 121.839 87.2377 121.839 87.1676C121.839 87.1023 121.82 87.0473 121.781 87.0028C121.743 86.9583 121.688 86.9205 121.614 86.8892C121.541 86.858 121.451 86.8295 121.345 86.804L121.028 86.7244C120.783 86.6648 120.589 86.5715 120.447 86.4446C120.305 86.3177 120.235 86.1468 120.236 85.9318C120.235 85.7557 120.282 85.6018 120.376 85.4702C120.472 85.3385 120.603 85.2358 120.77 85.1619C120.937 85.0881 121.126 85.0511 121.338 85.0511C121.554 85.0511 121.742 85.0881 121.903 85.1619C122.065 85.2358 122.191 85.3385 122.281 85.4702C122.371 85.6018 122.418 85.7543 122.42 85.9276H121.831ZM123.628 86.7386V88H123.023V85.0909H123.611V86.2031H123.636C123.685 86.0743 123.765 85.9735 123.875 85.9006C123.985 85.8267 124.122 85.7898 124.288 85.7898C124.44 85.7898 124.572 85.8229 124.685 85.8892C124.798 85.9545 124.886 86.0488 124.949 86.1719C125.012 86.294 125.043 86.4403 125.042 86.6108V88H124.437V86.7188C124.438 86.5843 124.404 86.4796 124.335 86.4048C124.267 86.33 124.171 86.2926 124.048 86.2926C123.966 86.2926 123.893 86.3101 123.829 86.3452C123.767 86.3802 123.718 86.4313 123.682 86.4986C123.647 86.5649 123.629 86.6449 123.628 86.7386ZM125.679 88V85.8182H126.284V88H125.679ZM125.983 85.5369C125.893 85.5369 125.816 85.5071 125.751 85.4474C125.688 85.3868 125.656 85.3144 125.656 85.2301C125.656 85.1468 125.688 85.0753 125.751 85.0156C125.816 84.955 125.893 84.9247 125.983 84.9247C126.073 84.9247 126.149 84.955 126.213 85.0156C126.277 85.0753 126.309 85.1468 126.309 85.2301C126.309 85.3144 126.277 85.3868 126.213 85.4474C126.149 85.5071 126.073 85.5369 125.983 85.5369ZM126.929 88.8182V85.8182H127.525V86.1847H127.552C127.579 86.1259 127.617 86.0663 127.667 86.0057C127.718 85.9441 127.785 85.893 127.866 85.8523C127.948 85.8106 128.051 85.7898 128.173 85.7898C128.332 85.7898 128.479 85.8314 128.613 85.9148C128.748 85.9972 128.855 86.1217 128.936 86.2884C129.016 86.4541 129.056 86.6619 129.056 86.9119C129.056 87.1553 129.017 87.3608 128.938 87.5284C128.861 87.6951 128.755 87.8215 128.62 87.9077C128.487 87.9929 128.337 88.0355 128.171 88.0355C128.054 88.0355 127.954 88.0161 127.872 87.9773C127.79 87.9384 127.723 87.8897 127.671 87.831C127.619 87.7713 127.58 87.7112 127.552 87.6506H127.534V88.8182H126.929ZM127.521 86.9091C127.521 87.0388 127.539 87.152 127.575 87.2486C127.611 87.3452 127.663 87.4205 127.731 87.4744C127.799 87.5275 127.882 87.554 127.98 87.554C128.078 87.554 128.161 87.527 128.23 87.473C128.298 87.4181 128.349 87.3423 128.384 87.2457C128.42 87.1482 128.438 87.036 128.438 86.9091C128.438 86.7831 128.421 86.6723 128.386 86.5767C128.351 86.4811 128.299 86.4062 128.231 86.3523C128.163 86.2983 128.079 86.2713 127.98 86.2713C127.881 86.2713 127.798 86.2973 127.73 86.3494C127.662 86.4015 127.611 86.4754 127.575 86.571C127.539 86.6667 127.521 86.7794 127.521 86.9091ZM129.62 88.8182V85.8182H130.216V86.1847H130.243C130.27 86.1259 130.308 86.0663 130.358 86.0057C130.41 85.9441 130.476 85.893 130.557 85.8523C130.64 85.8106 130.742 85.7898 130.864 85.7898C131.023 85.7898 131.17 85.8314 131.304 85.9148C131.439 85.9972 131.546 86.1217 131.627 86.2884C131.707 86.4541 131.748 86.6619 131.748 86.9119C131.748 87.1553 131.708 87.3608 131.63 87.5284C131.552 87.6951 131.446 87.8215 131.312 87.9077C131.178 87.9929 131.028 88.0355 130.863 88.0355C130.745 88.0355 130.645 88.0161 130.563 87.9773C130.482 87.9384 130.415 87.8897 130.363 87.831C130.311 87.7713 130.271 87.7112 130.243 87.6506H130.225V88.8182H129.62ZM130.212 86.9091C130.212 87.0388 130.23 87.152 130.266 87.2486C130.302 87.3452 130.354 87.4205 130.422 87.4744C130.49 87.5275 130.573 87.554 130.671 87.554C130.769 87.554 130.853 87.527 130.921 87.473C130.989 87.4181 131.041 87.3423 131.076 87.2457C131.112 87.1482 131.13 87.036 131.13 86.9091C131.13 86.7831 131.112 86.6723 131.077 86.5767C131.042 86.4811 130.99 86.4062 130.922 86.3523C130.854 86.2983 130.77 86.2713 130.671 86.2713C130.572 86.2713 130.489 86.2973 130.421 86.3494C130.354 86.4015 130.302 86.4754 130.266 86.571C130.23 86.6667 130.212 86.7794 130.212 86.9091ZM132.311 88V85.8182H132.916V88H132.311ZM132.615 85.5369C132.525 85.5369 132.448 85.5071 132.383 85.4474C132.32 85.3868 132.288 85.3144 132.288 85.2301C132.288 85.1468 132.32 85.0753 132.383 85.0156C132.448 84.955 132.525 84.9247 132.615 84.9247C132.705 84.9247 132.782 84.955 132.845 85.0156C132.909 85.0753 132.942 85.1468 132.942 85.2301C132.942 85.3144 132.909 85.3868 132.845 85.4474C132.782 85.5071 132.705 85.5369 132.615 85.5369ZM134.166 86.7386V88H133.561V85.8182H134.138V86.2031H134.163C134.211 86.0762 134.292 85.9759 134.406 85.902C134.52 85.8272 134.657 85.7898 134.819 85.7898C134.971 85.7898 135.103 85.8229 135.216 85.8892C135.328 85.9555 135.416 86.0502 135.478 86.1733C135.541 86.2955 135.572 86.4413 135.572 86.6108V88H134.967V86.7188C134.968 86.5852 134.934 86.4811 134.865 86.4062C134.796 86.3305 134.701 86.2926 134.579 86.2926C134.498 86.2926 134.426 86.3101 134.363 86.3452C134.302 86.3802 134.254 86.4313 134.219 86.4986C134.184 86.5649 134.167 86.6449 134.166 86.7386ZM137.192 88.8636C136.996 88.8636 136.828 88.8366 136.688 88.7827C136.549 88.7296 136.438 88.6572 136.355 88.5653C136.273 88.4735 136.22 88.3703 136.195 88.2557L136.755 88.1804C136.772 88.224 136.799 88.2647 136.836 88.3026C136.872 88.3404 136.921 88.3707 136.982 88.3935C137.043 88.4171 137.118 88.429 137.206 88.429C137.338 88.429 137.446 88.3968 137.532 88.3324C137.618 88.2689 137.661 88.1624 137.661 88.0128V87.6136H137.635C137.609 87.6742 137.569 87.7315 137.516 87.7855C137.463 87.8395 137.395 87.8835 137.311 87.9176C137.228 87.9517 137.129 87.9688 137.013 87.9688C136.849 87.9688 136.7 87.9309 136.566 87.8551C136.432 87.7784 136.326 87.6615 136.246 87.5043C136.167 87.3461 136.128 87.1463 136.128 86.9048C136.128 86.6577 136.168 86.4512 136.249 86.2855C136.329 86.1198 136.436 85.9957 136.57 85.9134C136.704 85.831 136.852 85.7898 137.012 85.7898C137.134 85.7898 137.236 85.8106 137.319 85.8523C137.401 85.893 137.467 85.9441 137.517 86.0057C137.569 86.0663 137.608 86.1259 137.635 86.1847H137.658V85.8182H138.259V88.0213C138.259 88.2069 138.213 88.3622 138.122 88.4872C138.032 88.6122 137.906 88.706 137.745 88.7685C137.585 88.8319 137.4 88.8636 137.192 88.8636ZM137.205 87.5142C137.302 87.5142 137.385 87.4901 137.452 87.4418C137.52 87.3925 137.572 87.3224 137.608 87.2315C137.645 87.1397 137.664 87.0298 137.664 86.902C137.664 86.7741 137.646 86.6634 137.61 86.5696C137.574 86.4749 137.522 86.4015 137.453 86.3494C137.385 86.2973 137.302 86.2713 137.205 86.2713C137.105 86.2713 137.022 86.2983 136.953 86.3523C136.885 86.4053 136.834 86.4792 136.799 86.5739C136.764 86.6686 136.746 86.7779 136.746 86.902C136.746 87.0279 136.764 87.1368 136.799 87.2287C136.835 87.3196 136.886 87.3902 136.953 87.4403C137.022 87.4896 137.105 87.5142 137.205 87.5142Z" fill="#BBBAC3"/>
<path d="M120.253 135V132.091H121.401C121.621 132.091 121.809 132.133 121.964 132.217C122.12 132.301 122.238 132.417 122.32 132.565C122.402 132.713 122.443 132.884 122.443 133.077C122.443 133.27 122.402 133.44 122.318 133.588C122.235 133.736 122.114 133.851 121.956 133.933C121.799 134.016 121.608 134.057 121.385 134.057H120.653V133.564H121.286C121.404 133.564 121.501 133.544 121.578 133.503C121.656 133.461 121.714 133.404 121.751 133.331C121.79 133.257 121.81 133.172 121.81 133.077C121.81 132.98 121.79 132.896 121.751 132.824C121.714 132.751 121.656 132.695 121.578 132.655C121.5 132.614 121.402 132.594 121.283 132.594H120.868V135H120.253ZM123.555 135.041C123.416 135.041 123.292 135.017 123.183 134.969C123.074 134.92 122.988 134.847 122.924 134.751C122.862 134.655 122.83 134.535 122.83 134.391C122.83 134.269 122.853 134.168 122.897 134.085C122.942 134.003 123.002 133.937 123.079 133.886C123.156 133.836 123.243 133.798 123.34 133.773C123.439 133.747 123.542 133.729 123.65 133.719C123.777 133.705 123.879 133.693 123.957 133.682C124.035 133.67 124.091 133.652 124.126 133.628C124.161 133.604 124.178 133.569 124.178 133.523V133.514C124.178 133.424 124.15 133.355 124.093 133.305C124.037 133.256 123.958 133.232 123.855 133.232C123.746 133.232 123.659 133.256 123.595 133.304C123.53 133.351 123.488 133.411 123.467 133.483L122.907 133.438C122.936 133.305 122.991 133.19 123.075 133.094C123.158 132.996 123.266 132.921 123.397 132.869C123.53 132.816 123.683 132.79 123.857 132.79C123.979 132.79 124.095 132.804 124.205 132.832C124.317 132.861 124.416 132.905 124.502 132.964C124.589 133.024 124.658 133.101 124.708 133.195C124.758 133.287 124.784 133.399 124.784 133.528V135H124.21V134.697H124.193C124.158 134.766 124.111 134.826 124.052 134.878C123.993 134.929 123.923 134.969 123.84 134.999C123.758 135.027 123.663 135.041 123.555 135.041ZM123.728 134.624C123.817 134.624 123.896 134.606 123.964 134.571C124.032 134.535 124.086 134.487 124.124 134.426C124.163 134.366 124.183 134.297 124.183 134.22V133.989C124.164 134.001 124.138 134.012 124.105 134.023C124.072 134.032 124.036 134.041 123.995 134.05C123.955 134.057 123.914 134.064 123.873 134.071C123.832 134.077 123.795 134.082 123.762 134.087C123.691 134.097 123.629 134.114 123.576 134.136C123.523 134.159 123.482 134.19 123.453 134.229C123.423 134.267 123.409 134.314 123.409 134.371C123.409 134.453 123.438 134.516 123.498 134.56C123.559 134.602 123.635 134.624 123.728 134.624ZM125.708 135.818C125.632 135.818 125.56 135.812 125.493 135.8C125.426 135.788 125.371 135.774 125.328 135.756L125.464 135.304C125.535 135.326 125.599 135.338 125.656 135.339C125.714 135.341 125.763 135.328 125.805 135.3C125.848 135.271 125.882 135.223 125.909 135.155L125.944 135.062L125.162 132.818H125.798L126.25 134.42H126.272L126.728 132.818H127.369L126.521 135.236C126.48 135.353 126.425 135.455 126.355 135.543C126.286 135.631 126.198 135.698 126.092 135.746C125.986 135.794 125.858 135.818 125.708 135.818ZM127.839 135V132.818H128.415V133.203H128.441C128.486 133.075 128.562 132.974 128.668 132.901C128.774 132.827 128.901 132.79 129.049 132.79C129.199 132.79 129.326 132.827 129.431 132.902C129.536 132.976 129.606 133.076 129.641 133.203H129.664C129.708 133.078 129.789 132.978 129.905 132.903C130.023 132.828 130.162 132.79 130.322 132.79C130.525 132.79 130.69 132.855 130.817 132.984C130.945 133.113 131.009 133.296 131.009 133.533V135H130.405V133.652C130.405 133.531 130.373 133.44 130.309 133.379C130.244 133.319 130.164 133.288 130.067 133.288C129.958 133.288 129.872 133.323 129.81 133.393C129.749 133.463 129.718 133.554 129.718 133.668V135H129.131V133.639C129.131 133.532 129.101 133.447 129.039 133.384C128.978 133.32 128.898 133.288 128.799 133.288C128.732 133.288 128.671 133.305 128.617 133.339C128.564 133.373 128.522 133.42 128.491 133.48C128.459 133.54 128.444 133.61 128.444 133.69V135H127.839ZM132.641 135.043C132.417 135.043 132.224 134.997 132.062 134.906C131.901 134.814 131.777 134.685 131.69 134.517C131.603 134.348 131.559 134.149 131.559 133.919C131.559 133.695 131.603 133.498 131.69 133.328C131.777 133.159 131.899 133.027 132.058 132.932C132.217 132.837 132.403 132.79 132.617 132.79C132.761 132.79 132.895 132.813 133.019 132.859C133.144 132.905 133.253 132.973 133.346 133.065C133.44 133.157 133.513 133.273 133.565 133.412C133.617 133.55 133.643 133.712 133.643 133.898V134.064H131.801V133.689H133.073C133.073 133.602 133.054 133.525 133.016 133.457C132.979 133.39 132.926 133.338 132.859 133.3C132.792 133.261 132.715 133.241 132.627 133.241C132.535 133.241 132.454 133.263 132.383 133.305C132.313 133.347 132.258 133.403 132.218 133.474C132.178 133.545 132.158 133.623 132.157 133.709V134.065C132.157 134.173 132.177 134.267 132.217 134.345C132.257 134.424 132.315 134.484 132.389 134.527C132.462 134.57 132.55 134.591 132.651 134.591C132.719 134.591 132.78 134.581 132.836 134.562C132.892 134.544 132.94 134.515 132.979 134.477C133.019 134.439 133.05 134.393 133.07 134.338L133.63 134.375C133.602 134.509 133.543 134.627 133.455 134.727C133.368 134.827 133.256 134.904 133.117 134.96C132.98 135.015 132.821 135.043 132.641 135.043ZM134.803 133.739V135H134.198V132.818H134.774V133.203H134.8C134.848 133.076 134.929 132.976 135.043 132.902C135.157 132.827 135.294 132.79 135.456 132.79C135.608 132.79 135.74 132.823 135.853 132.889C135.965 132.955 136.053 133.05 136.115 133.173C136.178 133.295 136.209 133.441 136.209 133.611V135H135.604V133.719C135.605 133.585 135.571 133.481 135.502 133.406C135.433 133.33 135.337 133.293 135.216 133.293C135.135 133.293 135.063 133.31 135 133.345C134.939 133.38 134.89 133.431 134.855 133.499C134.821 133.565 134.804 133.645 134.803 133.739ZM138.007 132.818V133.273H136.693V132.818H138.007ZM136.991 132.295H137.596V134.33C137.596 134.385 137.605 134.429 137.622 134.46C137.639 134.491 137.662 134.512 137.693 134.524C137.724 134.536 137.76 134.543 137.801 134.543C137.829 134.543 137.857 134.54 137.886 134.536C137.914 134.53 137.936 134.526 137.951 134.523L138.046 134.973C138.016 134.982 137.973 134.993 137.918 135.006C137.864 135.019 137.797 135.027 137.718 135.03C137.572 135.036 137.444 135.016 137.335 134.972C137.226 134.927 137.141 134.858 137.08 134.764C137.02 134.67 136.99 134.552 136.991 134.409V132.295Z" fill="#BBBAC3"/>
<rect x="120.25" y="50.25" width="29.5" height="5.5" rx="1.75" fill="#504D65" stroke="#6C6A7E" stroke-width="0.5"/>
<rect x="120.25" y="97.25" width="29.5" height="5.5" rx="1.75" fill="#504D65" stroke="#6C6A7E" stroke-width="0.5"/>
<rect x="156.25" y="97.25" width="29.5" height="5.5" rx="1.75" fill="#504D65" stroke="#6C6A7E" stroke-width="0.5"/>
<rect x="156.25" y="110.25" width="29.5" height="5.5" rx="1.75" fill="#504D65" stroke="#6C6A7E" stroke-width="0.5"/>
<rect x="120.25" y="110.25" width="29.5" height="5.5" rx="1.75" fill="#504D65" stroke="#6C6A7E" stroke-width="0.5"/>
<rect x="120.25" y="63.25" width="29.5" height="5.5" rx="1.75" fill="#504D65" stroke="#6C6A7E" stroke-width="0.5"/>
<rect x="156.25" y="50.25" width="29.5" height="5.5" rx="1.75" fill="#504D65" stroke="#6C6A7E" stroke-width="0.5"/>
<rect x="156.25" y="63.25" width="29.5" height="5.5" rx="1.75" fill="#504D65" stroke="#6C6A7E" stroke-width="0.5"/>
<rect x="120.25" y="141.25" width="65.5" height="24.5" rx="1.75" fill="#504D65" stroke="#6C6A7E" stroke-width="0.5"/>
<rect x="123" y="143" width="12" height="7" rx="2" fill="#9A99A7"/>
<rect x="123" y="156" width="12" height="7" rx="2" fill="#9A99A7"/>
<rect x="137" y="144" width="12" height="2" rx="1" fill="#9A99A7"/>
<rect x="137" y="157" width="12" height="2" rx="1" fill="#9A99A7"/>
<rect x="137" y="147" width="33" height="2" rx="1" fill="#9A99A7"/>
<rect x="137" y="160" width="33" height="2" rx="1" fill="#9A99A7"/>
<rect x="120" y="153" width="66" height="1" rx="0.5" fill="#9A99A7"/>
<rect x="120" y="180" width="12" height="2" rx="1" fill="#504D65"/>
<rect x="120" y="184" width="26" height="2" rx="1" fill="#504D65"/>
<rect x="120" y="188" width="22" height="2" rx="1" fill="#504D65"/>
<rect x="116" y="77" width="74" height="1" rx="0.5" fill="#504D65"/>
<rect x="116" y="124" width="74" height="1" rx="0.5" fill="#504D65"/>
<rect x="116" y="174" width="74" height="1" rx="0.5" fill="#504D65"/>
<rect x="120" y="47" width="14" height="2" rx="1" fill="#504D65"/>
<rect x="120" y="94" width="14" height="2" rx="1" fill="#504D65"/>
<rect x="156" y="94" width="14" height="2" rx="1" fill="#504D65"/>
<rect x="156" y="107" width="14" height="2" rx="1" fill="#504D65"/>
<rect x="120" y="107" width="14" height="2" rx="1" fill="#504D65"/>
<rect x="120" y="60" width="14" height="2" rx="1" fill="#504D65"/>
<rect x="156" y="47" width="14" height="2" rx="1" fill="#504D65"/>
<rect x="156" y="60" width="14" height="2" rx="1" fill="#504D65"/>
<rect x="164" y="196" width="22" height="6" rx="2" fill="#9A99A7"/>
<path d="M120.107 198.199V197.818H121.898V198.199H121.23V200H120.775V198.199H120.107ZM122.807 200.032C122.642 200.032 122.498 199.997 122.378 199.926C122.258 199.855 122.165 199.757 122.1 199.63C122.034 199.503 122.002 199.356 122.002 199.188C122.002 199.019 122.034 198.871 122.1 198.745C122.165 198.618 122.258 198.519 122.378 198.449C122.498 198.378 122.642 198.342 122.807 198.342C122.973 198.342 123.115 198.378 123.235 198.449C123.356 198.519 123.449 198.618 123.514 198.745C123.58 198.871 123.612 199.019 123.612 199.188C123.612 199.356 123.58 199.503 123.514 199.63C123.449 199.757 123.356 199.855 123.235 199.926C123.115 199.997 122.973 200.032 122.807 200.032ZM122.809 199.68C122.884 199.68 122.947 199.659 122.998 199.616C123.048 199.573 123.086 199.514 123.112 199.44C123.138 199.365 123.151 199.28 123.151 199.185C123.151 199.09 123.138 199.005 123.112 198.93C123.086 198.856 123.048 198.797 122.998 198.754C122.947 198.71 122.884 198.689 122.809 198.689C122.733 198.689 122.669 198.71 122.617 198.754C122.566 198.797 122.528 198.856 122.501 198.93C122.476 199.005 122.463 199.09 122.463 199.185C122.463 199.28 122.476 199.365 122.501 199.44C122.528 199.514 122.566 199.573 122.617 199.616C122.669 199.659 122.733 199.68 122.809 199.68ZM124.898 198.364V198.705H123.912V198.364H124.898ZM124.136 197.972H124.59V199.497C124.59 199.539 124.596 199.572 124.609 199.595C124.622 199.618 124.64 199.634 124.662 199.643C124.686 199.652 124.713 199.657 124.743 199.657C124.765 199.657 124.786 199.655 124.807 199.652C124.829 199.647 124.845 199.644 124.856 199.642L124.928 199.98C124.905 199.987 124.873 199.995 124.832 200.004C124.791 200.014 124.741 200.02 124.682 200.022C124.572 200.027 124.476 200.012 124.394 199.979C124.312 199.945 124.249 199.893 124.203 199.823C124.158 199.753 124.136 199.664 124.136 199.557V197.972ZM125.78 200.031C125.676 200.031 125.583 200.013 125.501 199.977C125.419 199.94 125.355 199.885 125.307 199.814C125.26 199.741 125.237 199.651 125.237 199.543C125.237 199.452 125.254 199.376 125.287 199.314C125.32 199.252 125.366 199.202 125.423 199.165C125.481 199.127 125.546 199.099 125.619 199.08C125.693 199.06 125.771 199.047 125.852 199.039C125.947 199.029 126.023 199.02 126.082 199.011C126.14 199.002 126.182 198.989 126.208 198.971C126.235 198.953 126.248 198.927 126.248 198.892V198.886C126.248 198.818 126.227 198.766 126.184 198.729C126.142 198.692 126.082 198.674 126.005 198.674C125.923 198.674 125.858 198.692 125.81 198.728C125.762 198.763 125.73 198.808 125.714 198.862L125.294 198.828C125.316 198.729 125.358 198.643 125.42 198.57C125.483 198.497 125.563 198.441 125.662 198.402C125.761 198.362 125.876 198.342 126.007 198.342C126.098 198.342 126.185 198.353 126.268 198.374C126.352 198.396 126.426 198.429 126.491 198.473C126.556 198.518 126.608 198.576 126.645 198.646C126.683 198.716 126.702 198.799 126.702 198.896V200H126.271V199.773H126.259C126.232 199.824 126.197 199.869 126.153 199.908C126.109 199.947 126.056 199.977 125.994 199.999C125.933 200.02 125.861 200.031 125.78 200.031ZM125.91 199.718C125.977 199.718 126.036 199.705 126.087 199.678C126.138 199.651 126.178 199.615 126.207 199.57C126.237 199.524 126.251 199.473 126.251 199.415V199.241C126.237 199.251 126.217 199.259 126.192 199.267C126.168 199.274 126.141 199.281 126.11 199.287C126.08 199.293 126.049 199.298 126.019 199.303C125.988 199.308 125.961 199.311 125.936 199.315C125.882 199.323 125.836 199.335 125.796 199.352C125.756 199.369 125.726 199.392 125.703 199.422C125.681 199.45 125.67 199.485 125.67 199.528C125.67 199.59 125.693 199.637 125.738 199.67C125.783 199.702 125.841 199.718 125.91 199.718ZM127.628 197.818V200H127.174V197.818H127.628ZM128.376 200.028C128.306 200.028 128.246 200.003 128.195 199.953C128.146 199.903 128.121 199.842 128.121 199.772C128.121 199.702 128.146 199.643 128.195 199.593C128.246 199.543 128.306 199.518 128.376 199.518C128.445 199.518 128.504 199.543 128.555 199.593C128.607 199.643 128.632 199.702 128.632 199.772C128.632 199.819 128.62 199.862 128.596 199.901C128.572 199.939 128.542 199.97 128.503 199.994C128.465 200.016 128.423 200.028 128.376 200.028ZM128.376 198.881C128.306 198.881 128.246 198.857 128.195 198.807C128.146 198.757 128.121 198.697 128.121 198.626C128.121 198.556 128.146 198.497 128.195 198.448C128.246 198.398 128.306 198.373 128.376 198.373C128.445 198.373 128.504 198.398 128.555 198.448C128.607 198.497 128.632 198.556 128.632 198.626C128.632 198.673 128.62 198.717 128.596 198.756C128.572 198.794 128.542 198.825 128.503 198.847C128.465 198.87 128.423 198.881 128.376 198.881ZM130.724 197.788C130.836 197.788 130.944 197.807 131.048 197.845C131.153 197.882 131.246 197.942 131.327 198.025C131.41 198.107 131.475 198.217 131.522 198.353C131.57 198.489 131.595 198.655 131.596 198.853C131.596 199.038 131.575 199.203 131.533 199.349C131.492 199.494 131.432 199.617 131.355 199.719C131.278 199.82 131.184 199.898 131.075 199.951C130.965 200.004 130.843 200.03 130.708 200.03C130.563 200.03 130.434 200.002 130.323 199.946C130.211 199.889 130.121 199.812 130.053 199.714C129.986 199.616 129.945 199.506 129.931 199.384H130.385C130.403 199.464 130.44 199.526 130.497 199.57C130.554 199.613 130.624 199.635 130.708 199.635C130.85 199.635 130.958 199.573 131.032 199.449C131.106 199.325 131.143 199.155 131.144 198.939H131.129C131.096 199.003 131.052 199.058 130.997 199.104C130.942 199.15 130.878 199.185 130.806 199.21C130.735 199.234 130.66 199.247 130.579 199.247C130.451 199.247 130.336 199.217 130.235 199.156C130.134 199.096 130.055 199.013 129.997 198.907C129.938 198.801 129.909 198.68 129.909 198.545C129.909 198.398 129.942 198.268 130.01 198.154C130.079 198.039 130.174 197.95 130.296 197.885C130.419 197.82 130.562 197.788 130.724 197.788ZM130.727 198.151C130.656 198.151 130.592 198.168 130.536 198.202C130.48 198.236 130.436 198.282 130.404 198.339C130.372 198.397 130.356 198.461 130.357 198.532C130.357 198.604 130.372 198.668 130.404 198.726C130.436 198.783 130.479 198.828 130.534 198.862C130.589 198.896 130.652 198.912 130.723 198.912C130.776 198.912 130.826 198.902 130.871 198.882C130.917 198.863 130.956 198.835 130.99 198.8C131.024 198.765 131.05 198.724 131.069 198.678C131.089 198.632 131.098 198.583 131.098 198.531C131.097 198.462 131.081 198.399 131.049 198.341C131.017 198.284 130.973 198.238 130.917 198.203C130.861 198.168 130.798 198.151 130.727 198.151ZM132.825 197.788C132.937 197.788 133.045 197.807 133.149 197.845C133.253 197.882 133.346 197.942 133.428 198.025C133.51 198.107 133.575 198.217 133.623 198.353C133.671 198.489 133.695 198.655 133.696 198.853C133.696 199.038 133.675 199.203 133.633 199.349C133.592 199.494 133.533 199.617 133.455 199.719C133.378 199.82 133.285 199.898 133.175 199.951C133.066 200.004 132.944 200.03 132.809 200.03C132.663 200.03 132.535 200.002 132.423 199.946C132.312 199.889 132.222 199.812 132.154 199.714C132.086 199.616 132.045 199.506 132.031 199.384H132.486C132.504 199.464 132.541 199.526 132.598 199.57C132.655 199.613 132.725 199.635 132.809 199.635C132.951 199.635 133.059 199.573 133.133 199.449C133.206 199.325 133.244 199.155 133.244 198.939H133.23C133.197 199.003 133.153 199.058 133.097 199.104C133.042 199.15 132.978 199.185 132.907 199.21C132.836 199.234 132.76 199.247 132.68 199.247C132.551 199.247 132.437 199.217 132.336 199.156C132.235 199.096 132.155 199.013 132.097 198.907C132.039 198.801 132.01 198.68 132.01 198.545C132.009 198.398 132.043 198.268 132.111 198.154C132.179 198.039 132.274 197.95 132.396 197.885C132.519 197.82 132.662 197.788 132.825 197.788ZM132.828 198.151C132.756 198.151 132.692 198.168 132.636 198.202C132.581 198.236 132.537 198.282 132.504 198.339C132.472 198.397 132.456 198.461 132.457 198.532C132.457 198.604 132.473 198.668 132.504 198.726C132.536 198.783 132.579 198.828 132.634 198.862C132.689 198.896 132.753 198.912 132.824 198.912C132.877 198.912 132.926 198.902 132.972 198.882C133.017 198.863 133.057 198.835 133.09 198.8C133.124 198.765 133.151 198.724 133.17 198.678C133.189 198.632 133.199 198.583 133.199 198.531C133.198 198.462 133.182 198.399 133.15 198.341C133.118 198.284 133.074 198.238 133.018 198.203C132.961 198.168 132.898 198.151 132.828 198.151ZM134.545 199.702L134.534 199.819C134.524 199.913 134.507 200.006 134.48 200.099C134.455 200.193 134.428 200.278 134.399 200.354C134.372 200.43 134.349 200.489 134.332 200.533H134.038C134.049 200.491 134.063 200.432 134.082 200.357C134.1 200.282 134.118 200.199 134.134 200.105C134.15 200.012 134.161 199.918 134.165 199.821L134.17 199.702H134.545ZM135.824 197.788C135.937 197.788 136.045 197.807 136.148 197.845C136.253 197.882 136.346 197.942 136.427 198.025C136.51 198.107 136.575 198.217 136.622 198.353C136.671 198.489 136.695 198.655 136.696 198.853C136.696 199.038 136.675 199.203 136.633 199.349C136.592 199.494 136.533 199.617 136.455 199.719C136.378 199.82 136.284 199.898 136.175 199.951C136.066 200.004 135.943 200.03 135.808 200.03C135.663 200.03 135.534 200.002 135.423 199.946C135.311 199.889 135.221 199.812 135.153 199.714C135.086 199.616 135.045 199.506 135.031 199.384H135.486C135.503 199.464 135.541 199.526 135.598 199.57C135.654 199.613 135.725 199.635 135.808 199.635C135.951 199.635 136.058 199.573 136.132 199.449C136.206 199.325 136.244 199.155 136.244 198.939H136.229C136.197 199.003 136.153 199.058 136.097 199.104C136.042 199.15 135.978 199.185 135.906 199.21C135.835 199.234 135.76 199.247 135.68 199.247C135.551 199.247 135.436 199.217 135.335 199.156C135.235 199.096 135.155 199.013 135.097 198.907C135.039 198.801 135.009 198.68 135.009 198.545C135.009 198.398 135.043 198.268 135.111 198.154C135.179 198.039 135.274 197.95 135.396 197.885C135.519 197.82 135.662 197.788 135.824 197.788ZM135.828 198.151C135.756 198.151 135.692 198.168 135.636 198.202C135.581 198.236 135.536 198.282 135.504 198.339C135.472 198.397 135.456 198.461 135.457 198.532C135.457 198.604 135.473 198.668 135.504 198.726C135.536 198.783 135.579 198.828 135.634 198.862C135.689 198.896 135.752 198.912 135.823 198.912C135.877 198.912 135.926 198.902 135.971 198.882C136.017 198.863 136.056 198.835 136.09 198.8C136.124 198.765 136.15 198.724 136.17 198.678C136.189 198.632 136.198 198.583 136.198 198.531C136.198 198.462 136.181 198.399 136.149 198.341C136.117 198.284 136.073 198.238 136.017 198.203C135.961 198.168 135.898 198.151 135.828 198.151ZM137.868 200.273V197.545H138.043V200.273H137.868ZM138.332 198.446C138.323 198.36 138.287 198.293 138.222 198.245C138.158 198.198 138.07 198.174 137.959 198.174C137.884 198.174 137.82 198.185 137.768 198.206C137.716 198.227 137.677 198.255 137.649 198.292C137.622 198.329 137.609 198.371 137.609 198.418C137.607 198.457 137.615 198.491 137.633 198.52C137.651 198.549 137.677 198.575 137.709 198.596C137.741 198.616 137.778 198.635 137.819 198.65C137.861 198.665 137.906 198.678 137.954 198.689L138.15 198.735C138.245 198.757 138.332 198.785 138.412 198.821C138.491 198.856 138.56 198.9 138.618 198.952C138.677 199.004 138.722 199.065 138.754 199.135C138.786 199.205 138.803 199.286 138.804 199.377C138.803 199.51 138.769 199.626 138.702 199.724C138.635 199.821 138.538 199.897 138.412 199.951C138.286 200.004 138.134 200.031 137.957 200.031C137.781 200.031 137.627 200.004 137.497 199.95C137.367 199.896 137.265 199.816 137.192 199.71C137.12 199.604 137.082 199.472 137.078 199.315H137.524C137.529 199.388 137.55 199.449 137.587 199.498C137.625 199.547 137.675 199.583 137.737 199.608C137.801 199.632 137.872 199.644 137.952 199.644C138.03 199.644 138.098 199.633 138.155 199.61C138.213 199.587 138.258 199.556 138.29 199.515C138.322 199.475 138.338 199.428 138.338 199.376C138.338 199.327 138.324 199.286 138.295 199.252C138.266 199.219 138.224 199.19 138.169 199.167C138.114 199.143 138.047 199.122 137.968 199.103L137.73 199.043C137.546 198.999 137.401 198.929 137.294 198.833C137.188 198.738 137.135 198.61 137.136 198.449C137.135 198.317 137.17 198.201 137.241 198.103C137.313 198.004 137.411 197.927 137.536 197.871C137.661 197.816 137.803 197.788 137.962 197.788C138.124 197.788 138.265 197.816 138.386 197.871C138.508 197.927 138.602 198.004 138.67 198.103C138.737 198.201 138.772 198.316 138.774 198.446H138.332Z" fill="#BBBAC3"/>
</svg>
