<svg width="220" height="240" viewBox="0 0 220 240" fill="none" xmlns="http://www.w3.org/2000/svg">
<rect width="220" height="240" rx="6" fill="#24213F"/>
<rect width="220" height="34" fill="#1A172D"/>
<path d="M33.2209 13.6278C33.5949 13.6278 33.9548 13.6906 34.3004 13.8161C34.6484 13.9415 34.9586 14.1416 35.2308 14.4162C35.5054 14.6908 35.7221 15.0554 35.8807 15.5099C36.0417 15.9621 36.1233 16.5173 36.1257 17.1754C36.1257 17.7933 36.0559 18.3449 35.9162 18.8303C35.7789 19.3132 35.5812 19.724 35.3232 20.0625C35.0651 20.401 34.7538 20.6591 34.3892 20.8366C34.0246 21.0118 33.6174 21.0994 33.1676 21.0994C32.6823 21.0994 32.2538 21.0059 31.8821 20.8189C31.5104 20.6295 31.2109 20.3726 30.9837 20.0483C30.7588 19.7216 30.6226 19.3546 30.5753 18.9474H32.0916C32.1508 19.2126 32.2751 19.4186 32.4645 19.5653C32.6539 19.7098 32.8883 19.782 33.1676 19.782C33.6411 19.782 34.0009 19.576 34.2472 19.1641C34.4934 18.7498 34.6177 18.1828 34.62 17.4631H34.5703C34.4614 17.6761 34.3146 17.8596 34.13 18.0135C33.9453 18.165 33.7334 18.2822 33.4943 18.3651C33.2576 18.4479 33.0054 18.4893 32.7379 18.4893C32.3094 18.4893 31.9271 18.3887 31.5909 18.1875C31.2547 17.9863 30.9896 17.7093 30.7955 17.3565C30.6013 17.0038 30.5043 16.6013 30.5043 16.1491C30.5019 15.6615 30.6143 15.227 30.8416 14.8459C31.0689 14.4647 31.3861 14.1664 31.7933 13.951C32.2029 13.7332 32.6787 13.6255 33.2209 13.6278ZM33.2315 14.8352C32.9924 14.8352 32.7794 14.892 32.5923 15.0057C32.4077 15.1193 32.2609 15.272 32.152 15.4638C32.0455 15.6555 31.9934 15.8698 31.9957 16.1065C31.9957 16.3456 32.0478 16.5611 32.152 16.7528C32.2585 16.9422 32.4029 17.0937 32.5852 17.2074C32.7699 17.3187 32.9806 17.3743 33.2173 17.3743C33.3949 17.3743 33.5594 17.3411 33.7109 17.2749C33.8625 17.2086 33.9938 17.1174 34.1051 17.0014C34.2188 16.883 34.3075 16.7469 34.3714 16.593C34.4354 16.4392 34.4673 16.2758 34.4673 16.103C34.465 15.8733 34.4105 15.6626 34.304 15.4709C34.1974 15.2791 34.0507 15.1252 33.8636 15.0092C33.6766 14.8932 33.4659 14.8352 33.2315 14.8352ZM40.3481 21V13.7273H43.2174C43.7667 13.7273 44.2354 13.8255 44.6237 14.022C45.0143 14.2161 45.3114 14.492 45.515 14.8494C45.721 15.2045 45.824 15.6224 45.824 16.103C45.824 16.5859 45.7198 17.0014 45.5115 17.3494C45.3031 17.6951 45.0013 17.9602 44.6059 18.1449C44.2129 18.3295 43.7371 18.4219 43.1784 18.4219H41.2572V17.1861H42.9298C43.2234 17.1861 43.4672 17.1458 43.6613 17.0653C43.8555 16.9848 43.9999 16.8641 44.0946 16.7031C44.1916 16.5421 44.2402 16.3421 44.2402 16.103C44.2402 15.8615 44.1916 15.6579 44.0946 15.4922C43.9999 15.3265 43.8543 15.201 43.6578 15.1158C43.4636 15.0282 43.2186 14.9844 42.9227 14.9844H41.8858V21H40.3481ZM44.2757 17.6903L46.0832 21H44.3858L42.6173 17.6903H44.2757ZM49.6801 21.1065C49.119 21.1065 48.6361 20.9929 48.2313 20.7656C47.8288 20.536 47.5187 20.2116 47.3009 19.7926C47.0831 19.3712 46.9741 18.8729 46.9741 18.2976C46.9741 17.7365 47.0831 17.2441 47.3009 16.8203C47.5187 16.3965 47.8252 16.0663 48.2206 15.8295C48.6183 15.5928 49.0847 15.4744 49.6197 15.4744C49.9796 15.4744 50.3146 15.5324 50.6247 15.6484C50.9372 15.7621 51.2095 15.9337 51.4415 16.1634C51.6759 16.393 51.8581 16.6818 51.9884 17.0298C52.1186 17.3755 52.1837 17.7803 52.1837 18.2443V18.6598H47.5778V17.7223H50.7597C50.7597 17.5045 50.7123 17.3116 50.6176 17.1435C50.5229 16.9754 50.3915 16.844 50.2234 16.7493C50.0577 16.6522 49.8648 16.6037 49.6446 16.6037C49.415 16.6037 49.2114 16.657 49.0338 16.7635C48.8586 16.8677 48.7213 17.0085 48.6219 17.1861C48.5224 17.3613 48.4715 17.5566 48.4692 17.772V18.6634C48.4692 18.9332 48.5189 19.1664 48.6183 19.3629C48.7201 19.5594 48.8634 19.7109 49.048 19.8175C49.2327 19.924 49.4517 19.9773 49.705 19.9773C49.8731 19.9773 50.0269 19.9536 50.1666 19.9062C50.3063 19.8589 50.4259 19.7879 50.5253 19.6932C50.6247 19.5985 50.7005 19.4825 50.7526 19.3452L52.1517 19.4375C52.0807 19.7737 51.9351 20.0672 51.7149 20.3182C51.4971 20.5668 51.2154 20.7609 50.8697 20.9006C50.5265 21.0379 50.1299 21.1065 49.6801 21.1065ZM58.1092 17.1009L56.7243 17.1861C56.7006 17.0677 56.6497 16.9612 56.5716 16.8665C56.4935 16.7694 56.3905 16.6925 56.2626 16.6357C56.1372 16.5765 55.9868 16.5469 55.8116 16.5469C55.5773 16.5469 55.3796 16.5966 55.2186 16.696C55.0576 16.7931 54.9771 16.9233 54.9771 17.0866C54.9771 17.2169 55.0292 17.3269 55.1334 17.4169C55.2375 17.5069 55.4163 17.5791 55.6696 17.6335L56.6568 17.8324C57.1871 17.9413 57.5825 18.1165 57.8429 18.358C58.1033 18.5994 58.2335 18.9167 58.2335 19.3097C58.2335 19.6671 58.1282 19.9808 57.9175 20.2507C57.7091 20.5206 57.4227 20.7313 57.0581 20.8828C56.6959 21.032 56.278 21.1065 55.8045 21.1065C55.0825 21.1065 54.5072 20.9562 54.0787 20.6555C53.6526 20.3525 53.4028 19.9406 53.3294 19.4197L54.8173 19.3416C54.8623 19.5618 54.9712 19.7299 55.144 19.8459C55.3169 19.9595 55.5382 20.0163 55.8081 20.0163C56.0732 20.0163 56.2863 19.9654 56.4473 19.8636C56.6107 19.7595 56.6935 19.6257 56.6959 19.4624C56.6935 19.325 56.6355 19.2126 56.5219 19.125C56.4082 19.035 56.233 18.9664 55.9963 18.919L55.0517 18.7308C54.519 18.6243 54.1225 18.4396 53.8621 18.1768C53.604 17.9141 53.475 17.5791 53.475 17.1719C53.475 16.8215 53.5697 16.5196 53.7591 16.2663C53.9509 16.013 54.2196 15.8177 54.5652 15.6804C54.9132 15.5431 55.3204 15.4744 55.7868 15.4744C56.4757 15.4744 57.0179 15.62 57.4132 15.9112C57.8109 16.2024 58.0429 16.599 58.1092 17.1009ZM63.084 18.6776V15.5455H64.5968V21H63.1444V20.0092H63.0875C62.9644 20.3288 62.7596 20.5857 62.4732 20.7798C62.1891 20.974 61.8423 21.071 61.4327 21.071C61.0681 21.071 60.7473 20.9882 60.4703 20.8224C60.1934 20.6567 59.9767 20.4212 59.8205 20.1158C59.6666 19.8104 59.5885 19.4446 59.5861 19.0185V15.5455H61.0989V18.7486C61.1013 19.0705 61.1877 19.325 61.3581 19.5121C61.5286 19.6991 61.757 19.7926 62.0435 19.7926C62.2258 19.7926 62.3962 19.7512 62.5549 19.6683C62.7135 19.5831 62.8413 19.4576 62.9384 19.2919C63.0378 19.1262 63.0864 18.9214 63.084 18.6776ZM67.7196 13.7273V21H66.2068V13.7273H67.7196ZM72.2327 15.5455V16.6818H68.9479V15.5455H72.2327ZM69.6936 14.2386H71.2064V19.3239C71.2064 19.4635 71.2277 19.5724 71.2703 19.6506C71.313 19.7263 71.3721 19.7796 71.4479 19.8104C71.526 19.8411 71.616 19.8565 71.7178 19.8565C71.7888 19.8565 71.8598 19.8506 71.9309 19.8388C72.0019 19.8246 72.0563 19.8139 72.0942 19.8068L72.3321 20.9325C72.2564 20.9562 72.1498 20.9834 72.0125 21.0142C71.8752 21.0473 71.7083 21.0675 71.5118 21.0746C71.1472 21.0888 70.8276 21.0402 70.553 20.929C70.2808 20.8177 70.0689 20.6449 69.9174 20.4105C69.7658 20.1761 69.6913 19.8802 69.6936 19.5227V14.2386ZM78.0881 17.1009L76.7032 17.1861C76.6795 17.0677 76.6286 16.9612 76.5505 16.8665C76.4724 16.7694 76.3694 16.6925 76.2415 16.6357C76.1161 16.5765 75.9657 16.5469 75.7906 16.5469C75.5562 16.5469 75.3585 16.5966 75.1975 16.696C75.0365 16.7931 74.956 16.9233 74.956 17.0866C74.956 17.2169 75.0081 17.3269 75.1123 17.4169C75.2165 17.5069 75.3952 17.5791 75.6485 17.6335L76.6357 17.8324C77.166 17.9413 77.5614 18.1165 77.8218 18.358C78.0822 18.5994 78.2124 18.9167 78.2124 19.3097C78.2124 19.6671 78.1071 19.9808 77.8964 20.2507C77.688 20.5206 77.4016 20.7313 77.037 20.8828C76.6748 21.032 76.2569 21.1065 75.7835 21.1065C75.0614 21.1065 74.4861 20.9562 74.0576 20.6555C73.6315 20.3525 73.3817 19.9406 73.3083 19.4197L74.7962 19.3416C74.8412 19.5618 74.9501 19.7299 75.1229 19.8459C75.2958 19.9595 75.5171 20.0163 75.787 20.0163C76.0522 20.0163 76.2652 19.9654 76.4262 19.8636C76.5896 19.7595 76.6724 19.6257 76.6748 19.4624C76.6724 19.325 76.6144 19.2126 76.5008 19.125C76.3871 19.035 76.212 18.9664 75.9752 18.919L75.0306 18.7308C74.4979 18.6243 74.1014 18.4396 73.841 18.1768C73.5829 17.9141 73.4539 17.5791 73.4539 17.1719C73.4539 16.8215 73.5486 16.5196 73.738 16.2663C73.9298 16.013 74.1985 15.8177 74.5441 15.6804C74.8921 15.5431 75.2993 15.4744 75.7657 15.4744C76.4546 15.4744 76.9968 15.62 77.3921 15.9112C77.7898 16.2024 78.0219 16.599 78.0881 17.1009Z" fill="#BBBAC3"/>
<rect x="102" y="11" width="88" height="12" rx="6" fill="#9A99A7"/>
<rect x="178" y="11" width="12" height="12" rx="6" fill="#504D65"/>
<rect x="125" y="216" width="6" height="6" rx="3" fill="#504D65"/>
<rect x="145" y="216" width="6" height="6" rx="3" fill="#504D65"/>
<rect x="155" y="216" width="6" height="6" rx="3" fill="#504D65"/>
<rect x="115" y="216" width="6" height="6" rx="3" fill="#504D65"/>
<rect x="135" y="216" width="6" height="6" rx="3" fill="#9A99A7"/>
<rect x="30" y="54" width="48" height="120" rx="2" fill="#504D65"/>
<g clip-path="url(#clip0_1170_2570)">
<rect x="85" y="54" width="50" height="32" rx="2" fill="#504D65"/>
<circle cx="92.9375" cy="65.5438" r="2" fill="#9A99A7"/>
<path d="M97.198 70.1749L86.6396 79.9728C86.2317 80.3512 86 80.8824 86 81.4388V83C86 84.1046 86.8954 85 88 85H132C133.105 85 134 84.1046 134 83V73.7136C134 73.304 133.874 72.9042 133.64 72.5684L127.789 64.1912C127.024 63.0966 125.422 63.0442 124.588 64.0864L112.722 78.9071C112.002 79.8067 110.672 79.9131 109.818 79.1396L99.9009 70.1584C99.132 69.4621 97.9584 69.4692 97.198 70.1749Z" fill="#9A99A7"/>
<rect x="111" y="90" width="24" height="6" rx="3" fill="#504D65"/>
<path d="M88.2884 91.5511C88.438 91.5511 88.5819 91.5762 88.7202 91.6264C88.8594 91.6766 88.9834 91.7566 89.0923 91.8665C89.2022 91.9763 89.2888 92.1222 89.3523 92.304C89.4167 92.4848 89.4493 92.7069 89.4503 92.9702C89.4503 93.2173 89.4223 93.438 89.3665 93.6321C89.3116 93.8253 89.2325 93.9896 89.1293 94.125C89.026 94.2604 88.9015 94.3636 88.7557 94.4347C88.6098 94.5047 88.447 94.5398 88.267 94.5398C88.0729 94.5398 87.9015 94.5024 87.7528 94.4276C87.6042 94.3518 87.4844 94.2491 87.3935 94.1193C87.3035 93.9886 87.2491 93.8419 87.2301 93.679H87.8366C87.8603 93.785 87.91 93.8674 87.9858 93.9261C88.0616 93.9839 88.1553 94.0128 88.267 94.0128C88.4564 94.0128 88.6004 93.9304 88.6989 93.7656C88.7973 93.5999 88.8471 93.3731 88.848 93.0852H88.8281C88.7846 93.1705 88.7259 93.2438 88.652 93.3054C88.5781 93.366 88.4934 93.4129 88.3977 93.446C88.303 93.4792 88.2022 93.4957 88.0952 93.4957C87.9238 93.4957 87.7708 93.4555 87.6364 93.375C87.5019 93.2945 87.3958 93.1837 87.3182 93.0426C87.2405 92.9015 87.2017 92.7405 87.2017 92.5597C87.2008 92.3646 87.2457 92.1908 87.3366 92.0384C87.4276 91.8859 87.5545 91.7666 87.7173 91.6804C87.8812 91.5933 88.0715 91.5502 88.2884 91.5511ZM88.2926 92.0341C88.197 92.0341 88.1117 92.0568 88.0369 92.1023C87.9631 92.1477 87.9044 92.2088 87.8608 92.2855C87.8182 92.3622 87.7973 92.4479 87.7983 92.5426C87.7983 92.6383 87.8191 92.7244 87.8608 92.8011C87.9034 92.8769 87.9612 92.9375 88.0341 92.983C88.108 93.0275 88.1922 93.0497 88.2869 93.0497C88.358 93.0497 88.4238 93.0365 88.4844 93.0099C88.545 92.9834 88.5975 92.947 88.642 92.9006C88.6875 92.8532 88.723 92.7988 88.7486 92.7372C88.7741 92.6757 88.7869 92.6103 88.7869 92.5412C88.786 92.4493 88.7642 92.3651 88.7216 92.2884C88.679 92.2116 88.6203 92.1501 88.5455 92.1037C88.4706 92.0573 88.3864 92.0341 88.2926 92.0341ZM91.089 91.5511C91.2386 91.5511 91.3825 91.5762 91.5208 91.6264C91.66 91.6766 91.7841 91.7566 91.893 91.8665C92.0028 91.9763 92.0895 92.1222 92.1529 92.304C92.2173 92.4848 92.25 92.7069 92.2509 92.9702C92.2509 93.2173 92.223 93.438 92.1671 93.6321C92.1122 93.8253 92.0331 93.9896 91.9299 94.125C91.8267 94.2604 91.7021 94.3636 91.5563 94.4347C91.4105 94.5047 91.2476 94.5398 91.0677 94.5398C90.8735 94.5398 90.7021 94.5024 90.5535 94.4276C90.4048 94.3518 90.285 94.2491 90.1941 94.1193C90.1041 93.9886 90.0497 93.8419 90.0307 93.679H90.6373C90.6609 93.785 90.7107 93.8674 90.7864 93.9261C90.8622 93.9839 90.9559 94.0128 91.0677 94.0128C91.2571 94.0128 91.401 93.9304 91.4995 93.7656C91.598 93.5999 91.6477 93.3731 91.6486 93.0852H91.6288C91.5852 93.1705 91.5265 93.2438 91.4526 93.3054C91.3788 93.366 91.294 93.4129 91.1984 93.446C91.1037 93.4792 91.0028 93.4957 90.8958 93.4957C90.7244 93.4957 90.5715 93.4555 90.437 93.375C90.3025 93.2945 90.1965 93.1837 90.1188 93.0426C90.0412 92.9015 90.0023 92.7405 90.0023 92.5597C90.0014 92.3646 90.0464 92.1908 90.1373 92.0384C90.2282 91.8859 90.3551 91.7666 90.518 91.6804C90.6818 91.5933 90.8721 91.5502 91.089 91.5511ZM91.0932 92.0341C90.9976 92.0341 90.9124 92.0568 90.8376 92.1023C90.7637 92.1477 90.705 92.2088 90.6614 92.2855C90.6188 92.3622 90.598 92.4479 90.5989 92.5426C90.5989 92.6383 90.6198 92.7244 90.6614 92.8011C90.704 92.8769 90.7618 92.9375 90.8347 92.983C90.9086 93.0275 90.9929 93.0497 91.0876 93.0497C91.1586 93.0497 91.2244 93.0365 91.285 93.0099C91.3456 92.9834 91.3982 92.947 91.4427 92.9006C91.4881 92.8532 91.5236 92.7988 91.5492 92.7372C91.5748 92.6757 91.5876 92.6103 91.5876 92.5412C91.5866 92.4493 91.5648 92.3651 91.5222 92.2884C91.4796 92.2116 91.4209 92.1501 91.3461 92.1037C91.2713 92.0573 91.187 92.0341 91.0932 92.0341ZM93.3832 94.1023L93.3676 94.2585C93.3553 94.3835 93.3316 94.508 93.2966 94.6321C93.2625 94.7571 93.2265 94.8703 93.1886 94.9716C93.1517 95.0729 93.1218 95.1525 93.0991 95.2102H92.7071C92.7213 95.1544 92.7407 95.0762 92.7653 94.9759C92.7899 94.8764 92.8131 94.7647 92.8349 94.6406C92.8567 94.5166 92.8704 94.3902 92.8761 94.2614L92.8832 94.1023H93.3832ZM95.0887 91.5511C95.2383 91.5511 95.3822 91.5762 95.5205 91.6264C95.6597 91.6766 95.7837 91.7566 95.8926 91.8665C96.0025 91.9763 96.0891 92.1222 96.1526 92.304C96.217 92.4848 96.2496 92.7069 96.2506 92.9702C96.2506 93.2173 96.2227 93.438 96.1668 93.6321C96.1119 93.8253 96.0328 93.9896 95.9296 94.125C95.8264 94.2604 95.7018 94.3636 95.556 94.4347C95.4102 94.5047 95.2473 94.5398 95.0674 94.5398C94.8732 94.5398 94.7018 94.5024 94.5532 94.4276C94.4045 94.3518 94.2847 94.2491 94.1938 94.1193C94.1038 93.9886 94.0494 93.8419 94.0304 93.679H94.637C94.6606 93.785 94.7104 93.8674 94.7861 93.9261C94.8619 93.9839 94.9556 94.0128 95.0674 94.0128C95.2568 94.0128 95.4007 93.9304 95.4992 93.7656C95.5977 93.5999 95.6474 93.3731 95.6483 93.0852H95.6284C95.5849 93.1705 95.5262 93.2438 95.4523 93.3054C95.3784 93.366 95.2937 93.4129 95.198 93.446C95.1033 93.4792 95.0025 93.4957 94.8955 93.4957C94.7241 93.4957 94.5711 93.4555 94.4367 93.375C94.3022 93.2945 94.1961 93.1837 94.1185 93.0426C94.0408 92.9015 94.002 92.7405 94.002 92.5597C94.0011 92.3646 94.0461 92.1908 94.137 92.0384C94.2279 91.8859 94.3548 91.7666 94.5176 91.6804C94.6815 91.5933 94.8718 91.5502 95.0887 91.5511ZM95.0929 92.0341C94.9973 92.0341 94.9121 92.0568 94.8372 92.1023C94.7634 92.1477 94.7047 92.2088 94.6611 92.2855C94.6185 92.3622 94.5977 92.4479 94.5986 92.5426C94.5986 92.6383 94.6194 92.7244 94.6611 92.8011C94.7037 92.8769 94.7615 92.9375 94.8344 92.983C94.9083 93.0275 94.9925 93.0497 95.0872 93.0497C95.1583 93.0497 95.2241 93.0365 95.2847 93.0099C95.3453 92.9834 95.3979 92.947 95.4424 92.9006C95.4878 92.8532 95.5233 92.7988 95.5489 92.7372C95.5745 92.6757 95.5872 92.6103 95.5872 92.5412C95.5863 92.4493 95.5645 92.3651 95.5219 92.2884C95.4793 92.2116 95.4206 92.1501 95.3458 92.1037C95.271 92.0573 95.1867 92.0341 95.0929 92.0341ZM97.814 94.8636V91.2273H98.047V94.8636H97.814ZM98.4319 92.4276C98.4205 92.313 98.3718 92.224 98.2856 92.1605C98.1994 92.0971 98.0825 92.0653 97.9347 92.0653C97.8344 92.0653 97.7496 92.0795 97.6805 92.108C97.6114 92.1354 97.5583 92.1738 97.5214 92.223C97.4854 92.2723 97.4674 92.3281 97.4674 92.3906C97.4655 92.4427 97.4764 92.4882 97.5001 92.527C97.5247 92.5658 97.5583 92.5994 97.6009 92.6278C97.6436 92.6553 97.6928 92.6795 97.7487 92.7003C97.8045 92.7202 97.8642 92.7372 97.9276 92.7514L98.189 92.8139C98.3159 92.8423 98.4324 92.8802 98.5384 92.9276C98.6445 92.9749 98.7364 93.0331 98.814 93.1023C98.8917 93.1714 98.9518 93.2528 98.9944 93.3466C99.038 93.4403 99.0602 93.5478 99.0612 93.669C99.0602 93.8471 99.0148 94.0014 98.9248 94.1321C98.8358 94.2618 98.707 94.3627 98.5384 94.4347C98.3708 94.5057 98.1686 94.5412 97.9319 94.5412C97.6971 94.5412 97.4925 94.5052 97.3183 94.4332C97.145 94.3613 97.0096 94.2547 96.912 94.1136C96.8154 93.9716 96.7648 93.7959 96.76 93.5866H97.3552C97.3618 93.6842 97.3898 93.7656 97.439 93.831C97.4892 93.8954 97.556 93.9441 97.6393 93.9773C97.7236 94.0095 97.8187 94.0256 97.9248 94.0256C98.029 94.0256 98.1194 94.0104 98.1961 93.9801C98.2738 93.9498 98.3339 93.9077 98.3765 93.8537C98.4191 93.7997 98.4404 93.7377 98.4404 93.6676C98.4404 93.6023 98.421 93.5473 98.3822 93.5028C98.3443 93.4583 98.2884 93.4205 98.2146 93.3892C98.1417 93.358 98.0522 93.3295 97.9461 93.304L97.6293 93.2244C97.3841 93.1648 97.1904 93.0715 97.0484 92.9446C96.9063 92.8177 96.8358 92.6468 96.8367 92.4318C96.8358 92.2557 96.8827 92.1018 96.9774 91.9702C97.073 91.8385 97.2042 91.7358 97.3708 91.6619C97.5375 91.5881 97.7269 91.5511 97.939 91.5511C98.1549 91.5511 98.3434 91.5881 98.5043 91.6619C98.6663 91.7358 98.7922 91.8385 98.8822 91.9702C98.9722 92.1018 99.0186 92.2543 99.0214 92.4276H98.4319Z" fill="#BBBAC3"/>
</g>
<g clip-path="url(#clip1_1170_2570)">
<rect x="85" y="104" width="50" height="32" rx="2" fill="#504D65"/>
<circle cx="92.9375" cy="115.544" r="2" fill="#9A99A7"/>
<path d="M97.198 120.175L86.6396 129.973C86.2317 130.351 86 130.882 86 131.439V133C86 134.105 86.8954 135 88 135H132C133.105 135 134 134.105 134 133V123.714C134 123.304 133.874 122.904 133.64 122.568L127.789 114.191C127.024 113.097 125.422 113.044 124.588 114.086L112.722 128.907C112.002 129.807 110.672 129.913 109.818 129.14L99.9009 120.158C99.132 119.462 97.9584 119.469 97.198 120.175Z" fill="#9A99A7"/>
<rect x="111" y="140" width="24" height="6" rx="3" fill="#504D65"/>
<path d="M88.2884 141.551C88.438 141.551 88.5819 141.576 88.7202 141.626C88.8594 141.677 88.9834 141.757 89.0923 141.866C89.2022 141.976 89.2888 142.122 89.3523 142.304C89.4167 142.485 89.4493 142.707 89.4503 142.97C89.4503 143.217 89.4223 143.438 89.3665 143.632C89.3116 143.825 89.2325 143.99 89.1293 144.125C89.026 144.26 88.9015 144.364 88.7557 144.435C88.6098 144.505 88.447 144.54 88.267 144.54C88.0729 144.54 87.9015 144.502 87.7528 144.428C87.6042 144.352 87.4844 144.249 87.3935 144.119C87.3035 143.989 87.2491 143.842 87.2301 143.679H87.8366C87.8603 143.785 87.91 143.867 87.9858 143.926C88.0616 143.984 88.1553 144.013 88.267 144.013C88.4564 144.013 88.6004 143.93 88.6989 143.766C88.7973 143.6 88.8471 143.373 88.848 143.085H88.8281C88.7846 143.17 88.7259 143.244 88.652 143.305C88.5781 143.366 88.4934 143.413 88.3977 143.446C88.303 143.479 88.2022 143.496 88.0952 143.496C87.9238 143.496 87.7708 143.455 87.6364 143.375C87.5019 143.295 87.3958 143.184 87.3182 143.043C87.2405 142.902 87.2017 142.741 87.2017 142.56C87.2008 142.365 87.2457 142.191 87.3366 142.038C87.4276 141.886 87.5545 141.767 87.7173 141.68C87.8812 141.593 88.0715 141.55 88.2884 141.551ZM88.2926 142.034C88.197 142.034 88.1117 142.057 88.0369 142.102C87.9631 142.148 87.9044 142.209 87.8608 142.286C87.8182 142.362 87.7973 142.448 87.7983 142.543C87.7983 142.638 87.8191 142.724 87.8608 142.801C87.9034 142.877 87.9612 142.937 88.0341 142.983C88.108 143.027 88.1922 143.05 88.2869 143.05C88.358 143.05 88.4238 143.036 88.4844 143.01C88.545 142.983 88.5975 142.947 88.642 142.901C88.6875 142.853 88.723 142.799 88.7486 142.737C88.7741 142.676 88.7869 142.61 88.7869 142.541C88.786 142.449 88.7642 142.365 88.7216 142.288C88.679 142.212 88.6203 142.15 88.5455 142.104C88.4706 142.057 88.3864 142.034 88.2926 142.034ZM91.089 141.551C91.2386 141.551 91.3825 141.576 91.5208 141.626C91.66 141.677 91.7841 141.757 91.893 141.866C92.0028 141.976 92.0895 142.122 92.1529 142.304C92.2173 142.485 92.25 142.707 92.2509 142.97C92.2509 143.217 92.223 143.438 92.1671 143.632C92.1122 143.825 92.0331 143.99 91.9299 144.125C91.8267 144.26 91.7021 144.364 91.5563 144.435C91.4105 144.505 91.2476 144.54 91.0677 144.54C90.8735 144.54 90.7021 144.502 90.5535 144.428C90.4048 144.352 90.285 144.249 90.1941 144.119C90.1041 143.989 90.0497 143.842 90.0307 143.679H90.6373C90.6609 143.785 90.7107 143.867 90.7864 143.926C90.8622 143.984 90.9559 144.013 91.0677 144.013C91.2571 144.013 91.401 143.93 91.4995 143.766C91.598 143.6 91.6477 143.373 91.6486 143.085H91.6288C91.5852 143.17 91.5265 143.244 91.4526 143.305C91.3788 143.366 91.294 143.413 91.1984 143.446C91.1037 143.479 91.0028 143.496 90.8958 143.496C90.7244 143.496 90.5715 143.455 90.437 143.375C90.3025 143.295 90.1965 143.184 90.1188 143.043C90.0412 142.902 90.0023 142.741 90.0023 142.56C90.0014 142.365 90.0464 142.191 90.1373 142.038C90.2282 141.886 90.3551 141.767 90.518 141.68C90.6818 141.593 90.8721 141.55 91.089 141.551ZM91.0932 142.034C90.9976 142.034 90.9124 142.057 90.8376 142.102C90.7637 142.148 90.705 142.209 90.6614 142.286C90.6188 142.362 90.598 142.448 90.5989 142.543C90.5989 142.638 90.6198 142.724 90.6614 142.801C90.704 142.877 90.7618 142.937 90.8347 142.983C90.9086 143.027 90.9929 143.05 91.0876 143.05C91.1586 143.05 91.2244 143.036 91.285 143.01C91.3456 142.983 91.3982 142.947 91.4427 142.901C91.4881 142.853 91.5236 142.799 91.5492 142.737C91.5748 142.676 91.5876 142.61 91.5876 142.541C91.5866 142.449 91.5648 142.365 91.5222 142.288C91.4796 142.212 91.4209 142.15 91.3461 142.104C91.2713 142.057 91.187 142.034 91.0932 142.034ZM93.3832 144.102L93.3676 144.259C93.3553 144.384 93.3316 144.508 93.2966 144.632C93.2625 144.757 93.2265 144.87 93.1886 144.972C93.1517 145.073 93.1218 145.152 93.0991 145.21H92.7071C92.7213 145.154 92.7407 145.076 92.7653 144.976C92.7899 144.876 92.8131 144.765 92.8349 144.641C92.8567 144.517 92.8704 144.39 92.8761 144.261L92.8832 144.102H93.3832ZM95.0887 141.551C95.2383 141.551 95.3822 141.576 95.5205 141.626C95.6597 141.677 95.7837 141.757 95.8926 141.866C96.0025 141.976 96.0891 142.122 96.1526 142.304C96.217 142.485 96.2496 142.707 96.2506 142.97C96.2506 143.217 96.2227 143.438 96.1668 143.632C96.1119 143.825 96.0328 143.99 95.9296 144.125C95.8264 144.26 95.7018 144.364 95.556 144.435C95.4102 144.505 95.2473 144.54 95.0674 144.54C94.8732 144.54 94.7018 144.502 94.5532 144.428C94.4045 144.352 94.2847 144.249 94.1938 144.119C94.1038 143.989 94.0494 143.842 94.0304 143.679H94.637C94.6606 143.785 94.7104 143.867 94.7861 143.926C94.8619 143.984 94.9556 144.013 95.0674 144.013C95.2568 144.013 95.4007 143.93 95.4992 143.766C95.5977 143.6 95.6474 143.373 95.6483 143.085H95.6284C95.5849 143.17 95.5262 143.244 95.4523 143.305C95.3784 143.366 95.2937 143.413 95.198 143.446C95.1033 143.479 95.0025 143.496 94.8955 143.496C94.7241 143.496 94.5711 143.455 94.4367 143.375C94.3022 143.295 94.1961 143.184 94.1185 143.043C94.0408 142.902 94.002 142.741 94.002 142.56C94.0011 142.365 94.0461 142.191 94.137 142.038C94.2279 141.886 94.3548 141.767 94.5176 141.68C94.6815 141.593 94.8718 141.55 95.0887 141.551ZM95.0929 142.034C94.9973 142.034 94.9121 142.057 94.8372 142.102C94.7634 142.148 94.7047 142.209 94.6611 142.286C94.6185 142.362 94.5977 142.448 94.5986 142.543C94.5986 142.638 94.6194 142.724 94.6611 142.801C94.7037 142.877 94.7615 142.937 94.8344 142.983C94.9083 143.027 94.9925 143.05 95.0872 143.05C95.1583 143.05 95.2241 143.036 95.2847 143.01C95.3453 142.983 95.3979 142.947 95.4424 142.901C95.4878 142.853 95.5233 142.799 95.5489 142.737C95.5745 142.676 95.5872 142.61 95.5872 142.541C95.5863 142.449 95.5645 142.365 95.5219 142.288C95.4793 142.212 95.4206 142.15 95.3458 142.104C95.271 142.057 95.1867 142.034 95.0929 142.034ZM97.814 144.864V141.227H98.047V144.864H97.814ZM98.4319 142.428C98.4205 142.313 98.3718 142.224 98.2856 142.161C98.1994 142.097 98.0825 142.065 97.9347 142.065C97.8344 142.065 97.7496 142.08 97.6805 142.108C97.6114 142.135 97.5583 142.174 97.5214 142.223C97.4854 142.272 97.4674 142.328 97.4674 142.391C97.4655 142.443 97.4764 142.488 97.5001 142.527C97.5247 142.566 97.5583 142.599 97.6009 142.628C97.6436 142.655 97.6928 142.679 97.7487 142.7C97.8045 142.72 97.8642 142.737 97.9276 142.751L98.189 142.814C98.3159 142.842 98.4324 142.88 98.5384 142.928C98.6445 142.975 98.7364 143.033 98.814 143.102C98.8917 143.171 98.9518 143.253 98.9944 143.347C99.038 143.44 99.0602 143.548 99.0612 143.669C99.0602 143.847 99.0148 144.001 98.9248 144.132C98.8358 144.262 98.707 144.363 98.5384 144.435C98.3708 144.506 98.1686 144.541 97.9319 144.541C97.6971 144.541 97.4925 144.505 97.3183 144.433C97.145 144.361 97.0096 144.255 96.912 144.114C96.8154 143.972 96.7648 143.796 96.76 143.587H97.3552C97.3618 143.684 97.3898 143.766 97.439 143.831C97.4892 143.895 97.556 143.944 97.6393 143.977C97.7236 144.009 97.8187 144.026 97.9248 144.026C98.029 144.026 98.1194 144.01 98.1961 143.98C98.2738 143.95 98.3339 143.908 98.3765 143.854C98.4191 143.8 98.4404 143.738 98.4404 143.668C98.4404 143.602 98.421 143.547 98.3822 143.503C98.3443 143.458 98.2884 143.42 98.2146 143.389C98.1417 143.358 98.0522 143.33 97.9461 143.304L97.6293 143.224C97.3841 143.165 97.1904 143.071 97.0484 142.945C96.9063 142.818 96.8358 142.647 96.8367 142.432C96.8358 142.256 96.8827 142.102 96.9774 141.97C97.073 141.839 97.2042 141.736 97.3708 141.662C97.5375 141.588 97.7269 141.551 97.939 141.551C98.1549 141.551 98.3434 141.588 98.5043 141.662C98.6663 141.736 98.7922 141.839 98.8822 141.97C98.9722 142.102 99.0186 142.254 99.0214 142.428H98.4319Z" fill="#BBBAC3"/>
</g>
<g clip-path="url(#clip2_1170_2570)">
<rect x="85" y="154" width="50" height="32" rx="2" fill="#504D65"/>
<circle cx="92.9375" cy="165.544" r="2" fill="#9A99A7"/>
<path d="M97.198 170.175L86.6396 179.973C86.2317 180.351 86 180.882 86 181.439V183C86 184.105 86.8954 185 88 185H132C133.105 185 134 184.105 134 183V173.714C134 173.304 133.874 172.904 133.64 172.568L127.789 164.191C127.024 163.097 125.422 163.044 124.588 164.086L112.722 178.907C112.002 179.807 110.672 179.913 109.818 179.14L99.9009 170.158C99.132 169.462 97.9584 169.469 97.198 170.175Z" fill="#9A99A7"/>
<rect x="111" y="190" width="24" height="6" rx="3" fill="#504D65"/>
<path d="M88.2884 191.551C88.438 191.551 88.5819 191.576 88.7202 191.626C88.8594 191.677 88.9834 191.757 89.0923 191.866C89.2022 191.976 89.2888 192.122 89.3523 192.304C89.4167 192.485 89.4493 192.707 89.4503 192.97C89.4503 193.217 89.4223 193.438 89.3665 193.632C89.3116 193.825 89.2325 193.99 89.1293 194.125C89.026 194.26 88.9015 194.364 88.7557 194.435C88.6098 194.505 88.447 194.54 88.267 194.54C88.0729 194.54 87.9015 194.502 87.7528 194.428C87.6042 194.352 87.4844 194.249 87.3935 194.119C87.3035 193.989 87.2491 193.842 87.2301 193.679H87.8366C87.8603 193.785 87.91 193.867 87.9858 193.926C88.0616 193.984 88.1553 194.013 88.267 194.013C88.4564 194.013 88.6004 193.93 88.6989 193.766C88.7973 193.6 88.8471 193.373 88.848 193.085H88.8281C88.7846 193.17 88.7259 193.244 88.652 193.305C88.5781 193.366 88.4934 193.413 88.3977 193.446C88.303 193.479 88.2022 193.496 88.0952 193.496C87.9238 193.496 87.7708 193.455 87.6364 193.375C87.5019 193.295 87.3958 193.184 87.3182 193.043C87.2405 192.902 87.2017 192.741 87.2017 192.56C87.2008 192.365 87.2457 192.191 87.3366 192.038C87.4276 191.886 87.5545 191.767 87.7173 191.68C87.8812 191.593 88.0715 191.55 88.2884 191.551ZM88.2926 192.034C88.197 192.034 88.1117 192.057 88.0369 192.102C87.9631 192.148 87.9044 192.209 87.8608 192.286C87.8182 192.362 87.7973 192.448 87.7983 192.543C87.7983 192.638 87.8191 192.724 87.8608 192.801C87.9034 192.877 87.9612 192.937 88.0341 192.983C88.108 193.027 88.1922 193.05 88.2869 193.05C88.358 193.05 88.4238 193.036 88.4844 193.01C88.545 192.983 88.5975 192.947 88.642 192.901C88.6875 192.853 88.723 192.799 88.7486 192.737C88.7741 192.676 88.7869 192.61 88.7869 192.541C88.786 192.449 88.7642 192.365 88.7216 192.288C88.679 192.212 88.6203 192.15 88.5455 192.104C88.4706 192.057 88.3864 192.034 88.2926 192.034ZM91.089 191.551C91.2386 191.551 91.3825 191.576 91.5208 191.626C91.66 191.677 91.7841 191.757 91.893 191.866C92.0028 191.976 92.0895 192.122 92.1529 192.304C92.2173 192.485 92.25 192.707 92.2509 192.97C92.2509 193.217 92.223 193.438 92.1671 193.632C92.1122 193.825 92.0331 193.99 91.9299 194.125C91.8267 194.26 91.7021 194.364 91.5563 194.435C91.4105 194.505 91.2476 194.54 91.0677 194.54C90.8735 194.54 90.7021 194.502 90.5535 194.428C90.4048 194.352 90.285 194.249 90.1941 194.119C90.1041 193.989 90.0497 193.842 90.0307 193.679H90.6373C90.6609 193.785 90.7107 193.867 90.7864 193.926C90.8622 193.984 90.9559 194.013 91.0677 194.013C91.2571 194.013 91.401 193.93 91.4995 193.766C91.598 193.6 91.6477 193.373 91.6486 193.085H91.6288C91.5852 193.17 91.5265 193.244 91.4526 193.305C91.3788 193.366 91.294 193.413 91.1984 193.446C91.1037 193.479 91.0028 193.496 90.8958 193.496C90.7244 193.496 90.5715 193.455 90.437 193.375C90.3025 193.295 90.1965 193.184 90.1188 193.043C90.0412 192.902 90.0023 192.741 90.0023 192.56C90.0014 192.365 90.0464 192.191 90.1373 192.038C90.2282 191.886 90.3551 191.767 90.518 191.68C90.6818 191.593 90.8721 191.55 91.089 191.551ZM91.0932 192.034C90.9976 192.034 90.9124 192.057 90.8376 192.102C90.7637 192.148 90.705 192.209 90.6614 192.286C90.6188 192.362 90.598 192.448 90.5989 192.543C90.5989 192.638 90.6198 192.724 90.6614 192.801C90.704 192.877 90.7618 192.937 90.8347 192.983C90.9086 193.027 90.9929 193.05 91.0876 193.05C91.1586 193.05 91.2244 193.036 91.285 193.01C91.3456 192.983 91.3982 192.947 91.4427 192.901C91.4881 192.853 91.5236 192.799 91.5492 192.737C91.5748 192.676 91.5876 192.61 91.5876 192.541C91.5866 192.449 91.5648 192.365 91.5222 192.288C91.4796 192.212 91.4209 192.15 91.3461 192.104C91.2713 192.057 91.187 192.034 91.0932 192.034ZM93.3832 194.102L93.3676 194.259C93.3553 194.384 93.3316 194.508 93.2966 194.632C93.2625 194.757 93.2265 194.87 93.1886 194.972C93.1517 195.073 93.1218 195.152 93.0991 195.21H92.7071C92.7213 195.154 92.7407 195.076 92.7653 194.976C92.7899 194.876 92.8131 194.765 92.8349 194.641C92.8567 194.517 92.8704 194.39 92.8761 194.261L92.8832 194.102H93.3832ZM95.0887 191.551C95.2383 191.551 95.3822 191.576 95.5205 191.626C95.6597 191.677 95.7837 191.757 95.8926 191.866C96.0025 191.976 96.0891 192.122 96.1526 192.304C96.217 192.485 96.2496 192.707 96.2506 192.97C96.2506 193.217 96.2227 193.438 96.1668 193.632C96.1119 193.825 96.0328 193.99 95.9296 194.125C95.8264 194.26 95.7018 194.364 95.556 194.435C95.4102 194.505 95.2473 194.54 95.0674 194.54C94.8732 194.54 94.7018 194.502 94.5532 194.428C94.4045 194.352 94.2847 194.249 94.1938 194.119C94.1038 193.989 94.0494 193.842 94.0304 193.679H94.637C94.6606 193.785 94.7104 193.867 94.7861 193.926C94.8619 193.984 94.9556 194.013 95.0674 194.013C95.2568 194.013 95.4007 193.93 95.4992 193.766C95.5977 193.6 95.6474 193.373 95.6483 193.085H95.6284C95.5849 193.17 95.5262 193.244 95.4523 193.305C95.3784 193.366 95.2937 193.413 95.198 193.446C95.1033 193.479 95.0025 193.496 94.8955 193.496C94.7241 193.496 94.5711 193.455 94.4367 193.375C94.3022 193.295 94.1961 193.184 94.1185 193.043C94.0408 192.902 94.002 192.741 94.002 192.56C94.0011 192.365 94.0461 192.191 94.137 192.038C94.2279 191.886 94.3548 191.767 94.5176 191.68C94.6815 191.593 94.8718 191.55 95.0887 191.551ZM95.0929 192.034C94.9973 192.034 94.9121 192.057 94.8372 192.102C94.7634 192.148 94.7047 192.209 94.6611 192.286C94.6185 192.362 94.5977 192.448 94.5986 192.543C94.5986 192.638 94.6194 192.724 94.6611 192.801C94.7037 192.877 94.7615 192.937 94.8344 192.983C94.9083 193.027 94.9925 193.05 95.0872 193.05C95.1583 193.05 95.2241 193.036 95.2847 193.01C95.3453 192.983 95.3979 192.947 95.4424 192.901C95.4878 192.853 95.5233 192.799 95.5489 192.737C95.5745 192.676 95.5872 192.61 95.5872 192.541C95.5863 192.449 95.5645 192.365 95.5219 192.288C95.4793 192.212 95.4206 192.15 95.3458 192.104C95.271 192.057 95.1867 192.034 95.0929 192.034ZM97.814 194.864V191.227H98.047V194.864H97.814ZM98.4319 192.428C98.4205 192.313 98.3718 192.224 98.2856 192.161C98.1994 192.097 98.0825 192.065 97.9347 192.065C97.8344 192.065 97.7496 192.08 97.6805 192.108C97.6114 192.135 97.5583 192.174 97.5214 192.223C97.4854 192.272 97.4674 192.328 97.4674 192.391C97.4655 192.443 97.4764 192.488 97.5001 192.527C97.5247 192.566 97.5583 192.599 97.6009 192.628C97.6436 192.655 97.6928 192.679 97.7487 192.7C97.8045 192.72 97.8642 192.737 97.9276 192.751L98.189 192.814C98.3159 192.842 98.4324 192.88 98.5384 192.928C98.6445 192.975 98.7364 193.033 98.814 193.102C98.8917 193.171 98.9518 193.253 98.9944 193.347C99.038 193.44 99.0602 193.548 99.0612 193.669C99.0602 193.847 99.0148 194.001 98.9248 194.132C98.8358 194.262 98.707 194.363 98.5384 194.435C98.3708 194.506 98.1686 194.541 97.9319 194.541C97.6971 194.541 97.4925 194.505 97.3183 194.433C97.145 194.361 97.0096 194.255 96.912 194.114C96.8154 193.972 96.7648 193.796 96.76 193.587H97.3552C97.3618 193.684 97.3898 193.766 97.439 193.831C97.4892 193.895 97.556 193.944 97.6393 193.977C97.7236 194.009 97.8187 194.026 97.9248 194.026C98.029 194.026 98.1194 194.01 98.1961 193.98C98.2738 193.95 98.3339 193.908 98.3765 193.854C98.4191 193.8 98.4404 193.738 98.4404 193.668C98.4404 193.602 98.421 193.547 98.3822 193.503C98.3443 193.458 98.2884 193.42 98.2146 193.389C98.1417 193.358 98.0522 193.33 97.9461 193.304L97.6293 193.224C97.3841 193.165 97.1904 193.071 97.0484 192.945C96.9063 192.818 96.8358 192.647 96.8367 192.432C96.8358 192.256 96.8827 192.102 96.9774 191.97C97.073 191.839 97.2042 191.736 97.3708 191.662C97.5375 191.588 97.7269 191.551 97.939 191.551C98.1549 191.551 98.3434 191.588 98.5043 191.662C98.6663 191.736 98.7922 191.839 98.8822 191.97C98.9722 192.102 99.0186 192.254 99.0214 192.428H98.4319Z" fill="#BBBAC3"/>
</g>
<g clip-path="url(#clip3_1170_2570)">
<rect x="140" y="54" width="50" height="32" rx="2" fill="#504D65"/>
<circle cx="147.938" cy="65.5438" r="2" fill="#9A99A7"/>
<path d="M152.198 70.1749L141.64 79.9728C141.232 80.3512 141 80.8824 141 81.4388V83C141 84.1046 141.895 85 143 85H187C188.105 85 189 84.1046 189 83V73.7136C189 73.304 188.874 72.9042 188.64 72.5684L182.789 64.1912C182.024 63.0966 180.422 63.0442 179.588 64.0864L167.722 78.9071C167.002 79.8067 165.672 79.9131 164.818 79.1396L154.901 70.1584C154.132 69.4621 152.958 69.4692 152.198 70.1749Z" fill="#9A99A7"/>
<rect x="166" y="90" width="24" height="6" rx="3" fill="#504D65"/>
<path d="M143.288 91.5511C143.438 91.5511 143.582 91.5762 143.72 91.6264C143.859 91.6766 143.983 91.7566 144.092 91.8665C144.202 91.9763 144.289 92.1222 144.352 92.304C144.417 92.4848 144.449 92.7069 144.45 92.9702C144.45 93.2173 144.422 93.438 144.366 93.6321C144.312 93.8253 144.232 93.9896 144.129 94.125C144.026 94.2604 143.902 94.3636 143.756 94.4347C143.61 94.5047 143.447 94.5398 143.267 94.5398C143.073 94.5398 142.902 94.5024 142.753 94.4276C142.604 94.3518 142.484 94.2491 142.393 94.1193C142.304 93.9886 142.249 93.8419 142.23 93.679H142.837C142.86 93.785 142.91 93.8674 142.986 93.9261C143.062 93.9839 143.155 94.0128 143.267 94.0128C143.456 94.0128 143.6 93.9304 143.699 93.7656C143.797 93.5999 143.847 93.3731 143.848 93.0852H143.828C143.785 93.1705 143.726 93.2438 143.652 93.3054C143.578 93.366 143.493 93.4129 143.398 93.446C143.303 93.4792 143.202 93.4957 143.095 93.4957C142.924 93.4957 142.771 93.4555 142.636 93.375C142.502 93.2945 142.396 93.1837 142.318 93.0426C142.241 92.9015 142.202 92.7405 142.202 92.5597C142.201 92.3646 142.246 92.1908 142.337 92.0384C142.428 91.8859 142.554 91.7666 142.717 91.6804C142.881 91.5933 143.071 91.5502 143.288 91.5511ZM143.293 92.0341C143.197 92.0341 143.112 92.0568 143.037 92.1023C142.963 92.1477 142.904 92.2088 142.861 92.2855C142.818 92.3622 142.797 92.4479 142.798 92.5426C142.798 92.6383 142.819 92.7244 142.861 92.8011C142.903 92.8769 142.961 92.9375 143.034 92.983C143.108 93.0275 143.192 93.0497 143.287 93.0497C143.358 93.0497 143.424 93.0365 143.484 93.0099C143.545 92.9834 143.598 92.947 143.642 92.9006C143.688 92.8532 143.723 92.7988 143.749 92.7372C143.774 92.6757 143.787 92.6103 143.787 92.5412C143.786 92.4493 143.764 92.3651 143.722 92.2884C143.679 92.2116 143.62 92.1501 143.545 92.1037C143.471 92.0573 143.386 92.0341 143.293 92.0341ZM146.089 91.5511C146.239 91.5511 146.383 91.5762 146.521 91.6264C146.66 91.6766 146.784 91.7566 146.893 91.8665C147.003 91.9763 147.089 92.1222 147.153 92.304C147.217 92.4848 147.25 92.7069 147.251 92.9702C147.251 93.2173 147.223 93.438 147.167 93.6321C147.112 93.8253 147.033 93.9896 146.93 94.125C146.827 94.2604 146.702 94.3636 146.556 94.4347C146.41 94.5047 146.248 94.5398 146.068 94.5398C145.874 94.5398 145.702 94.5024 145.553 94.4276C145.405 94.3518 145.285 94.2491 145.194 94.1193C145.104 93.9886 145.05 93.8419 145.031 93.679H145.637C145.661 93.785 145.711 93.8674 145.786 93.9261C145.862 93.9839 145.956 94.0128 146.068 94.0128C146.257 94.0128 146.401 93.9304 146.499 93.7656C146.598 93.5999 146.648 93.3731 146.649 93.0852H146.629C146.585 93.1705 146.526 93.2438 146.453 93.3054C146.379 93.366 146.294 93.4129 146.198 93.446C146.104 93.4792 146.003 93.4957 145.896 93.4957C145.724 93.4957 145.571 93.4555 145.437 93.375C145.303 93.2945 145.196 93.1837 145.119 93.0426C145.041 92.9015 145.002 92.7405 145.002 92.5597C145.001 92.3646 145.046 92.1908 145.137 92.0384C145.228 91.8859 145.355 91.7666 145.518 91.6804C145.682 91.5933 145.872 91.5502 146.089 91.5511ZM146.093 92.0341C145.998 92.0341 145.912 92.0568 145.838 92.1023C145.764 92.1477 145.705 92.2088 145.661 92.2855C145.619 92.3622 145.598 92.4479 145.599 92.5426C145.599 92.6383 145.62 92.7244 145.661 92.8011C145.704 92.8769 145.762 92.9375 145.835 92.983C145.909 93.0275 145.993 93.0497 146.088 93.0497C146.159 93.0497 146.224 93.0365 146.285 93.0099C146.346 92.9834 146.398 92.947 146.443 92.9006C146.488 92.8532 146.524 92.7988 146.549 92.7372C146.575 92.6757 146.588 92.6103 146.588 92.5412C146.587 92.4493 146.565 92.3651 146.522 92.2884C146.48 92.2116 146.421 92.1501 146.346 92.1037C146.271 92.0573 146.187 92.0341 146.093 92.0341ZM148.383 94.1023L148.368 94.2585C148.355 94.3835 148.332 94.508 148.297 94.6321C148.262 94.7571 148.226 94.8703 148.189 94.9716C148.152 95.0729 148.122 95.1525 148.099 95.2102H147.707C147.721 95.1544 147.741 95.0762 147.765 94.9759C147.79 94.8764 147.813 94.7647 147.835 94.6406C147.857 94.5166 147.87 94.3902 147.876 94.2614L147.883 94.1023H148.383ZM150.089 91.5511C150.238 91.5511 150.382 91.5762 150.52 91.6264C150.66 91.6766 150.784 91.7566 150.893 91.8665C151.002 91.9763 151.089 92.1222 151.153 92.304C151.217 92.4848 151.25 92.7069 151.251 92.9702C151.251 93.2173 151.223 93.438 151.167 93.6321C151.112 93.8253 151.033 93.9896 150.93 94.125C150.826 94.2604 150.702 94.3636 150.556 94.4347C150.41 94.5047 150.247 94.5398 150.067 94.5398C149.873 94.5398 149.702 94.5024 149.553 94.4276C149.404 94.3518 149.285 94.2491 149.194 94.1193C149.104 93.9886 149.049 93.8419 149.03 93.679H149.637C149.661 93.785 149.71 93.8674 149.786 93.9261C149.862 93.9839 149.956 94.0128 150.067 94.0128C150.257 94.0128 150.401 93.9304 150.499 93.7656C150.598 93.5999 150.647 93.3731 150.648 93.0852H150.628C150.585 93.1705 150.526 93.2438 150.452 93.3054C150.378 93.366 150.294 93.4129 150.198 93.446C150.103 93.4792 150.002 93.4957 149.895 93.4957C149.724 93.4957 149.571 93.4555 149.437 93.375C149.302 93.2945 149.196 93.1837 149.118 93.0426C149.041 92.9015 149.002 92.7405 149.002 92.5597C149.001 92.3646 149.046 92.1908 149.137 92.0384C149.228 91.8859 149.355 91.7666 149.518 91.6804C149.681 91.5933 149.872 91.5502 150.089 91.5511ZM150.093 92.0341C149.997 92.0341 149.912 92.0568 149.837 92.1023C149.763 92.1477 149.705 92.2088 149.661 92.2855C149.618 92.3622 149.598 92.4479 149.599 92.5426C149.599 92.6383 149.619 92.7244 149.661 92.8011C149.704 92.8769 149.761 92.9375 149.834 92.983C149.908 93.0275 149.993 93.0497 150.087 93.0497C150.158 93.0497 150.224 93.0365 150.285 93.0099C150.345 92.9834 150.398 92.947 150.442 92.9006C150.488 92.8532 150.523 92.7988 150.549 92.7372C150.574 92.6757 150.587 92.6103 150.587 92.5412C150.586 92.4493 150.565 92.3651 150.522 92.2884C150.479 92.2116 150.421 92.1501 150.346 92.1037C150.271 92.0573 150.187 92.0341 150.093 92.0341ZM152.814 94.8636V91.2273H153.047V94.8636H152.814ZM153.432 92.4276C153.421 92.313 153.372 92.224 153.286 92.1605C153.199 92.0971 153.082 92.0653 152.935 92.0653C152.834 92.0653 152.75 92.0795 152.68 92.108C152.611 92.1354 152.558 92.1738 152.521 92.223C152.485 92.2723 152.467 92.3281 152.467 92.3906C152.466 92.4427 152.476 92.4882 152.5 92.527C152.525 92.5658 152.558 92.5994 152.601 92.6278C152.644 92.6553 152.693 92.6795 152.749 92.7003C152.805 92.7202 152.864 92.7372 152.928 92.7514L153.189 92.8139C153.316 92.8423 153.432 92.8802 153.538 92.9276C153.644 92.9749 153.736 93.0331 153.814 93.1023C153.892 93.1714 153.952 93.2528 153.994 93.3466C154.038 93.4403 154.06 93.5478 154.061 93.669C154.06 93.8471 154.015 94.0014 153.925 94.1321C153.836 94.2618 153.707 94.3627 153.538 94.4347C153.371 94.5057 153.169 94.5412 152.932 94.5412C152.697 94.5412 152.493 94.5052 152.318 94.4332C152.145 94.3613 152.01 94.2547 151.912 94.1136C151.815 93.9716 151.765 93.7959 151.76 93.5866H152.355C152.362 93.6842 152.39 93.7656 152.439 93.831C152.489 93.8954 152.556 93.9441 152.639 93.9773C152.724 94.0095 152.819 94.0256 152.925 94.0256C153.029 94.0256 153.119 94.0104 153.196 93.9801C153.274 93.9498 153.334 93.9077 153.377 93.8537C153.419 93.7997 153.44 93.7377 153.44 93.6676C153.44 93.6023 153.421 93.5473 153.382 93.5028C153.344 93.4583 153.288 93.4205 153.215 93.3892C153.142 93.358 153.052 93.3295 152.946 93.304L152.629 93.2244C152.384 93.1648 152.19 93.0715 152.048 92.9446C151.906 92.8177 151.836 92.6468 151.837 92.4318C151.836 92.2557 151.883 92.1018 151.977 91.9702C152.073 91.8385 152.204 91.7358 152.371 91.6619C152.537 91.5881 152.727 91.5511 152.939 91.5511C153.155 91.5511 153.343 91.5881 153.504 91.6619C153.666 91.7358 153.792 91.8385 153.882 91.9702C153.972 92.1018 154.019 92.2543 154.021 92.4276H153.432Z" fill="#BBBAC3"/>
</g>
<g clip-path="url(#clip4_1170_2570)">
<rect x="140" y="104" width="50" height="32" rx="2" fill="#504D65"/>
<circle cx="147.938" cy="115.544" r="2" fill="#9A99A7"/>
<path d="M152.198 120.175L141.64 129.973C141.232 130.351 141 130.882 141 131.439V133C141 134.105 141.895 135 143 135H187C188.105 135 189 134.105 189 133V123.714C189 123.304 188.874 122.904 188.64 122.568L182.789 114.191C182.024 113.097 180.422 113.044 179.588 114.086L167.722 128.907C167.002 129.807 165.672 129.913 164.818 129.14L154.901 120.158C154.132 119.462 152.958 119.469 152.198 120.175Z" fill="#9A99A7"/>
<rect x="166" y="140" width="24" height="6" rx="3" fill="#504D65"/>
<path d="M143.288 141.551C143.438 141.551 143.582 141.576 143.72 141.626C143.859 141.677 143.983 141.757 144.092 141.866C144.202 141.976 144.289 142.122 144.352 142.304C144.417 142.485 144.449 142.707 144.45 142.97C144.45 143.217 144.422 143.438 144.366 143.632C144.312 143.825 144.232 143.99 144.129 144.125C144.026 144.26 143.902 144.364 143.756 144.435C143.61 144.505 143.447 144.54 143.267 144.54C143.073 144.54 142.902 144.502 142.753 144.428C142.604 144.352 142.484 144.249 142.393 144.119C142.304 143.989 142.249 143.842 142.23 143.679H142.837C142.86 143.785 142.91 143.867 142.986 143.926C143.062 143.984 143.155 144.013 143.267 144.013C143.456 144.013 143.6 143.93 143.699 143.766C143.797 143.6 143.847 143.373 143.848 143.085H143.828C143.785 143.17 143.726 143.244 143.652 143.305C143.578 143.366 143.493 143.413 143.398 143.446C143.303 143.479 143.202 143.496 143.095 143.496C142.924 143.496 142.771 143.455 142.636 143.375C142.502 143.295 142.396 143.184 142.318 143.043C142.241 142.902 142.202 142.741 142.202 142.56C142.201 142.365 142.246 142.191 142.337 142.038C142.428 141.886 142.554 141.767 142.717 141.68C142.881 141.593 143.071 141.55 143.288 141.551ZM143.293 142.034C143.197 142.034 143.112 142.057 143.037 142.102C142.963 142.148 142.904 142.209 142.861 142.286C142.818 142.362 142.797 142.448 142.798 142.543C142.798 142.638 142.819 142.724 142.861 142.801C142.903 142.877 142.961 142.937 143.034 142.983C143.108 143.027 143.192 143.05 143.287 143.05C143.358 143.05 143.424 143.036 143.484 143.01C143.545 142.983 143.598 142.947 143.642 142.901C143.688 142.853 143.723 142.799 143.749 142.737C143.774 142.676 143.787 142.61 143.787 142.541C143.786 142.449 143.764 142.365 143.722 142.288C143.679 142.212 143.62 142.15 143.545 142.104C143.471 142.057 143.386 142.034 143.293 142.034ZM146.089 141.551C146.239 141.551 146.383 141.576 146.521 141.626C146.66 141.677 146.784 141.757 146.893 141.866C147.003 141.976 147.089 142.122 147.153 142.304C147.217 142.485 147.25 142.707 147.251 142.97C147.251 143.217 147.223 143.438 147.167 143.632C147.112 143.825 147.033 143.99 146.93 144.125C146.827 144.26 146.702 144.364 146.556 144.435C146.41 144.505 146.248 144.54 146.068 144.54C145.874 144.54 145.702 144.502 145.553 144.428C145.405 144.352 145.285 144.249 145.194 144.119C145.104 143.989 145.05 143.842 145.031 143.679H145.637C145.661 143.785 145.711 143.867 145.786 143.926C145.862 143.984 145.956 144.013 146.068 144.013C146.257 144.013 146.401 143.93 146.499 143.766C146.598 143.6 146.648 143.373 146.649 143.085H146.629C146.585 143.17 146.526 143.244 146.453 143.305C146.379 143.366 146.294 143.413 146.198 143.446C146.104 143.479 146.003 143.496 145.896 143.496C145.724 143.496 145.571 143.455 145.437 143.375C145.303 143.295 145.196 143.184 145.119 143.043C145.041 142.902 145.002 142.741 145.002 142.56C145.001 142.365 145.046 142.191 145.137 142.038C145.228 141.886 145.355 141.767 145.518 141.68C145.682 141.593 145.872 141.55 146.089 141.551ZM146.093 142.034C145.998 142.034 145.912 142.057 145.838 142.102C145.764 142.148 145.705 142.209 145.661 142.286C145.619 142.362 145.598 142.448 145.599 142.543C145.599 142.638 145.62 142.724 145.661 142.801C145.704 142.877 145.762 142.937 145.835 142.983C145.909 143.027 145.993 143.05 146.088 143.05C146.159 143.05 146.224 143.036 146.285 143.01C146.346 142.983 146.398 142.947 146.443 142.901C146.488 142.853 146.524 142.799 146.549 142.737C146.575 142.676 146.588 142.61 146.588 142.541C146.587 142.449 146.565 142.365 146.522 142.288C146.48 142.212 146.421 142.15 146.346 142.104C146.271 142.057 146.187 142.034 146.093 142.034ZM148.383 144.102L148.368 144.259C148.355 144.384 148.332 144.508 148.297 144.632C148.262 144.757 148.226 144.87 148.189 144.972C148.152 145.073 148.122 145.152 148.099 145.21H147.707C147.721 145.154 147.741 145.076 147.765 144.976C147.79 144.876 147.813 144.765 147.835 144.641C147.857 144.517 147.87 144.39 147.876 144.261L147.883 144.102H148.383ZM150.089 141.551C150.238 141.551 150.382 141.576 150.52 141.626C150.66 141.677 150.784 141.757 150.893 141.866C151.002 141.976 151.089 142.122 151.153 142.304C151.217 142.485 151.25 142.707 151.251 142.97C151.251 143.217 151.223 143.438 151.167 143.632C151.112 143.825 151.033 143.99 150.93 144.125C150.826 144.26 150.702 144.364 150.556 144.435C150.41 144.505 150.247 144.54 150.067 144.54C149.873 144.54 149.702 144.502 149.553 144.428C149.404 144.352 149.285 144.249 149.194 144.119C149.104 143.989 149.049 143.842 149.03 143.679H149.637C149.661 143.785 149.71 143.867 149.786 143.926C149.862 143.984 149.956 144.013 150.067 144.013C150.257 144.013 150.401 143.93 150.499 143.766C150.598 143.6 150.647 143.373 150.648 143.085H150.628C150.585 143.17 150.526 143.244 150.452 143.305C150.378 143.366 150.294 143.413 150.198 143.446C150.103 143.479 150.002 143.496 149.895 143.496C149.724 143.496 149.571 143.455 149.437 143.375C149.302 143.295 149.196 143.184 149.118 143.043C149.041 142.902 149.002 142.741 149.002 142.56C149.001 142.365 149.046 142.191 149.137 142.038C149.228 141.886 149.355 141.767 149.518 141.68C149.681 141.593 149.872 141.55 150.089 141.551ZM150.093 142.034C149.997 142.034 149.912 142.057 149.837 142.102C149.763 142.148 149.705 142.209 149.661 142.286C149.618 142.362 149.598 142.448 149.599 142.543C149.599 142.638 149.619 142.724 149.661 142.801C149.704 142.877 149.761 142.937 149.834 142.983C149.908 143.027 149.993 143.05 150.087 143.05C150.158 143.05 150.224 143.036 150.285 143.01C150.345 142.983 150.398 142.947 150.442 142.901C150.488 142.853 150.523 142.799 150.549 142.737C150.574 142.676 150.587 142.61 150.587 142.541C150.586 142.449 150.565 142.365 150.522 142.288C150.479 142.212 150.421 142.15 150.346 142.104C150.271 142.057 150.187 142.034 150.093 142.034ZM152.814 144.864V141.227H153.047V144.864H152.814ZM153.432 142.428C153.421 142.313 153.372 142.224 153.286 142.161C153.199 142.097 153.082 142.065 152.935 142.065C152.834 142.065 152.75 142.08 152.68 142.108C152.611 142.135 152.558 142.174 152.521 142.223C152.485 142.272 152.467 142.328 152.467 142.391C152.466 142.443 152.476 142.488 152.5 142.527C152.525 142.566 152.558 142.599 152.601 142.628C152.644 142.655 152.693 142.679 152.749 142.7C152.805 142.72 152.864 142.737 152.928 142.751L153.189 142.814C153.316 142.842 153.432 142.88 153.538 142.928C153.644 142.975 153.736 143.033 153.814 143.102C153.892 143.171 153.952 143.253 153.994 143.347C154.038 143.44 154.06 143.548 154.061 143.669C154.06 143.847 154.015 144.001 153.925 144.132C153.836 144.262 153.707 144.363 153.538 144.435C153.371 144.506 153.169 144.541 152.932 144.541C152.697 144.541 152.493 144.505 152.318 144.433C152.145 144.361 152.01 144.255 151.912 144.114C151.815 143.972 151.765 143.796 151.76 143.587H152.355C152.362 143.684 152.39 143.766 152.439 143.831C152.489 143.895 152.556 143.944 152.639 143.977C152.724 144.009 152.819 144.026 152.925 144.026C153.029 144.026 153.119 144.01 153.196 143.98C153.274 143.95 153.334 143.908 153.377 143.854C153.419 143.8 153.44 143.738 153.44 143.668C153.44 143.602 153.421 143.547 153.382 143.503C153.344 143.458 153.288 143.42 153.215 143.389C153.142 143.358 153.052 143.33 152.946 143.304L152.629 143.224C152.384 143.165 152.19 143.071 152.048 142.945C151.906 142.818 151.836 142.647 151.837 142.432C151.836 142.256 151.883 142.102 151.977 141.97C152.073 141.839 152.204 141.736 152.371 141.662C152.537 141.588 152.727 141.551 152.939 141.551C153.155 141.551 153.343 141.588 153.504 141.662C153.666 141.736 153.792 141.839 153.882 141.97C153.972 142.102 154.019 142.254 154.021 142.428H153.432Z" fill="#BBBAC3"/>
</g>
<g clip-path="url(#clip5_1170_2570)">
<rect x="140" y="154" width="50" height="32" rx="2" fill="#504D65"/>
<circle cx="147.938" cy="165.544" r="2" fill="#9A99A7"/>
<path d="M152.198 170.175L141.64 179.973C141.232 180.351 141 180.882 141 181.439V183C141 184.105 141.895 185 143 185H187C188.105 185 189 184.105 189 183V173.714C189 173.304 188.874 172.904 188.64 172.568L182.789 164.191C182.024 163.097 180.422 163.044 179.588 164.086L167.722 178.907C167.002 179.807 165.672 179.913 164.818 179.14L154.901 170.158C154.132 169.462 152.958 169.469 152.198 170.175Z" fill="#9A99A7"/>
<rect x="166" y="190" width="24" height="6" rx="3" fill="#504D65"/>
<path d="M143.288 191.551C143.438 191.551 143.582 191.576 143.72 191.626C143.859 191.677 143.983 191.757 144.092 191.866C144.202 191.976 144.289 192.122 144.352 192.304C144.417 192.485 144.449 192.707 144.45 192.97C144.45 193.217 144.422 193.438 144.366 193.632C144.312 193.825 144.232 193.99 144.129 194.125C144.026 194.26 143.902 194.364 143.756 194.435C143.61 194.505 143.447 194.54 143.267 194.54C143.073 194.54 142.902 194.502 142.753 194.428C142.604 194.352 142.484 194.249 142.393 194.119C142.304 193.989 142.249 193.842 142.23 193.679H142.837C142.86 193.785 142.91 193.867 142.986 193.926C143.062 193.984 143.155 194.013 143.267 194.013C143.456 194.013 143.6 193.93 143.699 193.766C143.797 193.6 143.847 193.373 143.848 193.085H143.828C143.785 193.17 143.726 193.244 143.652 193.305C143.578 193.366 143.493 193.413 143.398 193.446C143.303 193.479 143.202 193.496 143.095 193.496C142.924 193.496 142.771 193.455 142.636 193.375C142.502 193.295 142.396 193.184 142.318 193.043C142.241 192.902 142.202 192.741 142.202 192.56C142.201 192.365 142.246 192.191 142.337 192.038C142.428 191.886 142.554 191.767 142.717 191.68C142.881 191.593 143.071 191.55 143.288 191.551ZM143.293 192.034C143.197 192.034 143.112 192.057 143.037 192.102C142.963 192.148 142.904 192.209 142.861 192.286C142.818 192.362 142.797 192.448 142.798 192.543C142.798 192.638 142.819 192.724 142.861 192.801C142.903 192.877 142.961 192.937 143.034 192.983C143.108 193.027 143.192 193.05 143.287 193.05C143.358 193.05 143.424 193.036 143.484 193.01C143.545 192.983 143.598 192.947 143.642 192.901C143.688 192.853 143.723 192.799 143.749 192.737C143.774 192.676 143.787 192.61 143.787 192.541C143.786 192.449 143.764 192.365 143.722 192.288C143.679 192.212 143.62 192.15 143.545 192.104C143.471 192.057 143.386 192.034 143.293 192.034ZM146.089 191.551C146.239 191.551 146.383 191.576 146.521 191.626C146.66 191.677 146.784 191.757 146.893 191.866C147.003 191.976 147.089 192.122 147.153 192.304C147.217 192.485 147.25 192.707 147.251 192.97C147.251 193.217 147.223 193.438 147.167 193.632C147.112 193.825 147.033 193.99 146.93 194.125C146.827 194.26 146.702 194.364 146.556 194.435C146.41 194.505 146.248 194.54 146.068 194.54C145.874 194.54 145.702 194.502 145.553 194.428C145.405 194.352 145.285 194.249 145.194 194.119C145.104 193.989 145.05 193.842 145.031 193.679H145.637C145.661 193.785 145.711 193.867 145.786 193.926C145.862 193.984 145.956 194.013 146.068 194.013C146.257 194.013 146.401 193.93 146.499 193.766C146.598 193.6 146.648 193.373 146.649 193.085H146.629C146.585 193.17 146.526 193.244 146.453 193.305C146.379 193.366 146.294 193.413 146.198 193.446C146.104 193.479 146.003 193.496 145.896 193.496C145.724 193.496 145.571 193.455 145.437 193.375C145.303 193.295 145.196 193.184 145.119 193.043C145.041 192.902 145.002 192.741 145.002 192.56C145.001 192.365 145.046 192.191 145.137 192.038C145.228 191.886 145.355 191.767 145.518 191.68C145.682 191.593 145.872 191.55 146.089 191.551ZM146.093 192.034C145.998 192.034 145.912 192.057 145.838 192.102C145.764 192.148 145.705 192.209 145.661 192.286C145.619 192.362 145.598 192.448 145.599 192.543C145.599 192.638 145.62 192.724 145.661 192.801C145.704 192.877 145.762 192.937 145.835 192.983C145.909 193.027 145.993 193.05 146.088 193.05C146.159 193.05 146.224 193.036 146.285 193.01C146.346 192.983 146.398 192.947 146.443 192.901C146.488 192.853 146.524 192.799 146.549 192.737C146.575 192.676 146.588 192.61 146.588 192.541C146.587 192.449 146.565 192.365 146.522 192.288C146.48 192.212 146.421 192.15 146.346 192.104C146.271 192.057 146.187 192.034 146.093 192.034ZM148.383 194.102L148.368 194.259C148.355 194.384 148.332 194.508 148.297 194.632C148.262 194.757 148.226 194.87 148.189 194.972C148.152 195.073 148.122 195.152 148.099 195.21H147.707C147.721 195.154 147.741 195.076 147.765 194.976C147.79 194.876 147.813 194.765 147.835 194.641C147.857 194.517 147.87 194.39 147.876 194.261L147.883 194.102H148.383ZM150.089 191.551C150.238 191.551 150.382 191.576 150.52 191.626C150.66 191.677 150.784 191.757 150.893 191.866C151.002 191.976 151.089 192.122 151.153 192.304C151.217 192.485 151.25 192.707 151.251 192.97C151.251 193.217 151.223 193.438 151.167 193.632C151.112 193.825 151.033 193.99 150.93 194.125C150.826 194.26 150.702 194.364 150.556 194.435C150.41 194.505 150.247 194.54 150.067 194.54C149.873 194.54 149.702 194.502 149.553 194.428C149.404 194.352 149.285 194.249 149.194 194.119C149.104 193.989 149.049 193.842 149.03 193.679H149.637C149.661 193.785 149.71 193.867 149.786 193.926C149.862 193.984 149.956 194.013 150.067 194.013C150.257 194.013 150.401 193.93 150.499 193.766C150.598 193.6 150.647 193.373 150.648 193.085H150.628C150.585 193.17 150.526 193.244 150.452 193.305C150.378 193.366 150.294 193.413 150.198 193.446C150.103 193.479 150.002 193.496 149.895 193.496C149.724 193.496 149.571 193.455 149.437 193.375C149.302 193.295 149.196 193.184 149.118 193.043C149.041 192.902 149.002 192.741 149.002 192.56C149.001 192.365 149.046 192.191 149.137 192.038C149.228 191.886 149.355 191.767 149.518 191.68C149.681 191.593 149.872 191.55 150.089 191.551ZM150.093 192.034C149.997 192.034 149.912 192.057 149.837 192.102C149.763 192.148 149.705 192.209 149.661 192.286C149.618 192.362 149.598 192.448 149.599 192.543C149.599 192.638 149.619 192.724 149.661 192.801C149.704 192.877 149.761 192.937 149.834 192.983C149.908 193.027 149.993 193.05 150.087 193.05C150.158 193.05 150.224 193.036 150.285 193.01C150.345 192.983 150.398 192.947 150.442 192.901C150.488 192.853 150.523 192.799 150.549 192.737C150.574 192.676 150.587 192.61 150.587 192.541C150.586 192.449 150.565 192.365 150.522 192.288C150.479 192.212 150.421 192.15 150.346 192.104C150.271 192.057 150.187 192.034 150.093 192.034ZM152.814 194.864V191.227H153.047V194.864H152.814ZM153.432 192.428C153.421 192.313 153.372 192.224 153.286 192.161C153.199 192.097 153.082 192.065 152.935 192.065C152.834 192.065 152.75 192.08 152.68 192.108C152.611 192.135 152.558 192.174 152.521 192.223C152.485 192.272 152.467 192.328 152.467 192.391C152.466 192.443 152.476 192.488 152.5 192.527C152.525 192.566 152.558 192.599 152.601 192.628C152.644 192.655 152.693 192.679 152.749 192.7C152.805 192.72 152.864 192.737 152.928 192.751L153.189 192.814C153.316 192.842 153.432 192.88 153.538 192.928C153.644 192.975 153.736 193.033 153.814 193.102C153.892 193.171 153.952 193.253 153.994 193.347C154.038 193.44 154.06 193.548 154.061 193.669C154.06 193.847 154.015 194.001 153.925 194.132C153.836 194.262 153.707 194.363 153.538 194.435C153.371 194.506 153.169 194.541 152.932 194.541C152.697 194.541 152.493 194.505 152.318 194.433C152.145 194.361 152.01 194.255 151.912 194.114C151.815 193.972 151.765 193.796 151.76 193.587H152.355C152.362 193.684 152.39 193.766 152.439 193.831C152.489 193.895 152.556 193.944 152.639 193.977C152.724 194.009 152.819 194.026 152.925 194.026C153.029 194.026 153.119 194.01 153.196 193.98C153.274 193.95 153.334 193.908 153.377 193.854C153.419 193.8 153.44 193.738 153.44 193.668C153.44 193.602 153.421 193.547 153.382 193.503C153.344 193.458 153.288 193.42 153.215 193.389C153.142 193.358 153.052 193.33 152.946 193.304L152.629 193.224C152.384 193.165 152.19 193.071 152.048 192.945C151.906 192.818 151.836 192.647 151.837 192.432C151.836 192.256 151.883 192.102 151.977 191.97C152.073 191.839 152.204 191.736 152.371 191.662C152.537 191.588 152.727 191.551 152.939 191.551C153.155 191.551 153.343 191.588 153.504 191.662C153.666 191.736 153.792 191.839 153.882 191.97C153.972 192.102 154.019 192.254 154.021 192.428H153.432Z" fill="#BBBAC3"/>
</g>
<rect x="36" y="60" width="36" height="4" rx="2" fill="#9A99A7"/>
<rect x="36" y="99" width="36" height="4" rx="2" fill="#9A99A7"/>
<rect x="36" y="138" width="36" height="4" rx="2" fill="#9A99A7"/>
<rect x="36" y="70" width="15" height="3" rx="1.5" fill="#9A99A7"/>
<rect x="36" y="109" width="15" height="3" rx="1.5" fill="#9A99A7"/>
<rect x="36" y="148" width="15" height="3" rx="1.5" fill="#9A99A7"/>
<rect x="69" y="70" width="3" height="3" rx="1.5" fill="#9A99A7"/>
<rect x="69" y="109" width="3" height="3" rx="1.5" fill="#9A99A7"/>
<rect x="69" y="148" width="3" height="3" rx="1.5" fill="#9A99A7"/>
<rect x="69" y="77" width="3" height="3" rx="1.5" fill="#9A99A7"/>
<rect x="69" y="116" width="3" height="3" rx="1.5" fill="#9A99A7"/>
<rect x="69" y="155" width="3" height="3" rx="1.5" fill="#9A99A7"/>
<rect x="69" y="84" width="3" height="3" rx="1.5" fill="#9A99A7"/>
<rect x="69" y="123" width="3" height="3" rx="1.5" fill="#9A99A7"/>
<rect x="69" y="162" width="3" height="3" rx="1.5" fill="#9A99A7"/>
<rect x="36" y="77" width="19" height="3" rx="1.5" fill="#9A99A7"/>
<rect x="36" y="116" width="19" height="3" rx="1.5" fill="#9A99A7"/>
<rect x="36" y="155" width="19" height="3" rx="1.5" fill="#9A99A7"/>
<rect x="36" y="84" width="25" height="3" rx="1.5" fill="#9A99A7"/>
<rect x="36" y="123" width="25" height="3" rx="1.5" fill="#9A99A7"/>
<rect x="36" y="162" width="25" height="3" rx="1.5" fill="#9A99A7"/>
<defs>
<clipPath id="clip0_1170_2570">
<rect x="85" y="54" width="50" height="42" rx="2" fill="white"/>
</clipPath>
<clipPath id="clip1_1170_2570">
<rect x="85" y="104" width="50" height="42" rx="2" fill="white"/>
</clipPath>
<clipPath id="clip2_1170_2570">
<rect x="85" y="154" width="50" height="42" rx="2" fill="white"/>
</clipPath>
<clipPath id="clip3_1170_2570">
<rect x="140" y="54" width="50" height="42" rx="2" fill="white"/>
</clipPath>
<clipPath id="clip4_1170_2570">
<rect x="140" y="104" width="50" height="42" rx="2" fill="white"/>
</clipPath>
<clipPath id="clip5_1170_2570">
<rect x="140" y="154" width="50" height="42" rx="2" fill="white"/>
</clipPath>
</defs>
</svg>
