<svg width="220" height="240" viewBox="0 0 220 240" fill="none" xmlns="http://www.w3.org/2000/svg">
<rect width="220" height="240" rx="6" fill="#24213F"/>
<rect x="30" y="181" width="8" height="8" rx="2" fill="#6C6A7E"/>
<rect x="30" y="223" width="8" height="8" rx="2" fill="#6C6A7E"/>
<rect x="118" y="181" width="8" height="8" rx="2" fill="#6C6A7E"/>
<rect x="118" y="223" width="8" height="8" rx="2" fill="#6C6A7E"/>
<rect x="75" y="148" width="69" height="6" rx="3" fill="#6C6A7E"/>
<rect x="75" y="38" width="69" height="6" rx="3" fill="#6C6A7E"/>
<rect x="30" y="193" width="40" height="4" rx="2" fill="#504D65"/>
<rect x="30" y="235" width="40" height="4" rx="2" fill="#504D65"/>
<rect x="118" y="193" width="40" height="4" rx="2" fill="#504D65"/>
<rect x="118" y="235" width="40" height="4" rx="2" fill="#504D65"/>
<rect x="30" y="201" width="71" height="4" rx="2" fill="#504D65"/>
<rect x="118" y="201" width="71" height="4" rx="2" fill="#504D65"/>
<rect x="30" y="209" width="63" height="4" rx="2" fill="#504D65"/>
<rect x="118" y="209" width="63" height="4" rx="2" fill="#504D65"/>
<rect x="66" y="49" width="88" height="4" rx="2" fill="#504D65"/>
<rect x="84" y="158" width="52" height="4" rx="2" fill="#504D65"/>
<rect x="84" y="58" width="52" height="4" rx="2" fill="#504D65"/>
<rect x="99" y="165" width="22" height="6" rx="2" fill="#9A99A7"/>
<path d="M80.6321 22V14.7273H82.1697V17.728H85.2912V14.7273H86.8253V22H85.2912V18.9957H82.1697V22H80.6321ZM90.9291 22.1065C90.3775 22.1065 89.9005 21.9893 89.498 21.755C89.0979 21.5182 88.789 21.1892 88.5712 20.7678C88.3534 20.344 88.2445 19.8527 88.2445 19.294C88.2445 18.7306 88.3534 18.2382 88.5712 17.8168C88.789 17.393 89.0979 17.0639 89.498 16.8295C89.9005 16.5928 90.3775 16.4744 90.9291 16.4744C91.4807 16.4744 91.9566 16.5928 92.3567 16.8295C92.7591 17.0639 93.0693 17.393 93.2871 17.8168C93.5049 18.2382 93.6138 18.7306 93.6138 19.294C93.6138 19.8527 93.5049 20.344 93.2871 20.7678C93.0693 21.1892 92.7591 21.5182 92.3567 21.755C91.9566 21.9893 91.4807 22.1065 90.9291 22.1065ZM90.9362 20.9347C91.1872 20.9347 91.3967 20.8636 91.5648 20.7216C91.7329 20.5772 91.8595 20.3807 91.9447 20.1321C92.0323 19.8835 92.0761 19.6006 92.0761 19.2834C92.0761 18.9661 92.0323 18.6832 91.9447 18.4347C91.8595 18.1861 91.7329 17.9896 91.5648 17.8452C91.3967 17.7008 91.1872 17.6286 90.9362 17.6286C90.6829 17.6286 90.4698 17.7008 90.297 17.8452C90.1266 17.9896 89.9975 18.1861 89.9099 18.4347C89.8247 18.6832 89.7821 18.9661 89.7821 19.2834C89.7821 19.6006 89.8247 19.8835 89.9099 20.1321C89.9975 20.3807 90.1266 20.5772 90.297 20.7216C90.4698 20.8636 90.6829 20.9347 90.9362 20.9347ZM94.9974 22V16.5455H96.4392V17.5078H96.5031C96.6168 17.1882 96.8062 16.9361 97.0713 16.7514C97.3365 16.5668 97.6537 16.4744 98.023 16.4744C98.3971 16.4744 98.7155 16.5679 98.9783 16.755C99.2411 16.9396 99.4162 17.1906 99.5038 17.5078H99.5607C99.6719 17.1953 99.8732 16.9455 100.164 16.7585C100.458 16.5691 100.805 16.4744 101.205 16.4744C101.714 16.4744 102.127 16.6366 102.444 16.9609C102.764 17.2829 102.924 17.7398 102.924 18.3317V22H101.414V18.63C101.414 18.3269 101.334 18.0997 101.173 17.9482C101.012 17.7966 100.811 17.7209 100.569 17.7209C100.295 17.7209 100.08 17.8085 99.9264 17.9837C99.7725 18.1565 99.6956 18.3849 99.6956 18.669V22H98.229V18.598C98.229 18.3305 98.152 18.1174 97.9982 17.9588C97.8466 17.8002 97.6466 17.7209 97.398 17.7209C97.2299 17.7209 97.0784 17.7635 96.9435 17.8487C96.8109 17.9316 96.7055 18.0488 96.6274 18.2003C96.5493 18.3494 96.5102 18.5246 96.5102 18.7259V22H94.9974ZM107.004 22.1065C106.443 22.1065 105.96 21.9929 105.555 21.7656C105.153 21.536 104.843 21.2116 104.625 20.7926C104.407 20.3712 104.298 19.8729 104.298 19.2976C104.298 18.7365 104.407 18.2441 104.625 17.8203C104.843 17.3965 105.149 17.0663 105.545 16.8295C105.943 16.5928 106.409 16.4744 106.944 16.4744C107.304 16.4744 107.639 16.5324 107.949 16.6484C108.261 16.7621 108.534 16.9337 108.766 17.1634C109 17.393 109.182 17.6818 109.313 18.0298C109.443 18.3755 109.508 18.7803 109.508 19.2443V19.6598H104.902V18.7223H108.084C108.084 18.5045 108.037 18.3116 107.942 18.1435C107.847 17.9754 107.716 17.844 107.548 17.7493C107.382 17.6522 107.189 17.6037 106.969 17.6037C106.739 17.6037 106.536 17.657 106.358 17.7635C106.183 17.8677 106.046 18.0085 105.946 18.1861C105.847 18.3613 105.796 18.5566 105.793 18.772V19.6634C105.793 19.9332 105.843 20.1664 105.943 20.3629C106.044 20.5594 106.188 20.7109 106.372 20.8175C106.557 20.924 106.776 20.9773 107.029 20.9773C107.197 20.9773 107.351 20.9536 107.491 20.9062C107.631 20.8589 107.75 20.7879 107.85 20.6932C107.949 20.5985 108.025 20.4825 108.077 20.3452L109.476 20.4375C109.405 20.7737 109.259 21.0672 109.039 21.3182C108.821 21.5668 108.54 21.7609 108.194 21.9006C107.851 22.0379 107.454 22.1065 107.004 22.1065ZM113.638 22V14.7273H116.507C117.059 14.7273 117.529 14.8326 117.917 15.0433C118.305 15.2517 118.601 15.5417 118.805 15.9134C119.011 16.2827 119.114 16.7088 119.114 17.1918C119.114 17.6747 119.01 18.1009 118.801 18.4702C118.593 18.8395 118.291 19.1271 117.896 19.3331C117.503 19.5391 117.027 19.642 116.468 19.642H114.639V18.4098H116.22C116.516 18.4098 116.759 18.3589 116.951 18.2571C117.145 18.1529 117.29 18.0097 117.384 17.8274C117.481 17.6428 117.53 17.4309 117.53 17.1918C117.53 16.9503 117.481 16.7396 117.384 16.5597C117.29 16.3774 117.145 16.2365 116.951 16.1371C116.757 16.0353 116.511 15.9844 116.213 15.9844H115.176V22H113.638ZM121.893 22.103C121.545 22.103 121.235 22.0426 120.963 21.9219C120.69 21.7988 120.475 21.6177 120.316 21.3786C120.16 21.1371 120.082 20.8364 120.082 20.4766C120.082 20.1735 120.138 19.919 120.249 19.7131C120.36 19.5071 120.512 19.3414 120.703 19.2159C120.895 19.0904 121.113 18.9957 121.357 18.9318C121.603 18.8679 121.861 18.8229 122.131 18.7969C122.448 18.7637 122.704 18.733 122.898 18.7045C123.092 18.6738 123.233 18.6288 123.321 18.5696C123.408 18.5104 123.452 18.4228 123.452 18.3068V18.2855C123.452 18.0606 123.381 17.8866 123.239 17.7635C123.099 17.6404 122.9 17.5788 122.642 17.5788C122.37 17.5788 122.153 17.6392 121.993 17.7599C121.832 17.8783 121.725 18.0275 121.673 18.2074L120.274 18.0938C120.345 17.7623 120.484 17.4759 120.693 17.2344C120.901 16.9905 121.17 16.8035 121.499 16.6733C121.83 16.5407 122.214 16.4744 122.649 16.4744C122.952 16.4744 123.243 16.5099 123.519 16.581C123.799 16.652 124.046 16.7621 124.262 16.9112C124.479 17.0604 124.651 17.2521 124.777 17.4865C124.902 17.7185 124.965 17.9967 124.965 18.321V22H123.53V21.2436H123.488C123.4 21.4141 123.283 21.5644 123.136 21.6946C122.989 21.8224 122.813 21.9231 122.607 21.9964C122.401 22.0675 122.163 22.103 121.893 22.103ZM122.326 21.0589C122.549 21.0589 122.745 21.0152 122.916 20.9276C123.086 20.8376 123.22 20.7169 123.317 20.5653C123.414 20.4138 123.463 20.2422 123.463 20.0504V19.4716C123.415 19.5024 123.35 19.5308 123.267 19.5568C123.187 19.5805 123.096 19.603 122.994 19.6243C122.892 19.6432 122.79 19.661 122.689 19.6776C122.587 19.6918 122.494 19.7048 122.412 19.7166C122.234 19.7427 122.079 19.7841 121.946 19.8409C121.814 19.8977 121.711 19.9747 121.637 20.0717C121.564 20.1664 121.527 20.2848 121.527 20.4268C121.527 20.6328 121.602 20.7902 121.751 20.8991C121.903 21.0057 122.094 21.0589 122.326 21.0589ZM128.996 24.1591C128.506 24.1591 128.086 24.0916 127.735 23.9567C127.387 23.8241 127.11 23.643 126.904 23.4134C126.698 23.1837 126.564 22.9257 126.503 22.6392L127.902 22.451C127.945 22.5599 128.012 22.6617 128.105 22.7564C128.197 22.8511 128.319 22.9268 128.47 22.9837C128.624 23.0429 128.811 23.0724 129.031 23.0724C129.36 23.0724 129.631 22.992 129.845 22.831C130.06 22.6723 130.168 22.406 130.168 22.032V21.0341H130.104C130.038 21.1856 129.938 21.3288 129.806 21.4638C129.673 21.5987 129.502 21.7088 129.294 21.794C129.086 21.8793 128.837 21.9219 128.548 21.9219C128.139 21.9219 127.766 21.8272 127.43 21.6378C127.096 21.446 126.83 21.1536 126.631 20.7607C126.434 20.3653 126.336 19.8658 126.336 19.2621C126.336 18.6442 126.437 18.1281 126.638 17.7138C126.839 17.2995 127.107 16.9893 127.44 16.7834C127.777 16.5774 128.145 16.4744 128.545 16.4744C128.85 16.4744 129.106 16.5265 129.312 16.6307C129.518 16.7325 129.684 16.8603 129.809 17.0142C129.937 17.1657 130.035 17.3149 130.104 17.4616H130.161V16.5455H131.663V22.0533C131.663 22.5173 131.549 22.9055 131.322 23.218C131.095 23.5305 130.78 23.7649 130.377 23.9212C129.977 24.0798 129.517 24.1591 128.996 24.1591ZM129.028 20.7855C129.272 20.7855 129.478 20.7251 129.646 20.6044C129.816 20.4813 129.946 20.3061 130.036 20.0788C130.129 19.8492 130.175 19.5746 130.175 19.255C130.175 18.9354 130.13 18.6584 130.04 18.424C129.95 18.1873 129.82 18.0038 129.649 17.8736C129.479 17.7434 129.272 17.6783 129.028 17.6783C128.779 17.6783 128.57 17.7457 128.399 17.8807C128.229 18.0133 128.1 18.1979 128.012 18.4347C127.925 18.6714 127.881 18.9448 127.881 19.255C127.881 19.5698 127.925 19.8421 128.012 20.0717C128.102 20.299 128.231 20.4754 128.399 20.6009C128.57 20.724 128.779 20.7855 129.028 20.7855ZM135.752 22.1065C135.191 22.1065 134.708 21.9929 134.304 21.7656C133.901 21.536 133.591 21.2116 133.373 20.7926C133.155 20.3712 133.046 19.8729 133.046 19.2976C133.046 18.7365 133.155 18.2441 133.373 17.8203C133.591 17.3965 133.898 17.0663 134.293 16.8295C134.691 16.5928 135.157 16.4744 135.692 16.4744C136.052 16.4744 136.387 16.5324 136.697 16.6484C137.009 16.7621 137.282 16.9337 137.514 17.1634C137.748 17.393 137.93 17.6818 138.061 18.0298C138.191 18.3755 138.256 18.7803 138.256 19.2443V19.6598H133.65V18.7223H136.832C136.832 18.5045 136.785 18.3116 136.69 18.1435C136.595 17.9754 136.464 17.844 136.296 17.7493C136.13 17.6522 135.937 17.6037 135.717 17.6037C135.487 17.6037 135.284 17.657 135.106 17.7635C134.931 17.8677 134.794 18.0085 134.694 18.1861C134.595 18.3613 134.544 18.5566 134.541 18.772V19.6634C134.541 19.9332 134.591 20.1664 134.691 20.3629C134.792 20.5594 134.936 20.7109 135.12 20.8175C135.305 20.924 135.524 20.9773 135.777 20.9773C135.945 20.9773 136.099 20.9536 136.239 20.9062C136.379 20.8589 136.498 20.7879 136.598 20.6932C136.697 20.5985 136.773 20.4825 136.825 20.3452L138.224 20.4375C138.153 20.7737 138.007 21.0672 137.787 21.3182C137.569 21.5668 137.288 21.7609 136.942 21.9006C136.599 22.0379 136.202 22.1065 135.752 22.1065Z" fill="#BBBAC3"/>
<rect x="30" y="76" width="160" height="57" rx="2" fill="#504D65"/>
<circle cx="55" cy="99" r="6" fill="#9A99A7"/>
<path d="M71.3967 103.795L32.1019 123.543C31.4264 123.882 31 124.574 31 125.33V130C31 131.105 31.8954 132 33 132H187C188.105 132 189 131.105 189 130V111.739C189 111.121 188.714 110.537 188.225 110.159L164.662 91.8881C163.978 91.3583 163.032 91.3276 162.316 91.8121L115.547 123.447C114.953 123.849 114.19 123.902 113.546 123.586L73.1754 103.787C72.6137 103.511 71.9556 103.514 71.3967 103.795Z" fill="#9A99A7"/>
</svg>
