<svg width="220" height="240" viewBox="0 0 220 240" fill="none" xmlns="http://www.w3.org/2000/svg">
<g clip-path="url(#clip0_1220_853)">
<rect width="220" height="240" rx="6" fill="#24213F"/>
<rect width="220" height="18" fill="#1A172D"/>
<path d="M14.3793 11V6.63636H15.3018V10.2393H17.1726V11H14.3793ZM19.4852 11.0639C19.1542 11.0639 18.868 10.9936 18.6265 10.853C18.3865 10.7109 18.2011 10.5135 18.0704 10.2607C17.9398 10.0064 17.8744 9.71165 17.8744 9.37642C17.8744 9.03835 17.9398 8.7429 18.0704 8.49006C18.2011 8.2358 18.3865 8.03835 18.6265 7.89773C18.868 7.75568 19.1542 7.68466 19.4852 7.68466C19.8162 7.68466 20.1017 7.75568 20.3417 7.89773C20.5832 8.03835 20.7693 8.2358 20.9 8.49006C21.0307 8.7429 21.096 9.03835 21.096 9.37642C21.096 9.71165 21.0307 10.0064 20.9 10.2607C20.7693 10.5135 20.5832 10.7109 20.3417 10.853C20.1017 10.9936 19.8162 11.0639 19.4852 11.0639ZM19.4895 10.3608C19.64 10.3608 19.7657 10.3182 19.8666 10.233C19.9675 10.1463 20.0434 10.0284 20.0946 9.87926C20.1471 9.73011 20.1734 9.56037 20.1734 9.37003C20.1734 9.17969 20.1471 9.00994 20.0946 8.8608C20.0434 8.71165 19.9675 8.59375 19.8666 8.5071C19.7657 8.42045 19.64 8.37713 19.4895 8.37713C19.3375 8.37713 19.2096 8.42045 19.1059 8.5071C19.0037 8.59375 18.9263 8.71165 18.8737 8.8608C18.8226 9.00994 18.797 9.17969 18.797 9.37003C18.797 9.56037 18.8226 9.73011 18.8737 9.87926C18.9263 10.0284 19.0037 10.1463 19.1059 10.233C19.2096 10.3182 19.3375 10.3608 19.4895 10.3608ZM23.4006 12.2955C23.1066 12.2955 22.8545 12.255 22.6442 12.174C22.4354 12.0945 22.2692 11.9858 22.1457 11.848C22.0221 11.7102 21.9418 11.5554 21.9049 11.3835L22.7444 11.2706C22.77 11.3359 22.8104 11.397 22.8658 11.4538C22.9212 11.5107 22.9944 11.5561 23.0853 11.5902C23.1776 11.6257 23.2898 11.6435 23.4219 11.6435C23.6194 11.6435 23.782 11.5952 23.9099 11.4986C24.0391 11.4034 24.1038 11.2436 24.1038 11.0192V10.4205H24.0654C24.0256 10.5114 23.966 10.5973 23.8864 10.6783C23.8069 10.7592 23.7046 10.8253 23.5796 10.8764C23.4546 10.9276 23.3055 10.9531 23.1322 10.9531C22.8864 10.9531 22.6627 10.8963 22.461 10.7827C22.2607 10.6676 22.1009 10.4922 21.9816 10.2564C21.8637 10.0192 21.8048 9.71946 21.8048 9.35724C21.8048 8.98651 21.8651 8.67685 21.9859 8.42827C22.1066 8.17969 22.2671 7.99361 22.4674 7.87003C22.6691 7.74645 22.89 7.68466 23.13 7.68466C23.3133 7.68466 23.4667 7.71591 23.5903 7.77841C23.7138 7.83949 23.8133 7.91619 23.8886 8.00852C23.9653 8.09943 24.0242 8.18892 24.0654 8.27699H24.0995V7.72727H25.0008V11.032C25.0008 11.3104 24.9326 11.5433 24.7962 11.7308C24.6599 11.9183 24.4709 12.0589 24.2295 12.1527C23.9894 12.2479 23.7131 12.2955 23.4006 12.2955ZM23.4198 10.2713C23.5661 10.2713 23.6897 10.2351 23.7905 10.1626C23.8928 10.0888 23.9709 9.98366 24.0249 9.8473C24.0803 9.70952 24.108 9.54474 24.108 9.35298C24.108 9.16122 24.081 8.99503 24.0271 8.8544C23.9731 8.71236 23.895 8.60227 23.7927 8.52415C23.6904 8.44602 23.5661 8.40696 23.4198 8.40696C23.2707 8.40696 23.145 8.44744 23.0427 8.52841C22.9404 8.60795 22.863 8.71875 22.8104 8.8608C22.7579 9.00284 22.7316 9.1669 22.7316 9.35298C22.7316 9.5419 22.7579 9.70526 22.8104 9.84304C22.8644 9.9794 22.9418 10.0852 23.0427 10.1605C23.145 10.2344 23.2707 10.2713 23.4198 10.2713ZM27.4418 11.0639C27.1108 11.0639 26.8246 10.9936 26.5831 10.853C26.343 10.7109 26.1577 10.5135 26.027 10.2607C25.8963 10.0064 25.831 9.71165 25.831 9.37642C25.831 9.03835 25.8963 8.7429 26.027 8.49006C26.1577 8.2358 26.343 8.03835 26.5831 7.89773C26.8246 7.75568 27.1108 7.68466 27.4418 7.68466C27.7727 7.68466 28.0582 7.75568 28.2983 7.89773C28.5398 8.03835 28.7259 8.2358 28.8565 8.49006C28.9872 8.7429 29.0526 9.03835 29.0526 9.37642C29.0526 9.71165 28.9872 10.0064 28.8565 10.2607C28.7259 10.5135 28.5398 10.7109 28.2983 10.853C28.0582 10.9936 27.7727 11.0639 27.4418 11.0639ZM27.446 10.3608C27.5966 10.3608 27.7223 10.3182 27.8232 10.233C27.924 10.1463 28 10.0284 28.0511 9.87926C28.1037 9.73011 28.13 9.56037 28.13 9.37003C28.13 9.17969 28.1037 9.00994 28.0511 8.8608C28 8.71165 27.924 8.59375 27.8232 8.5071C27.7223 8.42045 27.5966 8.37713 27.446 8.37713C27.294 8.37713 27.1662 8.42045 27.0625 8.5071C26.9602 8.59375 26.8828 8.71165 26.8303 8.8608C26.7791 9.00994 26.7536 9.17969 26.7536 9.37003C26.7536 9.56037 26.7791 9.73011 26.8303 9.87926C26.8828 10.0284 26.9602 10.1463 27.0625 10.233C27.1662 10.3182 27.294 10.3608 27.446 10.3608Z" fill="#BBBAC3"/>
<rect x="71" y="8" width="22" height="4" rx="2" fill="#504D65"/>
<rect x="99" y="8" width="22" height="4" rx="2" fill="#504D65"/>
<rect x="127" y="8" width="22" height="4" rx="2" fill="#504D65"/>
<rect x="184" y="8" width="22" height="4" rx="2" fill="#504D65"/>
<rect x="30" y="32" width="160" height="57" rx="2" fill="#504D65"/>
<circle cx="55" cy="55" r="6" fill="#9A99A7"/>
<path d="M71.3967 59.7953L32.1019 79.5426C31.4264 79.8821 31 80.5736 31 81.3296V86C31 87.1046 31.8954 88 33 88H187C188.105 88 189 87.1046 189 86V67.7391C189 67.1208 188.714 66.5373 188.225 66.1585L164.662 47.8881C163.978 47.3583 163.032 47.3276 162.316 47.8121L115.547 79.4468C114.953 79.8486 114.19 79.9016 113.546 79.5859L73.1754 59.7866C72.6137 59.5112 71.9556 59.5144 71.3967 59.7953Z" fill="#9A99A7"/>
<circle cx="30" cy="61" r="5" fill="#6C6A7E"/>
<circle cx="190" cy="61" r="5" fill="#6C6A7E"/>
<circle cx="105" cy="92" r="1" fill="#6C6A7E"/>
<circle cx="110" cy="92" r="1" fill="#6C6A7E"/>
<circle cx="115" cy="92" r="1" fill="#6C6A7E"/>
<g clip-path="url(#clip1_1220_853)">
<rect x="30" y="118" width="50" height="32" rx="2" fill="#504D65"/>
<circle cx="37.9375" cy="129.544" r="2" fill="#9A99A7"/>
<path d="M42.198 134.175L31.6396 143.973C31.2317 144.351 31 144.882 31 145.439V147C31 148.105 31.8954 149 33 149H77C78.1046 149 79 148.105 79 147V137.714C79 137.304 78.8742 136.904 78.6397 136.568L72.7885 128.191C72.024 127.097 70.4221 127.044 69.5876 128.086L57.7219 142.907C57.0017 143.807 55.6723 143.913 54.8181 143.14L44.9009 134.158C44.132 133.462 42.9584 133.469 42.198 134.175Z" fill="#9A99A7"/>
<rect x="56" y="154" width="24" height="6" rx="3" fill="#504D65"/>
<path d="M33.2884 155.551C33.438 155.551 33.5819 155.576 33.7202 155.626C33.8594 155.677 33.9834 155.757 34.0923 155.866C34.2022 155.976 34.2888 156.122 34.3523 156.304C34.4167 156.485 34.4493 156.707 34.4503 156.97C34.4503 157.217 34.4223 157.438 34.3665 157.632C34.3116 157.825 34.2325 157.99 34.1293 158.125C34.026 158.26 33.9015 158.364 33.7557 158.435C33.6098 158.505 33.447 158.54 33.267 158.54C33.0729 158.54 32.9015 158.502 32.7528 158.428C32.6042 158.352 32.4844 158.249 32.3935 158.119C32.3035 157.989 32.2491 157.842 32.2301 157.679H32.8366C32.8603 157.785 32.91 157.867 32.9858 157.926C33.0616 157.984 33.1553 158.013 33.267 158.013C33.4564 158.013 33.6004 157.93 33.6989 157.766C33.7973 157.6 33.8471 157.373 33.848 157.085H33.8281C33.7846 157.17 33.7259 157.244 33.652 157.305C33.5781 157.366 33.4934 157.413 33.3977 157.446C33.303 157.479 33.2022 157.496 33.0952 157.496C32.9238 157.496 32.7708 157.455 32.6364 157.375C32.5019 157.295 32.3958 157.184 32.3182 157.043C32.2405 156.902 32.2017 156.741 32.2017 156.56C32.2008 156.365 32.2457 156.191 32.3366 156.038C32.4276 155.886 32.5545 155.767 32.7173 155.68C32.8812 155.593 33.0715 155.55 33.2884 155.551ZM33.2926 156.034C33.197 156.034 33.1117 156.057 33.0369 156.102C32.9631 156.148 32.9044 156.209 32.8608 156.286C32.8182 156.362 32.7973 156.448 32.7983 156.543C32.7983 156.638 32.8191 156.724 32.8608 156.801C32.9034 156.877 32.9612 156.937 33.0341 156.983C33.108 157.027 33.1922 157.05 33.2869 157.05C33.358 157.05 33.4238 157.036 33.4844 157.01C33.545 156.983 33.5975 156.947 33.642 156.901C33.6875 156.853 33.723 156.799 33.7486 156.737C33.7741 156.676 33.7869 156.61 33.7869 156.541C33.786 156.449 33.7642 156.365 33.7216 156.288C33.679 156.212 33.6203 156.15 33.5455 156.104C33.4706 156.057 33.3864 156.034 33.2926 156.034ZM36.089 155.551C36.2386 155.551 36.3825 155.576 36.5208 155.626C36.66 155.677 36.7841 155.757 36.893 155.866C37.0028 155.976 37.0895 156.122 37.1529 156.304C37.2173 156.485 37.25 156.707 37.2509 156.97C37.2509 157.217 37.223 157.438 37.1671 157.632C37.1122 157.825 37.0331 157.99 36.9299 158.125C36.8267 158.26 36.7021 158.364 36.5563 158.435C36.4105 158.505 36.2476 158.54 36.0677 158.54C35.8735 158.54 35.7021 158.502 35.5535 158.428C35.4048 158.352 35.285 158.249 35.1941 158.119C35.1041 157.989 35.0497 157.842 35.0307 157.679H35.6373C35.6609 157.785 35.7107 157.867 35.7864 157.926C35.8622 157.984 35.9559 158.013 36.0677 158.013C36.2571 158.013 36.401 157.93 36.4995 157.766C36.598 157.6 36.6477 157.373 36.6486 157.085H36.6288C36.5852 157.17 36.5265 157.244 36.4526 157.305C36.3788 157.366 36.294 157.413 36.1984 157.446C36.1037 157.479 36.0028 157.496 35.8958 157.496C35.7244 157.496 35.5715 157.455 35.437 157.375C35.3025 157.295 35.1965 157.184 35.1188 157.043C35.0412 156.902 35.0023 156.741 35.0023 156.56C35.0014 156.365 35.0464 156.191 35.1373 156.038C35.2282 155.886 35.3551 155.767 35.518 155.68C35.6818 155.593 35.8721 155.55 36.089 155.551ZM36.0932 156.034C35.9976 156.034 35.9124 156.057 35.8376 156.102C35.7637 156.148 35.705 156.209 35.6614 156.286C35.6188 156.362 35.598 156.448 35.5989 156.543C35.5989 156.638 35.6198 156.724 35.6614 156.801C35.704 156.877 35.7618 156.937 35.8347 156.983C35.9086 157.027 35.9929 157.05 36.0876 157.05C36.1586 157.05 36.2244 157.036 36.285 157.01C36.3456 156.983 36.3982 156.947 36.4427 156.901C36.4881 156.853 36.5236 156.799 36.5492 156.737C36.5748 156.676 36.5876 156.61 36.5876 156.541C36.5866 156.449 36.5648 156.365 36.5222 156.288C36.4796 156.212 36.4209 156.15 36.3461 156.104C36.2713 156.057 36.187 156.034 36.0932 156.034ZM38.3832 158.102L38.3676 158.259C38.3553 158.384 38.3316 158.508 38.2966 158.632C38.2625 158.757 38.2265 158.87 38.1886 158.972C38.1517 159.073 38.1218 159.152 38.0991 159.21H37.7071C37.7213 159.154 37.7407 159.076 37.7653 158.976C37.7899 158.876 37.8131 158.765 37.8349 158.641C37.8567 158.517 37.8704 158.39 37.8761 158.261L37.8832 158.102H38.3832ZM40.0887 155.551C40.2383 155.551 40.3822 155.576 40.5205 155.626C40.6597 155.677 40.7837 155.757 40.8926 155.866C41.0025 155.976 41.0891 156.122 41.1526 156.304C41.217 156.485 41.2496 156.707 41.2506 156.97C41.2506 157.217 41.2227 157.438 41.1668 157.632C41.1119 157.825 41.0328 157.99 40.9296 158.125C40.8264 158.26 40.7018 158.364 40.556 158.435C40.4102 158.505 40.2473 158.54 40.0674 158.54C39.8732 158.54 39.7018 158.502 39.5532 158.428C39.4045 158.352 39.2847 158.249 39.1938 158.119C39.1038 157.989 39.0494 157.842 39.0304 157.679H39.637C39.6606 157.785 39.7104 157.867 39.7861 157.926C39.8619 157.984 39.9556 158.013 40.0674 158.013C40.2568 158.013 40.4007 157.93 40.4992 157.766C40.5977 157.6 40.6474 157.373 40.6483 157.085H40.6284C40.5849 157.17 40.5262 157.244 40.4523 157.305C40.3784 157.366 40.2937 157.413 40.198 157.446C40.1033 157.479 40.0025 157.496 39.8955 157.496C39.7241 157.496 39.5711 157.455 39.4367 157.375C39.3022 157.295 39.1961 157.184 39.1185 157.043C39.0408 156.902 39.002 156.741 39.002 156.56C39.0011 156.365 39.0461 156.191 39.137 156.038C39.2279 155.886 39.3548 155.767 39.5176 155.68C39.6815 155.593 39.8718 155.55 40.0887 155.551ZM40.0929 156.034C39.9973 156.034 39.9121 156.057 39.8372 156.102C39.7634 156.148 39.7047 156.209 39.6611 156.286C39.6185 156.362 39.5977 156.448 39.5986 156.543C39.5986 156.638 39.6194 156.724 39.6611 156.801C39.7037 156.877 39.7615 156.937 39.8344 156.983C39.9083 157.027 39.9925 157.05 40.0872 157.05C40.1583 157.05 40.2241 157.036 40.2847 157.01C40.3453 156.983 40.3979 156.947 40.4424 156.901C40.4878 156.853 40.5233 156.799 40.5489 156.737C40.5745 156.676 40.5872 156.61 40.5872 156.541C40.5863 156.449 40.5645 156.365 40.5219 156.288C40.4793 156.212 40.4206 156.15 40.3458 156.104C40.271 156.057 40.1867 156.034 40.0929 156.034ZM42.814 158.864V155.227H43.047V158.864H42.814ZM43.4319 156.428C43.4205 156.313 43.3718 156.224 43.2856 156.161C43.1994 156.097 43.0825 156.065 42.9347 156.065C42.8344 156.065 42.7496 156.08 42.6805 156.108C42.6114 156.135 42.5583 156.174 42.5214 156.223C42.4854 156.272 42.4674 156.328 42.4674 156.391C42.4655 156.443 42.4764 156.488 42.5001 156.527C42.5247 156.566 42.5583 156.599 42.6009 156.628C42.6436 156.655 42.6928 156.679 42.7487 156.7C42.8045 156.72 42.8642 156.737 42.9276 156.751L43.189 156.814C43.3159 156.842 43.4324 156.88 43.5384 156.928C43.6445 156.975 43.7364 157.033 43.814 157.102C43.8917 157.171 43.9518 157.253 43.9944 157.347C44.038 157.44 44.0602 157.548 44.0612 157.669C44.0602 157.847 44.0148 158.001 43.9248 158.132C43.8358 158.262 43.707 158.363 43.5384 158.435C43.3708 158.506 43.1686 158.541 42.9319 158.541C42.6971 158.541 42.4925 158.505 42.3183 158.433C42.145 158.361 42.0096 158.255 41.912 158.114C41.8154 157.972 41.7648 157.796 41.76 157.587H42.3552C42.3618 157.684 42.3898 157.766 42.439 157.831C42.4892 157.895 42.556 157.944 42.6393 157.977C42.7236 158.009 42.8187 158.026 42.9248 158.026C43.029 158.026 43.1194 158.01 43.1961 157.98C43.2738 157.95 43.3339 157.908 43.3765 157.854C43.4191 157.8 43.4404 157.738 43.4404 157.668C43.4404 157.602 43.421 157.547 43.3822 157.503C43.3443 157.458 43.2884 157.42 43.2146 157.389C43.1417 157.358 43.0522 157.33 42.9461 157.304L42.6293 157.224C42.3841 157.165 42.1904 157.071 42.0484 156.945C41.9063 156.818 41.8358 156.647 41.8367 156.432C41.8358 156.256 41.8827 156.102 41.9774 155.97C42.073 155.839 42.2042 155.736 42.3708 155.662C42.5375 155.588 42.7269 155.551 42.939 155.551C43.1549 155.551 43.3434 155.588 43.5043 155.662C43.6663 155.736 43.7922 155.839 43.8822 155.97C43.9722 156.102 44.0186 156.254 44.0214 156.428H43.4319Z" fill="#BBBAC3"/>
</g>
<g clip-path="url(#clip2_1220_853)">
<rect x="140" y="118" width="50" height="32" rx="2" fill="#504D65"/>
<circle cx="147.938" cy="129.544" r="2" fill="#9A99A7"/>
<path d="M152.198 134.175L141.64 143.973C141.232 144.351 141 144.882 141 145.439V147C141 148.105 141.895 149 143 149H187C188.105 149 189 148.105 189 147V137.714C189 137.304 188.874 136.904 188.64 136.568L182.789 128.191C182.024 127.097 180.422 127.044 179.588 128.086L167.722 142.907C167.002 143.807 165.672 143.913 164.818 143.14L154.901 134.158C154.132 133.462 152.958 133.469 152.198 134.175Z" fill="#9A99A7"/>
<rect x="166" y="154" width="24" height="6" rx="3" fill="#504D65"/>
<path d="M143.288 155.551C143.438 155.551 143.582 155.576 143.72 155.626C143.859 155.677 143.983 155.757 144.092 155.866C144.202 155.976 144.289 156.122 144.352 156.304C144.417 156.485 144.449 156.707 144.45 156.97C144.45 157.217 144.422 157.438 144.366 157.632C144.312 157.825 144.232 157.99 144.129 158.125C144.026 158.26 143.902 158.364 143.756 158.435C143.61 158.505 143.447 158.54 143.267 158.54C143.073 158.54 142.902 158.502 142.753 158.428C142.604 158.352 142.484 158.249 142.393 158.119C142.304 157.989 142.249 157.842 142.23 157.679H142.837C142.86 157.785 142.91 157.867 142.986 157.926C143.062 157.984 143.155 158.013 143.267 158.013C143.456 158.013 143.6 157.93 143.699 157.766C143.797 157.6 143.847 157.373 143.848 157.085H143.828C143.785 157.17 143.726 157.244 143.652 157.305C143.578 157.366 143.493 157.413 143.398 157.446C143.303 157.479 143.202 157.496 143.095 157.496C142.924 157.496 142.771 157.455 142.636 157.375C142.502 157.295 142.396 157.184 142.318 157.043C142.241 156.902 142.202 156.741 142.202 156.56C142.201 156.365 142.246 156.191 142.337 156.038C142.428 155.886 142.554 155.767 142.717 155.68C142.881 155.593 143.071 155.55 143.288 155.551ZM143.293 156.034C143.197 156.034 143.112 156.057 143.037 156.102C142.963 156.148 142.904 156.209 142.861 156.286C142.818 156.362 142.797 156.448 142.798 156.543C142.798 156.638 142.819 156.724 142.861 156.801C142.903 156.877 142.961 156.937 143.034 156.983C143.108 157.027 143.192 157.05 143.287 157.05C143.358 157.05 143.424 157.036 143.484 157.01C143.545 156.983 143.598 156.947 143.642 156.901C143.688 156.853 143.723 156.799 143.749 156.737C143.774 156.676 143.787 156.61 143.787 156.541C143.786 156.449 143.764 156.365 143.722 156.288C143.679 156.212 143.62 156.15 143.545 156.104C143.471 156.057 143.386 156.034 143.293 156.034ZM146.089 155.551C146.239 155.551 146.383 155.576 146.521 155.626C146.66 155.677 146.784 155.757 146.893 155.866C147.003 155.976 147.089 156.122 147.153 156.304C147.217 156.485 147.25 156.707 147.251 156.97C147.251 157.217 147.223 157.438 147.167 157.632C147.112 157.825 147.033 157.99 146.93 158.125C146.827 158.26 146.702 158.364 146.556 158.435C146.41 158.505 146.248 158.54 146.068 158.54C145.874 158.54 145.702 158.502 145.553 158.428C145.405 158.352 145.285 158.249 145.194 158.119C145.104 157.989 145.05 157.842 145.031 157.679H145.637C145.661 157.785 145.711 157.867 145.786 157.926C145.862 157.984 145.956 158.013 146.068 158.013C146.257 158.013 146.401 157.93 146.499 157.766C146.598 157.6 146.648 157.373 146.649 157.085H146.629C146.585 157.17 146.526 157.244 146.453 157.305C146.379 157.366 146.294 157.413 146.198 157.446C146.104 157.479 146.003 157.496 145.896 157.496C145.724 157.496 145.571 157.455 145.437 157.375C145.303 157.295 145.196 157.184 145.119 157.043C145.041 156.902 145.002 156.741 145.002 156.56C145.001 156.365 145.046 156.191 145.137 156.038C145.228 155.886 145.355 155.767 145.518 155.68C145.682 155.593 145.872 155.55 146.089 155.551ZM146.093 156.034C145.998 156.034 145.912 156.057 145.838 156.102C145.764 156.148 145.705 156.209 145.661 156.286C145.619 156.362 145.598 156.448 145.599 156.543C145.599 156.638 145.62 156.724 145.661 156.801C145.704 156.877 145.762 156.937 145.835 156.983C145.909 157.027 145.993 157.05 146.088 157.05C146.159 157.05 146.224 157.036 146.285 157.01C146.346 156.983 146.398 156.947 146.443 156.901C146.488 156.853 146.524 156.799 146.549 156.737C146.575 156.676 146.588 156.61 146.588 156.541C146.587 156.449 146.565 156.365 146.522 156.288C146.48 156.212 146.421 156.15 146.346 156.104C146.271 156.057 146.187 156.034 146.093 156.034ZM148.383 158.102L148.368 158.259C148.355 158.384 148.332 158.508 148.297 158.632C148.262 158.757 148.226 158.87 148.189 158.972C148.152 159.073 148.122 159.152 148.099 159.21H147.707C147.721 159.154 147.741 159.076 147.765 158.976C147.79 158.876 147.813 158.765 147.835 158.641C147.857 158.517 147.87 158.39 147.876 158.261L147.883 158.102H148.383ZM150.089 155.551C150.238 155.551 150.382 155.576 150.52 155.626C150.66 155.677 150.784 155.757 150.893 155.866C151.002 155.976 151.089 156.122 151.153 156.304C151.217 156.485 151.25 156.707 151.251 156.97C151.251 157.217 151.223 157.438 151.167 157.632C151.112 157.825 151.033 157.99 150.93 158.125C150.826 158.26 150.702 158.364 150.556 158.435C150.41 158.505 150.247 158.54 150.067 158.54C149.873 158.54 149.702 158.502 149.553 158.428C149.404 158.352 149.285 158.249 149.194 158.119C149.104 157.989 149.049 157.842 149.03 157.679H149.637C149.661 157.785 149.71 157.867 149.786 157.926C149.862 157.984 149.956 158.013 150.067 158.013C150.257 158.013 150.401 157.93 150.499 157.766C150.598 157.6 150.647 157.373 150.648 157.085H150.628C150.585 157.17 150.526 157.244 150.452 157.305C150.378 157.366 150.294 157.413 150.198 157.446C150.103 157.479 150.002 157.496 149.895 157.496C149.724 157.496 149.571 157.455 149.437 157.375C149.302 157.295 149.196 157.184 149.118 157.043C149.041 156.902 149.002 156.741 149.002 156.56C149.001 156.365 149.046 156.191 149.137 156.038C149.228 155.886 149.355 155.767 149.518 155.68C149.681 155.593 149.872 155.55 150.089 155.551ZM150.093 156.034C149.997 156.034 149.912 156.057 149.837 156.102C149.763 156.148 149.705 156.209 149.661 156.286C149.618 156.362 149.598 156.448 149.599 156.543C149.599 156.638 149.619 156.724 149.661 156.801C149.704 156.877 149.761 156.937 149.834 156.983C149.908 157.027 149.993 157.05 150.087 157.05C150.158 157.05 150.224 157.036 150.285 157.01C150.345 156.983 150.398 156.947 150.442 156.901C150.488 156.853 150.523 156.799 150.549 156.737C150.574 156.676 150.587 156.61 150.587 156.541C150.586 156.449 150.565 156.365 150.522 156.288C150.479 156.212 150.421 156.15 150.346 156.104C150.271 156.057 150.187 156.034 150.093 156.034ZM152.814 158.864V155.227H153.047V158.864H152.814ZM153.432 156.428C153.421 156.313 153.372 156.224 153.286 156.161C153.199 156.097 153.082 156.065 152.935 156.065C152.834 156.065 152.75 156.08 152.68 156.108C152.611 156.135 152.558 156.174 152.521 156.223C152.485 156.272 152.467 156.328 152.467 156.391C152.466 156.443 152.476 156.488 152.5 156.527C152.525 156.566 152.558 156.599 152.601 156.628C152.644 156.655 152.693 156.679 152.749 156.7C152.805 156.72 152.864 156.737 152.928 156.751L153.189 156.814C153.316 156.842 153.432 156.88 153.538 156.928C153.644 156.975 153.736 157.033 153.814 157.102C153.892 157.171 153.952 157.253 153.994 157.347C154.038 157.44 154.06 157.548 154.061 157.669C154.06 157.847 154.015 158.001 153.925 158.132C153.836 158.262 153.707 158.363 153.538 158.435C153.371 158.506 153.169 158.541 152.932 158.541C152.697 158.541 152.493 158.505 152.318 158.433C152.145 158.361 152.01 158.255 151.912 158.114C151.815 157.972 151.765 157.796 151.76 157.587H152.355C152.362 157.684 152.39 157.766 152.439 157.831C152.489 157.895 152.556 157.944 152.639 157.977C152.724 158.009 152.819 158.026 152.925 158.026C153.029 158.026 153.119 158.01 153.196 157.98C153.274 157.95 153.334 157.908 153.377 157.854C153.419 157.8 153.44 157.738 153.44 157.668C153.44 157.602 153.421 157.547 153.382 157.503C153.344 157.458 153.288 157.42 153.215 157.389C153.142 157.358 153.052 157.33 152.946 157.304L152.629 157.224C152.384 157.165 152.19 157.071 152.048 156.945C151.906 156.818 151.836 156.647 151.837 156.432C151.836 156.256 151.883 156.102 151.977 155.97C152.073 155.839 152.204 155.736 152.371 155.662C152.537 155.588 152.727 155.551 152.939 155.551C153.155 155.551 153.343 155.588 153.504 155.662C153.666 155.736 153.792 155.839 153.882 155.97C153.972 156.102 154.019 156.254 154.021 156.428H153.432Z" fill="#BBBAC3"/>
</g>
<g clip-path="url(#clip3_1220_853)">
<rect x="85" y="118" width="50" height="32" rx="2" fill="#504D65"/>
<circle cx="92.9375" cy="129.544" r="2" fill="#9A99A7"/>
<path d="M97.198 134.175L86.6396 143.973C86.2317 144.351 86 144.882 86 145.439V147C86 148.105 86.8954 149 88 149H132C133.105 149 134 148.105 134 147V137.714C134 137.304 133.874 136.904 133.64 136.568L127.789 128.191C127.024 127.097 125.422 127.044 124.588 128.086L112.722 142.907C112.002 143.807 110.672 143.913 109.818 143.14L99.9009 134.158C99.132 133.462 97.9584 133.469 97.198 134.175Z" fill="#9A99A7"/>
<rect x="111" y="154" width="24" height="6" rx="3" fill="#504D65"/>
<path d="M88.2884 155.551C88.438 155.551 88.5819 155.576 88.7202 155.626C88.8594 155.677 88.9834 155.757 89.0923 155.866C89.2022 155.976 89.2888 156.122 89.3523 156.304C89.4167 156.485 89.4493 156.707 89.4503 156.97C89.4503 157.217 89.4223 157.438 89.3665 157.632C89.3116 157.825 89.2325 157.99 89.1293 158.125C89.026 158.26 88.9015 158.364 88.7557 158.435C88.6098 158.505 88.447 158.54 88.267 158.54C88.0729 158.54 87.9015 158.502 87.7528 158.428C87.6042 158.352 87.4844 158.249 87.3935 158.119C87.3035 157.989 87.2491 157.842 87.2301 157.679H87.8366C87.8603 157.785 87.91 157.867 87.9858 157.926C88.0616 157.984 88.1553 158.013 88.267 158.013C88.4564 158.013 88.6004 157.93 88.6989 157.766C88.7973 157.6 88.8471 157.373 88.848 157.085H88.8281C88.7846 157.17 88.7259 157.244 88.652 157.305C88.5781 157.366 88.4934 157.413 88.3977 157.446C88.303 157.479 88.2022 157.496 88.0952 157.496C87.9238 157.496 87.7708 157.455 87.6364 157.375C87.5019 157.295 87.3958 157.184 87.3182 157.043C87.2405 156.902 87.2017 156.741 87.2017 156.56C87.2008 156.365 87.2457 156.191 87.3366 156.038C87.4276 155.886 87.5545 155.767 87.7173 155.68C87.8812 155.593 88.0715 155.55 88.2884 155.551ZM88.2926 156.034C88.197 156.034 88.1117 156.057 88.0369 156.102C87.9631 156.148 87.9044 156.209 87.8608 156.286C87.8182 156.362 87.7973 156.448 87.7983 156.543C87.7983 156.638 87.8191 156.724 87.8608 156.801C87.9034 156.877 87.9612 156.937 88.0341 156.983C88.108 157.027 88.1922 157.05 88.2869 157.05C88.358 157.05 88.4238 157.036 88.4844 157.01C88.545 156.983 88.5975 156.947 88.642 156.901C88.6875 156.853 88.723 156.799 88.7486 156.737C88.7741 156.676 88.7869 156.61 88.7869 156.541C88.786 156.449 88.7642 156.365 88.7216 156.288C88.679 156.212 88.6203 156.15 88.5455 156.104C88.4706 156.057 88.3864 156.034 88.2926 156.034ZM91.089 155.551C91.2386 155.551 91.3825 155.576 91.5208 155.626C91.66 155.677 91.7841 155.757 91.893 155.866C92.0028 155.976 92.0895 156.122 92.1529 156.304C92.2173 156.485 92.25 156.707 92.2509 156.97C92.2509 157.217 92.223 157.438 92.1671 157.632C92.1122 157.825 92.0331 157.99 91.9299 158.125C91.8267 158.26 91.7021 158.364 91.5563 158.435C91.4105 158.505 91.2476 158.54 91.0677 158.54C90.8735 158.54 90.7021 158.502 90.5535 158.428C90.4048 158.352 90.285 158.249 90.1941 158.119C90.1041 157.989 90.0497 157.842 90.0307 157.679H90.6373C90.6609 157.785 90.7107 157.867 90.7864 157.926C90.8622 157.984 90.9559 158.013 91.0677 158.013C91.2571 158.013 91.401 157.93 91.4995 157.766C91.598 157.6 91.6477 157.373 91.6486 157.085H91.6288C91.5852 157.17 91.5265 157.244 91.4526 157.305C91.3788 157.366 91.294 157.413 91.1984 157.446C91.1037 157.479 91.0028 157.496 90.8958 157.496C90.7244 157.496 90.5715 157.455 90.437 157.375C90.3025 157.295 90.1965 157.184 90.1188 157.043C90.0412 156.902 90.0023 156.741 90.0023 156.56C90.0014 156.365 90.0464 156.191 90.1373 156.038C90.2282 155.886 90.3551 155.767 90.518 155.68C90.6818 155.593 90.8721 155.55 91.089 155.551ZM91.0932 156.034C90.9976 156.034 90.9124 156.057 90.8376 156.102C90.7637 156.148 90.705 156.209 90.6614 156.286C90.6188 156.362 90.598 156.448 90.5989 156.543C90.5989 156.638 90.6198 156.724 90.6614 156.801C90.704 156.877 90.7618 156.937 90.8347 156.983C90.9086 157.027 90.9929 157.05 91.0876 157.05C91.1586 157.05 91.2244 157.036 91.285 157.01C91.3456 156.983 91.3982 156.947 91.4427 156.901C91.4881 156.853 91.5236 156.799 91.5492 156.737C91.5748 156.676 91.5876 156.61 91.5876 156.541C91.5866 156.449 91.5648 156.365 91.5222 156.288C91.4796 156.212 91.4209 156.15 91.3461 156.104C91.2713 156.057 91.187 156.034 91.0932 156.034ZM93.3832 158.102L93.3676 158.259C93.3553 158.384 93.3316 158.508 93.2966 158.632C93.2625 158.757 93.2265 158.87 93.1886 158.972C93.1517 159.073 93.1218 159.152 93.0991 159.21H92.7071C92.7213 159.154 92.7407 159.076 92.7653 158.976C92.7899 158.876 92.8131 158.765 92.8349 158.641C92.8567 158.517 92.8704 158.39 92.8761 158.261L92.8832 158.102H93.3832ZM95.0887 155.551C95.2383 155.551 95.3822 155.576 95.5205 155.626C95.6597 155.677 95.7837 155.757 95.8926 155.866C96.0025 155.976 96.0891 156.122 96.1526 156.304C96.217 156.485 96.2496 156.707 96.2506 156.97C96.2506 157.217 96.2227 157.438 96.1668 157.632C96.1119 157.825 96.0328 157.99 95.9296 158.125C95.8264 158.26 95.7018 158.364 95.556 158.435C95.4102 158.505 95.2473 158.54 95.0674 158.54C94.8732 158.54 94.7018 158.502 94.5532 158.428C94.4045 158.352 94.2847 158.249 94.1938 158.119C94.1038 157.989 94.0494 157.842 94.0304 157.679H94.637C94.6606 157.785 94.7104 157.867 94.7861 157.926C94.8619 157.984 94.9556 158.013 95.0674 158.013C95.2568 158.013 95.4007 157.93 95.4992 157.766C95.5977 157.6 95.6474 157.373 95.6483 157.085H95.6284C95.5849 157.17 95.5262 157.244 95.4523 157.305C95.3784 157.366 95.2937 157.413 95.198 157.446C95.1033 157.479 95.0025 157.496 94.8955 157.496C94.7241 157.496 94.5711 157.455 94.4367 157.375C94.3022 157.295 94.1961 157.184 94.1185 157.043C94.0408 156.902 94.002 156.741 94.002 156.56C94.0011 156.365 94.0461 156.191 94.137 156.038C94.2279 155.886 94.3548 155.767 94.5176 155.68C94.6815 155.593 94.8718 155.55 95.0887 155.551ZM95.0929 156.034C94.9973 156.034 94.9121 156.057 94.8372 156.102C94.7634 156.148 94.7047 156.209 94.6611 156.286C94.6185 156.362 94.5977 156.448 94.5986 156.543C94.5986 156.638 94.6194 156.724 94.6611 156.801C94.7037 156.877 94.7615 156.937 94.8344 156.983C94.9083 157.027 94.9925 157.05 95.0872 157.05C95.1583 157.05 95.2241 157.036 95.2847 157.01C95.3453 156.983 95.3979 156.947 95.4424 156.901C95.4878 156.853 95.5233 156.799 95.5489 156.737C95.5745 156.676 95.5872 156.61 95.5872 156.541C95.5863 156.449 95.5645 156.365 95.5219 156.288C95.4793 156.212 95.4206 156.15 95.3458 156.104C95.271 156.057 95.1867 156.034 95.0929 156.034ZM97.814 158.864V155.227H98.047V158.864H97.814ZM98.4319 156.428C98.4205 156.313 98.3718 156.224 98.2856 156.161C98.1994 156.097 98.0825 156.065 97.9347 156.065C97.8344 156.065 97.7496 156.08 97.6805 156.108C97.6114 156.135 97.5583 156.174 97.5214 156.223C97.4854 156.272 97.4674 156.328 97.4674 156.391C97.4655 156.443 97.4764 156.488 97.5001 156.527C97.5247 156.566 97.5583 156.599 97.6009 156.628C97.6436 156.655 97.6928 156.679 97.7487 156.7C97.8045 156.72 97.8642 156.737 97.9276 156.751L98.189 156.814C98.3159 156.842 98.4324 156.88 98.5384 156.928C98.6445 156.975 98.7364 157.033 98.814 157.102C98.8917 157.171 98.9518 157.253 98.9944 157.347C99.038 157.44 99.0602 157.548 99.0612 157.669C99.0602 157.847 99.0148 158.001 98.9248 158.132C98.8358 158.262 98.707 158.363 98.5384 158.435C98.3708 158.506 98.1686 158.541 97.9319 158.541C97.6971 158.541 97.4925 158.505 97.3183 158.433C97.145 158.361 97.0096 158.255 96.912 158.114C96.8154 157.972 96.7648 157.796 96.76 157.587H97.3552C97.3618 157.684 97.3898 157.766 97.439 157.831C97.4892 157.895 97.556 157.944 97.6393 157.977C97.7236 158.009 97.8187 158.026 97.9248 158.026C98.029 158.026 98.1194 158.01 98.1961 157.98C98.2738 157.95 98.3339 157.908 98.3765 157.854C98.4191 157.8 98.4404 157.738 98.4404 157.668C98.4404 157.602 98.421 157.547 98.3822 157.503C98.3443 157.458 98.2884 157.42 98.2146 157.389C98.1417 157.358 98.0522 157.33 97.9461 157.304L97.6293 157.224C97.3841 157.165 97.1904 157.071 97.0484 156.945C96.9063 156.818 96.8358 156.647 96.8367 156.432C96.8358 156.256 96.8827 156.102 96.9774 155.97C97.073 155.839 97.2042 155.736 97.3708 155.662C97.5375 155.588 97.7269 155.551 97.939 155.551C98.1549 155.551 98.3434 155.588 98.5043 155.662C98.6663 155.736 98.7922 155.839 98.8822 155.97C98.9722 156.102 99.0186 156.254 99.0214 156.428H98.4319Z" fill="#BBBAC3"/>
</g>
<path d="M30.5057 112V106.182H32.8352C33.2633 106.182 33.6203 106.245 33.9062 106.372C34.1922 106.499 34.4072 106.675 34.5511 106.901C34.6951 107.124 34.767 107.382 34.767 107.673C34.767 107.901 34.7216 108.1 34.6307 108.273C34.5398 108.443 34.4148 108.583 34.2557 108.693C34.0985 108.801 33.9186 108.878 33.7159 108.923V108.98C33.9375 108.99 34.1449 109.052 34.3381 109.168C34.5331 109.283 34.6913 109.445 34.8125 109.653C34.9337 109.86 34.9943 110.106 34.9943 110.392C34.9943 110.701 34.9176 110.976 34.7642 111.219C34.6127 111.459 34.3883 111.65 34.0909 111.79C33.7936 111.93 33.4271 112 32.9915 112H30.5057ZM31.7358 110.994H32.7386C33.0814 110.994 33.3314 110.929 33.4886 110.798C33.6458 110.666 33.7244 110.49 33.7244 110.27C33.7244 110.109 33.6856 109.967 33.608 109.844C33.5303 109.721 33.4195 109.624 33.2756 109.554C33.1335 109.484 32.964 109.449 32.767 109.449H31.7358V110.994ZM31.7358 108.616H32.6477C32.8163 108.616 32.9659 108.587 33.0966 108.528C33.2292 108.468 33.3333 108.383 33.4091 108.273C33.4867 108.163 33.5256 108.031 33.5256 107.878C33.5256 107.668 33.4508 107.498 33.3011 107.369C33.1534 107.241 32.9432 107.176 32.6705 107.176H31.7358V108.616ZM38.0807 112.085C37.6318 112.085 37.2454 111.994 36.9216 111.812C36.5996 111.629 36.3515 111.369 36.1772 111.034C36.003 110.697 35.9159 110.298 35.9159 109.838C35.9159 109.389 36.003 108.995 36.1772 108.656C36.3515 108.317 36.5968 108.053 36.913 107.864C37.2312 107.674 37.6043 107.58 38.0324 107.58C38.3202 107.58 38.5882 107.626 38.8363 107.719C39.0863 107.81 39.3041 107.947 39.4897 108.131C39.6772 108.314 39.8231 108.545 39.9272 108.824C40.0314 109.1 40.0835 109.424 40.0835 109.795V110.128H36.3988V109.378H38.9443C38.9443 109.204 38.9064 109.049 38.8307 108.915C38.7549 108.78 38.6498 108.675 38.5153 108.599C38.3827 108.522 38.2284 108.483 38.0522 108.483C37.8685 108.483 37.7057 108.526 37.5636 108.611C37.4235 108.694 37.3136 108.807 37.2341 108.949C37.1545 109.089 37.1138 109.245 37.1119 109.418V110.131C37.1119 110.347 37.1517 110.533 37.2312 110.69C37.3127 110.848 37.4272 110.969 37.575 111.054C37.7227 111.139 37.8979 111.182 38.1005 111.182C38.235 111.182 38.3581 111.163 38.4699 111.125C38.5816 111.087 38.6772 111.03 38.7568 110.955C38.8363 110.879 38.8969 110.786 38.9386 110.676L40.0579 110.75C40.0011 111.019 39.8846 111.254 39.7085 111.455C39.5343 111.653 39.3089 111.809 39.0324 111.92C38.7577 112.03 38.4405 112.085 38.0807 112.085ZM44.8239 108.881L43.716 108.949C43.6971 108.854 43.6563 108.769 43.5938 108.693C43.5313 108.616 43.4489 108.554 43.3467 108.509C43.2463 108.461 43.126 108.438 42.9859 108.438C42.7984 108.438 42.6402 108.477 42.5114 108.557C42.3827 108.634 42.3183 108.739 42.3183 108.869C42.3183 108.973 42.3599 109.062 42.4433 109.134C42.5266 109.205 42.6696 109.263 42.8722 109.307L43.662 109.466C44.0863 109.553 44.4025 109.693 44.6109 109.886C44.8192 110.08 44.9234 110.333 44.9234 110.648C44.9234 110.934 44.8391 111.185 44.6705 111.401C44.5039 111.616 44.2747 111.785 43.983 111.906C43.6933 112.026 43.359 112.085 42.9802 112.085C42.4025 112.085 41.9423 111.965 41.5995 111.724C41.2586 111.482 41.0588 111.152 41.0001 110.736L42.1904 110.673C42.2264 110.849 42.3135 110.984 42.4518 111.077C42.59 111.168 42.7671 111.213 42.983 111.213C43.1952 111.213 43.3656 111.172 43.4944 111.091C43.6251 111.008 43.6914 110.901 43.6933 110.77C43.6914 110.66 43.645 110.57 43.5541 110.5C43.4632 110.428 43.323 110.373 43.1336 110.335L42.3779 110.185C41.9518 110.099 41.6346 109.952 41.4262 109.741C41.2198 109.531 41.1166 109.263 41.1166 108.938C41.1166 108.657 41.1923 108.416 41.3438 108.213C41.4972 108.01 41.7122 107.854 41.9887 107.744C42.2671 107.634 42.5929 107.58 42.966 107.58C43.5171 107.58 43.9508 107.696 44.2671 107.929C44.5853 108.162 44.7709 108.479 44.8239 108.881ZM48.3265 107.636V108.545H45.6986V107.636H48.3265ZM46.2952 106.591H47.5055V110.659C47.5055 110.771 47.5225 110.858 47.5566 110.92C47.5907 110.981 47.638 111.024 47.6986 111.048C47.7611 111.073 47.8331 111.085 47.9145 111.085C47.9714 111.085 48.0282 111.08 48.085 111.071C48.1418 111.06 48.1854 111.051 48.2157 111.045L48.406 111.946C48.3454 111.965 48.2602 111.987 48.1503 112.011C48.0405 112.038 47.907 112.054 47.7498 112.06C47.4581 112.071 47.2024 112.032 46.9827 111.943C46.7649 111.854 46.5954 111.716 46.4742 111.528C46.353 111.341 46.2933 111.104 46.2952 110.818V106.591ZM54.7854 107.855C54.7626 107.626 54.6651 107.448 54.4928 107.321C54.3204 107.194 54.0865 107.131 53.7911 107.131C53.5903 107.131 53.4208 107.159 53.2825 107.216C53.1443 107.271 53.0382 107.348 52.9643 107.446C52.8924 107.545 52.8564 107.656 52.8564 107.781C52.8526 107.885 52.8744 107.976 52.9217 108.054C52.971 108.132 53.0382 108.199 53.1234 108.256C53.2087 108.311 53.3072 108.359 53.4189 108.401C53.5306 108.44 53.65 108.474 53.7768 108.503L54.2996 108.628C54.5534 108.685 54.7863 108.76 54.9984 108.855C55.2106 108.95 55.3943 109.066 55.5496 109.205C55.7049 109.343 55.8251 109.506 55.9104 109.693C55.9975 109.881 56.042 110.096 56.0439 110.338C56.042 110.694 55.9511 111.003 55.7712 111.264C55.5931 111.524 55.3356 111.725 54.9984 111.869C54.6632 112.011 54.2589 112.082 53.7854 112.082C53.3157 112.082 52.9066 112.01 52.5581 111.866C52.2115 111.723 51.9407 111.509 51.7456 111.227C51.5524 110.943 51.4511 110.592 51.4416 110.173H52.632C52.6452 110.368 52.7011 110.531 52.7996 110.662C52.9 110.791 53.0335 110.888 53.2001 110.955C53.3687 111.019 53.559 111.051 53.7712 111.051C53.9795 111.051 54.1604 111.021 54.3138 110.96C54.4691 110.9 54.5893 110.815 54.6746 110.707C54.7598 110.599 54.8024 110.475 54.8024 110.335C54.8024 110.205 54.7636 110.095 54.6859 110.006C54.6102 109.917 54.4984 109.841 54.3507 109.778C54.2049 109.716 54.0259 109.659 53.8138 109.608L53.1803 109.449C52.6897 109.33 52.3024 109.143 52.0183 108.889C51.7342 108.635 51.5931 108.294 51.595 107.864C51.5931 107.511 51.6869 107.204 51.8763 106.94C52.0676 106.677 52.3299 106.472 52.6632 106.324C52.9965 106.176 53.3753 106.102 53.7996 106.102C54.2314 106.102 54.6083 106.176 54.9303 106.324C55.2541 106.472 55.506 106.677 55.6859 106.94C55.8659 107.204 55.9587 107.509 55.9643 107.855H54.7854ZM59.1572 112.085C58.7084 112.085 58.322 111.994 57.9981 111.812C57.6762 111.629 57.428 111.369 57.2538 111.034C57.0796 110.697 56.9924 110.298 56.9924 109.838C56.9924 109.389 57.0796 108.995 57.2538 108.656C57.428 108.317 57.6733 108.053 57.9896 107.864C58.3078 107.674 58.6809 107.58 59.1089 107.58C59.3968 107.58 59.6648 107.626 59.9129 107.719C60.1629 107.81 60.3807 107.947 60.5663 108.131C60.7538 108.314 60.8996 108.545 61.0038 108.824C61.108 109.1 61.1601 109.424 61.1601 109.795V110.128H57.4754V109.378H60.0209C60.0209 109.204 59.983 109.049 59.9072 108.915C59.8315 108.78 59.7263 108.675 59.5919 108.599C59.4593 108.522 59.3049 108.483 59.1288 108.483C58.9451 108.483 58.7822 108.526 58.6402 108.611C58.5 108.694 58.3902 108.807 58.3106 108.949C58.2311 109.089 58.1904 109.245 58.1885 109.418V110.131C58.1885 110.347 58.2282 110.533 58.3078 110.69C58.3892 110.848 58.5038 110.969 58.6515 111.054C58.7993 111.139 58.9745 111.182 59.1771 111.182C59.3116 111.182 59.4347 111.163 59.5464 111.125C59.6582 111.087 59.7538 111.03 59.8334 110.955C59.9129 110.879 59.9735 110.786 60.0152 110.676L61.1345 110.75C61.0777 111.019 60.9612 111.254 60.7851 111.455C60.6108 111.653 60.3854 111.809 60.1089 111.92C59.8343 112.03 59.5171 112.085 59.1572 112.085ZM63.4801 106.182V112H62.2698V106.182H63.4801ZM65.9797 106.182V112H64.7695V106.182H65.9797ZM69.2578 112.085C68.809 112.085 68.4226 111.994 68.0988 111.812C67.7768 111.629 67.5287 111.369 67.3544 111.034C67.1802 110.697 67.0931 110.298 67.0931 109.838C67.0931 109.389 67.1802 108.995 67.3544 108.656C67.5287 108.317 67.7739 108.053 68.0902 107.864C68.4084 107.674 68.7815 107.58 69.2095 107.58C69.4974 107.58 69.7654 107.626 70.0135 107.719C70.2635 107.81 70.4813 107.947 70.6669 108.131C70.8544 108.314 71.0003 108.545 71.1044 108.824C71.2086 109.1 71.2607 109.424 71.2607 109.795V110.128H67.576V109.378H70.1215C70.1215 109.204 70.0836 109.049 70.0078 108.915C69.9321 108.78 69.827 108.675 69.6925 108.599C69.5599 108.522 69.4056 108.483 69.2294 108.483C69.0457 108.483 68.8828 108.526 68.7408 108.611C68.6006 108.694 68.4908 108.807 68.4113 108.949C68.3317 109.089 68.291 109.245 68.2891 109.418V110.131C68.2891 110.347 68.3289 110.533 68.4084 110.69C68.4898 110.848 68.6044 110.969 68.7522 111.054C68.8999 111.139 69.0751 111.182 69.2777 111.182C69.4122 111.182 69.5353 111.163 69.647 111.125C69.7588 111.087 69.8544 111.03 69.934 110.955C70.0135 110.879 70.0741 110.786 70.1158 110.676L71.2351 110.75C71.1783 111.019 71.0618 111.254 70.8857 111.455C70.7114 111.653 70.4861 111.809 70.2095 111.92C69.9349 112.03 69.6177 112.085 69.2578 112.085ZM72.3705 112V107.636H73.5438V108.398H73.5892C73.6688 108.127 73.8023 107.922 73.9898 107.784C74.1773 107.644 74.3932 107.574 74.6375 107.574C74.6981 107.574 74.7634 107.578 74.8335 107.585C74.9036 107.593 74.9652 107.603 75.0182 107.616V108.69C74.9614 108.673 74.8828 108.658 74.7824 108.645C74.682 108.632 74.5902 108.625 74.5068 108.625C74.3288 108.625 74.1697 108.664 74.0295 108.741C73.8913 108.817 73.7814 108.923 73.7 109.06C73.6205 109.196 73.5807 109.353 73.5807 109.531V112H72.3705ZM79.5946 108.881L78.4866 108.949C78.4677 108.854 78.427 108.769 78.3645 108.693C78.302 108.616 78.2196 108.554 78.1173 108.509C78.0169 108.461 77.8967 108.438 77.7565 108.438C77.569 108.438 77.4109 108.477 77.2821 108.557C77.1533 108.634 77.0889 108.739 77.0889 108.869C77.0889 108.973 77.1306 109.062 77.2139 109.134C77.2972 109.205 77.4402 109.263 77.6429 109.307L78.4326 109.466C78.8569 109.553 79.1732 109.693 79.3815 109.886C79.5898 110.08 79.694 110.333 79.694 110.648C79.694 110.934 79.6097 111.185 79.4412 111.401C79.2745 111.616 79.0453 111.785 78.7537 111.906C78.4639 112.026 78.1296 112.085 77.7508 112.085C77.1732 112.085 76.7129 111.965 76.3701 111.724C76.0292 111.482 75.8294 111.152 75.7707 110.736L76.9611 110.673C76.997 110.849 77.0842 110.984 77.2224 111.077C77.3607 111.168 77.5378 111.213 77.7537 111.213C77.9658 111.213 78.1362 111.172 78.265 111.091C78.3957 111.008 78.462 110.901 78.4639 110.77C78.462 110.66 78.4156 110.57 78.3247 110.5C78.2338 110.428 78.0936 110.373 77.9042 110.335L77.1486 110.185C76.7224 110.099 76.4052 109.952 76.1968 109.741C75.9904 109.531 75.8872 109.263 75.8872 108.938C75.8872 108.657 75.9629 108.416 76.1145 108.213C76.2679 108.01 76.4828 107.854 76.7593 107.744C77.0378 107.634 77.3635 107.58 77.7366 107.58C78.2878 107.58 78.7215 107.696 79.0378 107.929C79.3559 108.162 79.5415 108.479 79.5946 108.881Z" fill="#BBBAC3"/>
<path d="M30.5057 227V221.182H32.8011C33.2424 221.182 33.6184 221.266 33.929 221.435C34.2396 221.601 34.4763 221.833 34.6392 222.131C34.804 222.426 34.8864 222.767 34.8864 223.153C34.8864 223.54 34.803 223.881 34.6364 224.176C34.4697 224.472 34.2282 224.702 33.9119 224.866C33.5975 225.031 33.2169 225.114 32.7699 225.114H31.3068V224.128H32.571C32.8078 224.128 33.0028 224.087 33.1562 224.006C33.3116 223.922 33.4271 223.808 33.5028 223.662C33.5805 223.514 33.6193 223.345 33.6193 223.153C33.6193 222.96 33.5805 222.792 33.5028 222.648C33.4271 222.502 33.3116 222.389 33.1562 222.31C33.0009 222.228 32.804 222.188 32.5653 222.188H31.7358V227H30.5057ZM37.1098 227.082C36.8314 227.082 36.5833 227.034 36.3655 226.938C36.1477 226.839 35.9753 226.694 35.8484 226.503C35.7234 226.31 35.6609 226.069 35.6609 225.781C35.6609 225.539 35.7054 225.335 35.7944 225.17C35.8834 225.006 36.0047 224.873 36.1581 224.773C36.3115 224.672 36.4857 224.597 36.6808 224.545C36.8778 224.494 37.0842 224.458 37.3001 224.438C37.5539 224.411 37.7584 224.386 37.9138 224.364C38.0691 224.339 38.1817 224.303 38.2518 224.256C38.3219 224.208 38.3569 224.138 38.3569 224.045V224.028C38.3569 223.848 38.3001 223.709 38.1865 223.611C38.0747 223.512 37.9156 223.463 37.7092 223.463C37.4914 223.463 37.3181 223.511 37.1893 223.608C37.0605 223.703 36.9753 223.822 36.9336 223.966L35.8143 223.875C35.8711 223.61 35.9829 223.381 36.1495 223.188C36.3162 222.992 36.5312 222.843 36.7944 222.739C37.0596 222.633 37.3664 222.58 37.7149 222.58C37.9573 222.58 38.1893 222.608 38.4109 222.665C38.6344 222.722 38.8323 222.81 39.0047 222.929C39.1789 223.048 39.3162 223.202 39.4166 223.389C39.517 223.575 39.5672 223.797 39.5672 224.057V227H38.4194V226.395H38.3853C38.3153 226.531 38.2215 226.652 38.1041 226.756C37.9867 226.858 37.8456 226.938 37.6808 226.997C37.516 227.054 37.3257 227.082 37.1098 227.082ZM37.4564 226.247C37.6344 226.247 37.7916 226.212 37.928 226.142C38.0643 226.07 38.1713 225.973 38.249 225.852C38.3266 225.731 38.3655 225.594 38.3655 225.44V224.977C38.3276 225.002 38.2755 225.025 38.2092 225.045C38.1448 225.064 38.0719 225.082 37.9905 225.099C37.909 225.115 37.8276 225.129 37.7461 225.142C37.6647 225.153 37.5908 225.164 37.5245 225.173C37.3825 225.194 37.2584 225.227 37.1524 225.273C37.0463 225.318 36.9639 225.38 36.9052 225.457C36.8465 225.533 36.8172 225.628 36.8172 225.741C36.8172 225.906 36.8768 226.032 36.9961 226.119C37.1173 226.205 37.2708 226.247 37.4564 226.247ZM40.8261 227V222.636H41.9994V223.398H42.0448C42.1244 223.127 42.2579 222.922 42.4454 222.784C42.6329 222.644 42.8488 222.574 43.0931 222.574C43.1537 222.574 43.2191 222.578 43.2891 222.585C43.3592 222.593 43.4208 222.603 43.4738 222.616V223.69C43.417 223.673 43.3384 223.658 43.238 223.645C43.1376 223.632 43.0458 223.625 42.9624 223.625C42.7844 223.625 42.6253 223.664 42.4852 223.741C42.3469 223.817 42.2371 223.923 42.1556 224.06C42.0761 224.196 42.0363 224.353 42.0363 224.531V227H40.8261ZM46.9593 222.636V223.545H44.3314V222.636H46.9593ZM44.928 221.591H46.1383V225.659C46.1383 225.771 46.1553 225.858 46.1894 225.92C46.2235 225.981 46.2708 226.024 46.3314 226.048C46.3939 226.073 46.4659 226.085 46.5474 226.085C46.6042 226.085 46.661 226.08 46.7178 226.071C46.7746 226.06 46.8182 226.051 46.8485 226.045L47.0388 226.946C46.9782 226.965 46.893 226.987 46.7832 227.011C46.6733 227.038 46.5398 227.054 46.3826 227.06C46.0909 227.071 45.8352 227.032 45.6155 226.943C45.3977 226.854 45.2282 226.716 45.107 226.528C44.9858 226.341 44.9261 226.104 44.928 225.818V221.591ZM49.2779 224.477V227H48.0676V222.636H49.2211V223.406H49.2722C49.3688 223.152 49.5307 222.952 49.758 222.804C49.9853 222.654 50.2608 222.58 50.5847 222.58C50.8877 222.58 51.1519 222.646 51.3773 222.778C51.6027 222.911 51.7779 223.1 51.9029 223.347C52.0279 223.591 52.0904 223.883 52.0904 224.222V227H50.8801V224.438C50.882 224.17 50.8139 223.962 50.6756 223.812C50.5373 223.661 50.347 223.585 50.1046 223.585C49.9417 223.585 49.7978 223.62 49.6728 223.69C49.5497 223.76 49.4531 223.863 49.383 223.997C49.3148 224.13 49.2798 224.29 49.2779 224.477ZM55.3528 227.085C54.904 227.085 54.5176 226.994 54.1938 226.812C53.8718 226.629 53.6237 226.369 53.4494 226.034C53.2752 225.697 53.1881 225.298 53.1881 224.838C53.1881 224.389 53.2752 223.995 53.4494 223.656C53.6237 223.317 53.8689 223.053 54.1852 222.864C54.5034 222.674 54.8765 222.58 55.3045 222.58C55.5924 222.58 55.8604 222.626 56.1085 222.719C56.3585 222.81 56.5763 222.947 56.7619 223.131C56.9494 223.314 57.0953 223.545 57.1994 223.824C57.3036 224.1 57.3557 224.424 57.3557 224.795V225.128H53.671V224.378H56.2165C56.2165 224.204 56.1786 224.049 56.1028 223.915C56.0271 223.78 55.922 223.675 55.7875 223.599C55.6549 223.522 55.5006 223.483 55.3244 223.483C55.1407 223.483 54.9778 223.526 54.8358 223.611C54.6956 223.694 54.5858 223.807 54.5063 223.949C54.4267 224.089 54.386 224.245 54.3841 224.418V225.131C54.3841 225.347 54.4239 225.533 54.5034 225.69C54.5848 225.848 54.6994 225.969 54.8472 226.054C54.9949 226.139 55.1701 226.182 55.3727 226.182C55.5072 226.182 55.6303 226.163 55.742 226.125C55.8538 226.087 55.9494 226.03 56.029 225.955C56.1085 225.879 56.1691 225.786 56.2108 225.676L57.3301 225.75C57.2733 226.019 57.1568 226.254 56.9807 226.455C56.8064 226.653 56.5811 226.809 56.3045 226.92C56.0299 227.03 55.7127 227.085 55.3528 227.085ZM58.4655 227V222.636H59.6388V223.398H59.6842C59.7638 223.127 59.8973 222.922 60.0848 222.784C60.2723 222.644 60.4882 222.574 60.7325 222.574C60.7931 222.574 60.8584 222.578 60.9285 222.585C60.9986 222.593 61.0602 222.603 61.1132 222.616V223.69C61.0564 223.673 60.9778 223.658 60.8774 223.645C60.777 223.632 60.6852 223.625 60.6018 223.625C60.4238 223.625 60.2647 223.664 60.1245 223.741C59.9863 223.817 59.8764 223.923 59.795 224.06C59.7155 224.196 59.6757 224.353 59.6757 224.531V227H58.4655ZM65.6896 223.881L64.5816 223.949C64.5627 223.854 64.522 223.769 64.4595 223.693C64.397 223.616 64.3146 223.554 64.2123 223.509C64.1119 223.461 63.9917 223.438 63.8515 223.438C63.664 223.438 63.5059 223.477 63.3771 223.557C63.2483 223.634 63.1839 223.739 63.1839 223.869C63.1839 223.973 63.2256 224.062 63.3089 224.134C63.3922 224.205 63.5352 224.263 63.7379 224.307L64.5276 224.466C64.9519 224.553 65.2682 224.693 65.4765 224.886C65.6848 225.08 65.789 225.333 65.789 225.648C65.789 225.934 65.7047 226.185 65.5362 226.401C65.3695 226.616 65.1403 226.785 64.8487 226.906C64.5589 227.026 64.2246 227.085 63.8458 227.085C63.2682 227.085 62.8079 226.965 62.4651 226.724C62.1242 226.482 61.9244 226.152 61.8657 225.736L63.0561 225.673C63.092 225.849 63.1792 225.984 63.3174 226.077C63.4557 226.168 63.6328 226.213 63.8487 226.213C64.0608 226.213 64.2312 226.172 64.36 226.091C64.4907 226.008 64.557 225.901 64.5589 225.77C64.557 225.66 64.5106 225.57 64.4197 225.5C64.3288 225.428 64.1886 225.373 63.9992 225.335L63.2436 225.185C62.8174 225.099 62.5002 224.952 62.2918 224.741C62.0854 224.531 61.9822 224.263 61.9822 223.938C61.9822 223.657 62.0579 223.416 62.2095 223.213C62.3629 223.01 62.5778 222.854 62.8543 222.744C63.1328 222.634 63.4585 222.58 63.8316 222.58C64.3828 222.58 64.8165 222.696 65.1328 222.929C65.4509 223.162 65.6365 223.479 65.6896 223.881Z" fill="#BBBAC3"/>
<path d="M35.3722 177.182V183H34.3097L31.7784 179.338H31.7358V183H30.5057V177.182H31.5852L34.0966 180.841H34.1477V177.182H35.3722ZM38.6744 183.085C38.2255 183.085 37.8392 182.994 37.5153 182.812C37.1933 182.629 36.9452 182.369 36.771 182.034C36.5968 181.697 36.5096 181.298 36.5096 180.838C36.5096 180.389 36.5968 179.995 36.771 179.656C36.9452 179.317 37.1905 179.053 37.5068 178.864C37.825 178.674 38.1981 178.58 38.6261 178.58C38.914 178.58 39.182 178.626 39.4301 178.719C39.6801 178.81 39.8979 178.947 40.0835 179.131C40.271 179.314 40.4168 179.545 40.521 179.824C40.6252 180.1 40.6772 180.424 40.6772 180.795V181.128H36.9926V180.378H39.538C39.538 180.204 39.5002 180.049 39.4244 179.915C39.3486 179.78 39.2435 179.675 39.1091 179.599C38.9765 179.522 38.8221 179.483 38.646 179.483C38.4623 179.483 38.2994 179.526 38.1574 179.611C38.0172 179.694 37.9074 179.807 37.8278 179.949C37.7483 180.089 37.7075 180.245 37.7057 180.418V181.131C37.7057 181.347 37.7454 181.533 37.825 181.69C37.9064 181.848 38.021 181.969 38.1687 182.054C38.3164 182.139 38.4916 182.182 38.6943 182.182C38.8288 182.182 38.9519 182.163 39.0636 182.125C39.1754 182.087 39.271 182.03 39.3505 181.955C39.4301 181.879 39.4907 181.786 39.5324 181.676L40.6517 181.75C40.5949 182.019 40.4784 182.254 40.3022 182.455C40.128 182.653 39.9026 182.809 39.6261 182.92C39.3515 183.03 39.0343 183.085 38.6744 183.085ZM42.6166 183L41.4291 178.636H42.6535L43.3296 181.568H43.3694L44.0739 178.636H45.2757L45.9916 181.551H46.0285L46.6933 178.636H47.9149L46.7302 183H45.4489L44.6989 180.256H44.645L43.895 183H42.6166ZM52.5111 179.881L51.4032 179.949C51.3842 179.854 51.3435 179.769 51.281 179.693C51.2185 179.616 51.1361 179.554 51.0339 179.509C50.9335 179.461 50.8132 179.438 50.6731 179.438C50.4856 179.438 50.3274 179.477 50.1986 179.557C50.0698 179.634 50.0055 179.739 50.0055 179.869C50.0055 179.973 50.0471 180.062 50.1305 180.134C50.2138 180.205 50.3568 180.263 50.5594 180.307L51.3492 180.466C51.7734 180.553 52.0897 180.693 52.2981 180.886C52.5064 181.08 52.6106 181.333 52.6106 181.648C52.6106 181.934 52.5263 182.185 52.3577 182.401C52.1911 182.616 51.9619 182.785 51.6702 182.906C51.3805 183.026 51.0462 183.085 50.6674 183.085C50.0897 183.085 49.6295 182.965 49.2867 182.724C48.9458 182.482 48.746 182.152 48.6873 181.736L49.8776 181.673C49.9136 181.849 50.0007 181.984 50.139 182.077C50.2772 182.168 50.4543 182.213 50.6702 182.213C50.8823 182.213 51.0528 182.172 51.1816 182.091C51.3123 182.008 51.3786 181.901 51.3805 181.77C51.3786 181.66 51.3322 181.57 51.2412 181.5C51.1503 181.428 51.0102 181.373 50.8208 181.335L50.0651 181.185C49.639 181.099 49.3217 180.952 49.1134 180.741C48.907 180.531 48.8037 180.263 48.8037 179.938C48.8037 179.657 48.8795 179.416 49.031 179.213C49.1844 179.01 49.3994 178.854 49.6759 178.744C49.9543 178.634 50.2801 178.58 50.6532 178.58C51.2043 178.58 51.638 178.696 51.9543 178.929C52.2725 179.162 52.4581 179.479 52.5111 179.881Z" fill="#BBBAC3"/>
<rect x="30" y="233" width="36" height="16" rx="4" fill="#504D65"/>
<rect x="71" y="233" width="36" height="16" rx="4" fill="#504D65"/>
<rect x="112" y="233" width="36" height="16" rx="4" fill="#504D65"/>
<rect x="153" y="233" width="36" height="16" rx="4" fill="#504D65"/>
<rect x="154" y="175" width="36" height="32" rx="4" fill="#504D65"/>
<rect x="30" y="194" width="57" height="3" rx="1.5" fill="#504D65"/>
<rect x="30" y="189" width="63" height="3" rx="1.5" fill="#504D65"/>
<rect x="30" y="199" width="69" height="3" rx="1.5" fill="#504D65"/>
<rect x="30" y="204" width="92" height="3" rx="1.5" fill="#504D65"/>
</g>
<defs>
<clipPath id="clip0_1220_853">
<rect width="220" height="240" rx="6" fill="white"/>
</clipPath>
<clipPath id="clip1_1220_853">
<rect x="30" y="118" width="50" height="42" rx="2" fill="white"/>
</clipPath>
<clipPath id="clip2_1220_853">
<rect x="140" y="118" width="50" height="42" rx="2" fill="white"/>
</clipPath>
<clipPath id="clip3_1220_853">
<rect x="85" y="118" width="50" height="42" rx="2" fill="white"/>
</clipPath>
</defs>
</svg>
