<svg width="220" height="240" viewBox="0 0 220 240" fill="none" xmlns="http://www.w3.org/2000/svg">
<g clip-path="url(#clip0_1220_739)">
<rect width="220" height="240" rx="6" fill="white"/>
<g clip-path="url(#clip1_1220_739)">
<rect x="30" y="120" width="50" height="32" rx="2" fill="#E6E8EE"/>
<circle cx="37.9375" cy="131.544" r="2" fill="white"/>
<path d="M41.8897 136.549L30.9723 146.406C30.5522 146.785 30.3125 147.324 30.3125 147.89V149.439C30.3125 150.543 31.2079 151.439 32.3125 151.439H77.6875C78.7921 151.439 79.6875 150.543 79.6875 149.439V140.157C79.6875 139.739 79.5562 139.331 79.3122 138.991L73.2404 130.533C72.4745 129.467 70.9058 129.415 70.0714 130.429L57.7479 145.404C57.0292 146.278 55.73 146.382 54.8814 145.634L44.5521 136.533C43.7895 135.861 42.6441 135.868 41.8897 136.549Z" fill="white"/>
<rect x="30" y="157" width="38" height="4" rx="2" fill="#E6E8EE"/>
<rect x="30" y="164" width="49" height="4" rx="2" fill="#F3F5F7"/>
<rect x="30" y="171" width="43" height="4" rx="2" fill="#F3F5F7"/>
</g>
<g clip-path="url(#clip2_1220_739)">
<rect x="30" y="191" width="50" height="32" rx="2" fill="#E6E8EE"/>
<circle cx="37.9375" cy="202.544" r="2" fill="white"/>
<path d="M41.8897 207.549L30.9723 217.406C30.5522 217.785 30.3125 218.324 30.3125 218.89V220.439C30.3125 221.543 31.2079 222.439 32.3125 222.439H77.6875C78.7921 222.439 79.6875 221.543 79.6875 220.439V211.157C79.6875 210.739 79.5562 210.331 79.3122 209.991L73.2404 201.533C72.4745 200.467 70.9058 200.415 70.0714 201.429L57.7479 216.404C57.0292 217.278 55.73 217.382 54.8814 216.634L44.5521 207.533C43.7895 206.861 42.6441 206.868 41.8897 207.549Z" fill="white"/>
<rect x="30" y="228" width="38" height="4" rx="2" fill="#E6E8EE"/>
<rect x="30" y="235" width="49" height="4" rx="2" fill="#F3F5F7"/>
</g>
<g clip-path="url(#clip3_1220_739)">
<rect x="85" y="120" width="50" height="32" rx="2" fill="#E6E8EE"/>
<circle cx="92.9375" cy="131.544" r="2" fill="white"/>
<path d="M96.8897 136.549L85.9723 146.406C85.5522 146.785 85.3125 147.324 85.3125 147.89V149.439C85.3125 150.543 86.2079 151.439 87.3125 151.439H132.688C133.792 151.439 134.688 150.543 134.688 149.439V140.157C134.688 139.739 134.556 139.331 134.312 138.991L128.24 130.533C127.475 129.467 125.906 129.415 125.071 130.429L112.748 145.404C112.029 146.278 110.73 146.382 109.881 145.634L99.5521 136.533C98.7895 135.861 97.6441 135.868 96.8897 136.549Z" fill="white"/>
<rect x="85" y="157" width="38" height="4" rx="2" fill="#E6E8EE"/>
<rect x="85" y="164" width="49" height="4" rx="2" fill="#F3F5F7"/>
<rect x="85" y="171" width="43" height="4" rx="2" fill="#F3F5F7"/>
</g>
<g clip-path="url(#clip4_1220_739)">
<rect x="85" y="191" width="50" height="32" rx="2" fill="#E6E8EE"/>
<circle cx="92.9375" cy="202.544" r="2" fill="white"/>
<path d="M96.8897 207.549L85.9723 217.406C85.5522 217.785 85.3125 218.324 85.3125 218.89V220.439C85.3125 221.543 86.2079 222.439 87.3125 222.439H132.688C133.792 222.439 134.688 221.543 134.688 220.439V211.157C134.688 210.739 134.556 210.331 134.312 209.991L128.24 201.533C127.475 200.467 125.906 200.415 125.071 201.429L112.748 216.404C112.029 217.278 110.73 217.382 109.881 216.634L99.5521 207.533C98.7895 206.861 97.6441 206.868 96.8897 207.549Z" fill="white"/>
<rect x="85" y="228" width="38" height="4" rx="2" fill="#E6E8EE"/>
<rect x="85" y="235" width="49" height="4" rx="2" fill="#F3F5F7"/>
</g>
<g clip-path="url(#clip5_1220_739)">
<rect x="140" y="120" width="50" height="32" rx="2" fill="#E6E8EE"/>
<circle cx="147.938" cy="131.544" r="2" fill="white"/>
<path d="M151.89 136.549L140.972 146.406C140.552 146.785 140.312 147.324 140.312 147.89V149.439C140.312 150.543 141.208 151.439 142.312 151.439H187.688C188.792 151.439 189.688 150.543 189.688 149.439V140.157C189.688 139.739 189.556 139.331 189.312 138.991L183.24 130.533C182.475 129.467 180.906 129.415 180.071 130.429L167.748 145.404C167.029 146.278 165.73 146.382 164.881 145.634L154.552 136.533C153.789 135.861 152.644 135.868 151.89 136.549Z" fill="white"/>
<rect x="140" y="157" width="38" height="4" rx="2" fill="#E6E8EE"/>
<rect x="140" y="164" width="49" height="4" rx="2" fill="#F3F5F7"/>
<rect x="140" y="171" width="43" height="4" rx="2" fill="#F3F5F7"/>
</g>
<g clip-path="url(#clip6_1220_739)">
<rect x="140" y="191" width="50" height="32" rx="2" fill="#E6E8EE"/>
<circle cx="147.938" cy="202.544" r="2" fill="white"/>
<path d="M151.89 207.549L140.972 217.406C140.552 217.785 140.312 218.324 140.312 218.89V220.439C140.312 221.543 141.208 222.439 142.312 222.439H187.688C188.792 222.439 189.688 221.543 189.688 220.439V211.157C189.688 210.739 189.556 210.331 189.312 209.991L183.24 201.533C182.475 200.467 180.906 200.415 180.071 201.429L167.748 216.404C167.029 217.278 165.73 217.382 164.881 216.634L154.552 207.533C153.789 206.861 152.644 206.868 151.89 207.549Z" fill="white"/>
<rect x="140" y="228" width="38" height="4" rx="2" fill="#E6E8EE"/>
<rect x="140" y="235" width="49" height="4" rx="2" fill="#F3F5F7"/>
</g>
<path d="M126.667 17.3334L140 30.6667L126.667 44" stroke="#8899AA" stroke-width="6.66667" stroke-linecap="round" stroke-linejoin="round"/>
<path d="M80 50.6666V44C80 40.4637 81.4048 37.0724 83.9052 34.5719C86.4057 32.0714 89.7971 30.6666 93.3333 30.6666H140" stroke="#8899AA" stroke-width="6.66667" stroke-linecap="round" stroke-linejoin="round"/>
<path d="M93.3333 90.6667L80 77.3333L93.3333 64" stroke="#8899AA" stroke-width="6.66667" stroke-linecap="round" stroke-linejoin="round"/>
<path d="M140 57.3334V64C140 67.5363 138.595 70.9276 136.095 73.4281C133.594 75.9286 130.203 77.3334 126.667 77.3334H80" stroke="#8899AA" stroke-width="6.66667" stroke-linecap="round" stroke-linejoin="round"/>
</g>
<defs>
<clipPath id="clip0_1220_739">
<rect width="220" height="240" rx="6" fill="white"/>
</clipPath>
<clipPath id="clip1_1220_739">
<rect x="30" y="120" width="50" height="55" rx="2" fill="white"/>
</clipPath>
<clipPath id="clip2_1220_739">
<rect x="30" y="191" width="50" height="55" rx="2" fill="white"/>
</clipPath>
<clipPath id="clip3_1220_739">
<rect x="85" y="120" width="50" height="55" rx="2" fill="white"/>
</clipPath>
<clipPath id="clip4_1220_739">
<rect x="85" y="191" width="50" height="55" rx="2" fill="white"/>
</clipPath>
<clipPath id="clip5_1220_739">
<rect x="140" y="120" width="50" height="55" rx="2" fill="white"/>
</clipPath>
<clipPath id="clip6_1220_739">
<rect x="140" y="191" width="50" height="55" rx="2" fill="white"/>
</clipPath>
</defs>
</svg>
