<svg width="220" height="240" viewBox="0 0 220 240" fill="none" xmlns="http://www.w3.org/2000/svg">
<g clip-path="url(#clip0_1220_903)">
<rect width="220" height="240" rx="6" fill="#24213F"/>
<path d="M126.667 17.3334L140 30.6667L126.667 44" stroke="#BBBAC3" stroke-width="6.66667" stroke-linecap="round" stroke-linejoin="round"/>
<path d="M80 50.6666V44C80 40.4637 81.4048 37.0724 83.9052 34.5719C86.4057 32.0714 89.7971 30.6666 93.3333 30.6666H140" stroke="#BBBAC3" stroke-width="6.66667" stroke-linecap="round" stroke-linejoin="round"/>
<path d="M93.3333 90.6667L80 77.3333L93.3333 64" stroke="#BBBAC3" stroke-width="6.66667" stroke-linecap="round" stroke-linejoin="round"/>
<path d="M140 57.3334V64C140 67.5363 138.595 70.9276 136.095 73.4281C133.594 75.9286 130.203 77.3334 126.667 77.3334H80" stroke="#BBBAC3" stroke-width="6.66667" stroke-linecap="round" stroke-linejoin="round"/>
<g clip-path="url(#clip1_1220_903)">
<rect x="30" y="120" width="50" height="32" rx="2" fill="#504D65"/>
<circle cx="37.9375" cy="131.544" r="2" fill="#9A99A7"/>
<path d="M41.8897 136.549L30.9723 146.406C30.5522 146.785 30.3125 147.324 30.3125 147.89V149.439C30.3125 150.543 31.2079 151.439 32.3125 151.439H77.6875C78.7921 151.439 79.6875 150.543 79.6875 149.439V140.157C79.6875 139.739 79.5562 139.331 79.3122 138.991L73.2404 130.533C72.4745 129.467 70.9058 129.415 70.0714 130.429L57.7479 145.404C57.0292 146.278 55.73 146.382 54.8814 145.634L44.5521 136.533C43.7895 135.861 42.6441 135.868 41.8897 136.549Z" fill="#9A99A7"/>
<rect x="30" y="157" width="38" height="4" rx="2" fill="#504D65"/>
<rect x="30" y="164" width="49" height="4" rx="2" fill="#504D65"/>
<rect x="30" y="171" width="43" height="4" rx="2" fill="#504D65"/>
</g>
<g clip-path="url(#clip2_1220_903)">
<rect x="30" y="196" width="50" height="32" rx="2" fill="#504D65"/>
<circle cx="37.9375" cy="207.544" r="2" fill="#9A99A7"/>
<path d="M41.8897 212.549L30.9723 222.406C30.5522 222.785 30.3125 223.324 30.3125 223.89V225.439C30.3125 226.543 31.2079 227.439 32.3125 227.439H77.6875C78.7921 227.439 79.6875 226.543 79.6875 225.439V216.157C79.6875 215.739 79.5562 215.331 79.3122 214.991L73.2404 206.533C72.4745 205.467 70.9058 205.415 70.0714 206.429L57.7479 221.404C57.0292 222.278 55.73 222.382 54.8814 221.634L44.5521 212.533C43.7895 211.861 42.6441 211.868 41.8897 212.549Z" fill="#9A99A7"/>
<rect x="30" y="233" width="38" height="4" rx="2" fill="#504D65"/>
</g>
<g clip-path="url(#clip3_1220_903)">
<rect x="88" y="120" width="50" height="32" rx="2" fill="#504D65"/>
<circle cx="95.9375" cy="131.544" r="2" fill="#9A99A7"/>
<path d="M99.8897 136.549L88.9723 146.406C88.5522 146.785 88.3125 147.324 88.3125 147.89V149.439C88.3125 150.543 89.2079 151.439 90.3125 151.439H135.688C136.792 151.439 137.688 150.543 137.688 149.439V140.157C137.688 139.739 137.556 139.331 137.312 138.991L131.24 130.533C130.475 129.467 128.906 129.415 128.071 130.429L115.748 145.404C115.029 146.278 113.73 146.382 112.881 145.634L102.552 136.533C101.789 135.861 100.644 135.868 99.8897 136.549Z" fill="#9A99A7"/>
<rect x="88" y="157" width="38" height="4" rx="2" fill="#504D65"/>
<rect x="88" y="164" width="49" height="4" rx="2" fill="#504D65"/>
<rect x="88" y="171" width="43" height="4" rx="2" fill="#504D65"/>
</g>
<g clip-path="url(#clip4_1220_903)">
<rect x="88" y="196" width="50" height="32" rx="2" fill="#504D65"/>
<circle cx="95.9375" cy="207.544" r="2" fill="#9A99A7"/>
<path d="M99.8897 212.549L88.9723 222.406C88.5522 222.785 88.3125 223.324 88.3125 223.89V225.439C88.3125 226.543 89.2079 227.439 90.3125 227.439H135.688C136.792 227.439 137.688 226.543 137.688 225.439V216.157C137.688 215.739 137.556 215.331 137.312 214.991L131.24 206.533C130.475 205.467 128.906 205.415 128.071 206.429L115.748 221.404C115.029 222.278 113.73 222.382 112.881 221.634L102.552 212.533C101.789 211.861 100.644 211.868 99.8897 212.549Z" fill="#9A99A7"/>
<rect x="88" y="233" width="38" height="4" rx="2" fill="#504D65"/>
</g>
<g clip-path="url(#clip5_1220_903)">
<rect x="146" y="120" width="50" height="32" rx="2" fill="#504D65"/>
<circle cx="153.938" cy="131.544" r="2" fill="#9A99A7"/>
<path d="M157.89 136.549L146.972 146.406C146.552 146.785 146.312 147.324 146.312 147.89V149.439C146.312 150.543 147.208 151.439 148.312 151.439H193.688C194.792 151.439 195.688 150.543 195.688 149.439V140.157C195.688 139.739 195.556 139.331 195.312 138.991L189.24 130.533C188.475 129.467 186.906 129.415 186.071 130.429L173.748 145.404C173.029 146.278 171.73 146.382 170.881 145.634L160.552 136.533C159.789 135.861 158.644 135.868 157.89 136.549Z" fill="#9A99A7"/>
<rect x="146" y="157" width="38" height="4" rx="2" fill="#504D65"/>
<rect x="146" y="164" width="49" height="4" rx="2" fill="#504D65"/>
<rect x="146" y="171" width="43" height="4" rx="2" fill="#504D65"/>
</g>
<g clip-path="url(#clip6_1220_903)">
<rect x="146" y="196" width="50" height="32" rx="2" fill="#504D65"/>
<circle cx="153.938" cy="207.544" r="2" fill="#9A99A7"/>
<path d="M157.89 212.549L146.972 222.406C146.552 222.785 146.312 223.324 146.312 223.89V225.439C146.312 226.543 147.208 227.439 148.312 227.439H193.688C194.792 227.439 195.688 226.543 195.688 225.439V216.157C195.688 215.739 195.556 215.331 195.312 214.991L189.24 206.533C188.475 205.467 186.906 205.415 186.071 206.429L173.748 221.404C173.029 222.278 171.73 222.382 170.881 221.634L160.552 212.533C159.789 211.861 158.644 211.868 157.89 212.549Z" fill="#9A99A7"/>
<rect x="146" y="233" width="38" height="4" rx="2" fill="#504D65"/>
</g>
</g>
<defs>
<clipPath id="clip0_1220_903">
<rect width="220" height="240" rx="6" fill="white"/>
</clipPath>
<clipPath id="clip1_1220_903">
<rect x="30" y="120" width="50" height="55" rx="2" fill="white"/>
</clipPath>
<clipPath id="clip2_1220_903">
<rect x="30" y="196" width="50" height="55" rx="2" fill="white"/>
</clipPath>
<clipPath id="clip3_1220_903">
<rect x="88" y="120" width="50" height="55" rx="2" fill="white"/>
</clipPath>
<clipPath id="clip4_1220_903">
<rect x="88" y="196" width="50" height="55" rx="2" fill="white"/>
</clipPath>
<clipPath id="clip5_1220_903">
<rect x="146" y="120" width="50" height="55" rx="2" fill="white"/>
</clipPath>
<clipPath id="clip6_1220_903">
<rect x="146" y="196" width="50" height="55" rx="2" fill="white"/>
</clipPath>
</defs>
</svg>
