<svg xmlns="http://www.w3.org/2000/svg" width="24" height="24" viewBox="0 0 24 24" fill="none">
    <path d="M20 15.4426V8.33151C19.9997 8.01975 19.9174 7.71356 19.7614 7.44365C19.6054 7.17375 19.3811 6.94961 19.1111 6.79373L12.8889 3.23818C12.6186 3.08214 12.3121 3 12 3C11.6879 3 11.3814 3.08214 11.1111 3.23818L4.88889 6.79373C4.6189 6.94961 4.39465 7.17375 4.23863 7.44365C4.08262 7.71356 4.00032 8.01975 4 8.33151V15.4426C4.00032 15.7544 4.08262 16.0606 4.23863 16.3305C4.39465 16.6004 4.6189 16.8245 4.88889 16.9804L11.1111 20.536C11.3814 20.692 11.6879 20.7741 12 20.7741C12.3121 20.7741 12.6186 20.692 12.8889 20.536L19.1111 16.9804C19.3811 16.8245 19.6054 16.6004 19.7614 16.3305C19.9174 16.0606 19.9997 15.7544 20 15.4426Z" stroke="currentColor" stroke-linecap="round" stroke-linejoin="round"/>
    <path d="M4.23999 7.40698L12 11.8959L19.76 7.40698" stroke="currentColor" stroke-linecap="round" stroke-linejoin="round"/>
    <path d="M12 20.8472V11.8872" stroke="currentColor" stroke-linecap="round" stroke-linejoin="round"/>
</svg>