<svg width="24" height="24" viewBox="0 0 24 24" fill="none" xmlns="http://www.w3.org/2000/svg">
    <rect x="1.5" y="4.5" width="17" height="9" rx="1.5" stroke="currentColor"/>
    <path d="M22 9.5L23 8.5L22 7.5" stroke="currentColor" stroke-width="0.5" stroke-linecap="round" stroke-linejoin="round"/>
    <path d="M20 8.25C19.8619 8.25 19.75 8.36193 19.75 8.5C19.75 8.63807 19.8619 8.75 20 8.75V8.25ZM20 8.75H23V8.25H20V8.75Z" fill="currentColor"/>
    <path d="M9 20L10 21L11 20" stroke="currentColor" stroke-width="0.5" stroke-linecap="round" stroke-linejoin="round"/>
    <path d="M10.25 18C10.25 17.8619 10.1381 17.75 10 17.75C9.86193 17.75 9.75 17.8619 9.75 18H10.25ZM9.75 18V21H10.25V18H9.75Z" fill="currentColor"/>
    <rect x="5.25" y="15.25" width="9.5" height="0.5" rx="0.25" fill="#D9D9D9" stroke="currentColor" stroke-width="0.5"/>
    <rect x="5.25" y="17.25" width="9.5" height="0.5" rx="0.25" fill="#D9D9D9" stroke="currentColor" stroke-width="0.5"/>
</svg>
