<svg width="24" height="24" viewBox="0 0 24 24" fill="none" xmlns="http://www.w3.org/2000/svg">
    <path d="M13.1815 3.81824H7.45423C7.02024 3.81824 6.60403 3.99064 6.29715 4.29752C5.99027 4.60439 5.81787 5.02061 5.81787 5.4546V18.5455C5.81787 18.9795 5.99027 19.3957 6.29715 19.7026C6.60403 20.0095 7.02024 20.1819 7.45423 20.1819H17.2724C17.7064 20.1819 18.1226 20.0095 18.4295 19.7026C18.7364 19.3957 18.9088 18.9795 18.9088 18.5455V9.54551L13.1815 3.81824Z" stroke="currentColor" stroke-width="0.818182" stroke-linecap="round" stroke-linejoin="round"/>
    <path d="M13.1819 3.81824V9.54551H18.9092" stroke="currentColor" stroke-width="0.818182" stroke-linecap="round" stroke-linejoin="round"/>
    <path d="M12.1987 17.0314C13.2107 17.0314 14.0312 16.211 14.0312 15.1989C14.0312 14.1869 13.2107 13.3665 12.1987 13.3665C11.1866 13.3665 10.3662 14.1869 10.3662 15.1989C10.3662 16.211 11.1866 17.0314 12.1987 17.0314Z" stroke="currentColor" stroke-width="0.366496" stroke-linecap="round" stroke-linejoin="round"/>
    <path d="M12.199 15.932V15.199" stroke="currentColor" stroke-width="0.366496" stroke-linecap="round" stroke-linejoin="round"/>
    <path d="M12.199 14.4659H12.2016" stroke="currentColor" stroke-width="0.366496" stroke-linecap="round" stroke-linejoin="round"/>
    <clipPath id="clip0_1197_8">
        <rect width="14.7273" height="18" fill="white" transform="translate(5 3)"/>
    </clipPath>
    <clipPath id="clip1_1197_8">
        <rect width="4.39795" height="4.39795" fill="white" transform="translate(10 13)"/>
    </clipPath>
</svg>
