<svg width="30" height="32" viewBox="0 0 30 32" fill="none" xmlns="http://www.w3.org/2000/svg">
<g filter="url(#filter0_d_1144_278)">
<path d="M6.45739 19.7214C5.48513 19.1984 4.87874 18.1835 4.87874 17.0795L4.87875 7.11465L14.0197 11.8453C14.5925 12.1417 15.273 12.1437 15.8475 11.8507L25.1348 7.11463L25.1348 17.0359C25.1348 18.1486 24.5189 19.17 23.5347 19.6892L16.7673 23.2596C15.5891 23.8813 14.1788 23.8755 13.0057 23.2444L6.45739 19.7214Z" fill="url(#paint0_linear_1144_278)"/>
<path d="M5.63431 8.23227C4.5691 7.74613 4.53578 6.24499 5.57836 5.71206L13.2006 1.81586C14.3431 1.23183 15.6965 1.23139 16.8394 1.81467L24.4216 5.68415C25.4644 6.21632 25.4322 7.71721 24.3676 8.20425L16.6436 11.7378C15.588 12.2207 14.3748 12.2212 13.3188 11.7393L5.63431 8.23227Z" fill="url(#paint1_linear_1144_278)"/>
</g>
<defs>
<filter id="filter0_d_1144_278" x="0.815552" y="1.37744" width="28.3696" height="30.3445" filterUnits="userSpaceOnUse" color-interpolation-filters="sRGB">
<feFlood flood-opacity="0" result="BackgroundImageFix"/>
<feColorMatrix in="SourceAlpha" type="matrix" values="0 0 0 0 0 0 0 0 0 0 0 0 0 0 0 0 0 0 127 0" result="hardAlpha"/>
<feOffset dy="4"/>
<feGaussianBlur stdDeviation="2"/>
<feComposite in2="hardAlpha" operator="out"/>
<feColorMatrix type="matrix" values="0 0 0 0 0 0 0 0 0 0 0 0 0 0 0 0 0 0 0.25 0"/>
<feBlend mode="normal" in2="BackgroundImageFix" result="effect1_dropShadow_1144_278"/>
<feBlend mode="normal" in="SourceGraphic" in2="effect1_dropShadow_1144_278" result="shape"/>
</filter>
<linearGradient id="paint0_linear_1144_278" x1="5.00076" y1="6.61917" x2="24.0769" y2="13.0605" gradientUnits="userSpaceOnUse">
<stop stop-color="#85CDFD"/>
<stop offset="0.112147" stop-color="#6FB2FB"/>
<stop offset="0.420106" stop-color="#5895F9"/>
<stop offset="0.679111" stop-color="#1D4DF5"/>
<stop offset="1" stop-color="#1640D6"/>
</linearGradient>
<linearGradient id="paint1_linear_1144_278" x1="5.76025" y1="6.88028" x2="24.5952" y2="7.6047" gradientUnits="userSpaceOnUse">
<stop stop-color="#85CDFD"/>
<stop offset="1" stop-color="#0099FF"/>
</linearGradient>
</defs>
</svg>
