<svg width="43" height="48" viewBox="0 0 43 48" fill="none" xmlns="http://www.w3.org/2000/svg">
<path d="M2.52434 37.8765C1.55208 37.3534 0.945692 36.3386 0.945693 35.2346L0.945719 13.1358L20.462 23.2358C21.0348 23.5322 21.7153 23.5343 22.2899 23.2413L42.1063 13.1358V35.1629C42.1063 36.2757 41.4904 37.2971 40.5062 37.8163L23.1583 46.969C21.9801 47.5906 20.5697 47.5849 19.3966 46.9538L2.52434 37.8765Z" fill="url(#paint0_linear_1144_274)"/>
<path d="M1.91026 14.402C0.680629 13.7941 0.640269 12.0551 1.84037 11.3908L19.5984 1.56041C20.8135 0.887735 22.2906 0.893558 23.5004 1.57579L41.3412 11.6366C42.4652 12.2704 42.4151 13.9057 41.2543 14.4695L23.2394 23.2193C22.1271 23.7595 20.8275 23.755 19.7191 23.2069L1.91026 14.402Z" fill="url(#paint1_linear_1144_274)"/>
<defs>
<linearGradient id="paint0_linear_1144_274" x1="1.19363" y1="12.129" x2="39.9567" y2="25.2178" gradientUnits="userSpaceOnUse">
<stop stop-color="#85CDFD"/>
<stop offset="0.112147" stop-color="#6FB2FB"/>
<stop offset="0.420106" stop-color="#5895F9"/>
<stop offset="0.679111" stop-color="#1D4DF5"/>
<stop offset="1" stop-color="#1640D6"/>
</linearGradient>
<linearGradient id="paint1_linear_1144_274" x1="2.7371" y1="12.6593" x2="41.0127" y2="14.1315" gradientUnits="userSpaceOnUse">
<stop stop-color="#85CDFD"/>
<stop offset="1" stop-color="#0099FF"/>
</linearGradient>
</defs>
</svg>
