<svg width="260" height="60" viewBox="0 0 260 60" fill="none" xmlns="http://www.w3.org/2000/svg">
  <path fill-rule="evenodd" clip-rule="evenodd"
    d="M10 55C10 52.2386 7.76142 50 5 50C2.23858 50 0 52.2386 0 55C0 57.7614 2.23858 60 5 60C7.76142 60 10 57.7614 10 55ZM60 55C60 52.2386 57.7614 50 55 50C52.2386 50 50 52.2386 50 55C50 57.7614 52.2386 60 55 60C57.7614 60 60 57.7614 60 55ZM105 50C107.761 50 110 52.2386 110 55C110 57.7614 107.761 60 105 60C102.239 60 100 57.7614 100 55C100 52.2386 102.239 50 105 50ZM160 55C160 52.2386 157.761 50 155 50C152.239 50 150 52.2386 150 55C150 57.7614 152.239 60 155 60C157.761 60 160 57.7614 160 55ZM205 50C207.761 50 210 52.2386 210 55C210 57.7614 207.761 60 205 60C202.239 60 200 57.7614 200 55C200 52.2386 202.239 50 205 50ZM260 55C260 52.2386 257.761 50 255 50C252.239 50 250 52.2386 250 55C250 57.7614 252.239 60 255 60C257.761 60 260 57.7614 260 55ZM5 0C7.76142 0 10 2.23857 10 5C10 7.76143 7.76142 10 5 10C2.23858 10 0 7.76143 0 5C0 2.23857 2.23858 0 5 0ZM60 5C60 2.23857 57.7614 0 55 0C52.2386 0 50 2.23857 50 5C50 7.76143 52.2386 10 55 10C57.7614 10 60 7.76143 60 5ZM105 0C107.761 0 110 2.23857 110 5C110 7.76143 107.761 10 105 10C102.239 10 100 7.76143 100 5C100 2.23857 102.239 0 105 0ZM160 5C160 2.23857 157.761 0 155 0C152.239 0 150 2.23857 150 5C150 7.76143 152.239 10 155 10C157.761 10 160 7.76143 160 5ZM205 0C207.761 0 210 2.23857 210 5C210 7.76143 207.761 10 205 10C202.239 10 200 7.76143 200 5C200 2.23857 202.239 0 205 0ZM260 5C260 2.23857 257.761 0 255 0C252.239 0 250 2.23857 250 5C250 7.76143 252.239 10 255 10C257.761 10 260 7.76143 260 5Z"
    fill="currentColor" />
</svg>
  