<svg width="24" height="24" viewBox="0 0 24 24" fill="none" xmlns="http://www.w3.org/2000/svg">
    <path d="M19.1111 19.7144V18.0001C19.1111 17.0908 18.7365 16.2187 18.0697 15.5757C17.4029 14.9328 16.4986 14.5715 15.5556 14.5715H8.44447C7.50148 14.5715 6.59711 14.9328 5.93031 15.5757C5.26352 16.2187 4.88892 17.0908 4.88892 18.0001V19.7144" stroke="currentColor" stroke-linecap="round" stroke-linejoin="round"/>
    <path d="M12 11.9999C14.2091 11.9999 16 10.273 16 8.14279C16 6.01255 14.2091 4.28564 12 4.28564C9.79086 4.28564 8 6.01255 8 8.14279C8 10.273 9.79086 11.9999 12 11.9999Z" stroke="currentColor" stroke-linecap="round" stroke-linejoin="round"/>
    <path d="M12 10.0714V8.14282" stroke="currentColor" stroke-width="0.67" stroke-linecap="round" stroke-linejoin="round"/>
    <path d="M12 6.69995H12.0052" stroke="currentColor" stroke-width="0.67" stroke-linecap="round" stroke-linejoin="round"/>
</svg>
