<svg width="24" height="24" viewBox="0 0 24 24" fill="none" xmlns="http://www.w3.org/2000/svg">
    <path d="M19.1111 19.7144V18.0001C19.1111 17.0908 18.7365 16.2187 18.0697 15.5757C17.4029 14.9328 16.4986 14.5715 15.5556 14.5715H8.44447C7.50148 14.5715 6.59711 14.9328 5.93031 15.5757C5.26352 16.2187 4.88892 17.0908 4.88892 18.0001V19.7144" stroke="currentColor" stroke-linecap="round" stroke-linejoin="round"/>
    <path d="M16 10.6087L14.2413 8.31471C14.1153 8.15042 13.8708 8.13761 13.7226 8.28213C13.2361 8.75653 12.2091 9.66558 11.4545 9.69565C11.0634 9.71124 10.7401 9.47333 10.5172 9.2365C10.3248 9.03197 9.98192 8.98576 9.78495 9.18594L8 11" stroke="currentColor" stroke-width="0.6"/>
    <rect x="9.87508" y="6.45833" width="0.833333" height="0.833333" rx="0.416667" stroke="currentColor" stroke-width="0.416667"/>
    <rect x="7.6" y="4.6" width="8.8" height="6.8" rx="1.23333" stroke="currentColor" stroke-width="0.8"/>
</svg>
