<svg width="24" height="24" viewBox="0 0 24 24" fill="none" xmlns="http://www.w3.org/2000/svg">
    <path d="M13.1816 3.81812H7.45436C7.02037 3.81812 6.60415 3.99052 6.29727 4.2974C5.9904 4.60427 5.81799 5.02049 5.81799 5.45448V18.5454C5.81799 18.9794 5.9904 19.3956 6.29727 19.7025C6.60415 20.0094 7.02037 20.1818 7.45436 20.1818H17.2725C17.7065 20.1818 18.1227 20.0094 18.4296 19.7025C18.7365 19.3956 18.9089 18.9794 18.9089 18.5454V9.54539L13.1816 3.81812Z" stroke="currentColor" stroke-width="0.818182" stroke-linecap="round" stroke-linejoin="round"/>
    <path d="M13.1819 3.81812V9.54539H18.9092" stroke="currentColor" stroke-width="0.818182" stroke-linecap="round" stroke-linejoin="round"/>
    <path d="M8.6 17.3C8.6 17.4657 8.46569 17.6 8.3 17.6C8.13431 17.6 8 17.4657 8 17.3C8 17.1343 8.13431 17 8.3 17C8.46569 17 8.6 17.1343 8.6 17.3Z" fill="currentColor"/>
    <path d="M10 17.3C10 17.4657 9.86569 17.6 9.7 17.6C9.53431 17.6 9.4 17.4657 9.4 17.3C9.4 17.1343 9.53431 17 9.7 17C9.86569 17 10 17.1343 10 17.3Z" fill="currentColor"/>
    <path d="M11.3 17.3C11.3 17.4657 11.1657 17.6 11 17.6C10.8343 17.6 10.7 17.4657 10.7 17.3C10.7 17.1343 10.8343 17 11 17C11.1657 17 11.3 17.1343 11.3 17.3Z" fill="currentColor"/>
    <path d="M8 12H15" stroke="currentColor" stroke-width="0.5" stroke-linecap="round"/>
    <path d="M8 13.5H16" stroke="currentColor" stroke-width="0.5" stroke-linecap="round"/>
    <path d="M8 15H15" stroke="currentColor" stroke-width="0.5" stroke-linecap="round"/>
</svg>
