<svg width="24" height="24" viewBox="0 0 24 24" fill="none" xmlns="http://www.w3.org/2000/svg">
<g clip-path="url(#clip0_1210_1129)">
<path d="M0.79934 17.6032C-0.0664839 17.3217 -0.00109239 16.3887 0.899517 16.174L11.5103 13.6436C11.9184 13.5463 12.3568 13.5469 12.764 13.6453L22.9455 16.1065C23.8342 16.3213 23.9026 17.2404 23.0513 17.5296L12.8892 20.9821C12.3606 21.1616 11.7552 21.1654 11.2235 20.9926L0.79934 17.6032Z" fill="url(#paint0_linear_1210_1129)"/>
<path d="M0.79934 12.9196C-0.0664839 12.6381 -0.00109239 11.7052 0.899517 11.4904L11.5103 8.96005C11.9184 8.86274 12.3568 8.86333 12.764 8.96175L22.9455 11.4229C23.8342 11.6377 23.9026 12.5568 23.0513 12.846L12.8892 16.2985C12.3606 16.478 11.7552 16.4819 11.2235 16.309L0.79934 12.9196Z" fill="url(#paint1_linear_1210_1129)"/>
<path d="M0.79934 8.23627C-0.0664839 7.95475 -0.00109239 7.0218 0.899517 6.80704L11.5103 4.2767C11.9184 4.17939 12.3568 4.17999 12.764 4.2784L22.9455 6.73955C23.8342 6.95439 23.9026 7.87348 23.0513 8.16268L12.8892 11.6151C12.3606 11.7947 11.7552 11.7985 11.2235 11.6256L0.79934 8.23627Z" fill="url(#paint2_linear_1210_1129)"/>
</g>
<defs>
<linearGradient id="paint0_linear_1210_1129" x1="2.82771" y1="16.4172" x2="21.6991" y2="17.4881" gradientUnits="userSpaceOnUse">
<stop stop-color="#0088EE"/>
<stop offset="1" stop-color="#1640D6"/>
</linearGradient>
<linearGradient id="paint1_linear_1210_1129" x1="2.82771" y1="11.7337" x2="21.6991" y2="12.8045" gradientUnits="userSpaceOnUse">
<stop stop-color="#22CC22"/>
<stop offset="1" stop-color="#37AB00"/>
</linearGradient>
<linearGradient id="paint2_linear_1210_1129" x1="2.82771" y1="7.05031" x2="21.6991" y2="8.12118" gradientUnits="userSpaceOnUse">
<stop stop-color="#FFCC00"/>
<stop offset="1" stop-color="#F3A000"/>
</linearGradient>
<clipPath id="clip0_1210_1129">
<rect width="24" height="24" fill="white"/>
</clipPath>
</defs>
</svg>
