<svg width="86" height="96" viewBox="0 0 86 96" fill="none" xmlns="http://www.w3.org/2000/svg">
<path d="M3.46048 72.8963C2.55461 72.3547 2 71.3769 1.99999 70.3214L1.99993 24.3212L42.1106 48.2196C42.7378 48.5933 43.5188 48.5956 44.1481 48.2255L84.57 24.4553L84.0201 70.342C84.0076 71.3863 83.4529 72.349 82.5556 72.8834L44.9743 95.2697C43.7109 96.0222 42.1366 96.0209 40.8745 95.2663L3.46048 72.8963Z" fill="url(#paint0_linear_1142_362)"/>
<path d="M2.9942 26.0219C1.66489 25.2418 1.6803 23.3147 3.02191 22.556L41.6394 0.717842C42.8708 0.0214984 44.3784 0.0273506 45.6043 0.733233L83.6374 22.6323C84.9655 23.3971 84.9753 25.3102 83.655 26.0885L45.4998 48.58C44.2489 49.3174 42.6966 49.319 41.4442 48.5841L2.9942 26.0219Z" fill="url(#paint1_linear_1142_362)"/>
<defs>
<linearGradient id="paint0_linear_1142_362" x1="2.38942" y1="21.8736" x2="80.6388" y2="48.2955" gradientUnits="userSpaceOnUse">
<stop stop-color="#85CDFD"/>
<stop offset="0.112147" stop-color="#6FB2FB"/>
<stop offset="0.420106" stop-color="#5895F9"/>
<stop offset="0.679111" stop-color="#1D4DF5"/>
<stop offset="1" stop-color="#1640D6"/>
</linearGradient>
<linearGradient id="paint1_linear_1142_362" x1="6.44475" y1="23.6645" x2="82.0773" y2="26.5735" gradientUnits="userSpaceOnUse">
<stop stop-color="#85CDFD"/>
<stop offset="1" stop-color="#0099FF"/>
</linearGradient>
</defs>
</svg>
