<svg width="64" height="64" viewBox="0 0 64 64" fill="none" xmlns="http://www.w3.org/2000/svg">
<g clip-path="url(#clip0_1210_1121)">
<path d="M2.13158 46.9415C-0.177288 46.1908 -0.00290781 43.7029 2.39872 43.1302L30.6942 36.3826C31.7824 36.1232 32.9516 36.1247 34.0373 36.3872L61.188 42.9503C63.558 43.5231 63.7402 45.9741 61.4702 46.7453L34.3711 55.9518C32.9616 56.4306 31.3473 56.4408 29.9294 55.9798L2.13158 46.9415Z" fill="url(#paint0_linear_1210_1121)"/>
<path d="M2.13158 34.4525C-0.177288 33.7018 -0.00290781 31.2139 2.39872 30.6412L30.6942 23.8936C31.7824 23.6341 32.9516 23.6357 34.0373 23.8982L61.188 30.4612C63.558 31.0341 63.7402 33.485 61.4702 34.2563L34.3711 43.4628C32.9616 43.9416 31.3473 43.9518 29.9294 43.4908L2.13158 34.4525Z" fill="url(#paint1_linear_1210_1121)"/>
<path d="M2.13158 21.9635C-0.177288 21.2128 -0.00290781 18.7249 2.39872 18.1522L30.6942 11.4046C31.7824 11.1451 32.9516 11.1467 34.0373 11.4092L61.188 17.9722C63.558 18.5451 63.7402 20.996 61.4702 21.7672L34.3711 30.9737C32.9616 31.4526 31.3473 31.4628 29.9294 31.0017L2.13158 21.9635Z" fill="url(#paint2_linear_1210_1121)"/>
</g>
<defs>
<linearGradient id="paint0_linear_1210_1121" x1="7.54056" y1="43.7789" x2="57.8642" y2="46.6346" gradientUnits="userSpaceOnUse">
<stop stop-color="#0088EE"/>
<stop offset="1" stop-color="#1640D6"/>
</linearGradient>
<linearGradient id="paint1_linear_1210_1121" x1="7.54056" y1="31.2899" x2="57.8642" y2="34.1456" gradientUnits="userSpaceOnUse">
<stop stop-color="#22CC22"/>
<stop offset="1" stop-color="#37AB00"/>
</linearGradient>
<linearGradient id="paint2_linear_1210_1121" x1="7.54056" y1="18.8009" x2="57.8642" y2="21.6566" gradientUnits="userSpaceOnUse">
<stop stop-color="#FFCC00"/>
<stop offset="1" stop-color="#F3A000"/>
</linearGradient>
<clipPath id="clip0_1210_1121">
<rect width="64" height="64" fill="white"/>
</clipPath>
</defs>
</svg>
