<svg width="64" height="64" viewBox="0 0 64 64" fill="none" xmlns="http://www.w3.org/2000/svg">
<g clip-path="url(#clip0_1257_560)">
<path d="M49.5705 15.7273C52.8644 19.4243 54.9768 23.9482 55.656 28.76C56.3352 33.5718 55.5527 38.4687 53.4016 42.8676C51.2357 47.276 47.7995 51.0031 43.4957 53.6118C39.1919 56.2205 34.1991 57.6026 29.1025 57.5961L20.1901 56.1497C14.9751 54.4137 10.4534 51.1721 7.25057 46.8733C4.0477 42.5745 2.32189 37.4309 2.31183 32.154V32.0089H38.0327C42.98 32.0089 46.9629 28.203 46.9629 23.4756V15.3689" fill="#66BBFE"/>
<path d="M5.93739 44.8C9.11203 50.0909 14.1676 54.1179 20.1855 56.1494L29.0979 57.6C38.7425 57.6 47.5298 52.6464 52.2807 44.8H5.93292H5.93739Z" fill="#F3F5F7"/>
<path d="M27.6846 44.8V61.8795C22.7328 61.8795 18.7544 58.0737 18.7544 53.3462V44.8128" fill="#66BBFE"/>
<path d="M49.4988 13.5723C49.0753 13.5822 48.6634 13.7074 48.3113 13.9327C47.9593 14.158 47.6816 14.4742 47.5107 14.8447C47.3398 15.2152 47.2827 15.6246 47.3462 16.0249C47.4096 16.4252 47.591 16.7996 47.8691 17.1051C50.8886 20.4897 52.8255 24.633 53.4486 29.0405C54.0717 33.4481 53.3547 37.9341 51.3831 41.9629C49.3979 46.0053 46.247 49.4228 42.3004 51.814C38.3538 54.2052 34.5706 55.4751 29.8976 55.4669C29.3054 55.4669 28.7376 55.6918 28.3189 56.0919C27.9002 56.492 27.665 57.0345 27.665 57.6003C27.665 58.166 27.9002 58.709 28.3189 59.1091C28.7376 59.5092 29.3054 59.7336 29.8976 59.7336C35.4188 59.7407 40.0324 58.2388 44.6945 55.4124C49.3566 52.586 53.0787 48.548 55.424 43.7718C57.7536 39.0025 58.6006 33.6945 57.8645 28.4785C57.1283 23.2626 54.8399 18.3581 51.2715 14.3489C51.0567 14.0997 50.7856 13.9006 50.4786 13.766C50.1715 13.6315 49.8365 13.5652 49.4988 13.5723Z" fill="url(#paint0_linear_1257_560)"/>
<path d="M61.5025 2.13354V8.53354C61.5025 12.0749 58.5153 14.9335 54.8048 14.9335H41.4095C37.7035 14.9335 34.7119 12.0749 34.7119 8.53354V2.13354" fill="#66BBFE"/>
<path d="M46.927 13.2051C46.3365 13.2141 45.7737 13.4463 45.362 13.8509C44.9502 14.2556 44.723 14.7996 44.7302 15.364V23.4707C44.7302 27.0547 41.7832 29.8707 38.0326 29.8707H2.31172C1.71961 29.8707 1.15175 30.0951 0.733062 30.4952C0.314377 30.8953 0.0791626 31.4383 0.0791626 32.0041V32.153C0.0921673 37.8712 1.96257 43.4446 5.43214 48.1035C8.90171 52.7625 13.7993 56.2775 19.4488 58.1629C19.728 58.265 20.0258 58.3123 20.3245 58.3025C20.6233 58.2927 20.917 58.2257 21.1882 58.1056C21.4594 57.9856 21.7027 57.815 21.9037 57.6035C22.1047 57.3921 22.2593 57.1444 22.3584 56.8749C22.4575 56.6054 22.4991 56.3194 22.4806 56.0343C22.4622 55.7492 22.3842 55.4708 22.2511 55.215C22.1181 54.9592 21.9327 54.7314 21.706 54.5452C21.4793 54.359 21.2158 54.2179 20.9312 54.1306C11.7867 51.0629 5.70966 43.1785 4.87468 34.1374H38.0326C44.1765 34.1374 49.1953 29.3459 49.1953 23.4707V15.364C49.1989 15.0788 49.1427 14.7957 49.0298 14.5317C48.917 14.2676 48.7499 14.0277 48.5385 13.8265C48.327 13.6252 48.0754 13.4666 47.7986 13.3598C47.5219 13.253 47.2255 13.2005 46.927 13.2051Z" fill="#126DB4"/>
<path d="M46.927 13.2051C46.3365 13.2141 45.7737 13.4463 45.362 13.8509C44.9502 14.2556 44.723 14.7996 44.7302 15.364V23.4707C44.7302 27.0547 41.7832 29.8707 38.0326 29.8707H2.31172C1.71961 29.8707 1.15175 30.0951 0.733062 30.4952C0.314377 30.8953 0.0791626 31.4383 0.0791626 32.0041V32.153C0.0921673 37.8712 1.96257 43.4446 5.43214 48.1035C8.90171 52.7625 13.7993 56.2775 19.4488 58.1629C19.728 58.265 20.0258 58.3123 20.3245 58.3025C20.6233 58.2927 20.917 58.2257 21.1882 58.1056C21.4594 57.9856 21.7027 57.815 21.9037 57.6035C22.1047 57.3921 22.2593 57.1444 22.3584 56.8749C22.4575 56.6054 22.4991 56.3194 22.4806 56.0343C22.4622 55.7492 22.3842 55.4708 22.2511 55.215C22.1181 54.9592 21.9327 54.7314 21.706 54.5452C21.4793 54.359 21.2158 54.2179 20.9312 54.1306C11.7867 51.0629 5.70966 43.1785 4.87468 34.1374H38.0326C44.1765 34.1374 49.1953 29.3459 49.1953 23.4707V15.364C49.1989 15.0788 49.1427 14.7957 49.0298 14.5317C48.917 14.2676 48.7499 14.0277 48.5385 13.8265C48.327 13.6252 48.0754 13.4666 47.7986 13.3598C47.5219 13.253 47.2255 13.2005 46.927 13.2051Z" fill="url(#paint1_linear_1257_560)"/>
<path d="M34.9588 -0.00439453C34.3666 -0.00439453 33.7988 0.220528 33.3801 0.620606C32.9614 1.02068 32.7262 1.56314 32.7262 2.12894C32.7262 2.69473 32.9614 3.23772 33.3801 3.63779C33.7988 4.03787 34.3666 4.26227 34.9588 4.26227H43.889C45.166 4.26227 46.1215 5.17961 46.1215 6.39561C46.1215 6.9614 46.3567 7.50438 46.7754 7.90446C47.1941 8.30454 47.762 8.52894 48.3541 8.52894C48.9462 8.52894 49.514 8.30454 49.9327 7.90446C50.3514 7.50438 50.5866 6.9614 50.5866 6.39561C50.5866 2.88841 47.5593 -0.00439453 43.889 -0.00439453H34.9588Z" fill="#66BBFE"/>
<path d="M52.8192 -0.00439453C49.1489 -0.00439453 46.1216 2.88841 46.1216 6.39561C46.1216 6.9614 46.3568 7.50438 46.7755 7.90446C47.1942 8.30454 47.762 8.52894 48.3541 8.52894C48.9462 8.52894 49.5141 8.30454 49.9328 7.90446C50.3515 7.50438 50.5867 6.9614 50.5867 6.39561C50.5867 5.17961 51.5422 4.26227 52.8192 4.26227H61.7494C62.3416 4.26227 62.9094 4.03787 63.3281 3.63779C63.7468 3.23772 63.982 2.69473 63.982 2.12894C63.982 1.56314 63.7468 1.02068 63.3281 0.620606C62.9094 0.220528 62.3416 -0.00439453 61.7494 -0.00439453H52.8192Z" fill="#66BBFE"/>
<path d="M34.9411 -0.0302413C34.3505 -0.0212525 33.7877 0.210949 33.376 0.615592C32.9642 1.02024 32.7371 1.56426 32.7442 2.12861V8.52861C32.7442 13.2219 36.7628 17.0619 41.6745 17.0619H48.6957H55.0698C59.9814 17.0619 64 13.2219 64 8.52861V2.12861C64 1.56282 63.7648 1.02036 63.3461 0.62028C62.9274 0.220202 62.3595 -0.00472046 61.7674 -0.00472046C61.1753 -0.00472046 60.6075 0.220202 60.1888 0.62028C59.7701 1.02036 59.5349 1.56282 59.5349 2.12861V8.52861C59.5349 10.9307 57.5836 12.7953 55.0698 12.7953H41.6745C39.1606 12.7953 37.2094 10.9307 37.2094 8.52861V2.12861C37.213 1.84342 37.1567 1.56038 37.0439 1.29632C36.9311 1.03226 36.764 0.792914 36.5525 0.591634C36.341 0.390353 36.0895 0.231212 35.8127 0.124446C35.5359 0.0176806 35.2395 -0.0348257 34.9411 -0.0302413Z" fill="#66BBFE"/>
<path d="M29.1524 42.6667C28.5881 42.6757 28.0504 42.9079 27.6569 43.3126C27.2635 43.7172 27.0464 44.2613 27.0532 44.8256V58.9058C24.6724 57.9757 22.7866 56.1196 22.7866 53.3761V44.8428C22.7866 44.277 22.5618 43.7345 22.1617 43.3345C21.7616 42.9344 21.219 42.7095 20.6532 42.7095C20.0874 42.7095 19.5448 42.9344 19.1447 43.3345C18.7447 43.7345 18.5199 44.277 18.5199 44.8428V53.3761C19.1447 59.1514 21.5652 61.1556 29.1866 64.0428C29.7509 64.0428 30.2922 63.8191 30.6921 63.4209C31.0919 63.0227 31.3176 62.4821 31.3199 61.9178V44.8345C31.3234 44.5493 31.2696 44.2662 31.1618 44.0022C31.054 43.7381 30.8943 43.4982 30.6922 43.297C30.4902 43.0957 30.2498 42.9371 29.9853 42.8303C29.7208 42.7235 29.4376 42.671 29.1524 42.6756V42.6667Z" fill="#66BBFE"/>
<g clip-path="url(#clip1_1257_560)">
<rect x="9.73914" y="38.4001" width="4.17391" height="4.26667" rx="2.08696" fill="#126DB4"/>
<path d="M13.913 40.5335C13.913 39.3562 12.9778 38.4001 11.8261 38.4001C11.8184 38.4001 11.8184 38.4001 11.8106 38.4001C10.6667 38.408 9.73914 39.3641 9.73914 40.5335C9.73914 41.7108 10.6744 42.6668 11.8261 42.6668H11.8338C12.9855 42.6589 13.913 41.7029 13.913 40.5335ZM9.89373 40.6125H10.5121C10.5198 40.9206 10.5894 41.2209 10.6976 41.4974C10.5662 41.5843 10.4425 41.6792 10.3266 41.7898C10.0715 41.4658 9.90918 41.055 9.89373 40.6125ZM10.3266 39.2851C10.4425 39.3957 10.5662 39.4905 10.6976 39.5774C10.5894 39.8461 10.5275 40.1463 10.5121 40.4545H9.89373C9.90918 40.012 10.0715 39.609 10.3266 39.2851ZM13.7585 40.4545H13.1401C13.1324 40.1463 13.0628 39.8461 12.9546 39.5695C13.086 39.4826 13.2097 39.3878 13.3256 39.2772C13.5807 39.6011 13.743 40.012 13.7585 40.4545ZM12.9855 40.4545H11.9034V39.9014C12.228 39.8856 12.5372 39.8066 12.8155 39.6564C12.9159 39.9014 12.9701 40.17 12.9855 40.4545ZM11.9034 39.7434V38.6056C12.2667 38.8031 12.5604 39.1192 12.7536 39.5063C12.4908 39.6485 12.2048 39.7276 11.9034 39.7434ZM11.7488 39.7434C11.4473 39.7355 11.1614 39.6564 10.8986 39.5142C11.0841 39.1271 11.3778 38.8031 11.7488 38.6056V39.7434ZM11.7488 39.9014V40.4545H10.6667C10.6744 40.17 10.7362 39.9014 10.829 39.6564C11.115 39.8066 11.4242 39.8856 11.7488 39.9014ZM10.6667 40.6125H11.7488V41.1656C11.4242 41.1814 11.115 41.2604 10.8367 41.4105C10.7362 41.1656 10.6821 40.8969 10.6667 40.6125ZM11.7488 41.3236V42.4614C11.3855 42.2639 11.0918 41.9478 10.8986 41.5606C11.1614 41.4184 11.4473 41.3394 11.7488 41.3236ZM11.9034 41.3236C12.2048 41.3315 12.4908 41.4184 12.7536 41.5527C12.5681 41.9399 12.2744 42.2639 11.9034 42.4614V41.3236ZM11.9034 41.1656V40.6125H12.9855C12.9778 40.8969 12.9159 41.1656 12.8232 41.4105C12.5372 41.2604 12.228 41.1814 11.9034 41.1656ZM13.1401 40.6125H13.7585C13.743 41.055 13.5807 41.4658 13.3179 41.7819C13.2019 41.6713 13.0783 41.5685 12.9469 41.4895C13.0628 41.2209 13.1246 40.9206 13.1401 40.6125ZM13.2097 39.1587C13.1092 39.2614 12.9932 39.3483 12.8773 39.4273C12.7073 39.0876 12.4676 38.8031 12.1662 38.5898C12.5759 38.6688 12.9391 38.8742 13.2097 39.1587ZM11.4628 38.5898C11.1691 38.8031 10.9295 39.0876 10.7594 39.4273C10.6435 39.3483 10.5275 39.2614 10.4271 39.1587C10.7053 38.8742 11.0609 38.6688 11.4628 38.5898ZM10.4425 41.9083C10.543 41.8056 10.6512 41.7187 10.7749 41.6397C10.9449 41.9794 11.1845 42.2639 11.486 42.4772C11.0763 42.3982 10.713 42.1927 10.4425 41.9083ZM12.1894 42.4772C12.4831 42.2639 12.7227 41.9794 12.8928 41.6397C13.0087 41.7187 13.1169 41.8056 13.2251 41.9083C12.9469 42.1927 12.5836 42.3982 12.1894 42.4772Z" fill="#66BBFE"/>
</g>
</g>
<defs>
<linearGradient id="paint0_linear_1257_560" x1="42.8937" y1="13.5718" x2="42.8937" y2="59.7336" gradientUnits="userSpaceOnUse">
<stop stop-color="#66BBFE"/>
<stop offset="1" stop-color="#126DB4"/>
</linearGradient>
<linearGradient id="paint1_linear_1257_560" x1="24.6373" y1="13.2048" x2="24.6373" y2="58.3038" gradientUnits="userSpaceOnUse">
<stop stop-color="#66BBFE"/>
<stop offset="1" stop-color="#126DB4"/>
</linearGradient>
<clipPath id="clip0_1257_560">
<rect width="64" height="64" fill="white"/>
</clipPath>
<clipPath id="clip1_1257_560">
<rect x="9.73914" y="38.4001" width="4.17391" height="4.26667" rx="2.08696" fill="white"/>
</clipPath>
</defs>
</svg>
