<svg width="48" height="48" viewBox="0 0 48 48" fill="none" xmlns="http://www.w3.org/2000/svg">
<g clip-path="url(#clip0_1257_573)">
<path d="M37.1779 11.7954C39.6483 14.5682 41.2326 17.9611 41.742 21.5699C42.2514 25.1788 41.6645 28.8515 40.0512 32.1506C38.4268 35.457 35.8496 38.2523 32.6218 40.2088C29.394 42.1653 25.6493 43.2019 21.8269 43.197L15.1426 42.1122C11.2313 40.8102 7.8401 38.379 5.43794 35.1549C3.03579 31.9308 1.74143 28.0731 1.73389 24.1154V24.0066H28.5245C32.235 24.0066 35.2222 21.1522 35.2222 17.6066V11.5266" fill="#66BBFE"/>
<path d="M4.45306 33.5999C6.83404 37.568 10.6257 40.5882 15.1392 42.1119L21.8234 43.1999C29.0569 43.1999 35.6474 39.4847 39.2105 33.5999H4.44971H4.45306Z" fill="#F3F5F7"/>
<path d="M20.7635 33.5999V46.4095C17.0496 46.4095 14.0658 43.5551 14.0658 40.0095V33.6095" fill="#66BBFE"/>
<path d="M37.1241 10.1791C36.8064 10.1865 36.4975 10.2805 36.2335 10.4494C35.9694 10.6184 35.7611 10.8555 35.633 11.1334C35.5048 11.4113 35.462 11.7183 35.5096 12.0186C35.5572 12.3188 35.6932 12.5996 35.9018 12.8287C38.1665 15.3672 39.6191 18.4746 40.0864 21.7803C40.5537 25.0859 40.016 28.4504 38.5373 31.4721C37.0484 34.5039 34.6852 37.067 31.7253 38.8604C28.7653 40.6537 25.9279 41.6062 22.4231 41.6001C21.9791 41.6001 21.5532 41.7688 21.2391 42.0688C20.9251 42.3689 20.7487 42.7757 20.7487 43.2001C20.7487 43.6244 20.9251 44.0316 21.2391 44.3317C21.5532 44.6318 21.9791 44.8001 22.4231 44.8001C26.5641 44.8054 30.0242 43.679 33.5208 41.5592C37.0174 39.4394 39.809 36.4109 41.568 32.8287C43.3151 29.2517 43.9504 25.2708 43.3983 21.3588C42.8462 17.4468 41.1299 13.7684 38.4536 10.7615C38.2925 10.5747 38.0892 10.4253 37.8589 10.3244C37.6286 10.2235 37.3774 10.1737 37.1241 10.1791Z" fill="url(#paint0_linear_1257_573)"/>
<path d="M46.1268 1.6001V6.4001C46.1268 9.0561 43.8865 11.2001 41.1036 11.2001H31.0571C28.2776 11.2001 26.0339 9.0561 26.0339 6.4001V1.6001" fill="#66BBFE"/>
<path d="M35.1953 9.90377C34.7524 9.91051 34.3303 10.0847 34.0215 10.3881C33.7127 10.6916 33.5423 11.0997 33.5477 11.5229V17.603C33.5477 20.291 31.3374 22.403 28.5244 22.403H1.7338C1.28972 22.403 0.863825 22.5713 0.549812 22.8713C0.235798 23.1714 0.0593872 23.5786 0.0593872 24.003V24.1147C0.0691407 28.4033 1.47194 32.5834 4.07412 36.0776C6.6763 39.5718 10.3495 42.2081 14.5866 43.6221C14.796 43.6987 15.0193 43.7342 15.2434 43.7268C15.4675 43.7195 15.6877 43.6692 15.8912 43.5792C16.0946 43.4891 16.2771 43.3612 16.4278 43.2026C16.5786 43.044 16.6945 42.8582 16.7688 42.6561C16.8431 42.454 16.8743 42.2395 16.8605 42.0256C16.8467 41.8118 16.7881 41.603 16.6883 41.4112C16.5886 41.2193 16.4495 41.0485 16.2795 40.9088C16.1095 40.7692 15.9119 40.6634 15.6984 40.5979C8.84002 38.2971 4.28226 32.3838 3.65603 25.603H28.5244C33.1324 25.603 36.8965 22.0094 36.8965 17.603V11.5229C36.8992 11.309 36.857 11.0967 36.7724 10.8987C36.6878 10.7007 36.5625 10.5207 36.4039 10.3698C36.2453 10.2188 36.0566 10.0999 35.849 10.0198C35.6414 9.93971 35.4191 9.90033 35.1953 9.90377Z" fill="#126DB4"/>
<path d="M35.1953 9.90377C34.7524 9.91051 34.3303 10.0847 34.0215 10.3881C33.7127 10.6916 33.5423 11.0997 33.5477 11.5229V17.603C33.5477 20.291 31.3374 22.403 28.5244 22.403H1.7338C1.28972 22.403 0.863825 22.5713 0.549812 22.8713C0.235798 23.1714 0.0593872 23.5786 0.0593872 24.003V24.1147C0.0691407 28.4033 1.47194 32.5834 4.07412 36.0776C6.6763 39.5718 10.3495 42.2081 14.5866 43.6221C14.796 43.6987 15.0193 43.7342 15.2434 43.7268C15.4675 43.7195 15.6877 43.6692 15.8912 43.5792C16.0946 43.4891 16.2771 43.3612 16.4278 43.2026C16.5786 43.044 16.6945 42.8582 16.7688 42.6561C16.8431 42.454 16.8743 42.2395 16.8605 42.0256C16.8467 41.8118 16.7881 41.603 16.6883 41.4112C16.5886 41.2193 16.4495 41.0485 16.2795 40.9088C16.1095 40.7692 15.9119 40.6634 15.6984 40.5979C8.84002 38.2971 4.28226 32.3838 3.65603 25.603H28.5244C33.1324 25.603 36.8965 22.0094 36.8965 17.603V11.5229C36.8992 11.309 36.857 11.0967 36.7724 10.8987C36.6878 10.7007 36.5625 10.5207 36.4039 10.3698C36.2453 10.2188 36.0566 10.0999 35.849 10.0198C35.6414 9.93971 35.4191 9.90033 35.1953 9.90377Z" fill="url(#paint1_linear_1257_573)"/>
<path d="M26.2191 -0.00341797C25.775 -0.00341797 25.3491 0.165274 25.0351 0.465332C24.7211 0.76539 24.5447 1.17224 24.5447 1.59658C24.5447 2.02093 24.7211 2.42816 25.0351 2.72822C25.3491 3.02828 25.775 3.19658 26.2191 3.19658H32.9168C33.8745 3.19658 34.5912 3.88458 34.5912 4.79658C34.5912 5.22093 34.7676 5.62816 35.0816 5.92822C35.3956 6.22828 35.8215 6.39658 36.2656 6.39658C36.7097 6.39658 37.1356 6.22828 37.4496 5.92822C37.7636 5.62816 37.94 5.22093 37.94 4.79658C37.94 2.16618 35.6695 -0.00341797 32.9168 -0.00341797H26.2191Z" fill="#66BBFE"/>
<path d="M39.6144 -0.00341797C36.8617 -0.00341797 34.5912 2.16618 34.5912 4.79658C34.5912 5.22093 34.7676 5.62816 35.0816 5.92822C35.3956 6.22828 35.8215 6.39658 36.2656 6.39658C36.7097 6.39658 37.1356 6.22828 37.4496 5.92822C37.7636 5.62816 37.94 5.22093 37.94 4.79658C37.94 3.88458 38.6567 3.19658 39.6144 3.19658H46.3121C46.7562 3.19658 47.1821 3.02828 47.4961 2.72822C47.8101 2.42816 47.9865 2.02093 47.9865 1.59658C47.9865 1.17224 47.8101 0.76539 47.4961 0.465332C47.1821 0.165274 46.7562 -0.00341797 46.3121 -0.00341797H39.6144Z" fill="#66BBFE"/>
<path d="M26.2058 -0.022742C25.7629 -0.0160004 25.3408 0.158151 25.032 0.461633C24.7232 0.765115 24.5528 1.17314 24.5582 1.5964V6.3964C24.5582 9.9164 27.5721 12.7964 31.2558 12.7964H36.5217H41.3023C44.986 12.7964 48 9.9164 48 6.3964V1.5964C48 1.17205 47.8236 0.765207 47.5095 0.465149C47.1955 0.16509 46.7696 -0.00360138 46.3256 -0.00360138C45.8815 -0.00360138 45.4556 0.16509 45.1416 0.465149C44.8275 0.765207 44.6511 1.17205 44.6511 1.5964V6.3964C44.6511 8.198 43.1877 9.5964 41.3023 9.5964H31.2558C29.3704 9.5964 27.907 8.198 27.907 6.3964V1.5964C27.9097 1.3825 27.8675 1.17022 27.7829 0.97218C27.6983 0.774137 27.573 0.594625 27.4144 0.443664C27.2558 0.292704 27.0671 0.173348 26.8595 0.0932736C26.6519 0.0131994 26.4296 -0.0261803 26.2058 -0.022742Z" fill="#66BBFE"/>
<path d="M21.8643 32C21.4411 32.0067 21.0377 32.1809 20.7426 32.4844C20.4476 32.7879 20.2848 33.1959 20.2899 33.6191V44.1793C18.5043 43.4817 17.0899 42.0896 17.0899 40.032V33.632C17.0899 33.2077 16.9213 32.8008 16.6213 32.5008C16.3212 32.2007 15.9142 32.032 15.4899 32.032C15.0655 32.032 14.6586 32.2007 14.3585 32.5008C14.0585 32.8008 13.8899 33.2077 13.8899 33.632V40.032C14.3585 44.3635 16.1739 45.8667 21.8899 48.032C22.3131 48.032 22.7191 47.8643 23.019 47.5656C23.3189 47.2669 23.4882 46.8615 23.4899 46.4383V33.6258C23.4925 33.4119 23.4522 33.1996 23.3713 33.0016C23.2905 32.8035 23.1707 32.6236 23.0191 32.4727C22.8676 32.3217 22.6873 32.2027 22.4889 32.1227C22.2906 32.0426 22.0782 32.0032 21.8643 32.0066V32Z" fill="#66BBFE"/>
<g clip-path="url(#clip1_1257_573)">
<rect x="7.30432" y="28.8" width="3.13043" height="3.2" rx="1.56522" fill="#126DB4"/>
<path d="M10.4348 30.4C10.4348 29.5171 9.73331 28.8 8.86954 28.8C8.86374 28.8 8.86374 28.8 8.85794 28.8C7.99997 28.806 7.30432 29.523 7.30432 30.4C7.30432 31.283 8.00577 32 8.86954 32H8.87534C9.7391 31.9941 10.4348 31.2771 10.4348 30.4ZM7.42026 30.4593H7.88403C7.88983 30.6904 7.942 30.9156 8.02316 31.123C7.92461 31.1882 7.83186 31.2593 7.7449 31.3423C7.5536 31.0993 7.43186 30.7912 7.42026 30.4593ZM7.7449 29.4638C7.83186 29.5467 7.92461 29.6178 8.02316 29.683C7.942 29.8845 7.89563 30.1097 7.88403 30.3408H7.42026C7.43186 30.0089 7.5536 29.7067 7.7449 29.4638ZM10.3188 30.3408H9.85505C9.84925 30.1097 9.79707 29.8845 9.71592 29.6771C9.81447 29.6119 9.90722 29.5408 9.99418 29.4578C10.1855 29.7008 10.3072 30.0089 10.3188 30.3408ZM9.7391 30.3408H8.92751V29.926C9.17099 29.9141 9.40287 29.8549 9.61157 29.7423C9.68693 29.926 9.72751 30.1275 9.7391 30.3408ZM8.92751 29.8075V28.9541C9.19997 29.1023 9.42026 29.3393 9.56519 29.6297C9.36809 29.7363 9.1536 29.7956 8.92751 29.8075ZM8.81157 29.8075C8.58548 29.8015 8.37099 29.7423 8.17389 29.6356C8.31302 29.3452 8.53331 29.1023 8.81157 28.9541V29.8075ZM8.81157 29.926V30.3408H7.99997C8.00577 30.1275 8.05215 29.926 8.12171 29.7423C8.33621 29.8549 8.56809 29.9141 8.81157 29.926ZM7.99997 30.4593H8.81157V30.8741C8.56809 30.886 8.33621 30.9452 8.12751 31.0578C8.05215 30.8741 8.01157 30.6726 7.99997 30.4593ZM8.81157 30.9926V31.846C8.5391 31.6978 8.31881 31.4608 8.17389 31.1704C8.37099 31.0638 8.58548 31.0045 8.81157 30.9926ZM8.92751 30.9926C9.1536 30.9986 9.36809 31.0638 9.56519 31.1645C9.42606 31.4549 9.20577 31.6978 8.92751 31.846V30.9926ZM8.92751 30.8741V30.4593H9.7391C9.73331 30.6726 9.68693 30.8741 9.61736 31.0578C9.40287 30.9452 9.17099 30.886 8.92751 30.8741ZM9.85505 30.4593H10.3188C10.3072 30.7912 10.1855 31.0993 9.98838 31.3363C9.90142 31.2534 9.80867 31.1763 9.71012 31.1171C9.79707 30.9156 9.84345 30.6904 9.85505 30.4593ZM9.90722 29.3689C9.83186 29.446 9.7449 29.5112 9.65794 29.5704C9.53041 29.3156 9.3507 29.1023 9.12461 28.9423C9.43186 29.0015 9.70432 29.1556 9.90722 29.3689ZM8.59707 28.9423C8.37678 29.1023 8.19707 29.3156 8.06954 29.5704C7.98258 29.5112 7.89563 29.446 7.82026 29.3689C8.02896 29.1556 8.29563 29.0015 8.59707 28.9423ZM7.83186 31.4312C7.90722 31.3541 7.98838 31.2889 8.08113 31.2297C8.20867 31.4845 8.38838 31.6978 8.61447 31.8578C8.30722 31.7986 8.03476 31.6445 7.83186 31.4312ZM9.142 31.8578C9.36229 31.6978 9.542 31.4845 9.66954 31.2297C9.7565 31.2889 9.83765 31.3541 9.91881 31.4312C9.71012 31.6445 9.43765 31.7986 9.142 31.8578Z" fill="#66BBFE"/>
</g>
</g>
<defs>
<linearGradient id="paint0_linear_1257_573" x1="32.1702" y1="10.1787" x2="32.1702" y2="44.8001" gradientUnits="userSpaceOnUse">
<stop stop-color="#66BBFE"/>
<stop offset="1" stop-color="#126DB4"/>
</linearGradient>
<linearGradient id="paint1_linear_1257_573" x1="18.478" y1="9.90356" x2="18.478" y2="43.7278" gradientUnits="userSpaceOnUse">
<stop stop-color="#66BBFE"/>
<stop offset="1" stop-color="#126DB4"/>
</linearGradient>
<clipPath id="clip0_1257_573">
<rect width="48" height="48" fill="white"/>
</clipPath>
<clipPath id="clip1_1257_573">
<rect x="7.30432" y="28.8" width="3.13043" height="3.2" rx="1.56522" fill="white"/>
</clipPath>
</defs>
</svg>
