<svg width="48" height="48" viewBox="0 0 48 48" fill="none" xmlns="http://www.w3.org/2000/svg">
<rect width="48" height="48" rx="12" fill="url(#paint0_linear_1130_414)"/>
<path d="M27.312 32.902C27.312 33.21 27.326 33.532 27.354 33.868C27.382 34.176 27.452 34.47 27.564 34.75C27.704 35.002 27.886 35.212 28.11 35.38C28.362 35.548 28.698 35.632 29.118 35.632C29.622 35.632 30.07 35.464 30.462 35.128C30.546 35.352 30.602 35.562 30.63 35.758C30.686 35.926 30.714 36.122 30.714 36.346C30.714 36.794 30.63 37.242 30.462 37.69C30.322 38.11 30.084 38.488 29.748 38.824C29.412 39.16 28.978 39.44 28.446 39.664C27.942 39.86 27.312 39.958 26.556 39.958C24.876 39.958 23.574 39.454 22.65 38.446C21.726 37.438 21.264 36.052 21.264 34.288V14.548C21.264 13.54 21.418 12.714 21.726 12.07C22.034 11.426 22.44 10.922 22.944 10.558C23.448 10.166 24.022 9.9 24.666 9.76C25.338 9.592 26.01 9.508 26.682 9.508H27.354L27.312 32.902ZM16.35 39.958C14.67 39.958 13.368 39.454 12.444 38.446C11.548 37.438 11.1 36.052 11.1 34.288V14.548C11.1 13.54 11.254 12.714 11.562 12.07C11.87 11.426 12.276 10.922 12.78 10.558C13.284 10.166 13.858 9.9 14.502 9.76C15.146 9.592 15.804 9.508 16.476 9.508H17.148V32.902C17.148 33.21 17.162 33.532 17.19 33.868C17.246 34.176 17.33 34.47 17.442 34.75C17.582 35.002 17.764 35.212 17.988 35.38C18.24 35.548 18.576 35.632 18.996 35.632C19.5 35.632 19.948 35.464 20.34 35.128C20.424 35.352 20.48 35.562 20.508 35.758C20.564 35.926 20.592 36.122 20.592 36.346C20.592 36.766 20.508 37.2 20.34 37.648C20.2 38.068 19.962 38.46 19.626 38.824C19.29 39.16 18.842 39.44 18.282 39.664C17.75 39.86 17.106 39.958 16.35 39.958ZM37.434 28.534C37.434 29.878 37.28 30.998 36.972 31.894C36.664 32.79 36.244 33.504 35.712 34.036C35.18 34.54 34.564 34.904 33.864 35.128C33.164 35.352 32.422 35.464 31.638 35.464H31.386V14.548C31.386 13.54 31.54 12.714 31.848 12.07C32.156 11.426 32.562 10.922 33.066 10.558C33.57 10.166 34.144 9.9 34.788 9.76C35.432 9.592 36.09 9.508 36.762 9.508H37.434V28.534Z" fill="white"/>
<defs>
<linearGradient id="paint0_linear_1130_414" x1="24" y1="0" x2="24" y2="48" gradientUnits="userSpaceOnUse">
<stop stop-color="#106CFF"/>
<stop offset="1" stop-color="#003EA0"/>
</linearGradient>
</defs>
</svg>
