<svg width="58" height="64" viewBox="0 0 58 64" fill="none" xmlns="http://www.w3.org/2000/svg">
<path d="M2.57871 50.4703C1.60645 49.9472 1.00006 48.9324 1.00006 47.8283L1.0001 17.1162L27.8815 31.0278C28.4542 31.3242 29.1348 31.3262 29.7093 31.0332L57 17.1162V47.7369C57 48.8496 56.3841 49.871 55.3999 50.3902L30.5412 63.5055C29.363 64.1272 27.9527 64.1214 26.7796 63.4903L2.57871 50.4703Z" fill="url(#paint0_linear_1144_271)"/>
<path d="M2.00357 18.3982C0.720033 17.7499 0.677368 15.9326 1.92907 15.2247L27.0527 1.01734C28.2831 0.321532 29.7894 0.326805 31.0149 1.0312L56.0788 15.4372C57.3263 16.1542 57.2699 17.9726 55.9804 18.611L30.7249 31.1127C29.5965 31.6712 28.2709 31.6659 27.147 31.0982L2.00357 18.3982Z" fill="url(#paint1_linear_1144_271)"/>
<defs>
<linearGradient id="paint0_linear_1144_271" x1="1.33739" y1="15.7464" x2="54.0755" y2="33.5541" gradientUnits="userSpaceOnUse">
<stop stop-color="#85CDFD"/>
<stop offset="0.112147" stop-color="#6FB2FB"/>
<stop offset="0.420106" stop-color="#5895F9"/>
<stop offset="0.679111" stop-color="#1D4DF5"/>
<stop offset="1" stop-color="#1640D6"/>
</linearGradient>
<linearGradient id="paint1_linear_1144_271" x1="3.43737" y1="16.4678" x2="55.5122" y2="18.4706" gradientUnits="userSpaceOnUse">
<stop stop-color="#85CDFD"/>
<stop offset="1" stop-color="#0099FF"/>
</linearGradient>
</defs>
</svg>
