<svg width="24" height="24" viewBox="0 0 24 24" fill="none" xmlns="http://www.w3.org/2000/svg">
<rect width="24" height="24" rx="6" fill="url(#paint0_linear_1130_417)"/>
<path d="M13.72 16.62C13.72 16.7667 13.7267 16.92 13.74 17.08C13.7533 17.2267 13.7867 17.3667 13.84 17.5C13.9067 17.62 13.9933 17.72 14.1 17.8C14.22 17.88 14.38 17.92 14.58 17.92C14.82 17.92 15.0333 17.84 15.22 17.68C15.26 17.7867 15.2867 17.8867 15.3 17.98C15.3267 18.06 15.34 18.1533 15.34 18.26C15.34 18.4733 15.3 18.6867 15.22 18.9C15.1533 19.1 15.04 19.28 14.88 19.44C14.72 19.6 14.5133 19.7333 14.26 19.84C14.02 19.9333 13.72 19.98 13.36 19.98C12.56 19.98 11.94 19.74 11.5 19.26C11.06 18.78 10.84 18.12 10.84 17.28V7.88C10.84 7.4 10.9133 7.00667 11.06 6.7C11.2067 6.39333 11.4 6.15333 11.64 5.98C11.88 5.79333 12.1533 5.66667 12.46 5.6C12.78 5.52 13.1 5.48 13.42 5.48H13.74L13.72 16.62ZM8.5 19.98C7.7 19.98 7.08 19.74 6.64 19.26C6.21333 18.78 6 18.12 6 17.28V7.88C6 7.4 6.07333 7.00667 6.22 6.7C6.36667 6.39333 6.56 6.15333 6.8 5.98C7.04 5.79333 7.31333 5.66667 7.62 5.6C7.92667 5.52 8.24 5.48 8.56 5.48H8.88V16.62C8.88 16.7667 8.88667 16.92 8.9 17.08C8.92667 17.2267 8.96667 17.3667 9.02 17.5C9.08667 17.62 9.17333 17.72 9.28 17.8C9.4 17.88 9.56 17.92 9.76 17.92C10 17.92 10.2133 17.84 10.4 17.68C10.44 17.7867 10.4667 17.8867 10.48 17.98C10.5067 18.06 10.52 18.1533 10.52 18.26C10.52 18.46 10.48 18.6667 10.4 18.88C10.3333 19.08 10.22 19.2667 10.06 19.44C9.9 19.6 9.68667 19.7333 9.42 19.84C9.16667 19.9333 8.86 19.98 8.5 19.98ZM18.54 14.54C18.54 15.18 18.4667 15.7133 18.32 16.14C18.1733 16.5667 17.9733 16.9067 17.72 17.16C17.4667 17.4 17.1733 17.5733 16.84 17.68C16.5067 17.7867 16.1533 17.84 15.78 17.84H15.66V7.88C15.66 7.4 15.7333 7.00667 15.88 6.7C16.0267 6.39333 16.22 6.15333 16.46 5.98C16.7 5.79333 16.9733 5.66667 17.28 5.6C17.5867 5.52 17.9 5.48 18.22 5.48H18.54V14.54Z" fill="white"/>
<defs>
<linearGradient id="paint0_linear_1130_417" x1="12" y1="0" x2="12" y2="24" gradientUnits="userSpaceOnUse">
<stop stop-color="#106CFF"/>
<stop offset="1" stop-color="#003EA0"/>
</linearGradient>
</defs>
</svg>
