<svg width="96" height="96" viewBox="0 0 96 96" fill="none" xmlns="http://www.w3.org/2000/svg">
<g clip-path="url(#clip0_1257_541)">
<path d="M74.3557 23.5908C79.2966 29.1363 82.4651 35.9221 83.4839 43.1398C84.5028 50.3575 83.329 57.703 80.1023 64.3012C76.8536 70.9139 71.6992 76.5046 65.2435 80.4176C58.7879 84.3306 51.2985 86.4037 43.6537 86.394L30.2851 84.2244C22.4626 81.6204 15.6801 76.7581 10.8758 70.3099C6.07152 63.8617 3.4828 56.1463 3.46771 48.2308V48.0132H57.049C64.47 48.0132 70.4443 42.3044 70.4443 35.2132V23.0532" fill="#66BBFE"/>
<path d="M8.90605 67.2C13.668 75.1362 21.2514 81.1767 30.2783 84.2239L43.6468 86.4C58.1137 86.4 71.2947 78.9696 78.421 67.2H8.89935H8.90605Z" fill="#F3F5F7"/>
<path d="M41.527 67.2V92.8192C34.0993 92.8192 28.1317 87.1104 28.1317 80.0192V67.2192" fill="#66BBFE"/>
<path d="M74.2483 20.3582C73.6129 20.3731 72.9951 20.5609 72.467 20.8988C71.9389 21.2367 71.5224 21.7111 71.266 22.2668C71.0096 22.8225 70.9241 23.4367 71.0193 24.0371C71.1145 24.6376 71.3865 25.1992 71.8036 25.6574C76.333 30.7343 79.2383 36.9492 80.1729 43.5605C81.1075 50.1719 80.032 56.9008 77.0747 62.9441C74.0968 69.0077 69.3705 74.1339 63.4506 77.7207C57.5307 81.3075 51.8559 83.2124 44.8463 83.2001C43.9582 83.2001 43.1064 83.5375 42.4784 84.1376C41.8503 84.7378 41.4975 85.5514 41.4975 86.4001C41.4975 87.2488 41.8503 88.0633 42.4784 88.6634C43.1064 89.2635 43.9582 89.6001 44.8463 89.6001C53.1282 89.6108 60.0486 87.3579 67.0417 83.1184C74.0349 78.8788 79.618 72.8217 83.136 65.6574C86.6303 58.5035 87.9009 50.5415 86.7967 42.7176C85.6925 34.8936 82.2599 27.5369 76.9072 21.523C76.5851 21.1493 76.1784 20.8506 75.7179 20.6488C75.2573 20.4471 74.7548 20.3475 74.2483 20.3582Z" fill="url(#paint0_linear_1257_541)"/>
<path d="M92.2538 3.2002V12.8002C92.2538 18.1122 87.773 22.4002 82.2073 22.4002H62.1143C56.5552 22.4002 52.0678 18.1122 52.0678 12.8002V3.2002" fill="#66BBFE"/>
<path d="M70.3905 19.8075C69.5047 19.821 68.6605 20.1693 68.0429 20.7763C67.4253 21.3833 67.0845 22.1993 67.0953 23.0458V35.206C67.0953 40.582 62.6748 44.806 57.0488 44.806H3.46754C2.57938 44.806 1.72759 45.1426 1.09956 45.7427C0.471536 46.3428 0.118713 47.1573 0.118713 48.006V48.2294C0.13822 56.8067 2.94383 65.1668 8.14818 72.1552C13.3525 79.1436 20.6989 84.4161 29.1732 87.2443C29.592 87.3973 30.0386 87.4683 30.4868 87.4536C30.9349 87.4389 31.3754 87.3384 31.7823 87.1583C32.1891 86.9782 32.5541 86.7224 32.8556 86.4052C33.1571 86.088 33.389 85.7165 33.5376 85.3122C33.6862 84.908 33.7486 84.4789 33.7209 84.0513C33.6933 83.6236 33.5762 83.2061 33.3766 82.8224C33.1771 82.4387 32.899 82.097 32.559 81.8177C32.2189 81.5384 31.8237 81.3267 31.3968 81.1958C17.68 76.5942 8.56446 64.7676 7.312 51.206H57.0488C66.2648 51.206 73.7929 44.0188 73.7929 35.206V23.0458C73.7984 22.618 73.714 22.1935 73.5447 21.7974C73.3755 21.4013 73.1249 21.0415 72.8077 20.7396C72.4905 20.4377 72.1131 20.1997 71.6979 20.0396C71.2828 19.8794 70.8382 19.8007 70.3905 19.8075Z" fill="#126DB4"/>
<path d="M70.3905 19.8075C69.5047 19.821 68.6605 20.1693 68.0429 20.7763C67.4253 21.3833 67.0845 22.1993 67.0953 23.0458V35.206C67.0953 40.582 62.6748 44.806 57.0488 44.806H3.46754C2.57938 44.806 1.72759 45.1426 1.09956 45.7427C0.471536 46.3428 0.118713 47.1573 0.118713 48.006V48.2294C0.13822 56.8067 2.94383 65.1668 8.14818 72.1552C13.3525 79.1436 20.6989 84.4161 29.1732 87.2443C29.592 87.3973 30.0386 87.4683 30.4868 87.4536C30.9349 87.4389 31.3754 87.3384 31.7823 87.1583C32.1891 86.9782 32.5541 86.7224 32.8556 86.4052C33.1571 86.088 33.389 85.7165 33.5376 85.3122C33.6862 84.908 33.7486 84.4789 33.7209 84.0513C33.6933 83.6236 33.5762 83.2061 33.3766 82.8224C33.1771 82.4387 32.899 82.097 32.559 81.8177C32.2189 81.5384 31.8237 81.3267 31.3968 81.1958C17.68 76.5942 8.56446 64.7676 7.312 51.206H57.0488C66.2648 51.206 73.7929 44.0188 73.7929 35.206V23.0458C73.7984 22.618 73.714 22.1935 73.5447 21.7974C73.3755 21.4013 73.1249 21.0415 72.8077 20.7396C72.4905 20.4377 72.1131 20.1997 71.6979 20.0396C71.2828 19.8794 70.8382 19.8007 70.3905 19.8075Z" fill="url(#paint1_linear_1257_541)"/>
<path d="M52.4382 -0.0065918C51.55 -0.0065918 50.6982 0.330792 50.0702 0.930908C49.4422 1.53102 49.0894 2.34472 49.0894 3.19341C49.0894 4.0421 49.4422 4.85657 50.0702 5.45669C50.6982 6.05681 51.55 6.39341 52.4382 6.39341H65.8335C67.749 6.39341 69.1823 7.76941 69.1823 9.59341C69.1823 10.4421 69.5352 11.2566 70.1632 11.8567C70.7912 12.4568 71.643 12.7934 72.5312 12.7934C73.4193 12.7934 74.2711 12.4568 74.8991 11.8567C75.5272 11.2566 75.88 10.4421 75.88 9.59341C75.88 4.33261 71.339 -0.0065918 65.8335 -0.0065918H52.4382Z" fill="#66BBFE"/>
<path d="M79.2289 -0.0065918C73.7234 -0.0065918 69.1824 4.33261 69.1824 9.59341C69.1824 10.4421 69.5352 11.2566 70.1632 11.8567C70.7912 12.4568 71.643 12.7934 72.5312 12.7934C73.4194 12.7934 74.2711 12.4568 74.8992 11.8567C75.5272 11.2566 75.88 10.4421 75.88 9.59341C75.88 7.76941 77.3133 6.39341 79.2289 6.39341H92.6242C93.5123 6.39341 94.3641 6.05681 94.9921 5.45669C95.6202 4.85657 95.973 4.0421 95.973 3.19341C95.973 2.34472 95.6202 1.53102 94.9921 0.930908C94.3641 0.330792 93.5123 -0.0065918 92.6242 -0.0065918H79.2289Z" fill="#66BBFE"/>
<path d="M52.4116 -0.045484C51.5257 -0.0320009 50.6816 0.316301 50.064 0.923266C49.4463 1.53023 49.1056 2.34627 49.1163 3.1928V12.7928C49.1163 19.8328 55.1442 25.5928 62.5117 25.5928H73.0435H82.6046C89.972 25.5928 95.9999 19.8328 95.9999 12.7928V3.1928C95.9999 2.3441 95.6471 1.53041 95.0191 0.930297C94.3911 0.330181 93.5393 -0.00720276 92.6511 -0.00720276C91.7629 -0.00720276 90.9111 0.330181 90.2831 0.930297C89.6551 1.53041 89.3023 2.3441 89.3023 3.1928V12.7928C89.3023 16.396 86.3754 19.1928 82.6046 19.1928H62.5117C58.7409 19.1928 55.814 16.396 55.814 12.7928V3.1928C55.8194 2.765 55.735 2.34045 55.5658 1.94436C55.3966 1.54827 55.1459 1.18925 54.8287 0.887329C54.5115 0.585408 54.1342 0.346696 53.719 0.186547C53.3038 0.0263988 52.8592 -0.0523607 52.4116 -0.045484Z" fill="#66BBFE"/>
<path d="M43.7286 64.0002C42.8821 64.0137 42.0755 64.362 41.4853 64.969C40.8951 65.576 40.5695 66.392 40.5798 67.2385V88.3588C37.0086 86.9636 34.1798 84.1795 34.1798 80.0643V67.2643C34.1798 66.4156 33.8426 65.6019 33.2425 65.0018C32.6424 64.4017 31.8285 64.0643 30.9798 64.0643C30.1311 64.0643 29.3172 64.4017 28.717 65.0018C28.1169 65.6019 27.7798 66.4156 27.7798 67.2643V80.0643C28.717 88.7272 32.3478 91.7336 43.7798 96.0643C44.6263 96.0643 45.4383 95.7288 46.038 95.1315C46.6378 94.5341 46.9764 93.7233 46.9798 92.8768V67.2518C46.985 66.824 46.9043 66.3995 46.7426 66.0034C46.5809 65.6073 46.3414 65.2475 46.0383 64.9456C45.7352 64.6436 45.3746 64.4057 44.9779 64.2456C44.5812 64.0854 44.1564 64.0066 43.7286 64.0135V64.0002Z" fill="#66BBFE"/>
<g clip-path="url(#clip1_1257_541)">
<rect x="14.6087" y="57.6001" width="6.26087" height="6.4" rx="3.13043" fill="#126DB4"/>
<path d="M20.8696 60.8001C20.8696 59.0342 19.4667 57.6001 17.7391 57.6001C17.7275 57.6001 17.7275 57.6001 17.7159 57.6001C16 57.6119 14.6087 59.046 14.6087 60.8001C14.6087 62.566 16.0116 64.0001 17.7391 64.0001H17.7507C19.4783 63.9882 20.8696 62.5542 20.8696 60.8001ZM14.8406 60.9186H15.7681C15.7797 61.3808 15.8841 61.8312 16.0464 62.246C15.8493 62.3764 15.6638 62.5186 15.4899 62.6845C15.1073 62.1986 14.8638 61.5823 14.8406 60.9186ZM15.4899 58.9275C15.6638 59.0934 15.8493 59.2357 16.0464 59.366C15.8841 59.769 15.7913 60.2194 15.7681 60.6816H14.8406C14.8638 60.0179 15.1073 59.4134 15.4899 58.9275ZM20.6377 60.6816H19.7102C19.6986 60.2194 19.5942 59.769 19.4319 59.3542C19.629 59.2238 19.8145 59.0816 19.9884 58.9157C20.371 59.4016 20.6145 60.0179 20.6377 60.6816ZM19.4783 60.6816H17.8551V59.8519C18.342 59.8282 18.8058 59.7097 19.2232 59.4845C19.3739 59.8519 19.4551 60.2549 19.4783 60.6816ZM17.8551 59.6149V57.9082C18.4 58.2045 18.8406 58.6786 19.1304 59.2594C18.7362 59.4727 18.3073 59.5912 17.8551 59.6149ZM17.6232 59.6149C17.171 59.6031 16.742 59.4845 16.3478 59.2712C16.6261 58.6905 17.0667 58.2045 17.6232 57.9082V59.6149ZM17.6232 59.8519V60.6816H16C16.0116 60.2549 16.1044 59.8519 16.2435 59.4845C16.6725 59.7097 17.1362 59.8282 17.6232 59.8519ZM16 60.9186H17.6232V61.7482C17.1362 61.7719 16.6725 61.8905 16.2551 62.1157C16.1044 61.7482 16.0232 61.3453 16 60.9186ZM17.6232 61.9853V63.6919C17.0783 63.3957 16.6377 62.9216 16.3478 62.3408C16.742 62.1275 17.171 62.009 17.6232 61.9853ZM17.8551 61.9853C18.3073 61.9971 18.7362 62.1275 19.1304 62.329C18.8522 62.9097 18.4116 63.3957 17.8551 63.6919V61.9853ZM17.8551 61.7482V60.9186H19.4783C19.4667 61.3453 19.3739 61.7482 19.2348 62.1157C18.8058 61.8905 18.342 61.7719 17.8551 61.7482ZM19.7102 60.9186H20.6377C20.6145 61.5823 20.371 62.1986 19.9768 62.6727C19.8029 62.5068 19.6174 62.3527 19.4203 62.2342C19.5942 61.8312 19.687 61.3808 19.7102 60.9186ZM19.8145 58.7379C19.6638 58.8919 19.4899 59.0223 19.3159 59.1408C19.0609 58.6312 18.7015 58.2045 18.2493 57.8845C18.8638 58.0031 19.4087 58.3112 19.8145 58.7379ZM17.1942 57.8845C16.7536 58.2045 16.3942 58.6312 16.1391 59.1408C15.9652 59.0223 15.7913 58.8919 15.6406 58.7379C16.058 58.3112 16.5913 58.0031 17.1942 57.8845ZM15.6638 62.8623C15.8145 62.7082 15.9768 62.5779 16.1623 62.4594C16.4174 62.969 16.7768 63.3957 17.229 63.7157C16.6145 63.5971 16.0696 63.289 15.6638 62.8623ZM18.2841 63.7157C18.7246 63.3957 19.0841 62.969 19.3391 62.4594C19.5131 62.5779 19.6754 62.7082 19.8377 62.8623C19.4203 63.289 18.8754 63.5971 18.2841 63.7157Z" fill="#66BBFE"/>
</g>
</g>
<defs>
<linearGradient id="paint0_linear_1257_541" x1="64.3405" y1="20.3574" x2="64.3405" y2="89.6002" gradientUnits="userSpaceOnUse">
<stop stop-color="#66BBFE"/>
<stop offset="1" stop-color="#126DB4"/>
</linearGradient>
<linearGradient id="paint1_linear_1257_541" x1="36.956" y1="19.8071" x2="36.956" y2="87.4555" gradientUnits="userSpaceOnUse">
<stop stop-color="#66BBFE"/>
<stop offset="1" stop-color="#126DB4"/>
</linearGradient>
<clipPath id="clip0_1257_541">
<rect width="96" height="96" fill="white"/>
</clipPath>
<clipPath id="clip1_1257_541">
<rect x="14.6087" y="57.6001" width="6.26087" height="6.4" rx="3.13043" fill="white"/>
</clipPath>
</defs>
</svg>
