<svg width="96" height="96" viewBox="0 0 96 96" fill="none" xmlns="http://www.w3.org/2000/svg">
<rect width="96" height="96" rx="24" fill="url(#paint0_linear_1130_406)"/>
<path d="M53.264 62.494C53.264 63.0367 53.2887 63.604 53.338 64.196C53.3873 64.7387 53.5107 65.2567 53.708 65.75C53.9547 66.194 54.2753 66.564 54.67 66.86C55.114 67.156 55.706 67.304 56.446 67.304C57.334 67.304 58.1233 67.008 58.814 66.416C58.962 66.8107 59.0607 67.1807 59.11 67.526C59.2087 67.822 59.258 68.1673 59.258 68.562C59.258 69.3513 59.11 70.1407 58.814 70.93C58.5673 71.67 58.148 72.336 57.556 72.928C56.964 73.52 56.1993 74.0133 55.262 74.408C54.374 74.7533 53.264 74.926 51.932 74.926C48.972 74.926 46.678 74.038 45.05 72.262C43.422 70.486 42.608 68.044 42.608 64.936V30.156C42.608 28.38 42.8793 26.9247 43.422 25.79C43.9647 24.6553 44.68 23.7673 45.568 23.126C46.456 22.4353 47.4673 21.9667 48.602 21.72C49.786 21.424 50.97 21.276 52.154 21.276H53.338L53.264 62.494ZM33.95 74.926C30.99 74.926 28.696 74.038 27.068 72.262C25.4893 70.486 24.7 68.044 24.7 64.936V30.156C24.7 28.38 24.9713 26.9247 25.514 25.79C26.0567 24.6553 26.772 23.7673 27.66 23.126C28.548 22.4353 29.5593 21.9667 30.694 21.72C31.8287 21.424 32.988 21.276 34.172 21.276H35.356V62.494C35.356 63.0367 35.3807 63.604 35.43 64.196C35.5287 64.7387 35.6767 65.2567 35.874 65.75C36.1207 66.194 36.4413 66.564 36.836 66.86C37.28 67.156 37.872 67.304 38.612 67.304C39.5 67.304 40.2893 67.008 40.98 66.416C41.128 66.8107 41.2267 67.1807 41.276 67.526C41.3747 67.822 41.424 68.1673 41.424 68.562C41.424 69.302 41.276 70.0667 40.98 70.856C40.7333 71.596 40.314 72.2867 39.722 72.928C39.13 73.52 38.3407 74.0133 37.354 74.408C36.4167 74.7533 35.282 74.926 33.95 74.926ZM71.098 54.798C71.098 57.166 70.8267 59.1393 70.284 60.718C69.7413 62.2967 69.0013 63.5547 68.064 64.492C67.1267 65.38 66.0413 66.0213 64.808 66.416C63.5747 66.8107 62.2673 67.008 60.886 67.008H60.442V30.156C60.442 28.38 60.7133 26.9247 61.256 25.79C61.7987 24.6553 62.514 23.7673 63.402 23.126C64.29 22.4353 65.3013 21.9667 66.436 21.72C67.5707 21.424 68.73 21.276 69.914 21.276H71.098V54.798Z" fill="white"/>
<defs>
<linearGradient id="paint0_linear_1130_406" x1="48" y1="0" x2="48" y2="96" gradientUnits="userSpaceOnUse">
<stop stop-color="#106CFF"/>
<stop offset="1" stop-color="#003EA0"/>
</linearGradient>
</defs>
</svg>
