<svg width="96" height="96" viewBox="0 0 96 96" fill="none" xmlns="http://www.w3.org/2000/svg">
<g clip-path="url(#clip0_1206_1091)">
<path d="M3.19736 70.4124C-0.265936 69.2863 -0.00436954 65.5545 3.59807 64.6954L46.0413 54.5741C47.6736 54.1848 49.4274 54.1872 51.0559 54.5809L91.782 64.4255C95.337 65.2848 95.6103 68.9612 92.2052 70.118L51.5566 83.9278C49.4425 84.646 47.021 84.6613 44.8942 83.9698L3.19736 70.4124Z" fill="url(#paint0_linear_1206_1091)"/>
<path d="M3.19736 51.6787C-0.265936 50.5526 -0.00436954 46.8209 3.59807 45.9618L46.0413 35.8404C47.6736 35.4512 49.4274 35.4536 51.0559 35.8472L91.782 45.6919C95.337 46.5512 95.6103 50.2276 92.2052 51.3844L51.5566 65.1941C49.4425 65.9124 47.021 65.9277 44.8942 65.2361L3.19736 51.6787Z" fill="url(#paint1_linear_1206_1091)"/>
<path d="M3.19736 32.9451C-0.265936 31.819 -0.00436954 28.0872 3.59807 27.2282L46.0413 17.1068C47.6736 16.7176 49.4274 16.7199 51.0559 17.1136L91.782 26.9582C95.337 27.8175 95.6103 31.4939 92.2052 32.6507L51.5566 46.4605C49.4425 47.1787 47.021 47.194 44.8942 46.5025L3.19736 32.9451Z" fill="url(#paint2_linear_1206_1091)"/>
</g>
<defs>
<linearGradient id="paint0_linear_1206_1091" x1="11.3108" y1="65.6685" x2="86.7963" y2="69.952" gradientUnits="userSpaceOnUse">
<stop stop-color="#0088EE"/>
<stop offset="1" stop-color="#1640D6"/>
</linearGradient>
<linearGradient id="paint1_linear_1206_1091" x1="11.3108" y1="46.9349" x2="86.7963" y2="51.2184" gradientUnits="userSpaceOnUse">
<stop stop-color="#22CC22"/>
<stop offset="1" stop-color="#37AB00"/>
</linearGradient>
<linearGradient id="paint2_linear_1206_1091" x1="11.3108" y1="28.2012" x2="86.7963" y2="32.4847" gradientUnits="userSpaceOnUse">
<stop stop-color="#FFCC00"/>
<stop offset="1" stop-color="#F3A000"/>
</linearGradient>
<clipPath id="clip0_1206_1091">
<rect width="96" height="96" fill="white"/>
</clipPath>
</defs>
</svg>
