<svg width="64" height="64" viewBox="0 0 64 64" fill="none" xmlns="http://www.w3.org/2000/svg">
<rect width="64" height="64" rx="12" fill="url(#paint0_linear_1130_408)"/>
<path d="M35.544 42.874C35.544 43.27 35.562 43.684 35.598 44.116C35.634 44.512 35.724 44.89 35.868 45.25C36.048 45.574 36.282 45.844 36.57 46.06C36.894 46.276 37.326 46.384 37.866 46.384C38.514 46.384 39.09 46.168 39.594 45.736C39.702 46.024 39.774 46.294 39.81 46.546C39.882 46.762 39.918 47.014 39.918 47.302C39.918 47.878 39.81 48.454 39.594 49.03C39.414 49.57 39.108 50.056 38.676 50.488C38.244 50.92 37.686 51.28 37.002 51.568C36.354 51.82 35.544 51.946 34.572 51.946C32.412 51.946 30.738 51.298 29.55 50.002C28.362 48.706 27.768 46.924 27.768 44.656V19.276C27.768 17.98 27.966 16.918 28.362 16.09C28.758 15.262 29.28 14.614 29.928 14.146C30.576 13.642 31.314 13.3 32.142 13.12C33.006 12.904 33.87 12.796 34.734 12.796H35.598L35.544 42.874ZM21.45 51.946C19.29 51.946 17.616 51.298 16.428 50.002C15.276 48.706 14.7 46.924 14.7 44.656V19.276C14.7 17.98 14.898 16.918 15.294 16.09C15.69 15.262 16.212 14.614 16.86 14.146C17.508 13.642 18.246 13.3 19.074 13.12C19.902 12.904 20.748 12.796 21.612 12.796H22.476V42.874C22.476 43.27 22.494 43.684 22.53 44.116C22.602 44.512 22.71 44.89 22.854 45.25C23.034 45.574 23.268 45.844 23.556 46.06C23.88 46.276 24.312 46.384 24.852 46.384C25.5 46.384 26.076 46.168 26.58 45.736C26.688 46.024 26.76 46.294 26.796 46.546C26.868 46.762 26.904 47.014 26.904 47.302C26.904 47.842 26.796 48.4 26.58 48.976C26.4 49.516 26.094 50.02 25.662 50.488C25.23 50.92 24.654 51.28 23.934 51.568C23.25 51.82 22.422 51.946 21.45 51.946ZM48.558 37.258C48.558 38.986 48.36 40.426 47.964 41.578C47.568 42.73 47.028 43.648 46.344 44.332C45.66 44.98 44.868 45.448 43.968 45.736C43.068 46.024 42.114 46.168 41.106 46.168H40.782V19.276C40.782 17.98 40.98 16.918 41.376 16.09C41.772 15.262 42.294 14.614 42.942 14.146C43.59 13.642 44.328 13.3 45.156 13.12C45.984 12.904 46.83 12.796 47.694 12.796H48.558V37.258Z" fill="white"/>
<defs>
<linearGradient id="paint0_linear_1130_408" x1="32" y1="0" x2="32" y2="64" gradientUnits="userSpaceOnUse">
<stop stop-color="#106CFF"/>
<stop offset="1" stop-color="#003EA0"/>
</linearGradient>
</defs>
</svg>
