<svg width="28" height="28" viewBox="0 0 28 28" fill="none" xmlns="http://www.w3.org/2000/svg">
<g clip-path="url(#clip0_1257_586)">
<path d="M21.6871 6.88068C23.1282 8.49812 24.0523 10.4773 24.3495 12.5825C24.6466 14.6876 24.3043 16.8301 23.3632 18.7545C22.4156 20.6833 20.9123 22.3139 19.0294 23.4551C17.1465 24.5964 14.9621 25.2011 12.7323 25.1983L8.83316 24.5655C6.55159 23.806 4.57337 22.3878 3.17211 20.5071C1.77086 18.6263 1.01581 16.376 1.01141 14.0673V14.0039H16.6393C18.8037 14.0039 20.5462 12.3388 20.5462 10.2705V6.72388" fill="#66BBFE"/>
<path d="M2.5976 19.5999C3.9865 21.9146 6.19832 23.6764 8.83116 24.5652L12.7303 25.1999C16.9498 25.1999 20.7943 23.0327 22.8728 19.5999H2.59564H2.5976Z" fill="#F3F5F7"/>
<path d="M12.112 19.5999V27.0721C9.94563 27.0721 8.20508 25.4071 8.20508 23.3388V19.6055" fill="#66BBFE"/>
<path d="M21.6557 5.93773C21.4704 5.94207 21.2902 5.99685 21.1362 6.09541C20.9822 6.19397 20.8607 6.33232 20.7859 6.4944C20.7111 6.65648 20.6862 6.83561 20.7139 7.01074C20.7417 7.18587 20.8211 7.34969 20.9427 7.48333C22.2638 8.9641 23.1111 10.7768 23.3837 12.7051C23.6563 14.6334 23.3427 16.596 22.4801 18.3586C21.6116 20.1272 20.2331 21.6223 18.5064 22.6685C16.7798 23.7146 15.1246 24.2702 13.0802 24.2666C12.8211 24.2666 12.5727 24.365 12.3895 24.5401C12.2063 24.7151 12.1034 24.9524 12.1034 25.2C12.1034 25.4475 12.2063 25.685 12.3895 25.8601C12.5727 26.0351 12.8211 26.1333 13.0802 26.1333C15.4957 26.1364 17.5142 25.4793 19.5538 24.2428C21.5935 23.0062 23.2219 21.2396 24.248 19.15C25.2672 17.0634 25.6378 14.7412 25.3157 12.4592C24.9936 10.1772 23.9925 8.03151 22.4313 6.27747C22.3373 6.16847 22.2187 6.08134 22.0844 6.02249C21.95 5.96365 21.8035 5.93461 21.6557 5.93773Z" fill="url(#paint0_linear_1257_586)"/>
<path d="M26.9074 0.93335V3.73335C26.9074 5.28268 25.6005 6.53335 23.9771 6.53335H18.1167C16.4953 6.53335 15.1865 5.28268 15.1865 3.73335V0.93335" fill="#66BBFE"/>
<path d="M20.5306 5.77722C20.2722 5.78115 20.026 5.88274 19.8458 6.05977C19.6657 6.2368 19.5663 6.47482 19.5694 6.72172V10.2684C19.5694 11.8364 18.2801 13.0684 16.6392 13.0684H1.01135C0.752301 13.0684 0.503863 13.1666 0.320688 13.3416C0.137513 13.5167 0.0346069 13.7542 0.0346069 14.0018V14.0669C0.0402965 16.5686 0.858598 19.007 2.37653 21.0453C3.89447 23.0836 6.03717 24.6214 8.50882 25.4463C8.63097 25.4909 8.76125 25.5116 8.89196 25.5073C9.02266 25.503 9.15115 25.4737 9.26981 25.4212C9.38848 25.3687 9.49493 25.294 9.58286 25.2015C9.6708 25.109 9.73844 25.0007 9.78179 24.8828C9.82513 24.7648 9.84331 24.6397 9.83525 24.515C9.82719 24.3902 9.79304 24.2685 9.73483 24.1566C9.67662 24.0446 9.59553 23.945 9.49635 23.8635C9.39717 23.7821 9.28191 23.7203 9.15737 23.6821C5.15664 22.34 2.49795 18.8906 2.13265 14.9351H16.6392C19.3272 14.9351 21.5229 12.8388 21.5229 10.2684V6.72172C21.5245 6.59695 21.4999 6.47312 21.4505 6.35759C21.4012 6.24207 21.3281 6.13712 21.2356 6.04906C21.143 5.961 21.033 5.89161 20.9119 5.8449C20.7908 5.79819 20.6611 5.77521 20.5306 5.77722Z" fill="#126DB4"/>
<path d="M20.5306 5.77722C20.2722 5.78115 20.026 5.88274 19.8458 6.05977C19.6657 6.2368 19.5663 6.47482 19.5694 6.72172V10.2684C19.5694 11.8364 18.2801 13.0684 16.6392 13.0684H1.01135C0.752301 13.0684 0.503863 13.1666 0.320688 13.3416C0.137513 13.5167 0.0346069 13.7542 0.0346069 14.0018V14.0669C0.0402965 16.5686 0.858598 19.007 2.37653 21.0453C3.89447 23.0836 6.03717 24.6214 8.50882 25.4463C8.63097 25.4909 8.76125 25.5116 8.89196 25.5073C9.02266 25.503 9.15115 25.4737 9.26981 25.4212C9.38848 25.3687 9.49493 25.294 9.58286 25.2015C9.6708 25.109 9.73844 25.0007 9.78179 24.8828C9.82513 24.7648 9.84331 24.6397 9.83525 24.515C9.82719 24.3902 9.79304 24.2685 9.73483 24.1566C9.67662 24.0446 9.59553 23.945 9.49635 23.8635C9.39717 23.7821 9.28191 23.7203 9.15737 23.6821C5.15664 22.34 2.49795 18.8906 2.13265 14.9351H16.6392C19.3272 14.9351 21.5229 12.8388 21.5229 10.2684V6.72172C21.5245 6.59695 21.4999 6.47312 21.4505 6.35759C21.4012 6.24207 21.3281 6.13712 21.2356 6.04906C21.143 5.961 21.033 5.89161 20.9119 5.8449C20.7908 5.79819 20.6611 5.77521 20.5306 5.77722Z" fill="url(#paint1_linear_1257_586)"/>
<path d="M15.2945 -0.00195312C15.0354 -0.00195312 14.787 0.0964504 14.6038 0.271484C14.4207 0.446518 14.3177 0.683845 14.3177 0.93138C14.3177 1.17892 14.4207 1.41647 14.6038 1.5915C14.787 1.76654 15.0354 1.86471 15.2945 1.86471H19.2015C19.7602 1.86471 20.1782 2.26605 20.1782 2.79805C20.1782 3.04558 20.2811 3.28314 20.4643 3.45817C20.6475 3.6332 20.8959 3.73138 21.1549 3.73138C21.414 3.73138 21.6624 3.6332 21.8456 3.45817C22.0288 3.28314 22.1317 3.04558 22.1317 2.79805C22.1317 1.26365 20.8072 -0.00195312 19.2015 -0.00195312H15.2945Z" fill="#66BBFE"/>
<path d="M23.1084 -0.00195312C21.5027 -0.00195312 20.1782 1.26365 20.1782 2.79805C20.1782 3.04558 20.2811 3.28314 20.4643 3.45817C20.6475 3.6332 20.8959 3.73138 21.155 3.73138C21.414 3.73138 21.6624 3.6332 21.8456 3.45817C22.0288 3.28314 22.1317 3.04558 22.1317 2.79805C22.1317 2.26605 22.5498 1.86471 23.1084 1.86471H27.0154C27.2745 1.86471 27.5229 1.76654 27.7061 1.5915C27.8892 1.41647 27.9922 1.17892 27.9922 0.93138C27.9922 0.683845 27.8892 0.446518 27.7061 0.271484C27.5229 0.0964504 27.2745 -0.00195312 27.0154 -0.00195312H23.1084Z" fill="#66BBFE"/>
<path d="M15.2867 -0.0133069C15.0283 -0.00937428 14.7821 0.0922139 14.602 0.269245C14.4218 0.446277 14.3224 0.684289 14.3256 0.931192V3.73119C14.3256 5.78453 16.0837 7.46453 18.2325 7.46453H21.3043H24.093C26.2418 7.46453 28 5.78453 28 3.73119V0.931192C28 0.683656 27.897 0.44633 27.7139 0.271296C27.5307 0.0962621 27.2823 -0.00214149 27.0232 -0.00214149C26.7642 -0.00214149 26.5157 0.0962621 26.3326 0.271296C26.1494 0.44633 26.0465 0.683656 26.0465 0.931192V3.73119C26.0465 4.78213 25.1928 5.59786 24.093 5.59786H18.2325C17.1327 5.59786 16.2791 4.78213 16.2791 3.73119V0.931192C16.2806 0.806419 16.256 0.682589 16.2067 0.567064C16.1573 0.451539 16.0842 0.346824 15.9917 0.258763C15.8992 0.170703 15.7891 0.101079 15.668 0.0543689C15.5469 0.00765895 15.4173 -0.0153126 15.2867 -0.0133069Z" fill="#66BBFE"/>
<path d="M12.7542 18.6667C12.5073 18.6707 12.272 18.7723 12.0999 18.9493C11.9277 19.1263 11.8328 19.3643 11.8358 19.6112V25.7713C10.7942 25.3644 9.96908 24.5524 9.96908 23.3521V19.6188C9.96908 19.3712 9.87075 19.1339 9.69572 18.9589C9.52068 18.7838 9.28329 18.6854 9.03575 18.6854C8.78822 18.6854 8.55082 18.7838 8.37578 18.9589C8.20075 19.1339 8.10242 19.3712 8.10242 19.6188V23.3521C8.37578 25.8788 9.43476 26.7556 12.7691 28.0188C13.016 28.0188 13.2528 27.9209 13.4277 27.7467C13.6027 27.5725 13.7014 27.336 13.7024 27.0891V19.6151C13.7039 19.4903 13.6804 19.3665 13.6332 19.251C13.5861 19.1355 13.5162 19.0305 13.4278 18.9425C13.3394 18.8544 13.2342 18.785 13.1185 18.7383C13.0028 18.6916 12.8789 18.6686 12.7542 18.6706V18.6667Z" fill="#66BBFE"/>
<g clip-path="url(#clip1_1257_586)">
<rect x="4.26086" y="16.8" width="1.82609" height="1.86667" rx="0.913043" fill="#126DB4"/>
<path d="M6.08695 17.7334C6.08695 17.2183 5.67777 16.8 5.17391 16.8C5.17053 16.8 5.17053 16.8 5.16714 16.8C4.66666 16.8035 4.26086 17.2218 4.26086 17.7334C4.26086 18.2484 4.67004 18.6667 5.17391 18.6667H5.17729C5.68115 18.6633 6.08695 18.245 6.08695 17.7334ZM4.3285 17.768H4.59903C4.60241 17.9028 4.63284 18.0341 4.68019 18.1551C4.6227 18.1931 4.56859 18.2346 4.51787 18.283C4.40627 18.1413 4.33526 17.9615 4.3285 17.768ZM4.51787 17.1872C4.56859 17.2356 4.6227 17.2771 4.68019 17.3151C4.63284 17.4326 4.60579 17.564 4.59903 17.6988H4.3285C4.33526 17.5052 4.40627 17.3289 4.51787 17.1872ZM6.01932 17.6988H5.74879C5.74541 17.564 5.71497 17.4326 5.66763 17.3117C5.72512 17.2736 5.77922 17.2321 5.82995 17.1838C5.94154 17.3255 6.01256 17.5052 6.01932 17.6988ZM5.68115 17.6988H5.20772V17.4568C5.34975 17.4499 5.48502 17.4154 5.60676 17.3497C5.65072 17.4568 5.67439 17.5744 5.68115 17.6988ZM5.20772 17.3877V16.8899C5.36666 16.9763 5.49516 17.1146 5.5797 17.284C5.46473 17.3462 5.33961 17.3808 5.20772 17.3877ZM5.14009 17.3877C5.00821 17.3842 4.88309 17.3497 4.76811 17.2875C4.84927 17.1181 4.97777 16.9763 5.14009 16.8899V17.3877ZM5.14009 17.4568V17.6988H4.66666C4.67004 17.5744 4.6971 17.4568 4.73768 17.3497C4.8628 17.4154 4.99806 17.4499 5.14009 17.4568ZM4.66666 17.768H5.14009V18.0099C4.99806 18.0168 4.8628 18.0514 4.74106 18.1171C4.6971 18.0099 4.67342 17.8924 4.66666 17.768ZM5.14009 18.0791V18.5768C4.98115 18.4904 4.85265 18.3521 4.76811 18.1828C4.88309 18.1205 5.00821 18.086 5.14009 18.0791ZM5.20772 18.0791C5.33961 18.0825 5.46473 18.1205 5.5797 18.1793C5.49855 18.3487 5.37004 18.4904 5.20772 18.5768V18.0791ZM5.20772 18.0099V17.768H5.68115C5.67777 17.8924 5.65072 18.0099 5.61014 18.1171C5.48502 18.0514 5.34975 18.0168 5.20772 18.0099ZM5.74879 17.768H6.01932C6.01256 17.9615 5.94154 18.1413 5.82656 18.2796C5.77584 18.2312 5.72173 18.1862 5.66425 18.1517C5.71497 18.0341 5.74202 17.9028 5.74879 17.768ZM5.77922 17.1319C5.73526 17.1768 5.68454 17.2149 5.63381 17.2494C5.55942 17.1008 5.45458 16.9763 5.3227 16.883C5.50193 16.9176 5.66086 17.0075 5.77922 17.1319ZM5.01497 16.883C4.88647 16.9763 4.78164 17.1008 4.70724 17.2494C4.65652 17.2149 4.60579 17.1768 4.56183 17.1319C4.68357 17.0075 4.83913 16.9176 5.01497 16.883ZM4.56859 18.3349C4.61256 18.2899 4.6599 18.2519 4.714 18.2173C4.7884 18.366 4.89323 18.4904 5.02512 18.5838C4.84589 18.5492 4.68695 18.4593 4.56859 18.3349ZM5.33284 18.5838C5.46135 18.4904 5.56618 18.366 5.64057 18.2173C5.6913 18.2519 5.73864 18.2899 5.78599 18.3349C5.66425 18.4593 5.50531 18.5492 5.33284 18.5838Z" fill="#66BBFE"/>
</g>
</g>
<defs>
<linearGradient id="paint0_linear_1257_586" x1="18.766" y1="5.9375" x2="18.766" y2="26.1333" gradientUnits="userSpaceOnUse">
<stop stop-color="#66BBFE"/>
<stop offset="1" stop-color="#126DB4"/>
</linearGradient>
<linearGradient id="paint1_linear_1257_586" x1="10.7788" y1="5.7771" x2="10.7788" y2="25.5079" gradientUnits="userSpaceOnUse">
<stop stop-color="#66BBFE"/>
<stop offset="1" stop-color="#126DB4"/>
</linearGradient>
<clipPath id="clip0_1257_586">
<rect width="28" height="28" fill="white"/>
</clipPath>
<clipPath id="clip1_1257_586">
<rect x="4.26086" y="16.8" width="1.82609" height="1.86667" rx="0.913043" fill="white"/>
</clipPath>
</defs>
</svg>
